<?xml version="1.0" encoding="UTF-8" ?>
<!DOCTYPE svg PUBLIC "-//W3C//DTD SVG 1.1//EN" "http://www.w3.org/Graphics/SVG/1.1/DTD/svg11.dtd">
<svg width="886pt" height="532pt" viewBox="0 0 886 532" version="1.1" xmlns="http://www.w3.org/2000/svg">
<g id="#ffffffff">
<path fill="#ffffff" opacity="1.00" d=" M 155.55 249.41 C 159.81 248.97 164.03 251.58 165.77 255.46 C 167.68 258.17 165.60 261.22 164.31 263.68 C 162.57 259.79 160.93 255.87 159.02 252.06 C 156.40 257.00 154.33 262.20 152.02 267.28 C 150.90 266.66 149.78 266.05 148.66 265.45 C 147.51 262.02 147.31 258.40 147.32 254.82 C 149.69 252.56 152.19 250.01 155.55 249.41 Z" />
<path fill="#ffffff" opacity="1.00" d=" M 198.16 266.99 C 206.27 268.58 214.35 270.30 222.49 271.71 C 222.99 273.19 223.63 274.63 224.23 276.08 L 224.71 277.80 C 216.92 275.71 209.58 272.13 201.65 270.53 C 200.48 269.36 199.30 268.20 198.16 266.99 Z" />
<path fill="#ffffff" opacity="1.00" d=" M 204.95 273.98 C 212.12 275.84 219.09 278.43 226.27 280.28 C 227.75 283.22 229.33 286.11 230.95 288.98 C 224.31 285.94 217.75 282.70 210.96 280.02 C 208.87 278.09 206.88 276.06 204.95 273.98 Z" />
<path fill="#ffffff" opacity="1.00" d=" M 176.80 277.15 C 178.86 278.87 180.92 280.58 182.86 282.43 C 182.86 282.87 182.85 283.76 182.85 284.20 C 180.80 281.88 178.77 279.54 176.80 277.15 Z" />
<path fill="#ffffff" opacity="1.00" d=" M 172.10 280.76 C 175.49 285.49 178.80 290.29 182.65 294.65 C 185.16 301.47 188.56 307.91 191.38 314.60 C 185.62 306.57 182.12 297.12 176.15 289.24 C 174.69 286.46 173.39 283.61 172.10 280.76 Z" />
<path fill="#ffffff" opacity="1.00" d=" M 175.86 280.91 C 178.18 283.23 180.52 285.52 182.88 287.80 C 182.92 288.88 182.93 289.96 182.91 291.04 C 180.57 287.66 178.06 284.39 175.86 280.91 Z" />
<path fill="#ffffff" opacity="1.00" d=" M 157.84 297.96 C 158.13 297.11 158.60 296.37 159.26 295.75 C 159.47 296.33 159.88 297.50 160.09 298.09 L 160.07 298.23 C 159.31 303.26 160.73 308.25 161.16 313.25 C 162.51 323.51 163.19 333.87 164.97 344.07 C 162.36 344.25 159.74 344.22 157.13 344.21 C 157.18 328.79 157.48 313.37 157.84 297.96 Z" />
<path fill="#ffffff" opacity="1.00" d=" M 162.28 302.56 L 162.19 302.12 C 164.04 306.70 166.53 311.01 168.09 315.70 C 169.70 325.24 171.95 334.68 174.25 344.08 C 171.57 344.24 168.88 344.17 166.20 344.33 C 165.14 330.39 163.98 316.42 162.28 302.56 Z" />
<path fill="#ffffff" opacity="1.00" d=" M 155.19 303.94 C 154.92 317.36 155.49 330.79 155.76 344.21 C 153.15 344.21 150.53 344.20 147.92 344.20 C 149.16 333.91 150.82 323.63 151.24 313.26 C 151.97 309.96 153.83 307.02 155.19 303.94 Z" />
<path fill="#ffffff" opacity="1.00" d=" M 138.18 342.19 C 141.27 333.88 145.20 325.90 148.92 317.85 C 148.05 326.63 147.06 335.39 146.53 344.20 C 143.38 344.24 140.22 344.24 137.08 344.04 C 137.35 343.58 137.91 342.66 138.18 342.19 Z" />
<path fill="#ffffff" opacity="1.00" d=" M 171.88 323.77 C 175.16 330.50 178.11 337.39 181.25 344.18 C 179.36 344.19 177.48 344.20 175.60 344.30 C 174.59 337.41 172.78 330.68 171.88 323.77 Z" />
</g>
<g id="#fad585ff">
<path fill="#fad585" opacity="1.00" d=" M 154.54 227.03 C 155.61 196.71 155.28 166.34 156.52 136.03 C 157.30 159.04 157.03 182.06 157.59 205.07 C 157.50 213.66 158.53 222.30 157.33 230.85 C 161.34 201.64 164.08 172.26 168.08 143.04 C 168.31 141.03 168.40 139.01 168.52 137.00 C 169.01 142.72 168.02 148.40 167.64 154.10 C 165.79 177.45 163.38 200.76 161.29 224.08 C 161.26 225.08 161.26 226.08 161.28 227.08 C 167.20 199.91 173.22 172.74 179.79 145.72 C 179.79 148.80 179.25 151.84 178.58 154.84 C 173.92 179.31 168.61 203.67 164.20 228.18 C 173.11 200.99 182.43 173.94 191.76 146.89 C 191.58 148.33 191.42 149.77 191.05 151.17 C 183.36 177.20 174.83 202.99 167.13 229.02 C 178.92 203.23 190.65 177.41 202.85 151.82 C 202.59 153.17 202.30 154.53 201.78 155.81 C 190.99 181.17 180.03 206.45 169.19 231.79 C 181.15 210.99 193.66 190.51 205.81 169.81 C 206.73 168.17 207.95 166.71 209.35 165.45 C 207.74 169.58 205.23 173.27 203.15 177.18 C 192.85 195.74 182.28 214.15 172.12 232.79 C 186.73 212.55 201.82 192.67 216.77 172.67 C 218.76 170.06 220.65 167.34 223.03 165.05 C 222.42 166.13 221.80 167.21 221.14 168.26 C 205.93 190.21 190.29 211.86 175.09 233.81 C 191.45 215.97 207.84 198.15 224.35 180.45 C 225.83 178.70 227.42 177.01 229.37 175.78 C 221.76 185.88 212.84 194.92 204.73 204.63 C 195.48 215.04 186.32 225.52 177.13 235.98 C 199.39 216.66 221.26 196.86 243.84 177.93 C 232.87 189.28 220.82 199.51 209.41 210.41 C 198.60 220.12 188.19 230.28 177.25 239.86 C 201.68 222.36 226.06 204.79 250.95 187.96 C 238.32 198.44 224.79 207.81 211.77 217.83 C 201.58 225.59 191.06 232.93 181.05 240.91 C 203.47 227.95 226.19 215.50 248.77 202.82 C 250.18 202.02 251.68 201.40 253.21 200.87 C 251.32 202.49 249.17 203.75 247.04 205.02 C 225.45 218.02 203.67 230.71 182.10 243.75 C 200.06 235.71 218.26 228.21 236.28 220.30 C 245.53 216.60 254.49 212.08 264.03 209.10 C 236.76 221.84 209.48 234.55 182.03 246.87 C 204.81 239.69 227.59 232.55 250.42 225.54 C 255.65 224.07 260.77 222.13 266.13 221.14 C 246.53 228.60 226.46 234.76 206.69 241.74 C 198.45 244.30 190.42 247.49 182.11 249.78 C 187.79 248.80 193.37 247.33 199.03 246.23 C 220.35 242.37 241.48 237.53 262.82 233.74 C 264.55 233.45 266.32 233.32 268.08 233.22 C 244.77 239.03 221.22 243.87 197.83 249.36 C 193.09 250.31 188.41 251.70 183.56 252.02 C 182.46 262.09 183.65 272.31 182.86 282.43 C 180.92 280.58 178.86 278.87 176.80 277.15 C 178.77 279.54 180.80 281.88 182.85 284.20 C 182.86 285.10 182.87 286.90 182.88 287.80 C 180.52 285.52 178.18 283.23 175.86 280.91 C 178.06 284.39 180.57 287.66 182.91 291.04 C 182.85 291.95 182.72 293.75 182.65 294.65 C 178.80 290.29 175.49 285.49 172.10 280.76 C 169.49 275.07 166.82 269.41 164.31 263.68 C 165.60 261.22 167.68 258.17 165.77 255.46 C 164.03 251.58 159.81 248.97 155.55 249.41 C 152.19 250.01 149.69 252.56 147.32 254.82 C 147.31 258.40 147.51 262.02 148.66 265.45 C 149.78 266.05 150.90 266.66 152.02 267.28 C 143.22 286.43 134.70 305.73 125.79 324.83 C 126.74 319.21 129.88 314.27 131.90 308.99 C 135.10 300.85 139.10 293.01 142.06 284.78 C 130.36 303.92 119.14 323.37 107.55 342.59 C 106.08 345.01 104.73 347.54 102.76 349.62 C 103.62 346.48 105.48 343.79 107.01 340.96 C 117.93 321.29 129.11 301.74 139.95 282.03 C 124.63 302.39 109.47 322.86 94.17 343.23 C 92.58 345.32 91.14 347.58 89.06 349.23 C 91.14 345.41 93.99 342.08 96.30 338.41 C 109.58 319.51 123.10 300.77 136.21 281.75 C 127.03 290.73 118.75 300.56 109.94 309.89 C 99.23 321.14 89.06 332.92 77.97 343.80 C 96.16 321.76 115.59 300.74 134.18 279.04 C 115.16 295.00 96.89 311.87 77.98 327.96 C 77.41 328.33 76.27 329.06 75.70 329.43 C 83.19 321.03 92.03 313.95 100.08 306.11 C 111.38 295.78 122.58 285.36 133.89 275.05 C 120.35 284.46 106.95 294.08 93.47 303.59 C 83.96 310.05 74.87 317.17 65.02 323.11 C 86.44 305.70 109.38 290.12 131.05 273.02 C 105.48 287.45 80.00 302.06 54.08 315.86 C 78.99 299.95 104.80 285.51 130.04 270.15 C 107.44 279.83 84.87 289.57 62.28 299.27 C 58.19 300.87 54.23 302.90 49.93 303.89 C 74.53 292.20 99.30 280.90 124.06 269.56 C 125.95 268.69 127.90 267.95 129.85 267.21 C 106.40 273.90 83.28 281.75 59.89 288.65 C 55.85 289.77 51.95 291.59 47.71 291.78 C 74.75 282.38 101.82 273.01 129.06 264.20 C 102.35 269.25 75.76 275.01 49.02 279.92 C 45.42 280.72 41.79 281.48 38.09 281.59 C 48.58 279.61 58.85 276.63 69.30 274.44 C 89.22 270.24 108.94 265.06 128.96 261.35 C 101.27 263.42 73.69 266.57 46.01 268.70 C 43.95 268.82 41.88 268.73 39.82 268.61 C 69.28 265.49 98.62 261.14 128.13 258.54 C 124.11 258.15 120.07 258.12 116.03 258.13 C 92.01 258.19 68.00 257.34 43.98 257.18 C 40.34 257.03 36.71 256.62 33.06 256.46 C 46.73 256.72 60.39 255.76 74.06 255.86 C 86.04 255.94 98.02 255.76 110.00 255.44 C 116.64 255.51 123.32 254.74 129.93 255.65 C 101.72 251.95 73.38 249.10 45.16 245.37 C 43.07 245.09 41.00 244.70 38.94 244.28 C 61.63 245.80 84.23 248.34 106.89 250.24 C 113.62 251.11 120.52 250.92 127.09 252.76 C 128.10 252.80 130.30 253.51 130.70 252.35 C 129.09 251.91 127.39 252.08 125.76 251.79 C 97.12 245.21 68.40 238.98 39.81 232.19 C 42.85 232.41 45.86 232.90 48.85 233.50 C 76.21 238.74 103.53 244.24 130.84 249.76 C 114.27 244.92 98.10 238.76 81.66 233.47 C 69.70 229.56 57.92 225.12 45.95 221.27 C 49.51 221.45 52.89 222.66 56.24 223.76 C 80.24 230.85 104.01 238.66 127.97 245.86 C 107.12 235.98 86.02 226.60 65.14 216.77 C 61.88 215.24 58.45 213.99 55.53 211.83 C 59.48 212.74 63.04 214.72 66.78 216.19 C 88.19 225.32 109.59 234.47 130.90 243.82 C 109.00 230.74 86.99 217.85 65.15 204.67 C 62.67 203.23 60.14 201.83 57.91 200.01 C 70.82 206.04 82.93 213.68 95.50 220.40 C 107.59 227.28 119.78 233.96 131.84 240.89 C 117.30 229.84 102.56 219.03 87.96 208.05 C 79.33 201.36 70.21 195.26 62.04 188.02 C 85.65 204.02 108.66 220.90 132.11 237.15 C 119.21 224.63 105.71 212.74 92.58 200.46 C 85.49 193.56 77.78 187.29 71.14 179.93 C 84.20 190.42 96.46 201.85 109.15 212.75 C 118.35 220.84 127.58 228.88 136.73 237.03 C 122.05 220.74 107.75 204.11 93.20 187.70 C 89.51 183.01 85.07 178.90 81.79 173.91 C 87.49 179.00 92.51 184.81 97.65 190.46 C 111.18 204.80 124.37 219.45 137.84 233.83 C 122.74 212.35 107.41 191.03 92.43 169.46 C 91.17 167.70 90.01 165.87 88.99 163.97 C 102.60 180.81 115.07 198.56 128.25 215.76 C 132.61 221.87 137.25 227.77 141.48 233.98 C 128.63 211.08 115.68 188.23 102.99 165.24 C 102.20 163.81 101.51 162.32 100.91 160.80 C 102.26 162.27 103.37 163.94 104.38 165.67 C 117.50 187.64 130.71 209.56 143.52 231.70 C 135.82 213.77 128.02 195.63 120.28 177.62 C 116.52 168.47 112.12 159.53 109.16 150.07 C 121.88 177.20 134.50 204.37 146.77 231.70 C 138.57 206.57 131.00 181.23 123.07 156.02 C 122.48 154.27 122.25 152.43 122.13 150.60 C 131.69 177.16 140.43 204.02 149.53 230.74 C 148.83 228.18 148.20 225.61 147.72 223.01 C 143.67 202.29 139.36 181.63 135.38 160.90 C 134.56 156.21 133.18 151.59 133.23 146.79 C 137.63 164.13 141.27 181.66 145.33 199.08 C 147.29 209.06 150.20 218.84 151.64 228.91 C 150.12 205.54 147.42 182.25 145.50 158.90 C 145.02 152.26 143.94 145.62 144.45 138.95 C 147.60 168.33 151.72 197.61 154.54 227.03 Z" />
<path fill="#fad585" opacity="1.00" d=" M 229.31 184.27 C 229.83 184.81 229.83 184.81 229.31 184.27 Z" />
<path fill="#fad585" opacity="1.00" d=" M 217.95 249.12 C 237.61 247.61 257.20 244.95 276.91 244.38 C 246.93 247.81 216.99 251.76 186.97 254.85 L 186.08 254.38 C 185.63 253.95 184.72 253.09 184.26 252.66 C 195.39 250.67 206.75 250.51 217.95 249.12 Z" />
<path fill="#fad585" opacity="1.00" d=" M 187.25 255.57 C 192.46 254.91 197.71 255.44 202.93 255.45 C 225.39 256.18 247.88 255.46 270.32 256.57 C 252.57 257.90 234.75 257.49 216.97 258.04 C 207.84 258.06 198.71 258.11 189.58 258.11 C 188.80 257.26 188.03 256.42 187.25 255.57 Z" />
<path fill="#fad585" opacity="1.00" d=" M 190.45 259.02 C 210.31 260.94 230.10 263.65 249.94 265.86 C 257.38 266.64 264.74 268.11 272.23 268.50 C 265.83 269.24 259.43 267.98 253.06 267.52 C 233.20 265.92 213.38 263.68 193.51 262.19 C 192.48 261.14 191.45 260.08 190.45 259.02 Z" />
<path fill="#fad585" opacity="1.00" d=" M 195.34 264.02 C 204.37 265.04 213.06 268.08 222.06 269.42 L 222.27 270.47 L 222.49 271.71 C 214.35 270.30 206.27 268.58 198.16 266.99 C 197.22 265.99 196.29 264.99 195.34 264.02 Z" />
<path fill="#fad585" opacity="1.00" d=" M 201.65 270.53 C 209.58 272.13 216.92 275.71 224.71 277.80 L 224.23 276.08 C 224.89 277.49 225.58 278.88 226.27 280.28 C 219.09 278.43 212.12 275.84 204.95 273.98 C 203.86 272.81 202.77 271.66 201.65 270.53 Z" />
<path fill="#fad585" opacity="1.00" d=" M 234.28 272.90 C 235.97 272.95 237.68 273.07 239.33 273.49 C 248.27 275.69 257.31 277.47 266.23 279.75 C 260.38 279.79 254.73 278.07 248.99 277.19 C 245.08 276.67 241.26 274.88 237.28 275.51 C 236.25 274.66 235.26 273.78 234.28 272.90 Z" />
<path fill="#fad585" opacity="1.00" d=" M 210.96 280.02 C 217.75 282.70 224.31 285.94 230.95 288.98 C 231.27 289.54 231.92 290.65 232.25 291.20 C 226.24 289.16 220.53 286.34 214.69 283.89 C 213.44 282.60 212.23 281.28 210.96 280.02 Z" />
<path fill="#fad585" opacity="1.00" d=" M 176.15 289.24 C 182.12 297.12 185.62 306.57 191.38 314.60 C 193.87 319.63 195.75 324.94 198.26 329.97 C 192.84 323.10 189.20 314.96 184.32 307.70 C 181.69 301.50 178.73 295.45 176.15 289.24 Z" />
<path fill="#fad585" opacity="1.00" d=" M 155.19 303.94 C 155.96 301.90 156.96 299.95 157.84 297.96 C 157.48 313.37 157.18 328.79 157.13 344.21 L 155.76 344.21 C 155.49 330.79 154.92 317.36 155.19 303.94 Z" />
<path fill="#fad585" opacity="1.00" d=" M 161.16 313.25 C 160.73 308.25 159.31 303.26 160.07 298.23 C 160.89 299.63 161.63 301.07 162.28 302.56 C 163.98 316.42 165.14 330.39 166.20 344.33 L 164.97 344.07 C 163.19 333.87 162.51 323.51 161.16 313.25 Z" />
<path fill="#fad585" opacity="1.00" d=" M 202.12 306.56 C 206.39 310.09 209.45 314.80 213.35 318.71 C 219.64 326.08 226.38 333.12 232.14 340.91 C 225.65 335.07 220.12 328.26 214.07 321.98 C 210.05 317.63 205.82 313.44 202.15 308.78 C 202.14 308.23 202.13 307.11 202.12 306.56 Z" />
<path fill="#fad585" opacity="1.00" d=" M 148.92 317.85 C 149.47 316.22 150.38 314.74 151.24 313.26 C 150.82 323.63 149.16 333.91 147.92 344.20 L 146.53 344.20 C 147.06 335.39 148.05 326.63 148.92 317.85 Z" />
<path fill="#fad585" opacity="1.00" d=" M 168.09 315.70 C 169.39 318.37 170.86 320.98 171.88 323.77 C 172.78 330.68 174.59 337.41 175.60 344.30 L 174.25 344.08 C 171.95 334.68 169.70 325.24 168.09 315.70 Z" />
<path fill="#fad585" opacity="1.00" d=" M 202.08 318.69 C 207.56 325.01 211.92 332.22 216.79 339.01 C 218.63 341.77 220.73 344.37 222.26 347.34 C 214.82 339.34 209.19 329.83 202.09 321.53 C 202.09 320.82 202.08 319.40 202.08 318.69 Z" />
</g>
<g id="#201e1fff">
<path fill="#201e1f" opacity="1.00" d=" M 152.02 267.28 C 154.33 262.20 156.40 257.00 159.02 252.06 C 160.93 255.87 162.57 259.79 164.31 263.68 C 166.82 269.41 169.49 275.07 172.10 280.76 C 173.39 283.61 174.69 286.46 176.15 289.24 C 178.73 295.45 181.69 301.50 184.32 307.70 C 197.56 336.88 210.88 366.03 224.06 395.25 C 217.56 395.29 211.05 395.20 204.55 395.31 C 199.11 383.62 193.77 371.88 188.56 360.09 C 168.99 359.84 149.42 360.15 129.85 359.94 C 124.48 371.69 119.19 383.48 113.87 395.26 C 107.33 395.26 100.79 395.25 94.25 395.27 C 104.86 371.83 115.37 348.35 125.79 324.83 C 134.70 305.73 143.22 286.43 152.02 267.28 M 157.84 297.96 C 156.96 299.95 155.96 301.90 155.19 303.94 C 153.83 307.02 151.97 309.96 151.24 313.26 C 150.38 314.74 149.47 316.22 148.92 317.85 C 145.20 325.90 141.27 333.88 138.18 342.19 C 137.91 342.66 137.35 343.58 137.08 344.04 C 140.22 344.24 143.38 344.24 146.53 344.20 L 147.92 344.20 C 150.53 344.20 153.15 344.21 155.76 344.21 L 157.13 344.21 C 159.74 344.22 162.36 344.25 164.97 344.07 L 166.20 344.33 C 168.88 344.17 171.57 344.24 174.25 344.08 L 175.60 344.30 C 177.48 344.20 179.36 344.19 181.25 344.18 C 178.11 337.39 175.16 330.50 171.88 323.77 C 170.86 320.98 169.39 318.37 168.09 315.70 C 166.53 311.01 164.04 306.70 162.19 302.12 L 162.28 302.56 C 161.63 301.07 160.89 299.63 160.07 298.23 L 160.09 298.09 C 159.88 297.50 159.47 296.33 159.26 295.75 C 158.60 296.37 158.13 297.11 157.84 297.96 Z" />
<path fill="#201e1f" opacity="1.00" d=" M 229.07 268.00 C 230.82 269.62 232.50 271.31 234.28 272.90 C 235.26 273.78 236.25 274.66 237.28 275.51 C 245.40 282.01 255.13 286.20 265.08 289.06 C 281.60 293.99 298.92 294.63 315.87 297.18 C 334.36 300.01 353.53 307.61 365.04 323.03 C 357.38 317.82 348.49 314.68 339.49 312.71 C 315.45 307.82 290.16 309.65 266.83 301.23 C 250.59 295.50 236.79 283.39 229.07 268.00 Z" />
</g>
<g id="#e31e25ff">
<path fill="#e31e25" opacity="1.00" d=" M 182.86 282.43 C 183.65 272.31 182.46 262.09 183.56 252.02 C 183.73 252.18 184.09 252.50 184.26 252.66 C 184.72 253.09 185.63 253.95 186.08 254.38 C 186.48 254.76 186.87 255.16 187.25 255.57 C 188.03 256.42 188.80 257.26 189.58 258.11 C 189.80 258.34 190.23 258.80 190.45 259.02 C 191.45 260.08 192.48 261.14 193.51 262.19 C 194.12 262.79 194.72 263.40 195.34 264.02 C 196.29 264.99 197.22 265.99 198.16 266.99 C 199.30 268.20 200.48 269.36 201.65 270.53 C 202.77 271.66 203.86 272.81 204.95 273.98 C 206.88 276.06 208.87 278.09 210.96 280.02 C 212.23 281.28 213.44 282.60 214.69 283.89 C 220.07 289.32 224.89 295.44 231.17 299.88 C 231.91 301.94 233.50 303.47 235.03 304.98 C 251.87 321.91 268.16 339.40 285.17 356.15 C 285.34 350.02 285.22 343.88 285.26 337.74 C 291.21 340.30 297.83 339.93 304.12 339.20 C 304.11 360.02 304.18 380.85 304.08 401.68 C 277.57 374.59 251.12 347.44 224.60 320.35 C 217.38 312.90 210.14 305.43 202.22 298.72 C 202.06 301.33 202.06 303.94 202.12 306.56 C 202.13 307.11 202.14 308.23 202.15 308.78 C 201.96 312.08 201.91 315.39 202.08 318.69 C 202.08 319.40 202.09 320.82 202.09 321.53 C 201.92 327.04 201.87 332.56 202.42 338.05 C 200.85 335.45 199.55 332.71 198.26 329.97 C 195.75 324.94 193.87 319.63 191.38 314.60 C 188.56 307.91 185.16 301.47 182.65 294.65 C 182.72 293.75 182.85 291.95 182.91 291.04 C 182.93 289.96 182.92 288.88 182.88 287.80 C 182.87 286.90 182.86 285.10 182.85 284.20 C 182.85 283.76 182.86 282.87 182.86 282.43 Z" />
<path fill="#e31e25" opacity="1.00" d=" M 285.25 257.24 C 291.54 257.23 297.83 257.21 304.12 257.25 C 304.13 269.30 304.13 281.36 304.12 293.42 C 297.84 292.78 291.58 292.01 285.31 291.21 C 285.17 279.88 285.29 268.56 285.25 257.24 Z" />
<path fill="#e31e25" opacity="1.00" d=" M 222.27 270.47 L 222.90 269.52 C 224.32 273.81 227.11 277.51 230.26 280.70 C 235.03 288.68 242.74 294.59 250.75 299.13 C 256.91 303.26 264.04 305.60 271.14 307.58 C 296.43 313.98 323.23 311.09 348.26 318.87 C 354.59 320.97 360.84 323.68 366.07 327.89 C 367.91 329.35 369.44 331.27 371.66 332.22 C 371.44 332.37 370.99 332.66 370.76 332.81 C 370.38 332.80 369.62 332.79 369.24 332.78 C 362.43 327.92 354.11 325.85 346.06 324.05 C 335.89 321.76 325.43 323.04 315.13 323.28 C 301.11 323.57 286.88 326.32 273.03 322.90 C 262.06 320.57 252.20 314.59 244.11 306.96 C 239.81 301.97 235.71 296.81 232.25 291.20 C 231.92 290.65 231.27 289.54 230.95 288.98 C 229.33 286.11 227.75 283.22 226.27 280.28 C 225.58 278.88 224.89 277.49 224.23 276.08 C 223.63 274.63 222.99 273.19 222.49 271.71 L 222.27 270.47 Z" />
<path fill="#e31e25" opacity="1.00" d=" M 183.22 363.50 C 184.19 363.54 185.15 363.58 186.11 363.62 C 190.69 374.20 196.00 384.49 200.14 395.26 C 194.48 395.29 188.83 395.25 183.18 395.28 C 183.17 384.69 183.06 374.09 183.22 363.50 Z" />
</g>
<g id="#01a85aff">
<path fill="#01a85a" opacity="1.00" d=" M 307.45 257.24 C 335.30 257.29 363.15 257.47 391.00 257.51 C 390.51 262.77 389.15 268.38 385.27 272.20 C 381.44 275.72 375.90 275.87 371.00 276.07 C 357.68 276.17 344.36 276.08 331.04 276.11 C 326.59 276.17 322.10 275.80 317.71 276.65 C 314.94 282.30 316.59 288.85 316.14 294.89 C 313.21 294.59 310.30 294.21 307.40 293.76 C 307.49 281.59 307.40 269.41 307.45 257.24 Z" />
<path fill="#01a85a" opacity="1.00" d=" M 272.90 325.57 C 277.26 326.60 281.52 328.22 286.04 328.40 C 294.09 328.81 302.00 326.83 309.98 326.09 C 328.37 323.64 347.54 325.10 364.83 332.10 C 366.22 332.69 367.72 332.91 369.24 332.78 C 369.62 332.79 370.38 332.80 370.76 332.81 C 371.27 332.89 372.29 333.06 372.80 333.14 L 369.33 332.93 C 369.49 333.39 369.81 334.32 369.97 334.79 C 369.65 334.41 369.00 333.67 368.68 333.29 C 364.77 334.24 360.90 332.33 357.00 332.07 C 342.99 329.68 328.64 331.04 314.93 334.47 C 306.30 336.59 297.13 339.06 288.32 336.54 C 282.33 334.39 276.73 330.72 272.90 325.57 Z" />
<path fill="#01a85a" opacity="1.00" d=" M 307.41 338.50 C 310.32 337.83 313.22 337.13 316.12 336.43 C 316.17 358.09 316.10 379.74 316.16 401.39 C 313.25 401.41 310.35 401.42 307.46 401.43 C 307.40 380.45 307.48 359.48 307.41 338.50 Z" />
</g>
</svg>
