<?xml version="1.0" encoding="UTF-8" ?>
<!DOCTYPE svg PUBLIC "-//W3C//DTD SVG 1.1//EN" "http://www.w3.org/Graphics/SVG/1.1/DTD/svg11.dtd">
<svg width="886pt" height="532pt" viewBox="0 0 886 532" version="1.1" xmlns="http://www.w3.org/2000/svg">
<g id="#ffffffff">
<path fill="#ffffff" opacity="1.00" d=" M 198.12 266.96 C 206.26 268.46 214.35 270.26 222.52 271.66 C 223.00 273.17 223.62 274.63 224.22 276.10 L 224.82 277.84 C 216.99 275.80 209.61 272.26 201.69 270.57 C 200.49 269.38 199.28 268.19 198.12 266.96 Z" />
<path fill="#ffffff" opacity="1.00" d=" M 204.91 273.94 C 212.09 275.76 219.05 278.35 226.23 280.20 C 227.73 283.17 229.31 286.10 230.96 289.00 C 224.27 286.03 217.70 282.78 210.93 280.01 C 208.84 278.06 206.85 276.02 204.91 273.94 Z" />
<path fill="#ffffff" opacity="1.00" d=" M 172.11 280.75 C 175.59 285.43 178.89 290.25 182.69 294.69 C 185.11 301.28 188.27 307.58 191.24 313.94 C 191.08 314.10 190.76 314.44 190.60 314.60 C 189.11 311.22 187.30 307.99 185.41 304.82 C 182.32 299.66 179.90 294.09 176.19 289.32 C 174.72 286.51 173.41 283.63 172.11 280.75 Z" />
<path fill="#ffffff" opacity="1.00" d=" M 175.76 280.82 C 178.15 283.12 180.53 285.42 182.89 287.75 C 182.92 288.86 182.92 289.98 182.90 291.11 C 180.50 287.69 177.96 284.37 175.76 280.82 Z" />
<path fill="#ffffff" opacity="1.00" d=" M 157.85 298.03 C 158.12 297.36 158.67 296.00 158.94 295.32 C 159.47 296.46 160.12 297.57 160.56 298.76 C 160.42 298.99 160.14 299.44 160.00 299.66 C 159.73 304.47 160.84 309.21 161.31 313.97 C 162.61 323.98 163.28 334.09 165.02 344.04 C 162.39 344.25 159.75 344.22 157.11 344.21 C 157.25 328.82 157.27 313.41 157.85 298.03 Z" />
<path fill="#ffffff" opacity="1.00" d=" M 162.11 302.26 C 164.19 306.71 166.52 311.09 168.11 315.76 C 169.86 325.25 171.92 334.70 174.34 344.04 C 171.63 344.24 168.90 344.17 166.19 344.36 C 164.98 330.32 164.04 316.21 162.11 302.26 Z" />
<path fill="#ffffff" opacity="1.00" d=" M 155.26 303.86 C 155.10 317.30 155.52 330.76 155.79 344.21 C 153.15 344.20 150.50 344.20 147.87 344.20 C 149.13 333.92 150.67 323.65 151.23 313.30 C 151.97 309.94 153.84 306.96 155.26 303.86 Z" />
<path fill="#ffffff" opacity="1.00" d=" M 138.21 342.15 C 141.29 333.84 145.20 325.87 148.93 317.84 C 148.14 326.63 147.15 335.40 146.56 344.20 C 143.38 344.23 140.20 344.22 137.03 344.10 C 137.32 343.61 137.91 342.64 138.21 342.15 Z" />
<path fill="#ffffff" opacity="1.00" d=" M 171.86 323.77 C 175.17 330.48 178.09 337.38 181.24 344.17 C 179.34 344.19 177.44 344.21 175.55 344.33 C 174.52 337.44 172.71 330.69 171.86 323.77 Z" />
<path fill="#ffffff" opacity="1.00" d=" M 428.00 390.96 C 426.49 385.68 432.05 379.73 437.44 381.37 C 438.06 383.23 438.32 385.16 438.36 387.12 C 436.59 391.04 433.75 395.96 428.60 394.41 C 428.41 393.25 428.21 392.11 428.00 390.96 Z" />
</g>
<g id="#fcd274ff">
<path fill="#fcd274" opacity="1.00" d=" M 154.53 227.10 C 155.80 196.77 155.32 166.37 156.55 136.03 C 157.08 156.67 157.06 177.32 157.43 197.97 C 157.32 208.95 158.31 219.94 157.37 230.90 C 161.18 203.32 163.83 175.59 167.46 147.98 C 168.03 144.36 168.37 140.70 168.55 137.04 C 168.94 142.75 167.99 148.40 167.57 154.07 C 165.93 174.95 163.83 195.78 161.90 216.63 C 161.49 220.12 161.14 223.64 161.40 227.15 C 167.05 199.95 173.47 172.91 179.69 145.83 C 179.66 147.64 179.57 149.45 179.23 151.23 C 174.68 174.47 170.02 197.69 165.39 220.92 C 164.86 223.34 164.42 225.78 164.18 228.25 C 173.24 201.11 182.39 174.00 191.83 146.99 C 191.22 151.31 189.64 155.41 188.44 159.59 C 181.53 182.82 173.85 205.83 167.08 229.10 C 179.01 203.37 190.65 177.50 202.84 151.90 C 202.26 154.76 201.05 157.44 199.86 160.10 C 189.74 184.07 179.28 207.90 169.13 231.86 C 180.64 212.19 192.36 192.64 203.99 173.04 C 205.46 170.40 207.01 167.76 209.20 165.64 C 208.56 167.15 207.88 168.63 207.09 170.06 C 197.98 186.27 188.90 202.51 179.82 218.75 C 177.19 223.44 174.35 228.02 172.09 232.91 C 185.30 214.56 199.03 196.60 212.48 178.43 C 215.98 173.97 219.16 169.24 222.98 165.05 C 220.57 169.49 217.36 173.41 214.53 177.57 C 201.47 196.41 188.03 214.98 174.98 233.82 C 189.64 218.18 204.07 202.33 218.65 186.62 C 222.23 183.12 225.27 179.09 229.14 175.89 C 227.62 178.45 225.56 180.62 223.63 182.86 C 208.22 200.67 192.53 218.24 177.06 236.00 C 181.50 232.81 185.15 228.69 189.39 225.25 C 207.56 209.59 225.34 193.45 243.72 178.04 C 236.66 185.55 228.68 192.11 221.34 199.34 C 206.54 212.74 192.08 226.51 177.25 239.87 C 201.73 222.48 226.05 204.85 250.92 188.03 C 228.02 206.18 204.06 222.99 181.00 240.92 C 202.06 228.95 223.20 217.12 244.39 205.38 C 247.22 203.77 250.02 202.05 253.13 201.00 C 229.75 215.80 205.55 229.30 181.98 243.78 C 200.53 235.71 219.16 227.80 237.72 219.75 C 246.47 216.25 254.96 212.04 263.94 209.14 C 236.70 221.77 209.46 234.43 182.12 246.85 C 200.78 241.05 219.43 235.19 238.09 229.39 C 247.43 226.69 256.60 223.31 266.10 221.24 C 246.16 228.46 225.96 234.95 205.93 241.93 C 197.95 244.48 190.10 247.47 182.04 249.78 C 203.95 245.38 225.89 241.10 247.79 236.60 C 254.58 235.51 261.26 233.67 268.15 233.24 C 244.01 238.99 219.75 244.24 195.56 249.80 C 191.54 250.62 187.56 251.84 183.42 251.87 C 182.79 260.34 183.32 268.85 183.11 277.35 C 182.62 276.58 180.39 275.00 180.09 276.58 C 180.52 277.86 181.94 278.32 183.11 278.72 C 183.08 279.59 183.03 281.32 183.01 282.19 C 181.04 280.13 178.78 278.38 176.43 276.78 C 178.18 279.66 180.45 282.17 182.95 284.42 C 182.93 285.25 182.91 286.91 182.89 287.75 C 180.53 285.42 178.15 283.12 175.76 280.82 C 177.96 284.37 180.50 287.69 182.90 291.11 C 182.85 292.00 182.74 293.79 182.69 294.69 C 178.89 290.25 175.59 285.43 172.11 280.75 C 170.82 278.10 169.64 275.41 168.43 272.74 C 171.90 268.32 174.76 262.87 174.08 257.09 C 172.64 250.81 168.74 244.19 162.00 242.69 C 151.56 238.25 138.78 247.74 139.44 258.97 C 138.78 264.85 143.29 269.01 146.25 273.48 C 147.33 273.28 148.41 273.08 149.50 272.89 C 141.52 290.05 134.02 307.43 125.93 324.53 C 126.37 322.22 127.11 319.98 128.10 317.85 C 131.78 309.58 135.21 301.20 138.84 292.90 C 140.07 290.23 141.34 287.55 142.08 284.69 C 132.19 300.68 122.81 317.01 113.14 333.15 C 109.69 338.55 106.93 344.44 102.81 349.38 C 104.48 345.04 107.10 341.17 109.23 337.06 C 118.98 319.90 128.41 302.55 138.29 285.47 C 138.91 284.30 139.47 283.11 140.02 281.92 C 128.70 296.69 117.79 311.79 106.51 326.60 C 100.67 334.10 95.51 342.16 89.12 349.19 C 104.33 326.36 120.88 304.41 136.26 281.70 C 126.65 290.96 118.09 301.25 108.90 310.93 C 98.52 321.83 88.63 333.22 77.93 343.81 C 96.33 321.86 115.63 300.67 134.32 278.98 C 129.91 281.94 126.23 285.81 122.20 289.24 C 108.44 301.17 94.90 313.34 81.09 325.21 C 79.47 326.69 77.79 328.10 75.89 329.22 C 82.94 321.51 91.04 314.85 98.56 307.61 C 110.34 296.72 122.19 285.90 133.96 275.00 C 120.33 284.30 106.99 294.04 93.47 303.51 C 83.93 309.96 74.87 317.16 64.95 323.03 C 83.88 308.17 103.45 294.14 122.62 279.60 C 125.46 277.40 128.60 275.58 131.11 272.98 C 105.48 287.32 79.99 301.94 54.12 315.85 C 79.05 299.99 104.91 285.64 130.02 270.10 C 107.65 279.66 85.32 289.34 62.95 298.90 C 58.67 300.63 54.48 302.63 50.02 303.90 C 73.36 292.85 96.83 282.07 120.31 271.35 C 123.48 269.84 126.70 268.47 129.97 267.21 C 125.79 267.98 121.79 269.48 117.73 270.70 C 98.43 276.59 79.23 282.82 59.88 288.57 C 55.88 289.78 51.96 291.41 47.76 291.83 C 74.80 282.43 101.84 273.05 129.08 264.27 C 103.96 268.68 79.05 274.37 53.94 278.91 C 48.63 279.82 43.42 281.38 38.02 281.65 C 58.38 277.21 78.64 272.26 99.02 267.85 C 109.03 265.68 118.94 262.98 129.08 261.40 C 106.31 262.75 83.64 265.60 60.90 267.38 C 53.91 267.79 46.94 269.06 39.91 268.60 C 69.37 265.56 98.70 261.25 128.19 258.51 C 120.13 257.83 112.03 258.24 103.95 258.08 C 85.96 257.69 67.97 257.45 49.97 257.21 C 44.34 257.37 38.73 256.77 33.11 256.44 C 50.09 256.83 67.05 255.59 84.04 255.89 C 99.32 256.05 114.61 254.88 129.88 255.61 C 99.64 251.49 69.18 248.82 38.98 244.35 C 59.65 245.74 80.26 247.94 100.90 249.79 C 110.90 250.66 120.90 251.54 130.87 252.74 C 100.47 246.16 70.18 239.10 39.85 232.24 C 41.40 232.38 42.94 232.53 44.47 232.77 C 73.32 238.09 102.04 244.18 130.84 249.72 C 128.49 249.09 126.15 248.44 123.85 247.65 C 102.54 240.45 81.22 233.26 59.93 225.98 C 55.32 224.27 50.70 222.60 45.96 221.29 C 50.08 221.58 53.95 223.10 57.85 224.34 C 81.35 231.15 104.54 239.05 128.04 245.83 C 104.93 234.88 81.54 224.53 58.44 213.56 C 57.50 213.06 56.58 212.52 55.67 211.96 C 59.05 212.74 62.14 214.33 65.32 215.66 C 87.28 224.87 109.06 234.49 130.99 243.78 C 109.04 230.71 87.00 217.79 65.13 204.59 C 62.70 203.18 60.25 201.78 58.01 200.09 C 60.07 200.93 62.05 201.92 63.99 203.00 C 86.74 215.44 109.29 228.25 131.90 240.94 C 116.49 229.03 100.66 217.66 85.18 205.84 C 77.45 199.97 69.42 194.46 62.12 188.07 C 85.65 204.15 108.66 220.99 132.12 237.19 C 118.30 223.53 103.53 210.84 89.46 197.44 C 83.39 191.61 76.85 186.24 71.21 179.97 C 93.40 198.59 114.87 218.07 136.76 237.03 C 121.40 219.77 106.17 202.39 90.98 184.98 C 88.14 181.22 84.41 178.15 82.04 174.06 C 87.50 179.25 92.52 184.87 97.56 190.45 C 111.19 204.78 124.28 219.65 137.98 233.91 C 123.29 213.02 108.37 192.30 93.82 171.31 C 92.13 168.98 90.44 166.64 89.14 164.07 C 106.98 187.09 124.28 210.54 141.54 234.00 C 128.83 211.27 115.95 188.62 103.37 165.82 C 102.47 164.23 101.70 162.58 101.03 160.89 C 101.91 162.02 102.74 163.18 103.50 164.40 C 117.14 186.83 130.34 209.52 143.84 232.03 C 134.16 210.04 124.80 187.89 115.30 165.81 C 113.20 160.61 110.80 155.52 109.13 150.15 C 121.86 177.32 134.53 204.53 146.80 231.91 C 139.30 208.14 131.89 184.34 124.57 160.52 C 123.51 157.31 122.39 154.08 122.11 150.69 C 131.66 177.28 140.38 204.18 149.56 230.90 C 144.68 208.33 140.36 185.64 135.85 162.99 C 134.94 157.65 133.44 152.39 133.20 146.96 C 137.51 163.87 141.06 180.97 145.02 197.96 C 147.13 208.35 149.94 218.58 151.72 229.03 C 150.17 205.62 147.48 182.28 145.55 158.90 C 145.07 152.26 144.02 145.64 144.46 138.97 C 145.04 148.34 146.64 157.60 147.67 166.92 C 149.95 186.98 152.54 207.01 154.53 227.10 Z" />
<path fill="#fcd274" opacity="1.00" d=" M 211.04 162.14 C 211.79 160.34 212.72 158.62 213.83 157.02 C 213.39 158.96 212.39 160.69 211.04 162.14 Z" />
<path fill="#fcd274" opacity="1.00" d=" M 238.91 247.23 C 251.59 246.29 264.21 244.59 276.93 244.39 C 247.92 247.62 218.95 251.34 189.93 254.59 C 188.61 254.84 187.32 254.77 186.08 254.37 C 185.64 253.95 184.75 253.11 184.31 252.69 C 202.41 250.11 220.74 249.31 238.91 247.23 Z" />
<path fill="#fcd274" opacity="1.00" d=" M 187.30 255.62 C 191.19 255.19 195.11 255.36 199.02 255.44 C 222.76 256.01 246.53 255.77 270.25 256.48 C 256.85 257.63 243.40 257.32 229.97 257.75 C 216.50 257.81 203.03 258.20 189.56 258.11 C 188.80 257.27 188.05 256.44 187.30 255.62 Z" />
<path fill="#fcd274" opacity="1.00" d=" M 392.55 257.81 C 393.44 257.88 395.23 258.01 396.13 258.07 C 396.04 302.46 396.15 346.86 396.07 391.25 C 395.19 391.28 393.42 391.33 392.53 391.36 C 392.43 346.84 392.38 302.32 392.55 257.81 Z" />
<path fill="#fcd274" opacity="1.00" d=" M 190.49 259.10 C 210.05 260.96 229.53 263.62 249.05 265.83 C 256.76 266.64 264.38 268.11 272.13 268.56 C 265.75 269.17 259.41 267.86 253.06 267.46 C 233.18 265.92 213.37 263.54 193.48 262.18 C 192.47 261.16 191.48 260.13 190.49 259.10 Z" />
<path fill="#fcd274" opacity="1.00" d=" M 195.38 264.09 C 204.36 265.16 213.04 268.02 221.95 269.55 L 222.26 270.62 L 222.52 271.66 C 214.35 270.26 206.26 268.46 198.12 266.96 C 197.21 266.00 196.30 265.04 195.38 264.09 Z" />
<path fill="#fcd274" opacity="1.00" d=" M 201.69 270.57 C 209.61 272.26 216.99 275.80 224.82 277.84 L 224.22 276.10 C 224.86 277.48 225.54 278.83 226.23 280.20 C 219.05 278.35 212.09 275.76 204.91 273.94 C 203.84 272.80 202.77 271.68 201.69 270.57 Z" />
<path fill="#fcd274" opacity="1.00" d=" M 234.30 272.92 C 245.05 274.29 255.48 277.62 266.13 279.66 C 260.58 279.78 255.23 278.07 249.78 277.28 C 245.60 276.73 241.54 274.87 237.27 275.49 C 236.25 274.67 235.27 273.78 234.30 272.92 Z" />
<path fill="#fcd274" opacity="1.00" d=" M 210.93 280.01 C 217.70 282.78 224.27 286.03 230.96 289.00 C 231.28 289.54 231.92 290.62 232.23 291.16 C 226.23 289.13 220.61 286.16 214.68 283.93 C 213.45 282.60 212.22 281.27 210.93 280.01 Z" />
<path fill="#fcd274" opacity="1.00" d=" M 176.19 289.32 C 179.90 294.09 182.32 299.66 185.41 304.82 C 187.30 307.99 189.11 311.22 190.60 314.60 C 190.76 314.44 191.08 314.10 191.24 313.94 C 193.66 319.23 195.74 324.68 198.24 329.95 C 192.92 323.01 189.26 314.91 184.33 307.68 C 181.63 301.55 178.76 295.50 176.19 289.32 Z" />
<path fill="#fcd274" opacity="1.00" d=" M 155.26 303.86 C 155.94 301.84 156.93 299.94 157.85 298.03 C 157.27 313.41 157.25 328.82 157.11 344.21 L 155.79 344.21 C 155.52 330.76 155.10 317.30 155.26 303.86 Z" />
<path fill="#fcd274" opacity="1.00" d=" M 160.00 299.66 C 160.14 299.44 160.42 298.99 160.56 298.76 L 160.78 298.41 C 161.12 299.37 161.78 301.29 162.11 302.26 C 164.04 316.21 164.98 330.32 166.19 344.36 L 165.02 344.04 C 163.28 334.09 162.61 323.98 161.31 313.97 C 160.84 309.21 159.73 304.47 160.00 299.66 Z" />
<path fill="#fcd274" opacity="1.00" d=" M 202.10 306.52 C 209.16 313.57 215.44 321.39 222.11 328.83 C 225.41 332.86 229.08 336.59 232.07 340.87 C 226.01 335.30 220.82 328.89 215.09 323.00 C 210.74 318.28 206.21 313.69 202.13 308.74 C 202.12 308.18 202.11 307.07 202.10 306.52 Z" />
<path fill="#fcd274" opacity="1.00" d=" M 148.93 317.84 C 149.40 316.20 150.36 314.75 151.23 313.30 C 150.67 323.65 149.13 333.92 147.87 344.20 L 146.56 344.20 C 147.15 335.40 148.14 326.63 148.93 317.84 Z" />
<path fill="#fcd274" opacity="1.00" d=" M 168.11 315.76 C 169.43 318.39 170.92 320.97 171.86 323.77 C 172.71 330.69 174.52 337.44 175.55 344.33 L 174.34 344.04 C 171.92 334.70 169.86 325.25 168.11 315.76 Z" />
<path fill="#fcd274" opacity="1.00" d=" M 202.07 318.72 C 209.34 327.74 215.70 337.50 222.12 347.14 C 214.78 339.14 209.21 329.68 202.08 321.49 C 202.07 320.80 202.07 319.41 202.07 318.72 Z" />
<path fill="#fcd274" opacity="1.00" d=" M 403.80 347.05 C 544.52 346.81 685.25 347.01 825.97 346.95 C 835.27 347.06 844.57 346.69 853.86 347.14 C 853.84 348.35 853.82 349.56 853.82 350.77 C 703.89 351.01 553.95 350.84 404.02 350.85 C 403.94 349.58 403.87 348.31 403.80 347.05 Z" />
<path fill="#fcd274" opacity="1.00" d=" M 101.25 351.22 C 102.91 352.09 100.95 355.69 99.34 355.59 C 98.93 354.04 99.87 352.01 101.25 351.22 Z" />
</g>
<g id="#8b8994ff">
<path fill="#8b8994" opacity="1.00" d=" M 229.27 184.40 C 229.73 184.88 229.73 184.88 229.27 184.40 Z" />
<path fill="#8b8994" opacity="1.00" d=" M 798.97 380.15 C 799.46 380.27 800.45 380.52 800.94 380.65 C 801.19 385.76 800.95 390.89 801.03 396.01 C 800.51 396.01 799.49 396.02 798.97 396.02 C 798.98 390.73 798.98 385.44 798.97 380.15 Z" />
</g>
<g id="#fbe3aeff">
<path fill="#fbe3ae" opacity="1.00" d=" M 139.44 258.97 C 138.78 247.74 151.56 238.25 162.00 242.69 C 168.74 244.19 172.64 250.81 174.08 257.09 C 174.76 262.87 171.90 268.32 168.43 272.74 C 167.05 269.68 165.64 266.64 164.30 263.57 C 166.27 259.83 166.21 254.31 162.26 251.91 C 159.86 250.60 156.84 248.79 154.15 250.39 C 152.24 251.27 150.35 252.35 148.90 253.90 C 148.18 256.93 148.32 260.11 148.52 263.20 C 148.40 265.30 150.76 265.99 152.03 267.19 C 151.20 269.09 150.35 270.99 149.50 272.89 C 148.41 273.08 147.33 273.28 146.25 273.48 C 143.29 269.01 138.78 264.85 139.44 258.97 Z" />
<path fill="#fbe3ae" opacity="1.00" d=" M 180.09 276.58 C 180.39 275.00 182.62 276.58 183.11 277.35 C 183.11 277.69 183.11 278.38 183.11 278.72 C 181.94 278.32 180.52 277.86 180.09 276.58 Z" />
<path fill="#fbe3ae" opacity="1.00" d=" M 176.43 276.78 C 178.78 278.38 181.04 280.13 183.01 282.19 C 182.99 282.75 182.96 283.86 182.95 284.42 C 180.45 282.17 178.18 279.66 176.43 276.78 Z" />
<path fill="#fbe3ae" opacity="1.00" d=" M 213.26 355.30 C 215.00 355.28 216.06 358.05 215.68 359.56 C 214.03 359.51 212.61 356.81 213.26 355.30 Z" />
</g>
<g id="#201e1fff">
<path fill="#201e1f" opacity="1.00" d=" M 152.03 267.19 C 154.32 262.03 156.70 256.90 158.97 251.73 C 160.71 255.69 162.53 259.62 164.30 263.57 C 165.64 266.64 167.05 269.68 168.43 272.74 C 169.64 275.41 170.82 278.10 172.11 280.75 C 173.41 283.63 174.72 286.51 176.19 289.32 C 178.76 295.50 181.63 301.55 184.33 307.68 C 197.54 336.89 210.91 366.02 224.04 395.26 C 217.50 395.25 210.96 395.28 204.43 395.24 C 199.20 383.51 193.69 371.90 188.59 360.11 C 169.02 359.80 149.44 360.18 129.87 359.93 C 124.48 371.68 119.19 383.47 113.88 395.26 C 107.34 395.26 100.80 395.25 94.27 395.27 C 104.89 371.72 115.46 348.15 125.93 324.53 C 134.02 307.43 141.52 290.05 149.50 272.89 C 150.35 270.99 151.20 269.09 152.03 267.19 M 157.85 298.03 C 156.93 299.94 155.94 301.84 155.26 303.86 C 153.84 306.96 151.97 309.94 151.23 313.30 C 150.36 314.75 149.40 316.20 148.93 317.84 C 145.20 325.87 141.29 333.84 138.21 342.15 C 137.91 342.64 137.32 343.61 137.03 344.10 C 140.20 344.22 143.38 344.23 146.56 344.20 L 147.87 344.20 C 150.50 344.20 153.15 344.20 155.79 344.21 L 157.11 344.21 C 159.75 344.22 162.39 344.25 165.02 344.04 L 166.19 344.36 C 168.90 344.17 171.63 344.24 174.34 344.04 L 175.55 344.33 C 177.44 344.21 179.34 344.19 181.24 344.17 C 178.09 337.38 175.17 330.48 171.86 323.77 C 170.92 320.97 169.43 318.39 168.11 315.76 C 166.52 311.09 164.19 306.71 162.11 302.26 C 161.78 301.29 161.12 299.37 160.78 298.41 L 160.56 298.76 C 160.12 297.57 159.47 296.46 158.94 295.32 C 158.67 296.00 158.12 297.36 157.85 298.03 Z" />
<path fill="#201e1f" opacity="1.00" d=" M 430.57 262.08 C 430.77 262.13 431.18 262.25 431.38 262.31 C 436.14 272.71 440.46 283.31 445.27 293.69 C 446.08 295.90 448.09 297.10 450.12 298.05 C 444.04 298.29 437.78 298.83 431.78 297.80 C 433.24 297.04 435.89 297.80 436.55 295.97 C 436.20 293.21 434.73 290.73 433.77 288.15 C 429.53 288.13 425.30 288.14 421.08 288.13 C 420.16 290.36 418.88 292.55 418.82 295.02 C 419.20 297.52 422.37 296.96 424.14 297.86 C 419.91 298.69 415.48 298.42 411.22 297.99 C 413.70 297.00 415.76 295.23 416.78 292.73 C 421.55 282.59 425.87 272.25 430.57 262.08 M 427.46 273.88 C 425.68 278.00 423.78 282.06 422.08 286.20 C 425.65 286.18 429.23 286.19 432.81 286.19 C 431.04 282.08 429.28 277.97 427.46 273.88 Z" />
<path fill="#201e1f" opacity="1.00" d=" M 450.89 262.60 C 454.47 262.46 458.06 262.50 461.65 262.51 C 461.62 266.97 461.70 271.43 461.59 275.90 C 464.46 273.50 468.57 271.83 472.14 273.80 C 479.11 277.48 479.43 287.52 475.70 293.65 C 472.57 299.42 464.18 300.72 459.21 296.57 C 457.61 297.51 456.00 298.43 454.35 299.29 C 454.28 288.21 454.47 277.13 454.27 266.06 C 454.41 264.11 452.08 263.65 450.89 262.60 M 461.72 278.01 C 461.70 283.37 461.38 288.75 461.89 294.09 C 462.31 298.12 468.61 298.31 469.28 294.29 C 470.46 289.02 470.82 283.16 469.07 277.99 C 467.60 274.68 463.77 276.25 461.72 278.01 Z" />
<path fill="#201e1f" opacity="1.00" d=" M 507.92 262.61 C 511.52 262.46 515.12 262.49 518.73 262.51 C 518.73 266.97 518.77 271.43 518.70 275.89 C 521.71 273.28 526.26 271.76 529.87 274.15 C 536.28 278.20 536.38 287.76 532.74 293.74 C 529.57 299.47 521.22 300.67 516.27 296.57 C 514.68 297.52 513.08 298.44 511.43 299.26 C 511.40 288.18 511.57 277.08 511.35 266.00 C 511.46 264.09 509.12 263.66 507.92 262.61 M 518.79 278.08 C 518.81 283.39 518.46 288.72 518.98 294.00 C 519.19 296.95 523.25 298.46 525.28 296.26 C 527.74 292.73 527.16 288.12 527.27 284.04 C 527.03 281.39 527.16 277.96 524.64 276.35 C 522.50 275.13 520.51 277.04 518.79 278.08 Z" />
<path fill="#201e1f" opacity="1.00" d=" M 567.77 262.97 C 571.99 262.03 576.40 262.59 580.69 262.58 C 587.06 269.58 592.58 277.41 598.60 284.75 C 598.46 278.88 598.85 272.99 598.42 267.13 C 598.33 264.10 594.92 263.85 592.82 262.71 C 597.14 262.41 601.52 262.29 605.84 262.82 C 603.91 263.88 600.66 264.19 600.70 267.05 C 600.18 277.90 600.94 288.80 600.32 299.65 C 591.76 289.88 584.03 279.40 575.50 269.62 C 575.42 276.77 575.47 283.93 575.45 291.09 C 575.52 292.84 575.37 294.90 576.76 296.23 C 578.13 297.22 579.92 297.29 581.48 297.90 C 579.04 298.51 576.49 298.28 574.02 298.47 C 573.93 300.30 572.55 299.13 571.78 298.49 C 570.38 298.30 569.04 298.16 567.68 297.90 C 570.03 297.22 573.49 296.82 573.40 293.59 C 573.64 285.09 573.46 276.57 573.49 268.06 C 573.59 264.97 570.10 263.87 567.77 262.97 Z" />
<path fill="#201e1f" opacity="1.00" d=" M 790.64 262.56 C 794.13 262.45 797.62 262.49 801.12 262.57 C 801.02 267.03 801.14 271.50 801.01 275.96 C 803.79 273.61 807.70 271.87 811.25 273.66 C 818.43 277.07 818.89 287.21 815.27 293.41 C 812.25 299.32 803.67 300.84 798.67 296.56 C 797.05 297.51 795.43 298.45 793.79 299.35 C 793.68 288.26 793.91 277.16 793.69 266.08 C 793.72 264.27 791.72 263.65 790.64 262.56 M 801.10 278.16 C 801.23 283.63 800.67 289.17 801.44 294.60 C 802.15 297.75 807.04 298.27 808.29 295.25 C 809.84 291.75 809.57 287.79 809.60 284.05 C 809.39 281.33 809.46 277.82 806.81 276.22 C 804.62 275.28 802.75 277.02 801.10 278.16 Z" />
<path fill="#201e1f" opacity="1.00" d=" M 229.00 267.91 C 230.77 269.58 232.48 271.30 234.30 272.92 C 235.27 273.78 236.25 274.67 237.27 275.49 C 245.14 281.82 254.54 285.95 264.18 288.79 C 279.88 293.59 296.36 294.53 312.54 296.68 C 332.22 299.18 352.83 306.74 365.13 323.08 C 355.16 316.34 343.30 312.99 331.49 311.28 C 309.64 308.11 286.93 308.72 265.99 300.92 C 250.05 295.09 236.62 283.05 229.00 267.91 Z" />
<path fill="#201e1f" opacity="1.00" d=" M 483.25 280.03 C 483.60 275.78 488.13 273.64 491.87 273.16 C 495.80 272.38 500.76 273.35 502.63 277.29 C 503.78 283.26 502.58 289.43 503.40 295.45 C 504.19 295.17 505.76 294.59 506.55 294.30 C 505.24 299.27 496.91 300.52 495.55 294.97 C 492.84 297.06 489.58 299.34 485.98 298.43 C 482.37 297.41 481.82 292.54 484.10 289.98 C 487.15 286.43 491.74 284.82 495.80 282.73 C 495.71 280.65 495.89 278.52 495.36 276.50 C 493.80 274.14 490.31 274.69 488.66 276.65 C 489.37 278.14 491.21 279.59 490.46 281.42 C 489.28 284.97 483.06 283.76 483.25 280.03 M 490.23 292.76 C 491.31 295.25 494.10 294.05 495.79 292.98 C 495.75 290.13 495.76 287.28 495.72 284.44 C 493.08 286.39 489.06 288.89 490.23 292.76 Z" />
<path fill="#201e1f" opacity="1.00" d=" M 609.50 279.43 C 610.53 274.82 615.80 273.16 619.97 272.96 C 623.55 272.62 628.00 274.25 629.03 278.03 C 629.80 283.81 628.74 289.69 629.71 295.47 C 630.52 295.24 632.15 294.78 632.97 294.56 C 631.05 299.14 623.19 300.55 621.70 294.97 C 618.83 297.27 614.88 299.88 611.16 297.97 C 608.14 296.23 608.40 291.81 610.64 289.54 C 613.75 286.35 618.01 284.70 621.94 282.80 C 621.86 280.65 622.17 278.40 621.47 276.33 C 619.91 274.33 616.84 274.67 615.08 276.21 C 615.47 278.21 617.73 280.15 616.28 282.20 C 614.20 285.08 608.72 283.05 609.50 279.43 M 616.37 292.64 C 617.33 295.22 620.24 294.11 621.95 293.06 C 621.95 290.17 621.96 287.29 621.91 284.40 C 619.32 286.38 615.34 288.80 616.37 292.64 Z" />
<path fill="#201e1f" opacity="1.00" d=" M 645.56 276.80 C 647.88 274.63 650.73 272.45 654.14 272.98 C 656.76 273.01 658.44 275.17 659.80 277.13 C 662.07 275.02 664.69 272.69 668.04 272.93 C 670.98 272.82 673.76 275.06 674.16 278.01 C 675.09 283.96 673.90 290.06 674.84 296.00 C 675.44 296.57 676.64 297.70 677.25 298.27 C 672.80 298.33 668.35 298.34 663.90 298.23 C 664.91 297.21 667.04 296.79 667.01 295.03 C 667.17 289.35 667.46 283.60 666.79 277.95 C 665.35 274.58 660.74 277.54 660.17 280.04 C 659.99 285.06 659.96 290.11 660.20 295.13 C 660.08 296.99 662.35 297.23 663.44 298.23 C 658.90 298.33 654.36 298.34 649.82 298.25 C 651.10 297.11 652.96 296.12 652.62 294.10 C 652.55 288.67 653.05 283.16 652.26 277.78 C 650.36 274.61 646.90 277.65 645.56 279.72 C 645.84 285.33 645.22 290.99 646.03 296.58 C 646.73 296.96 648.11 297.73 648.81 298.12 C 644.28 298.39 639.72 298.49 635.21 298.08 C 639.11 297.05 638.12 292.96 638.24 289.96 C 638.07 285.31 638.58 280.63 637.92 276.02 C 637.01 275.19 636.06 274.43 635.08 273.72 C 638.60 273.61 642.13 273.64 645.66 273.64 C 645.64 274.43 645.59 276.01 645.56 276.80 Z" />
<path fill="#201e1f" opacity="1.00" d=" M 678.81 273.67 C 683.22 273.69 687.66 273.39 692.06 273.93 C 691.31 274.35 689.80 275.21 689.05 275.64 C 690.58 279.76 692.15 283.88 693.66 288.01 C 694.90 284.75 696.52 281.54 697.04 278.06 C 696.55 276.08 694.76 274.96 693.34 273.71 C 697.89 273.64 702.45 273.51 707.00 273.84 C 706.24 274.27 704.73 275.12 703.98 275.55 C 705.23 279.79 706.75 283.96 708.45 288.04 C 709.56 284.00 711.74 280.23 712.23 276.05 C 711.30 275.22 710.35 274.43 709.36 273.69 C 712.06 273.62 714.76 273.62 717.46 273.74 C 716.32 274.82 714.78 275.63 714.23 277.20 C 711.38 284.20 709.34 291.53 706.45 298.52 C 706.10 298.74 705.39 299.19 705.04 299.42 C 702.75 293.29 700.45 287.16 698.16 281.03 C 696.14 286.17 694.30 291.38 692.41 296.58 C 691.84 297.44 691.78 299.66 690.23 299.01 C 687.45 292.30 685.25 285.35 682.53 278.61 C 681.79 276.63 680.20 275.19 678.81 273.67 Z" />
<path fill="#201e1f" opacity="1.00" d=" M 720.71 278.97 C 722.05 274.70 726.97 273.17 731.01 272.96 C 734.60 272.60 739.04 274.21 740.13 277.97 C 740.85 283.77 739.98 289.64 740.71 295.45 C 741.53 295.21 743.16 294.72 743.98 294.47 C 742.29 299.22 734.29 300.51 732.81 295.00 C 730.08 297.09 726.73 299.41 723.11 298.37 C 719.44 297.18 719.21 292.13 721.66 289.65 C 724.75 286.40 729.06 284.73 733.03 282.81 C 732.93 280.66 733.38 278.36 732.53 276.33 C 731.03 274.29 727.89 274.69 726.20 276.25 C 726.54 278.27 729.00 280.28 727.28 282.30 C 725.05 285.21 719.31 282.71 720.71 278.97 M 727.48 292.59 C 728.38 295.23 731.34 294.11 733.08 293.06 C 733.04 290.18 733.05 287.31 733.02 284.44 C 730.41 286.35 726.46 288.79 727.48 292.59 Z" />
<path fill="#201e1f" opacity="1.00" d=" M 756.69 276.79 C 758.97 274.64 761.75 272.50 765.10 272.96 C 767.77 272.93 769.46 275.19 770.94 277.09 C 773.18 274.99 775.78 272.74 779.08 272.93 C 781.96 272.79 784.72 274.91 785.21 277.78 C 786.19 283.78 785.10 289.91 785.86 295.93 C 786.48 297.07 787.87 297.42 788.87 298.17 C 784.25 298.43 779.63 298.27 775.01 298.28 C 776.45 297.17 778.58 296.26 778.21 294.05 C 778.20 288.71 778.60 283.30 777.90 277.99 C 776.56 274.53 771.79 277.55 771.27 280.09 C 771.11 285.11 771.05 290.16 771.32 295.18 C 771.26 296.94 773.42 297.24 774.43 298.26 C 769.88 298.31 765.34 298.36 760.80 298.22 C 761.70 297.21 763.61 296.77 763.63 295.17 C 763.93 290.79 763.71 286.39 763.77 282.01 C 763.61 280.06 764.08 277.52 762.03 276.40 C 759.54 275.97 758.03 278.14 756.66 279.79 C 756.97 285.41 756.29 291.09 757.17 296.68 C 757.86 297.00 759.24 297.64 759.93 297.96 C 755.36 298.63 750.71 298.28 746.11 298.16 C 747.21 297.22 749.41 296.83 749.24 295.01 C 749.39 289.01 749.46 282.99 749.19 277.00 C 749.26 275.28 747.18 274.79 746.25 273.70 C 749.74 273.62 753.24 273.64 756.75 273.64 C 756.72 274.69 756.70 275.73 756.69 276.79 Z" />
<path fill="#201e1f" opacity="1.00" d=" M 822.67 279.95 C 823.17 275.54 827.92 273.48 831.83 273.08 C 835.72 272.39 840.74 273.64 842.20 277.74 C 843.01 283.58 842.16 289.53 842.75 295.40 C 843.88 295.07 845.01 294.75 846.16 294.44 C 844.39 299.12 836.54 300.58 834.96 295.03 C 832.12 297.13 828.54 299.63 824.86 298.20 C 821.53 296.81 821.46 292.16 823.69 289.76 C 826.79 286.40 831.21 284.75 835.22 282.75 C 835.13 280.59 835.37 278.35 834.68 276.27 C 832.94 274.18 829.77 274.79 828.08 276.60 C 828.87 278.21 830.80 279.79 829.79 281.77 C 828.20 284.96 822.40 283.59 822.67 279.95 M 829.71 292.85 C 830.80 295.27 833.47 293.96 835.20 293.11 C 835.18 290.21 835.19 287.31 835.14 284.42 C 832.50 286.37 828.35 288.98 829.71 292.85 Z" />
<path fill="#201e1f" opacity="1.00" d=" M 538.72 273.72 C 542.19 273.61 545.66 273.64 549.14 273.64 C 549.27 280.34 548.81 287.08 549.37 293.76 C 549.54 295.81 552.37 296.05 553.55 294.70 C 556.87 292.58 555.35 288.29 555.67 285.05 C 555.23 281.15 557.29 275.75 552.65 273.72 C 556.12 273.61 559.61 273.64 563.09 273.64 C 563.15 280.77 562.88 287.92 563.21 295.04 C 563.10 296.80 565.10 297.24 566.16 298.24 C 562.63 298.32 559.11 298.31 555.58 298.30 C 555.63 297.51 555.73 295.94 555.79 295.15 C 552.77 299.32 545.25 300.89 542.59 295.57 C 540.91 289.57 542.28 283.21 541.64 277.07 C 541.63 275.37 539.68 274.79 538.72 273.72 Z" />
<path fill="#201e1f" opacity="1.00" d=" M 405.49 306.51 C 415.63 306.12 425.79 306.49 435.94 306.32 C 435.99 309.99 436.17 313.68 435.68 317.34 C 434.36 315.01 434.21 311.81 431.80 310.26 C 428.12 307.89 423.54 308.60 419.40 308.39 C 419.38 313.29 419.44 318.18 419.34 323.08 C 421.24 323.01 423.36 323.25 425.00 322.06 C 427.25 320.60 427.79 317.80 428.43 315.40 L 429.18 315.49 C 429.16 321.47 429.18 327.45 429.18 333.44 L 428.36 333.46 C 427.73 331.10 427.51 328.22 425.35 326.69 C 423.65 325.37 421.43 325.31 419.41 324.98 C 419.49 329.63 419.15 334.31 419.59 338.95 C 420.02 341.45 423.34 340.95 425.15 341.76 C 421.47 342.52 417.69 342.00 413.97 342.14 C 411.03 342.07 408.02 342.49 405.17 341.67 C 406.95 340.88 410.43 341.51 410.62 338.78 C 411.03 331.89 410.67 324.97 410.80 318.06 C 410.69 314.98 411.10 311.82 410.39 308.79 C 409.04 307.53 407.03 307.47 405.49 306.51 Z" />
<path fill="#201e1f" opacity="1.00" d=" M 538.97 306.97 C 542.64 305.63 546.70 306.62 550.53 306.38 C 550.54 316.77 550.34 327.17 550.62 337.55 C 550.51 339.47 552.70 339.91 553.92 340.89 C 550.30 341.27 546.71 342.62 543.10 342.53 C 543.09 341.69 543.08 340.03 543.08 339.19 C 541.44 340.91 539.62 342.89 537.04 342.82 C 531.92 343.42 527.85 338.82 527.12 334.10 C 525.96 328.11 527.38 320.24 533.54 317.50 C 536.84 315.88 540.66 317.11 543.13 319.63 C 543.00 316.09 543.30 312.52 542.88 309.00 C 542.16 307.54 540.22 307.63 538.97 306.97 M 536.36 320.29 C 533.92 323.97 534.49 328.77 534.64 332.98 C 534.92 335.55 535.62 339.70 538.90 339.83 C 541.08 339.39 543.07 337.28 543.07 335.01 C 543.10 331.02 543.24 327.02 542.97 323.04 C 542.16 320.57 538.52 318.02 536.36 320.29 Z" />
<path fill="#201e1f" opacity="1.00" d=" M 605.30 306.25 C 607.57 304.51 611.33 306.17 611.61 309.02 C 612.28 311.98 608.82 314.75 606.08 313.47 C 603.04 312.50 602.54 307.86 605.30 306.25 Z" />
<path fill="#201e1f" opacity="1.00" d=" M 582.29 319.96 C 586.49 316.49 590.24 312.56 593.23 307.99 C 593.41 311.15 593.37 314.32 593.39 317.49 C 595.34 317.49 597.29 317.48 599.26 317.49 C 599.27 318.14 599.28 319.43 599.29 320.08 C 597.31 320.08 595.33 320.08 593.36 320.09 C 593.57 326.20 592.95 332.36 593.70 338.43 C 595.32 341.24 597.75 337.67 599.44 336.74 C 598.57 339.68 596.17 342.38 592.91 342.46 C 589.70 342.97 586.15 340.53 586.13 337.15 C 585.86 331.48 586.10 325.80 586.01 320.12 C 585.08 320.08 583.22 320.00 582.29 319.96 Z" />
<path fill="#201e1f" opacity="1.00" d=" M 446.52 317.63 C 451.78 315.32 458.58 317.70 461.08 322.91 C 463.45 327.90 463.24 334.35 459.87 338.85 C 456.45 343.35 449.52 343.98 444.82 341.25 C 437.07 335.77 437.85 321.80 446.52 317.63 M 449.30 319.23 C 446.77 321.76 447.60 325.79 447.25 329.03 C 447.44 332.72 446.59 336.98 448.85 340.18 C 450.90 342.40 454.34 340.33 454.42 337.63 C 454.97 332.48 455.11 327.21 454.47 322.06 C 454.26 319.66 451.48 317.55 449.30 319.23 Z" />
<path fill="#201e1f" opacity="1.00" d=" M 479.78 317.55 C 483.27 317.45 486.77 317.46 490.26 317.55 C 490.25 324.63 490.07 331.71 490.33 338.78 C 490.29 340.46 492.10 341.09 493.14 342.10 C 489.67 342.17 486.21 342.14 482.75 342.14 C 482.79 341.36 482.86 339.81 482.90 339.03 C 479.93 342.99 472.90 344.70 469.96 339.84 C 467.79 333.79 469.53 327.14 468.78 320.87 C 468.82 319.14 466.77 318.62 465.81 317.55 C 469.29 317.46 472.78 317.48 476.27 317.50 C 476.29 323.35 476.21 329.21 476.28 335.07 C 476.37 336.60 476.20 338.62 477.93 339.36 C 480.08 339.68 481.92 337.78 482.71 335.97 C 482.91 330.94 482.88 325.88 482.70 320.85 C 482.68 319.19 480.77 318.61 479.78 317.55 Z" />
<path fill="#201e1f" opacity="1.00" d=" M 495.94 317.64 C 499.49 317.40 503.05 317.49 506.61 317.49 C 506.57 318.15 506.49 319.47 506.45 320.13 C 508.80 318.74 511.08 316.67 514.00 316.77 C 516.95 316.67 519.75 319.02 520.12 321.97 C 520.87 327.58 520.10 333.27 520.57 338.91 C 520.52 340.61 522.47 341.10 523.48 342.12 C 519.06 342.16 514.63 342.14 510.21 342.14 C 511.47 341.03 513.32 340.04 512.97 338.04 C 513.00 332.70 513.29 327.31 512.76 321.99 C 511.64 318.51 506.91 321.35 506.63 323.93 C 506.47 328.93 506.42 333.95 506.68 338.95 C 506.58 340.56 508.43 341.11 509.35 342.12 C 504.92 342.16 500.49 342.16 496.07 342.10 C 500.09 340.63 499.05 336.27 499.15 332.92 C 499.05 328.42 499.41 323.89 498.75 319.42 C 497.79 318.82 496.87 318.25 495.94 317.64 Z" />
<path fill="#201e1f" opacity="1.00" d=" M 557.77 322.97 C 559.16 318.30 564.63 316.83 568.96 316.77 C 572.48 316.61 576.79 318.61 577.35 322.43 C 577.83 328.01 577.20 333.63 577.77 339.21 C 578.65 339.01 580.41 338.60 581.29 338.39 C 579.30 342.91 571.57 344.40 569.94 338.89 C 567.14 340.93 563.76 343.33 560.12 342.17 C 556.61 340.92 556.35 336.08 558.68 333.62 C 561.75 330.24 566.17 328.59 570.19 326.64 C 570.13 324.52 570.34 322.35 569.75 320.29 C 568.22 317.91 565.17 318.94 563.10 319.88 C 563.84 321.84 566.13 324.24 564.30 326.27 C 561.98 328.91 556.65 326.59 557.77 322.97 M 564.45 336.08 C 565.03 338.76 568.38 338.50 569.95 336.86 C 570.43 334.01 570.12 331.10 570.14 328.23 C 567.62 330.18 563.94 332.36 564.45 336.08 Z" />
<path fill="#201e1f" opacity="1.00" d=" M 600.40 317.65 C 604.01 317.40 607.63 317.46 611.25 317.53 C 611.27 324.61 611.05 331.70 611.33 338.77 C 611.21 340.72 613.52 341.09 614.73 342.10 C 609.98 342.16 605.23 342.18 600.48 342.09 C 601.57 341.09 603.73 340.72 603.74 338.92 C 603.95 332.91 603.97 326.86 603.72 320.85 C 603.78 318.98 601.50 318.67 600.40 317.65 Z" />
<path fill="#201e1f" opacity="1.00" d=" M 625.14 317.16 C 630.33 315.64 636.39 318.36 638.53 323.37 C 640.72 328.36 640.35 334.69 636.92 339.06 C 633.52 343.31 626.97 343.86 622.35 341.43 C 613.83 335.94 615.13 320.19 625.14 317.16 M 626.26 319.43 C 624.11 322.07 624.78 325.83 624.48 329.01 C 624.64 332.65 623.87 336.82 625.96 340.04 C 627.77 342.31 631.37 340.64 631.57 337.98 C 632.24 332.72 632.34 327.31 631.69 322.05 C 631.53 319.48 628.37 317.41 626.26 319.43 Z" />
<path fill="#201e1f" opacity="1.00" d=" M 643.69 317.49 C 647.02 317.48 650.36 317.49 653.71 317.47 C 653.70 318.23 653.67 319.75 653.66 320.51 C 655.79 318.78 658.04 316.70 660.99 316.77 C 663.95 316.62 666.81 318.85 667.25 321.81 C 668.07 327.50 667.23 333.28 667.75 338.99 C 667.68 340.68 669.69 341.12 670.68 342.11 C 666.23 342.16 661.78 342.14 657.33 342.12 C 658.20 341.10 660.10 340.58 660.05 338.98 C 660.27 333.35 660.41 327.66 659.95 322.05 C 659.65 319.82 656.62 320.01 655.48 321.39 C 652.97 323.13 653.83 326.41 653.69 329.00 C 653.81 332.64 653.40 336.32 654.04 339.92 C 654.80 340.72 655.64 341.46 656.54 342.14 C 652.06 342.14 647.58 342.17 643.10 342.11 C 647.59 340.64 646.08 335.69 646.31 332.08 C 646.19 328.09 646.58 324.08 646.05 320.12 C 645.34 319.16 644.46 318.37 643.69 317.49 Z" />
<path fill="#201e1f" opacity="1.00" d=" M 528.35 375.02 C 532.44 374.38 536.74 372.49 540.83 374.18 C 545.61 375.87 548.17 382.57 544.66 386.63 C 540.50 391.49 534.42 394.36 528.34 396.01 C 528.26 389.02 528.18 382.01 528.35 375.02 M 529.62 376.54 C 529.75 382.56 529.73 388.59 529.64 394.62 C 533.96 392.41 538.72 390.75 542.26 387.29 C 546.78 383.57 544.42 376.21 539.12 374.65 C 535.84 374.55 532.62 375.20 529.62 376.54 Z" />
<path fill="#201e1f" opacity="1.00" d=" M 413.32 374.50 C 416.85 373.60 421.59 373.96 423.15 377.86 C 427.86 386.06 419.46 398.29 410.04 395.38 C 404.95 393.28 404.14 386.61 405.93 382.02 C 407.58 378.89 410.08 376.00 413.32 374.50 M 408.45 392.55 C 411.07 395.92 416.42 394.92 418.95 391.93 C 423.79 387.99 424.39 379.35 419.27 375.43 C 410.43 373.09 402.61 385.63 408.45 392.55 Z" />
<path fill="#201e1f" opacity="1.00" d=" M 649.78 374.82 C 652.35 373.43 656.35 373.78 657.13 377.11 C 655.10 376.03 653.03 374.89 650.66 375.47 C 650.59 377.54 650.56 379.61 650.52 381.69 C 652.69 381.59 655.37 379.57 657.33 381.27 C 655.11 381.97 652.85 382.52 650.55 382.84 C 650.45 387.04 650.80 391.26 650.43 395.45 C 650.16 395.70 649.61 396.19 649.33 396.44 C 649.13 392.07 649.17 387.70 649.28 383.33 C 647.49 383.33 645.14 385.32 643.77 383.35 C 645.57 382.80 647.41 382.44 649.28 382.16 C 649.35 379.73 648.69 377.09 649.78 374.82 Z" />
<path fill="#201e1f" opacity="1.00" d=" M 479.35 375.56 C 480.85 374.43 482.20 377.07 480.89 378.05 C 479.38 379.24 477.90 376.48 479.35 375.56 Z" />
<path fill="#201e1f" opacity="1.00" d=" M 799.93 378.33 C 798.16 378.25 798.28 375.28 800.02 375.31 C 801.77 375.36 801.67 378.34 799.93 378.33 Z" />
<path fill="#201e1f" opacity="1.00" d=" M 754.32 382.23 C 754.55 380.57 753.62 378.20 755.68 377.43 C 755.70 378.54 755.75 380.75 755.77 381.86 C 758.48 381.73 761.58 379.55 764.11 381.22 C 761.38 382.11 758.55 382.63 755.70 382.83 C 755.83 386.77 755.84 390.72 755.67 394.66 C 759.05 393.41 761.96 391.26 765.20 389.74 C 763.20 393.65 758.32 394.81 754.40 395.94 C 754.30 391.77 754.33 387.61 754.39 383.45 C 752.47 383.86 750.53 384.55 748.61 383.85 C 750.45 383.13 752.36 382.58 754.32 382.23 Z" />
<path fill="#201e1f" opacity="1.00" d=" M 809.24 377.96 C 809.61 378.00 810.35 378.08 810.72 378.12 C 810.69 379.06 810.64 380.92 810.61 381.85 C 813.36 381.66 816.42 379.62 819.07 381.18 C 816.33 382.04 813.51 382.61 810.66 382.86 C 810.67 386.78 810.69 390.71 810.61 394.65 C 813.97 393.31 816.94 391.22 820.21 389.70 C 818.05 393.58 813.28 394.82 809.30 395.97 C 809.21 391.78 809.20 387.60 809.33 383.42 C 807.42 383.80 805.53 384.45 803.58 384.03 C 805.31 382.97 807.29 382.44 809.32 382.27 C 809.28 380.83 809.25 379.39 809.24 377.96 Z" />
<path fill="#201e1f" opacity="1.00" d=" M 426.57 382.91 C 426.45 381.81 426.91 380.83 427.43 379.90 C 427.55 380.73 427.80 382.37 427.92 383.19 C 430.80 381.40 434.02 379.15 437.58 380.45 C 439.92 381.67 439.78 384.67 439.44 386.91 C 438.27 391.86 433.81 397.23 428.12 395.38 C 428.20 397.83 428.23 400.28 428.26 402.74 C 427.84 402.78 426.99 402.87 426.56 402.91 C 426.60 396.24 426.56 389.58 426.57 382.91 M 428.00 390.96 C 428.21 392.11 428.41 393.25 428.60 394.41 C 433.75 395.96 436.59 391.04 438.36 387.12 C 438.32 385.16 438.06 383.23 437.44 381.37 C 432.05 379.73 426.49 385.68 428.00 390.96 Z" />
<path fill="#201e1f" opacity="1.00" d=" M 443.54 384.43 C 446.92 378.99 455.57 378.99 459.37 383.99 C 454.79 386.27 450.53 389.26 445.68 390.98 C 448.82 387.35 454.27 386.84 457.43 383.16 C 454.23 381.43 450.05 380.45 446.83 382.66 C 444.52 384.01 443.63 386.67 443.55 389.21 C 445.25 392.77 448.88 395.46 452.99 394.61 C 457.09 394.79 458.51 390.53 460.55 387.82 C 461.26 394.65 452.26 397.55 447.10 394.83 C 443.27 393.16 441.09 388.07 443.54 384.43 Z" />
<path fill="#201e1f" opacity="1.00" d=" M 479.59 380.44 C 479.84 380.43 480.33 380.41 480.58 380.40 C 481.08 385.57 480.65 390.77 480.78 395.96 C 480.44 395.93 479.76 395.88 479.42 395.85 C 479.54 390.71 479.17 385.56 479.59 380.44 Z" />
<path fill="#201e1f" opacity="1.00" d=" M 585.85 382.10 C 585.68 381.06 586.69 380.62 587.38 380.14 C 587.44 381.88 587.46 383.63 587.44 385.39 C 589.96 383.05 592.66 380.17 596.40 380.28 C 596.54 381.73 596.66 383.19 596.77 384.66 C 595.36 384.04 594.84 382.85 595.21 381.09 C 592.05 382.18 589.99 384.91 587.50 386.97 C 587.45 389.94 587.46 392.91 587.47 395.89 C 587.06 395.84 586.23 395.74 585.82 395.69 C 585.89 391.16 585.73 386.62 585.85 382.10 Z" />
<path fill="#201e1f" opacity="1.00" d=" M 603.86 380.77 C 606.65 380.47 609.87 379.92 612.33 381.64 C 608.65 382.00 604.59 381.05 601.29 383.15 C 599.54 383.92 599.24 385.77 599.42 387.48 C 603.42 387.66 606.87 384.74 610.91 385.41 C 612.23 385.58 613.98 386.50 613.81 388.09 C 614.42 392.25 609.82 394.37 606.52 395.33 C 603.66 396.16 598.76 395.91 598.95 391.86 C 599.72 392.65 600.49 393.45 601.24 394.28 C 605.90 395.30 611.93 392.90 612.61 387.69 C 610.62 386.97 608.48 386.24 606.45 387.24 C 604.01 387.97 600.14 389.86 598.38 387.03 C 597.45 383.68 601.08 381.41 603.86 380.77 Z" />
<path fill="#201e1f" opacity="1.00" d=" M 688.17 383.71 C 690.36 381.77 692.88 379.54 696.08 380.16 C 698.62 379.94 700.00 382.81 699.71 385.01 C 699.54 390.67 694.52 397.34 688.21 395.38 C 687.68 397.88 689.91 402.15 686.73 403.30 C 686.50 396.02 686.77 388.72 686.57 381.43 C 687.03 381.30 687.95 381.04 688.41 380.91 C 688.35 381.61 688.23 383.01 688.17 383.71 M 688.60 385.70 C 687.95 388.56 688.39 391.53 688.58 394.43 C 695.18 396.18 699.89 387.69 697.90 382.12 C 694.54 379.29 690.44 382.78 688.60 385.70 Z" />
<path fill="#201e1f" opacity="1.00" d=" M 703.85 383.88 C 705.72 381.89 707.99 379.71 710.98 380.16 C 714.75 379.49 716.09 384.19 715.00 387.02 C 713.84 392.01 709.26 397.24 703.63 395.31 C 703.68 397.84 703.70 400.38 703.73 402.92 C 703.35 402.93 702.61 402.94 702.24 402.95 C 702.32 396.64 702.28 390.33 702.25 384.02 C 702.16 382.52 702.43 381.10 703.05 379.74 C 703.25 380.77 703.65 382.84 703.85 383.88 M 705.66 383.64 C 702.91 386.04 703.68 389.96 703.81 393.18 C 704.25 394.89 706.69 394.63 708.06 394.45 C 712.66 392.13 714.75 386.48 713.36 381.60 C 710.60 380.61 707.50 381.29 705.66 383.64 Z" />
<path fill="#201e1f" opacity="1.00" d=" M 738.86 385.06 C 741.53 383.03 744.06 380.26 747.67 380.22 C 747.70 381.81 747.70 383.41 747.60 385.01 C 746.71 383.90 746.50 382.47 746.35 381.11 C 743.21 382.24 741.22 385.03 738.76 387.10 C 738.72 390.02 738.72 392.95 738.72 395.88 C 738.36 395.88 737.64 395.88 737.28 395.88 C 737.70 390.52 736.37 384.88 738.08 379.73 C 738.56 381.47 738.82 383.24 738.86 385.06 Z" />
<path fill="#201e1f" opacity="1.00" d=" M 831.01 392.44 C 833.05 388.12 834.75 383.49 837.85 379.81 C 837.91 382.82 836.08 385.31 834.83 387.91 C 832.82 391.86 830.74 395.78 828.36 399.53 C 826.67 399.98 824.67 401.16 823.03 399.96 C 821.21 399.31 821.16 397.02 822.28 395.72 C 822.81 396.97 823.34 398.23 823.86 399.51 C 826.75 399.43 829.49 397.02 829.39 394.05 C 827.55 389.85 824.75 386.07 823.24 381.75 C 823.35 381.29 823.57 380.37 823.68 379.91 C 825.80 384.06 828.21 388.08 829.97 392.41 L 831.01 392.44 Z" />
<path fill="#201e1f" opacity="1.00" d=" M 463.19 380.74 L 464.47 380.77 C 464.47 382.52 464.48 384.27 464.47 386.02 C 467.30 383.62 470.42 380.48 474.50 381.46 C 474.96 386.46 474.80 391.51 474.68 396.53 C 474.41 396.28 473.85 395.77 473.58 395.51 C 473.22 391.03 473.61 386.52 473.39 382.04 C 469.54 382.25 467.06 385.41 464.52 387.89 C 463.98 390.66 465.73 394.49 463.32 396.53 C 463.09 391.27 463.28 386.00 463.19 380.74 Z" />
<path fill="#201e1f" opacity="1.00" d=" M 485.32 380.40 C 487.72 381.24 486.24 384.26 486.69 386.09 C 489.43 383.65 492.45 380.69 496.47 381.30 C 497.84 385.93 497.27 390.84 497.16 395.60 C 496.76 395.69 495.98 395.86 495.58 395.94 C 495.61 391.28 495.70 386.62 495.52 381.96 C 491.84 382.50 488.98 385.28 486.94 388.20 C 486.38 390.71 486.75 393.34 486.72 395.90 C 486.34 395.91 485.60 395.94 485.22 395.95 C 485.27 390.76 485.18 385.58 485.32 380.40 Z" />
<path fill="#201e1f" opacity="1.00" d=" M 500.43 393.94 C 498.81 386.73 506.80 380.43 513.49 381.58 C 513.95 387.00 513.77 392.50 513.59 397.93 C 512.04 402.52 503.43 402.60 501.94 397.95 C 504.18 399.10 506.38 400.58 509.05 400.30 C 509.64 400.02 510.82 399.47 511.41 399.19 C 513.00 395.62 512.09 391.61 512.24 387.84 C 510.31 390.85 508.21 394.21 504.72 395.56 C 503.20 396.05 500.54 396.07 500.43 393.94 M 501.51 394.73 C 507.95 394.67 511.17 387.52 512.70 382.20 C 506.39 382.60 500.23 387.95 501.51 394.73 Z" />
<path fill="#201e1f" opacity="1.00" d=" M 555.42 381.59 C 558.10 380.92 561.67 381.09 563.32 383.66 C 565.88 390.75 556.07 399.28 549.83 394.11 C 545.83 389.65 550.74 383.15 555.42 381.59 M 549.54 392.23 C 551.54 394.00 554.23 395.51 556.91 394.15 C 560.35 392.38 563.75 388.13 562.10 384.15 C 556.96 378.95 548.46 385.91 549.54 392.23 Z" />
<path fill="#201e1f" opacity="1.00" d=" M 573.47 381.55 C 576.20 380.90 579.75 381.16 581.28 383.90 C 583.74 391.15 573.18 399.70 567.28 393.65 C 564.15 388.95 568.84 383.01 573.47 381.55 M 567.47 392.29 C 569.40 394.18 572.24 395.42 574.87 394.14 C 578.10 392.38 580.99 388.86 580.40 384.98 C 579.54 382.46 576.29 382.01 574.01 382.52 C 569.93 383.78 567.02 387.98 567.47 392.29 Z" />
<path fill="#201e1f" opacity="1.00" d=" M 629.39 384.38 C 632.30 380.87 637.59 380.41 641.34 382.81 C 644.10 389.76 636.14 398.32 629.12 394.95 C 624.97 392.76 626.38 386.93 629.39 384.38 M 628.63 393.33 C 634.68 397.60 642.20 390.13 640.52 383.77 C 634.60 379.13 625.21 386.70 628.63 393.33 Z" />
<path fill="#201e1f" opacity="1.00" d=" M 669.76 394.22 C 665.42 387.20 675.04 378.39 681.96 382.05 C 683.49 382.76 683.71 384.59 684.37 385.97 C 683.64 389.94 681.13 393.60 677.38 395.25 C 674.80 396.22 672.09 395.41 669.76 394.22 M 669.56 389.91 C 669.97 391.00 670.38 392.10 670.78 393.22 C 676.69 397.78 684.37 390.01 682.59 383.72 C 680.81 383.03 679.00 381.99 677.03 382.42 C 673.18 382.99 670.97 386.64 669.56 389.91 Z" />
<path fill="#201e1f" opacity="1.00" d=" M 724.47 381.65 C 727.12 380.96 730.77 380.99 732.43 383.56 C 735.18 390.79 725.16 399.37 718.86 394.03 C 715.14 389.51 719.86 383.25 724.47 381.65 M 719.60 393.31 C 725.66 397.65 733.23 390.11 731.53 383.72 C 725.57 379.21 716.27 386.64 719.60 393.31 Z" />
<path fill="#201e1f" opacity="1.00" d=" M 767.48 381.26 C 767.79 381.04 768.40 380.59 768.70 380.36 C 768.94 384.65 768.59 388.94 768.88 393.23 C 769.41 395.19 771.50 394.63 773.01 394.39 C 775.24 393.74 776.87 392.02 778.33 390.30 C 778.17 386.96 778.14 383.62 778.33 380.29 C 779.99 381.32 779.42 383.37 779.54 385.00 C 779.41 388.51 779.73 392.04 779.37 395.54 C 779.11 395.79 778.59 396.29 778.33 396.54 C 778.30 395.67 778.24 393.94 778.21 393.07 C 776.01 394.46 773.71 396.10 770.96 395.83 C 769.25 396.18 767.26 394.94 767.42 393.08 C 767.32 389.14 767.21 385.19 767.48 381.26 Z" />
<path fill="#201e1f" opacity="1.00" d=" M 782.69 381.05 C 783.12 381.12 783.99 381.26 784.42 381.33 C 784.39 383.05 784.37 384.78 784.36 386.51 C 786.76 383.54 790.27 380.40 794.41 381.56 C 794.96 386.34 794.65 391.15 794.76 395.95 C 794.39 395.94 793.65 395.93 793.28 395.92 C 793.29 391.29 793.32 386.67 793.27 382.04 C 790.31 382.21 787.99 384.08 786.05 386.13 C 783.10 388.48 784.75 392.64 784.38 395.86 L 782.69 395.79 C 782.68 390.88 782.69 385.97 782.69 381.05 Z" />
<path fill="#201e1f" opacity="1.00" d=" M 841.16 393.14 C 842.30 393.40 843.98 392.88 844.64 394.20 C 844.34 395.74 842.53 395.34 841.40 395.71 C 841.34 395.07 841.22 393.78 841.16 393.14 Z" />
<path fill="#201e1f" opacity="1.00" d=" M 847.06 393.50 C 848.36 393.40 849.67 393.31 850.99 393.26 C 851.34 396.24 847.22 396.26 847.06 393.50 Z" />
<path fill="#201e1f" opacity="1.00" d=" M 853.37 393.75 C 854.74 393.31 858.26 392.53 857.28 395.07 C 856.42 395.31 855.56 395.53 854.71 395.73 C 854.37 395.24 853.70 394.24 853.37 393.75 Z" />
</g>
<g id="#e31e25ff">
<path fill="#e31e25" opacity="1.00" d=" M 183.11 277.35 C 183.32 268.85 182.79 260.34 183.42 251.87 C 183.64 252.07 184.09 252.49 184.31 252.69 C 184.75 253.11 185.64 253.95 186.08 254.37 C 186.49 254.77 186.90 255.19 187.30 255.62 C 188.05 256.44 188.80 257.27 189.56 258.11 C 189.80 258.36 190.26 258.85 190.49 259.10 C 191.48 260.13 192.47 261.16 193.48 262.18 C 194.11 262.81 194.75 263.45 195.38 264.09 C 196.30 265.04 197.21 266.00 198.12 266.96 C 199.28 268.19 200.49 269.38 201.69 270.57 C 202.77 271.68 203.84 272.80 204.91 273.94 C 206.85 276.02 208.84 278.06 210.93 280.01 C 212.22 281.27 213.45 282.60 214.68 283.93 C 220.05 289.35 224.95 295.32 231.07 299.93 C 232.12 301.79 233.43 303.49 234.99 304.96 C 251.88 321.84 268.07 339.44 285.19 356.07 C 285.33 350.03 285.23 343.98 285.25 337.93 C 291.31 340.09 297.82 340.00 304.13 339.22 C 304.06 359.94 304.25 380.67 304.03 401.40 C 279.79 377.16 256.06 352.37 232.01 327.92 C 222.22 318.03 212.79 307.74 202.21 298.67 C 202.08 301.28 202.05 303.90 202.10 306.52 C 202.11 307.07 202.12 308.18 202.13 308.74 C 202.00 312.06 201.92 315.39 202.07 318.72 C 202.07 319.41 202.07 320.80 202.08 321.49 C 201.90 326.96 201.93 332.44 202.35 337.90 C 200.80 335.34 199.50 332.65 198.24 329.95 C 195.74 324.68 193.66 319.23 191.24 313.94 C 188.27 307.58 185.11 301.28 182.69 294.69 C 182.74 293.79 182.85 292.00 182.90 291.11 C 182.92 289.98 182.92 288.86 182.89 287.75 C 182.91 286.91 182.93 285.25 182.95 284.42 C 182.96 283.86 182.99 282.75 183.01 282.19 C 183.03 281.32 183.08 279.59 183.11 278.72 C 183.11 278.38 183.11 277.69 183.11 277.35 Z" />
<path fill="#e31e25" opacity="1.00" d=" M 285.25 257.24 C 291.54 257.23 297.83 257.22 304.12 257.24 C 304.14 269.30 304.12 281.36 304.12 293.42 C 297.85 292.79 291.59 292.00 285.33 291.22 C 285.15 279.89 285.31 268.57 285.25 257.24 Z" />
<path fill="#e31e25" opacity="1.00" d=" M 222.26 270.62 L 222.81 269.51 C 224.38 273.77 227.10 277.48 230.23 280.73 C 233.54 286.50 238.80 290.90 243.99 294.95 C 250.05 298.77 256.08 302.82 262.96 305.04 C 290.41 314.84 320.53 310.19 348.24 318.87 C 354.17 320.82 359.99 323.33 365.02 327.07 C 367.28 328.81 369.26 330.89 371.61 332.53 C 371.39 332.60 370.94 332.75 370.72 332.83 C 370.39 332.80 369.72 332.75 369.38 332.73 C 362.13 327.91 353.58 325.60 345.15 323.86 C 335.21 321.81 325.05 323.07 315.01 323.28 C 301.01 323.59 286.80 326.32 272.96 322.89 C 262.03 320.54 252.19 314.59 244.14 306.97 C 239.80 301.99 235.70 296.79 232.23 291.16 C 231.92 290.62 231.28 289.54 230.96 289.00 C 229.31 286.10 227.73 283.17 226.23 280.20 C 225.54 278.83 224.86 277.48 224.22 276.10 C 223.62 274.63 223.00 273.17 222.52 271.66 L 222.26 270.62 Z" />
<path fill="#e31e25" opacity="1.00" d=" M 183.24 363.45 C 184.20 363.52 185.17 363.59 186.14 363.66 C 190.66 374.26 196.10 384.49 200.08 395.30 C 194.45 395.26 188.81 395.24 183.18 395.29 C 183.18 384.68 183.05 374.06 183.24 363.45 Z" />
</g>
<g id="#01a85aff">
<path fill="#01a85a" opacity="1.00" d=" M 307.44 257.24 C 335.29 257.27 363.14 257.50 390.99 257.48 C 390.52 262.78 389.14 268.44 385.20 272.27 C 381.36 275.73 375.87 275.87 371.00 276.07 C 354.30 276.21 337.59 275.99 320.89 276.17 C 318.96 276.01 316.97 277.04 316.63 279.07 C 315.72 284.28 316.27 289.60 316.16 294.86 C 313.23 294.59 310.31 294.23 307.41 293.77 C 307.48 281.59 307.41 269.42 307.44 257.24 Z" />
<path fill="#01a85a" opacity="1.00" d=" M 272.94 325.54 C 279.09 327.36 285.42 329.08 291.91 328.35 C 304.24 327.03 316.52 324.67 328.97 324.96 C 339.39 325.33 349.84 326.85 359.74 330.21 C 362.91 331.21 365.93 333.10 369.38 332.73 C 369.72 332.75 370.39 332.80 370.72 332.83 C 371.24 333.19 372.29 333.90 372.81 334.26 C 365.80 334.08 359.01 332.01 352.04 331.45 C 338.22 329.67 324.29 331.99 310.92 335.45 C 303.37 337.24 295.24 338.82 287.66 336.32 C 281.96 334.08 276.55 330.58 272.94 325.54 Z" />
<path fill="#01a85a" opacity="1.00" d=" M 307.41 338.50 C 310.32 337.82 313.23 337.12 316.14 336.46 C 316.14 358.10 316.12 379.74 316.16 401.39 C 313.26 401.40 310.38 401.42 307.49 401.46 C 307.35 380.47 307.51 359.49 307.41 338.50 Z" />
</g>
</svg>
