<?xml version="1.0" encoding="UTF-8" ?>
<!DOCTYPE svg PUBLIC "-//W3C//DTD SVG 1.1//EN" "http://www.w3.org/Graphics/SVG/1.1/DTD/svg11.dtd">
<svg width="271pt" height="122pt" viewBox="0 0 271 122" version="1.1" xmlns="http://www.w3.org/2000/svg">
<g id="#fafafaff">
<path fill="#fafafa" opacity="1.00" d=" M 50.17 25.42 C 52.99 27.74 55.99 29.94 58.23 32.86 C 59.46 34.95 59.83 37.40 60.51 39.69 C 60.68 40.31 61.02 41.56 61.19 42.18 C 58.91 40.31 56.28 38.81 54.36 36.54 C 52.20 33.18 51.27 29.22 50.17 25.42 Z" />
<path fill="#fafafa" opacity="1.00" d=" M 85.56 39.20 C 85.66 32.89 91.01 29.17 95.55 25.79 C 94.81 28.56 94.05 31.34 92.94 33.99 C 91.56 37.80 87.70 39.67 84.89 42.28 C 85.13 41.25 85.35 40.23 85.56 39.20 Z" />
<path fill="#fafafa" opacity="1.00" d=" M 72.03 52.53 C 67.20 46.14 67.99 37.08 72.03 30.52 C 72.39 37.84 72.40 45.20 72.03 52.53 Z" />
<path fill="#fafafa" opacity="1.00" d=" M 72.97 30.38 C 78.57 36.46 78.38 46.46 73.69 53.03 C 71.93 45.61 72.84 37.91 72.97 30.38 Z" />
<path fill="#fafafa" opacity="1.00" d=" M 70.62 56.57 C 71.85 55.79 73.33 55.11 74.71 55.98 C 76.52 57.49 76.09 59.99 76.20 62.07 C 74.05 62.10 71.91 62.10 69.77 62.07 C 69.99 60.24 69.77 58.26 70.62 56.57 Z" />
<path fill="#fafafa" opacity="1.00" d=" M 69.73 85.37 C 68.55 78.66 68.07 71.32 71.98 65.35 C 72.65 72.59 72.03 79.87 72.08 87.13 C 71.31 86.53 70.52 85.94 69.73 85.37 Z" />
<path fill="#fafafa" opacity="1.00" d=" M 72.82 88.34 C 72.60 80.53 72.24 72.64 73.68 64.92 C 77.63 71.42 77.77 79.33 75.41 86.40 C 74.55 87.05 73.69 87.69 72.82 88.34 Z" />
<path fill="#fafafa" opacity="1.00" d=" M 60.28 77.42 L 60.62 76.85 C 61.12 77.70 61.64 78.53 62.17 79.36 C 59.53 83.63 57.07 88.12 53.26 91.50 C 54.70 86.40 57.48 81.87 60.28 77.42 Z" />
<path fill="#fafafa" opacity="1.00" d=" M 85.27 76.99 L 85.63 77.58 C 88.50 81.96 91.34 86.46 92.79 91.55 C 88.75 88.08 86.30 83.28 83.70 78.73 C 84.09 78.29 84.88 77.42 85.27 76.99 Z" />
</g>
<g id="#010001ff">
<path fill="#010001" opacity="1.00" d=" M 8.59 14.94 C 13.06 14.68 17.53 14.69 22.00 14.71 C 59.75 14.76 97.50 14.67 135.24 14.76 C 135.26 24.04 135.40 33.32 135.14 42.60 C 119.07 42.54 102.99 42.46 86.92 42.65 C 87.49 43.85 88.09 45.05 88.61 46.28 C 91.83 54.80 91.56 64.63 88.26 73.09 C 87.80 74.10 87.28 75.08 86.69 76.02 C 86.42 76.41 85.89 77.19 85.63 77.58 L 85.27 76.99 C 78.55 66.64 78.97 52.88 84.89 42.28 C 87.70 39.67 91.56 37.80 92.94 33.99 C 94.05 31.34 94.81 28.56 95.55 25.79 C 91.01 29.17 85.66 32.89 85.56 39.20 C 81.58 35.86 78.16 31.21 72.91 29.92 C 67.56 31.07 64.22 36.06 60.51 39.69 C 59.83 37.40 59.46 34.95 58.23 32.86 C 55.99 29.94 52.99 27.74 50.17 25.42 C 51.27 29.22 52.20 33.18 54.36 36.54 C 56.28 38.81 58.91 40.31 61.19 42.18 C 66.18 52.95 67.38 66.55 60.62 76.85 L 60.28 77.42 C 59.99 77.07 59.42 76.37 59.14 76.02 C 58.39 75.02 57.70 73.96 57.23 72.80 C 54.96 64.15 54.66 54.78 57.28 46.18 C 57.67 45.00 58.06 43.82 58.48 42.65 C 43.29 42.44 28.10 42.60 12.91 42.52 C 11.04 42.32 9.43 43.16 8.12 44.43 C 9.35 34.67 8.51 24.76 8.59 14.94 Z" />
</g>
<g id="#cd0102ff">
<path fill="#cd0102" opacity="1.00" d=" M 137.33 15.18 C 179.17 15.02 221.02 15.10 262.87 15.14 C 262.93 43.38 262.92 71.61 262.88 99.85 C 221.02 99.84 179.16 99.94 137.30 99.81 C 137.43 71.60 137.39 43.39 137.33 15.18 M 139.18 16.40 C 138.08 25.90 138.96 35.46 138.71 44.99 C 138.99 62.92 138.12 80.88 139.03 98.79 C 147.68 99.20 156.34 99.00 165.00 99.04 C 194.00 99.05 223.00 99.04 252.00 99.04 C 255.19 99.02 258.38 98.84 261.57 98.66 C 261.83 71.20 261.57 43.75 261.70 16.29 C 220.86 16.42 180.02 16.21 139.18 16.40 Z" />
<path fill="#cd0102" opacity="1.00" d=" M 60.51 39.69 C 64.22 36.06 67.56 31.07 72.91 29.92 C 78.16 31.21 81.58 35.86 85.56 39.20 C 85.35 40.23 85.13 41.25 84.89 42.28 C 78.97 52.88 78.55 66.64 85.27 76.99 C 84.88 77.42 84.09 78.29 83.70 78.73 C 81.17 81.52 78.43 84.14 75.41 86.40 C 77.77 79.33 77.63 71.42 73.68 64.92 C 72.24 72.64 72.60 80.53 72.82 88.34 C 72.64 88.04 72.27 87.43 72.08 87.13 C 72.03 79.87 72.65 72.59 71.98 65.35 C 68.07 71.32 68.55 78.66 69.73 85.37 C 67.08 83.53 64.44 81.66 62.17 79.36 C 61.64 78.53 61.12 77.70 60.62 76.85 C 67.38 66.55 66.18 52.95 61.19 42.18 C 61.02 41.56 60.68 40.31 60.51 39.69 M 72.03 52.53 C 72.40 45.20 72.39 37.84 72.03 30.52 C 67.99 37.08 67.20 46.14 72.03 52.53 M 72.97 30.38 C 72.84 37.91 71.93 45.61 73.69 53.03 C 78.38 46.46 78.57 36.46 72.97 30.38 M 70.62 56.57 C 69.77 58.26 69.99 60.24 69.77 62.07 C 71.91 62.10 74.05 62.10 76.20 62.07 C 76.09 59.99 76.52 57.49 74.71 55.98 C 73.33 55.11 71.85 55.79 70.62 56.57 Z" />
<path fill="#cd0102" opacity="1.00" d=" M 8.73 46.01 C 24.91 45.90 41.11 45.59 57.28 46.18 C 54.66 54.78 54.96 64.15 57.23 72.80 C 41.08 73.62 24.89 73.02 8.73 73.14 C 8.58 64.10 8.59 55.05 8.73 46.01 Z" />
<path fill="#cd0102" opacity="1.00" d=" M 88.61 46.28 C 104.15 45.49 119.74 45.92 135.29 46.03 C 135.43 55.06 135.44 64.08 135.29 73.11 C 119.61 73.21 103.93 73.27 88.26 73.09 C 91.56 64.63 91.83 54.80 88.61 46.28 Z" />
</g>
<g id="#fe0000ff">
<path fill="#fe0000" opacity="1.00" d=" M 139.18 16.40 C 180.02 16.21 220.86 16.42 261.70 16.29 C 261.57 43.75 261.83 71.20 261.57 98.66 C 258.38 98.84 255.19 99.02 252.00 99.04 C 223.00 99.04 194.00 99.05 165.00 99.04 C 156.34 99.00 147.68 99.20 139.03 98.79 C 138.12 80.88 138.99 62.92 138.71 44.99 C 138.96 35.46 138.08 25.90 139.18 16.40 M 171.45 19.40 C 171.09 20.58 170.73 21.76 170.37 22.94 C 171.96 23.20 173.55 23.46 175.14 23.72 C 175.12 22.23 175.09 20.74 175.04 19.25 C 173.84 19.30 172.65 19.35 171.45 19.40 M 155.32 22.04 C 154.45 24.20 153.59 26.37 152.73 28.53 C 150.40 28.77 148.07 29.03 145.75 29.31 C 147.24 30.92 148.76 32.51 150.29 34.08 C 150.24 36.09 150.19 38.10 150.14 40.11 C 151.78 39.18 153.43 38.23 155.07 37.29 C 156.96 38.21 158.84 39.14 160.72 40.08 C 160.54 38.12 160.22 36.16 160.37 34.19 C 161.08 32.26 162.92 31.03 164.22 29.53 C 162.26 29.14 160.29 28.76 158.32 28.38 C 157.33 26.26 156.33 24.15 155.32 22.04 M 178.18 29.16 C 178.87 29.97 179.56 30.78 180.25 31.59 C 181.03 31.28 181.81 30.96 182.59 30.64 C 182.65 29.52 182.72 28.39 182.79 27.27 C 182.07 27.14 180.64 26.89 179.92 26.76 C 179.34 27.56 178.76 28.36 178.18 29.16 M 177.68 39.39 C 179.13 40.77 180.70 42.02 182.37 43.14 C 182.74 41.84 183.12 40.53 183.49 39.23 C 182.64 38.57 181.79 37.90 180.95 37.23 C 179.85 37.95 178.76 38.66 177.68 39.39 M 171.45 45.39 C 171.08 46.60 170.71 47.81 170.35 49.02 C 171.52 49.23 172.69 49.43 173.87 49.64 C 174.49 49.07 175.12 48.49 175.76 47.92 C 175.37 47.06 174.98 46.21 174.60 45.35 C 173.54 45.36 172.50 45.38 171.45 45.39 Z" />
</g>
<g id="#feed11ff">
<path fill="#feed11" opacity="1.00" d=" M 171.45 19.40 C 172.65 19.35 173.84 19.30 175.04 19.25 C 175.09 20.74 175.12 22.23 175.14 23.72 C 173.55 23.46 171.96 23.20 170.37 22.94 C 170.73 21.76 171.09 20.58 171.45 19.40 Z" />
<path fill="#feed11" opacity="1.00" d=" M 155.32 22.04 C 156.33 24.15 157.33 26.26 158.32 28.38 C 160.29 28.76 162.26 29.14 164.22 29.53 C 162.92 31.03 161.08 32.26 160.37 34.19 C 160.22 36.16 160.54 38.12 160.72 40.08 C 158.84 39.14 156.96 38.21 155.07 37.29 C 153.43 38.23 151.78 39.18 150.14 40.11 C 150.19 38.10 150.24 36.09 150.29 34.08 C 148.76 32.51 147.24 30.92 145.75 29.31 C 148.07 29.03 150.40 28.77 152.73 28.53 C 153.59 26.37 154.45 24.20 155.32 22.04 Z" />
<path fill="#feed11" opacity="1.00" d=" M 178.18 29.16 C 178.76 28.36 179.34 27.56 179.92 26.76 C 180.64 26.89 182.07 27.14 182.79 27.27 C 182.72 28.39 182.65 29.52 182.59 30.64 C 181.81 30.96 181.03 31.28 180.25 31.59 C 179.56 30.78 178.87 29.97 178.18 29.16 Z" />
<path fill="#feed11" opacity="1.00" d=" M 177.68 39.39 C 178.76 38.66 179.85 37.95 180.95 37.23 C 181.79 37.90 182.64 38.57 183.49 39.23 C 183.12 40.53 182.74 41.84 182.37 43.14 C 180.70 42.02 179.13 40.77 177.68 39.39 Z" />
<path fill="#feed11" opacity="1.00" d=" M 171.45 45.39 C 172.50 45.38 173.54 45.36 174.60 45.35 C 174.98 46.21 175.37 47.06 175.76 47.92 C 175.12 48.49 174.49 49.07 173.87 49.64 C 172.69 49.43 171.52 49.23 170.35 49.02 C 170.71 47.81 171.08 46.60 171.45 45.39 Z" />
</g>
<g id="#016501ff">
<path fill="#016501" opacity="1.00" d=" M 8.71 75.90 C 25.52 75.89 42.35 75.59 59.14 76.02 C 59.42 76.37 59.99 77.07 60.28 77.42 C 57.48 81.87 54.70 86.40 53.26 91.50 C 57.07 88.12 59.53 83.63 62.17 79.36 C 64.44 81.66 67.08 83.53 69.73 85.37 C 70.52 85.94 71.31 86.53 72.08 87.13 C 72.27 87.43 72.64 88.04 72.82 88.34 C 73.69 87.69 74.55 87.05 75.41 86.40 C 78.43 84.14 81.17 81.52 83.70 78.73 C 86.30 83.28 88.75 88.08 92.79 91.55 C 91.34 86.46 88.50 81.96 85.63 77.58 C 85.89 77.19 86.42 76.41 86.69 76.02 C 102.87 75.57 119.08 75.92 135.28 75.87 C 135.39 84.00 135.39 92.14 135.27 100.27 C 93.09 100.39 50.91 100.39 8.73 100.27 C 8.59 92.15 8.62 84.02 8.71 75.90 Z" />
</g>
</svg>
