<?xml version="1.0" encoding="UTF-8" ?>
<!DOCTYPE svg PUBLIC "-//W3C//DTD SVG 1.1//EN" "http://www.w3.org/Graphics/SVG/1.1/DTD/svg11.dtd">
<svg width="322pt" height="276pt" viewBox="0 0 322 276" version="1.1" xmlns="http://www.w3.org/2000/svg">
<g id="#ffffffff">
<path fill="#ffffff" opacity="1.00" d=" M 203.40 65.21 C 205.42 65.59 206.48 67.70 207.96 68.94 C 206.61 70.30 205.25 71.68 203.90 73.05 C 202.52 71.69 201.14 70.32 199.77 68.96 C 200.94 67.68 202.08 66.36 203.40 65.21 Z" />
<path fill="#ffffff" opacity="1.00" d=" M 191.20 250.63 C 190.90 249.30 192.99 248.32 194.04 248.91 C 194.26 250.17 192.24 251.22 191.20 250.63 Z" />
<path fill="#ffffff" opacity="1.00" d=" M 213.14 249.18 C 214.07 247.97 216.45 249.37 215.49 250.71 C 214.53 251.76 212.03 250.58 213.14 249.18 Z" />
</g>
<g id="#ab965fff">
<path fill="#ab965f" opacity="1.00" d=" M 127.28 27.52 C 130.26 25.10 133.36 22.80 135.82 19.82 C 135.72 32.33 135.86 44.84 135.79 57.35 C 146.56 57.35 157.32 57.39 168.09 57.33 C 167.69 55.48 168.28 52.68 165.93 51.96 C 160.26 50.08 154.08 52.20 148.35 50.74 C 145.71 49.48 146.39 46.16 146.79 43.83 C 153.38 47.22 160.91 44.69 167.84 46.12 C 172.67 47.50 173.82 52.99 173.97 57.35 C 176.75 57.36 179.53 57.36 182.31 57.36 C 182.25 53.24 182.56 49.10 182.08 45.01 C 181.21 43.75 179.98 42.79 178.91 41.72 C 181.95 38.99 185.09 36.34 187.70 33.18 C 187.52 43.00 187.67 52.83 187.61 62.65 C 182.88 62.63 178.14 62.62 173.40 62.67 C 173.87 65.06 174.40 67.44 174.91 69.83 C 173.21 69.70 171.46 69.83 169.82 69.31 C 167.96 67.64 168.17 64.88 167.30 62.71 C 155.02 62.52 142.72 62.70 130.44 62.64 C 130.29 52.12 130.62 41.59 130.12 31.08 C 129.17 29.94 126.86 29.31 127.28 27.52 Z" />
<path fill="#ab965f" opacity="1.00" d=" M 222.44 19.82 C 225.29 22.71 228.34 25.40 231.56 27.88 C 230.15 29.38 227.75 30.53 228.01 32.95 C 227.55 42.86 228.20 52.79 228.04 62.70 C 226.18 62.70 224.31 62.70 222.45 62.70 C 222.44 48.41 222.45 34.12 222.44 19.82 Z" />
<path fill="#ab965f" opacity="1.00" d=" M 193.22 20.36 C 195.63 23.00 198.06 25.62 200.66 28.08 C 199.71 29.09 198.76 30.10 197.81 31.10 C 197.55 38.40 197.70 45.70 197.76 53.00 C 199.77 55.10 201.81 57.19 203.87 59.25 C 205.84 57.16 208.16 55.33 209.67 52.87 C 210.09 46.25 209.86 39.59 209.84 32.96 C 210.02 30.87 208.23 29.49 207.19 27.91 C 209.63 25.50 211.99 22.99 214.46 20.60 C 214.58 32.25 214.54 43.90 214.50 55.54 C 212.07 57.97 209.67 60.42 207.35 62.95 C 209.30 64.93 211.24 66.93 213.16 68.95 C 210.07 72.05 206.97 75.14 203.91 78.27 C 200.63 75.28 197.53 72.09 194.40 68.95 C 196.32 66.93 198.26 64.95 200.21 62.98 C 197.96 60.57 195.23 58.58 193.33 55.86 C 192.94 44.05 193.22 32.19 193.22 20.36 M 203.40 65.21 C 202.08 66.36 200.94 67.68 199.77 68.96 C 201.14 70.32 202.52 71.69 203.90 73.05 C 205.25 71.68 206.61 70.30 207.96 68.94 C 206.48 67.70 205.42 65.59 203.40 65.21 Z" />
<path fill="#ab965f" opacity="1.00" d=" M 169.80 28.87 C 171.20 27.35 172.61 25.84 174.02 24.33 C 175.43 25.83 176.84 27.34 178.24 28.85 C 176.83 30.22 175.42 31.60 174.02 32.99 C 172.61 31.61 171.21 30.24 169.80 28.87 Z" />
<path fill="#ab965f" opacity="1.00" d=" M 179.02 28.90 C 179.92 27.12 181.50 25.83 182.84 24.39 C 184.27 25.77 185.70 27.16 187.13 28.55 C 185.76 30.09 184.36 31.60 182.96 33.11 C 181.62 31.74 180.22 30.41 179.02 28.90 Z" />
<path fill="#ab965f" opacity="1.00" d=" M 85.13 31.84 C 87.43 34.11 89.69 36.42 91.97 38.70 C 90.94 40.16 89.96 41.66 89.07 43.21 C 99.37 43.49 109.68 43.08 119.97 43.39 C 122.46 43.19 123.11 45.95 122.88 47.90 C 122.64 54.51 123.22 61.16 122.56 67.74 C 119.70 73.46 109.88 74.27 106.55 68.56 C 105.98 66.67 105.93 64.68 105.68 62.74 C 98.92 62.74 92.15 62.74 85.39 62.75 C 85.39 60.90 85.39 59.05 85.38 57.21 C 93.48 57.21 101.59 57.22 109.69 57.21 C 109.98 60.14 108.80 63.72 110.91 66.13 C 112.73 67.10 116.71 67.72 116.99 64.89 C 117.48 59.97 117.41 54.96 117.01 50.04 C 116.60 48.16 114.51 48.58 113.08 48.42 C 103.75 48.38 94.43 48.45 85.11 48.41 C 85.10 42.89 85.07 37.36 85.13 31.84 Z" />
<path fill="#ab965f" opacity="1.00" d=" M 124.11 90.64 C 128.04 90.69 131.97 90.69 135.90 90.64 C 135.21 93.37 134.69 96.16 134.77 98.99 C 134.84 106.34 134.82 113.69 134.78 121.04 C 134.65 123.27 135.36 125.40 136.21 127.43 C 132.08 127.47 127.96 127.51 123.84 127.47 C 124.37 126.44 124.92 125.42 125.49 124.41 C 125.66 117.62 125.55 110.82 125.61 104.03 C 125.56 99.54 126.26 94.79 124.11 90.64 Z" />
<path fill="#ab965f" opacity="1.00" d=" M 139.18 90.65 C 143.08 90.70 146.99 90.70 150.90 90.64 C 149.03 96.64 149.86 102.96 149.82 109.13 C 151.48 107.31 153.15 105.50 154.81 103.68 C 162.61 103.77 170.41 103.68 178.21 103.77 C 178.42 99.40 178.63 94.91 176.98 90.76 C 181.04 90.70 185.11 90.69 189.17 90.80 C 188.63 91.86 188.09 92.92 187.54 93.98 C 187.40 100.28 187.74 106.58 187.52 112.88 C 187.58 114.39 186.28 115.38 185.42 116.44 C 183.04 118.96 180.60 121.41 178.19 123.90 C 177.95 119.33 178.80 114.63 177.87 110.15 C 173.64 109.34 169.30 109.95 165.02 109.78 C 159.89 109.98 154.34 108.72 149.68 111.53 C 150.17 116.81 148.58 122.55 151.31 127.42 C 147.16 127.52 143.00 127.56 138.85 127.47 C 139.39 126.36 139.93 125.26 140.48 124.16 C 140.47 115.42 140.43 106.68 140.47 97.94 C 140.58 95.43 139.91 93.02 139.18 90.65 Z" />
<path fill="#ab965f" opacity="1.00" d=" M 20.65 100.61 C 25.55 94.00 33.99 91.04 41.96 90.66 C 49.00 90.49 56.04 90.64 63.08 90.65 C 61.38 93.06 59.81 95.66 57.49 97.53 C 51.36 97.18 45.20 96.87 39.08 97.49 C 33.03 98.24 26.79 103.45 27.50 110.01 C 27.83 114.80 31.86 118.43 36.26 119.72 C 43.65 121.83 51.42 121.16 59.00 121.24 C 65.36 121.10 71.94 122.07 78.00 119.56 C 76.14 122.29 74.10 124.88 71.94 127.37 C 62.30 127.39 52.65 127.42 43.00 127.29 C 35.11 127.05 26.69 124.78 21.25 118.72 C 16.83 113.78 16.66 105.85 20.65 100.61 Z" />
<path fill="#ab965f" opacity="1.00" d=" M 66.17 90.69 C 84.76 90.54 103.35 90.66 121.94 90.72 C 120.07 93.32 118.09 95.84 116.00 98.27 C 109.43 96.15 102.35 97.79 95.57 97.18 C 95.35 106.17 95.49 115.17 95.43 124.16 C 95.99 125.24 96.55 126.32 97.10 127.41 C 92.93 127.47 88.75 127.42 84.58 127.36 C 87.06 123.29 86.08 118.42 86.24 113.92 C 86.13 108.57 86.51 103.22 86.15 97.88 C 85.92 97.63 85.46 97.12 85.23 96.86 C 77.07 96.65 68.85 96.30 60.78 97.78 C 62.54 95.40 64.39 93.07 66.17 90.69 Z" />
<path fill="#ab965f" opacity="1.00" d=" M 207.75 96.83 C 208.34 94.32 211.02 92.77 212.71 90.88 C 224.00 103.38 236.31 114.91 247.38 127.62 C 243.00 127.73 238.62 127.66 234.25 127.71 C 235.39 124.75 232.64 122.95 230.96 121.06 C 228.59 118.77 226.59 116.08 223.93 114.12 C 217.08 113.31 210.08 113.74 203.22 114.37 C 205.05 112.08 207.01 109.91 208.99 107.75 C 212.04 107.70 215.10 107.65 218.15 107.53 C 214.43 104.24 210.77 100.80 207.75 96.83 Z" />
<path fill="#ab965f" opacity="1.00" d=" M 244.04 91.22 C 256.30 91.37 268.57 91.17 280.84 91.36 C 287.68 91.53 294.86 93.27 300.01 98.03 C 304.40 101.90 306.82 108.25 305.05 113.98 C 303.38 119.52 298.33 123.27 293.18 125.36 C 287.13 127.97 280.42 127.68 273.98 127.71 C 265.75 127.65 257.52 127.79 249.29 127.58 C 250.24 125.87 251.29 124.08 251.03 122.03 C 250.80 114.16 250.91 106.29 250.89 98.43 C 254.01 98.39 257.14 98.39 260.27 98.40 C 260.26 106.11 260.24 113.82 260.24 121.53 C 266.82 121.46 273.39 121.66 279.96 121.47 C 284.78 121.30 289.93 119.99 293.34 116.37 C 295.98 113.61 296.57 109.26 295.27 105.75 C 292.87 100.30 286.70 97.69 281.04 97.50 C 269.28 97.11 257.50 97.71 245.74 97.34 C 245.34 95.25 244.79 93.20 244.04 91.22 Z" />
<path fill="#ab965f" opacity="1.00" d=" M 177.29 127.40 C 186.61 117.20 196.51 107.57 206.12 97.65 C 207.76 99.35 209.79 100.81 210.83 102.98 C 211.27 104.30 209.56 104.98 208.96 105.91 C 202.56 112.16 196.43 118.66 190.18 125.05 C 190.38 125.90 190.59 126.75 190.80 127.60 C 186.30 127.62 181.79 127.64 177.29 127.40 Z" />
<path fill="#ab965f" opacity="1.00" d=" M 31.41 104.33 C 44.33 104.39 57.24 104.35 70.16 104.45 C 68.17 106.86 66.20 109.29 64.22 111.71 C 61.61 109.59 58.13 110.36 55.03 110.24 C 45.94 110.20 36.82 110.44 27.74 110.10 C 28.71 108.04 30.20 106.26 31.41 104.33 Z" />
<path fill="#ab965f" opacity="1.00" d=" M 101.96 141.72 C 103.96 141.72 105.96 141.73 107.96 141.74 C 107.21 142.47 106.46 143.19 105.72 143.92 C 105.71 146.72 105.93 149.53 106.78 152.22 C 105.10 152.17 103.41 152.13 101.73 152.09 C 102.18 151.60 103.09 150.63 103.54 150.14 C 103.53 148.05 103.53 145.96 103.53 143.88 C 103.01 143.15 102.48 142.43 101.96 141.72 Z" />
<path fill="#ab965f" opacity="1.00" d=" M 75.46 143.67 C 76.14 142.97 77.52 141.56 78.20 140.86 C 79.62 144.65 80.98 148.49 83.11 151.95 C 81.52 151.92 79.93 151.91 78.34 151.90 C 78.68 150.72 79.00 149.55 79.33 148.37 C 78.46 148.35 76.72 148.32 75.85 148.30 C 74.15 149.36 76.09 151.02 76.83 151.97 C 75.24 151.92 73.65 151.91 72.07 151.92 C 73.33 150.05 74.42 148.04 74.79 145.79 C 75.94 146.12 77.09 146.46 78.24 146.80 C 77.32 145.75 76.36 144.73 75.46 143.67 Z" />
<path fill="#ab965f" opacity="1.00" d=" M 126.76 141.71 C 129.60 141.95 132.92 141.20 135.34 143.03 C 136.04 144.66 134.65 146.05 134.01 147.41 C 135.41 149.25 137.04 150.88 138.69 152.50 C 134.96 152.81 132.88 149.79 130.58 147.46 C 130.70 149.32 131.35 151.00 133.06 151.93 C 130.93 152.02 128.81 152.15 126.69 152.27 C 127.13 151.72 128.01 150.63 128.45 150.09 C 128.45 148.01 128.46 145.93 128.47 143.85 C 128.04 143.32 127.19 142.25 126.76 141.71 M 131.06 143.23 C 129.82 144.16 130.91 147.15 132.49 145.87 C 133.72 144.94 132.62 141.99 131.06 143.23 Z" />
<path fill="#ab965f" opacity="1.00" d=" M 155.36 141.76 C 156.38 141.77 158.43 141.78 159.46 141.79 C 159.52 143.94 158.64 148.07 162.14 147.52 C 161.34 149.31 160.57 151.10 159.77 152.89 C 158.18 149.22 157.27 145.29 155.36 141.76 Z" />
<path fill="#ab965f" opacity="1.00" d=" M 161.37 141.76 C 164.27 141.99 167.19 142.11 170.11 142.14 C 169.10 143.23 168.83 145.38 167.31 145.80 C 166.72 144.59 166.93 142.28 165.00 142.89 C 163.83 144.00 165.12 145.90 165.08 147.30 C 165.52 147.27 166.38 147.20 166.81 147.17 C 166.96 149.11 166.15 150.91 165.52 152.69 C 163.77 150.80 164.00 147.35 161.40 146.36 C 161.42 144.83 161.43 143.29 161.37 141.76 Z" />
<path fill="#ab965f" opacity="1.00" d=" M 186.44 152.26 C 188.79 148.69 190.19 144.63 192.19 140.87 C 194.30 144.59 195.15 148.93 197.84 152.32 C 196.37 152.31 194.90 152.29 193.43 152.29 C 193.36 150.64 193.68 147.39 191.05 148.34 C 188.79 148.53 189.90 151.25 190.99 152.31 C 189.47 152.28 187.96 152.27 186.44 152.26 M 191.10 145.43 C 189.53 148.41 194.43 145.61 191.10 145.43 Z" />
<path fill="#ab965f" opacity="1.00" d=" M 214.60 142.01 C 216.15 142.08 217.70 142.15 219.26 142.22 C 219.21 143.88 219.28 145.61 220.97 146.45 C 221.11 144.99 221.23 143.54 221.33 142.09 C 222.56 142.09 223.79 142.08 225.02 142.07 C 222.92 144.23 220.56 146.75 220.74 149.99 C 221.44 150.82 222.21 151.59 222.97 152.37 C 220.66 152.30 218.36 152.26 216.05 152.28 C 216.91 151.58 217.74 150.86 218.56 150.12 C 218.57 146.93 216.44 144.39 214.60 142.01 Z" />
<path fill="#ab965f" opacity="1.00" d=" M 244.67 143.56 C 245.88 141.49 248.78 142.42 250.76 142.17 C 250.62 143.32 250.48 144.48 250.34 145.64 C 249.53 144.59 248.71 143.54 247.90 142.49 C 243.66 145.77 253.52 146.88 250.96 150.85 C 249.71 153.16 246.72 152.29 244.59 152.51 C 244.23 151.14 243.88 149.78 243.52 148.41 C 245.16 150.01 246.88 151.87 249.43 151.42 C 248.92 147.95 242.82 147.41 244.67 143.56 Z" />
</g>
<g id="#ddc4b2ff">
<path fill="#ddc4b2" opacity="1.00" d=" M 191.10 145.43 C 194.43 145.61 189.53 148.41 191.10 145.43 Z" />
</g>
<g id="#ee2128ff">
<path fill="#ee2128" opacity="1.00" d=" M 17.97 225.01 C 17.31 209.77 31.00 196.06 46.05 195.71 C 52.51 195.35 59.21 197.56 63.71 202.32 C 69.24 207.92 70.92 216.57 68.84 224.04 C 67.81 228.47 65.23 232.28 62.74 235.99 C 66.82 236.47 70.75 235.35 74.25 233.29 C 73.83 236.53 73.33 240.38 70.33 242.32 C 65.75 245.54 59.69 244.39 54.96 242.13 C 48.07 245.88 39.66 247.36 32.16 244.61 C 23.94 241.90 18.03 233.66 17.97 225.01 M 26.87 212.90 C 23.10 218.03 20.77 224.63 22.06 231.02 C 23.18 236.84 28.10 241.60 33.89 242.75 C 39.89 244.23 46.03 242.36 51.49 239.89 C 46.45 235.58 42.98 229.87 40.56 223.76 C 38.71 227.67 36.95 232.53 39.50 236.55 C 36.30 236.22 33.07 236.15 29.85 235.96 C 28.64 227.04 32.97 218.93 36.32 211.00 C 35.65 210.94 34.29 210.80 33.61 210.74 C 37.11 207.67 42.02 204.63 46.80 206.29 C 46.32 209.46 44.74 212.32 43.66 215.32 C 49.48 211.84 55.18 208.13 60.17 203.52 C 62.31 207.74 61.66 213.75 57.79 216.81 C 54.23 219.98 49.54 221.33 45.00 222.37 C 49.69 226.33 54.33 230.36 59.33 233.93 C 64.85 227.90 69.18 219.42 66.82 211.11 C 65.00 204.24 57.99 199.76 51.05 199.96 C 41.45 199.84 32.54 205.41 26.87 212.90 Z" />
<path fill="#ee2128" opacity="1.00" d=" M 195.76 211.52 C 197.70 211.50 199.64 211.49 201.58 211.49 C 201.33 212.59 201.09 213.69 200.85 214.80 C 198.91 214.76 196.98 214.74 195.05 214.71 C 195.28 213.65 195.52 212.58 195.76 211.52 Z" />
<path fill="#ee2128" opacity="1.00" d=" M 78.68 232.25 C 80.04 225.42 81.40 218.58 82.78 211.75 C 84.72 211.75 86.65 211.75 88.59 211.76 C 87.96 214.71 87.33 217.66 86.79 220.62 C 89.22 217.71 91.51 214.70 93.85 211.72 C 95.41 211.73 96.97 211.75 98.54 211.77 C 96.21 214.80 93.85 217.82 91.50 220.84 C 93.64 224.66 95.85 228.44 97.99 232.27 C 95.77 232.25 93.55 232.24 91.33 232.21 C 89.71 229.11 88.03 226.03 86.27 223.00 C 85.64 226.08 85.08 229.17 84.48 232.26 C 82.54 232.26 80.61 232.25 78.68 232.25 Z" />
<path fill="#ee2128" opacity="1.00" d=" M 169.71 232.22 C 173.38 225.37 177.08 218.53 180.83 211.71 C 182.77 211.74 184.70 211.77 186.64 211.82 C 187.88 218.64 189.26 225.44 190.57 232.24 C 188.73 232.24 186.89 232.24 185.05 232.24 C 184.70 230.57 184.35 228.91 183.99 227.24 C 181.51 227.25 179.03 227.26 176.56 227.30 C 175.71 228.95 174.85 230.59 174.00 232.24 C 172.57 232.23 171.14 232.23 169.71 232.22 M 178.61 223.74 C 180.18 223.74 181.77 223.74 183.35 223.74 C 182.95 221.57 182.54 219.41 182.12 217.26 C 180.91 219.40 179.74 221.56 178.61 223.74 Z" />
<path fill="#ee2128" opacity="1.00" d=" M 97.29 227.94 C 96.96 221.11 104.13 214.52 110.93 216.91 C 113.33 217.83 113.14 221.14 111.90 222.94 C 109.89 226.09 105.90 226.73 102.56 227.54 C 105.66 230.70 109.86 228.11 113.23 226.88 C 112.82 228.22 112.54 229.62 111.97 230.91 C 108.92 232.27 105.44 232.95 102.11 232.47 C 99.75 232.16 97.48 230.47 97.29 227.94 M 103.38 224.19 C 104.58 223.49 106.53 223.62 107.25 222.23 C 107.96 221.45 107.41 219.45 106.08 219.96 C 104.52 220.85 104.11 222.70 103.38 224.19 Z" />
<path fill="#ee2128" opacity="1.00" d=" M 113.63 232.22 C 114.66 227.06 115.66 221.90 116.77 216.75 C 118.68 216.76 120.59 216.76 122.50 216.76 C 122.03 218.59 121.57 220.42 121.09 222.24 C 122.61 220.35 123.95 218.18 126.10 216.94 C 127.99 215.86 131.18 216.43 131.46 218.97 C 131.20 223.47 129.77 227.81 129.02 232.24 C 127.11 232.24 125.19 232.25 123.29 232.26 C 124.03 228.58 124.79 224.90 125.28 221.18 C 122.12 224.13 119.75 227.86 119.33 232.24 C 117.43 232.23 115.53 232.23 113.63 232.22 Z" />
<path fill="#ee2128" opacity="1.00" d=" M 132.64 216.80 C 134.59 216.77 136.53 216.74 138.47 216.71 C 139.08 219.59 139.63 222.49 140.20 225.38 C 142.17 222.53 144.13 219.67 146.04 216.78 C 147.58 216.77 149.12 216.77 150.66 216.77 C 145.99 223.80 141.03 230.61 136.43 237.68 C 134.34 237.73 132.25 237.75 130.17 237.79 C 131.98 235.87 133.77 233.93 135.57 232.00 C 134.56 226.94 133.60 221.87 132.64 216.80 Z" />
<path fill="#ee2128" opacity="1.00" d=" M 153.00 218.08 C 156.66 215.37 161.42 217.08 165.58 216.81 C 164.46 221.95 163.47 227.11 162.41 232.27 C 160.50 232.26 158.59 232.25 156.69 232.25 C 157.15 230.39 157.63 228.54 158.11 226.68 C 156.33 228.87 154.83 231.70 151.96 232.57 C 149.68 233.27 147.29 231.32 147.24 229.02 C 147.12 224.70 149.60 220.60 153.00 218.08 M 153.27 228.42 C 155.90 226.01 158.08 223.12 159.44 219.80 C 154.58 218.90 152.70 224.57 153.27 228.42 Z" />
<path fill="#ee2128" opacity="1.00" d=" M 194.63 216.74 C 196.55 216.75 198.47 216.76 200.39 216.77 C 199.41 221.94 198.35 227.10 197.31 232.27 C 195.38 232.25 193.46 232.25 191.54 232.24 C 192.55 227.07 193.59 221.91 194.63 216.74 Z" />
<path fill="#ee2128" opacity="1.00" d=" M 202.89 216.74 C 204.80 216.75 206.71 216.76 208.63 216.78 C 208.15 218.60 207.67 220.42 207.18 222.24 C 209.30 219.23 211.87 215.94 216.02 216.23 C 215.41 217.94 214.77 219.65 214.08 221.34 C 208.44 221.26 206.24 227.68 205.39 232.28 C 203.50 232.26 201.61 232.24 199.73 232.23 C 200.74 227.06 201.86 221.91 202.89 216.74 Z" />
<path fill="#ee2128" opacity="1.00" d=" M 216.89 216.76 C 218.57 216.76 220.26 216.76 221.95 216.76 C 221.98 219.76 222.09 222.75 222.30 225.75 C 223.89 222.79 225.38 219.77 226.87 216.76 C 228.48 216.76 230.10 216.75 231.72 216.75 C 231.91 219.83 232.00 222.92 232.11 226.01 C 233.80 222.98 235.34 219.86 236.88 216.75 C 238.30 216.76 239.71 216.77 241.13 216.78 C 238.35 221.86 235.85 227.09 233.22 232.25 C 231.40 232.24 229.58 232.23 227.77 232.23 C 227.59 229.36 227.50 226.49 227.45 223.62 C 225.88 226.45 224.44 229.35 222.99 232.25 C 221.15 232.25 219.32 232.25 217.49 232.25 C 217.20 227.09 217.03 221.93 216.89 216.76 Z" />
<path fill="#ee2128" opacity="1.00" d=" M 238.26 228.04 C 238.78 223.09 242.12 218.08 247.05 216.66 C 250.22 216.40 253.39 216.81 256.56 216.82 C 255.54 221.96 254.50 227.10 253.47 232.24 C 251.55 232.23 249.63 232.23 247.71 232.23 C 248.15 230.42 248.61 228.63 249.07 226.83 C 247.13 229.13 245.38 232.46 242.01 232.67 C 239.58 232.87 237.99 230.22 238.26 228.04 M 243.94 228.32 C 246.79 226.30 249.21 223.49 250.18 220.08 C 245.51 218.60 244.09 224.88 243.94 228.32 Z" />
<path fill="#ee2128" opacity="1.00" d=" M 258.12 216.77 C 260.09 216.76 262.06 216.75 264.04 216.75 C 264.58 219.61 265.12 222.48 265.70 225.33 C 267.70 222.46 269.69 219.58 271.69 216.71 C 272.80 216.73 275.03 216.77 276.15 216.79 C 271.35 223.77 266.61 230.78 261.79 237.74 C 259.78 237.75 257.77 237.76 255.76 237.78 C 257.52 235.85 259.27 233.93 261.05 232.02 C 260.07 226.94 259.08 221.86 258.12 216.77 Z" />
<path fill="#ee2128" opacity="1.00" d=" M 275.99 221.99 C 275.59 219.80 277.09 217.63 279.16 216.99 C 281.92 216.09 284.87 216.63 287.70 216.70 C 287.54 217.58 287.21 219.33 287.05 220.21 C 284.97 219.87 282.77 219.52 280.90 220.78 C 282.43 222.32 284.17 223.68 285.52 225.40 C 287.07 227.44 285.87 230.65 283.64 231.67 C 280.31 233.37 276.48 232.43 272.97 231.92 C 273.24 230.62 273.51 229.32 273.78 228.02 C 275.92 228.68 278.09 229.48 280.37 229.12 C 280.52 225.93 276.61 224.88 275.99 221.99 Z" />
</g>
<g id="#373636ff">
<path fill="#373636" opacity="1.00" d=" M 121.44 242.97 C 123.49 238.83 128.93 242.53 132.20 240.09 C 134.27 240.96 136.60 241.26 138.45 242.62 C 135.92 242.76 133.39 242.59 130.87 242.47 C 129.54 244.19 127.92 245.85 127.51 248.06 C 127.89 250.38 130.71 251.03 132.68 250.62 C 137.80 249.81 139.06 243.81 143.23 241.45 C 143.62 245.80 138.70 247.06 137.61 250.73 C 139.43 249.78 141.14 248.65 143.00 247.77 C 143.36 249.02 143.67 250.28 143.94 251.57 C 145.40 248.73 148.38 246.92 151.60 247.69 C 150.45 249.54 148.59 250.19 146.45 250.06 C 148.65 251.57 151.09 250.48 153.43 250.09 C 151.04 251.81 148.24 253.11 145.26 252.24 C 144.17 252.15 142.54 253.45 141.81 252.37 C 141.63 251.70 141.26 250.36 141.08 249.69 C 139.71 250.70 138.35 251.71 136.96 252.70 C 135.70 250.44 133.60 251.96 131.78 252.34 C 129.41 253.04 126.17 252.46 125.30 249.84 C 124.96 246.92 127.42 244.87 129.07 242.83 C 126.53 242.97 123.98 243.06 121.44 242.97 Z" />
<path fill="#373636" opacity="1.00" d=" M 234.72 246.80 C 239.41 245.40 242.98 241.63 247.83 240.65 C 249.55 243.80 250.45 247.29 251.52 250.69 C 253.14 249.55 254.81 248.47 256.68 247.77 C 258.06 245.66 259.34 243.48 260.83 241.44 C 262.21 244.44 259.42 246.93 258.13 249.37 C 259.56 248.58 260.96 247.76 262.35 246.90 C 262.93 247.75 263.53 248.61 264.12 249.47 C 263.77 249.92 263.05 250.84 262.70 251.30 C 265.46 251.03 267.15 248.69 269.25 247.19 C 268.75 248.58 268.26 249.98 267.78 251.39 C 270.95 250.38 273.55 246.64 277.20 248.21 C 275.97 248.51 273.51 249.12 272.27 249.43 C 273.05 252.01 276.77 251.11 277.14 248.70 C 278.99 249.06 279.52 250.99 280.51 252.34 C 279.35 252.31 277.01 252.24 275.85 252.20 C 274.03 252.41 272.20 252.44 270.40 252.11 C 268.75 252.34 267.08 252.43 265.43 252.16 C 263.84 252.36 262.23 252.41 260.64 252.21 C 261.01 251.57 261.77 250.30 262.14 249.66 C 260.31 249.77 258.48 249.87 256.65 249.96 C 256.44 252.78 256.00 255.69 254.18 257.96 C 253.17 255.11 254.22 252.25 255.31 249.60 C 253.60 250.61 252.07 252.16 250.01 252.42 C 248.55 251.36 248.73 249.23 248.13 247.72 C 244.27 248.88 240.25 248.83 236.27 248.81 C 233.80 250.55 231.71 253.20 228.42 253.25 C 230.19 250.78 232.79 249.12 234.72 246.80 M 238.37 246.93 C 241.54 247.07 244.93 247.63 247.93 246.26 C 247.42 245.39 246.39 243.63 245.88 242.75 C 243.09 243.58 240.62 245.12 238.37 246.93 Z" />
<path fill="#373636" opacity="1.00" d=" M 158.09 245.85 C 159.95 244.58 161.80 243.29 163.67 242.02 C 162.89 243.59 161.33 246.72 160.56 248.29 C 164.90 245.40 169.92 241.02 175.61 242.41 C 178.00 242.94 178.98 245.68 177.87 247.78 C 174.45 252.89 166.98 254.82 161.52 252.01 C 160.66 251.91 159.79 251.83 158.93 251.77 C 158.46 254.48 156.93 258.01 153.58 257.25 C 155.34 253.79 158.19 251.12 160.44 248.00 C 159.64 247.29 158.82 246.61 158.09 245.85 M 160.70 249.41 C 161.38 250.20 162.04 251.00 162.67 251.84 C 167.44 253.31 174.06 251.98 175.93 246.81 C 176.01 244.77 173.78 243.70 172.00 243.81 C 167.64 244.07 163.96 246.74 160.70 249.41 Z" />
<path fill="#373636" opacity="1.00" d=" M 199.96 241.44 C 201.46 245.16 196.82 246.82 195.90 249.90 C 196.60 251.24 198.19 251.31 198.90 249.95 C 200.23 248.25 202.32 247.30 204.48 247.45 C 205.31 250.04 201.84 249.91 200.22 249.95 C 202.28 251.65 204.83 250.45 207.16 250.24 C 203.86 253.07 199.65 252.13 195.71 252.53 C 195.28 252.17 194.42 251.44 194.00 251.07 C 190.72 253.29 186.65 251.99 182.98 252.35 C 181.32 252.71 179.91 252.04 178.71 250.96 C 180.30 250.83 181.91 250.81 183.51 250.82 C 184.82 249.38 186.32 248.10 188.15 247.38 C 187.59 248.27 186.46 250.05 185.90 250.94 C 188.16 251.31 189.38 249.19 191.15 248.24 C 192.57 247.81 194.07 247.72 195.54 247.55 C 196.73 245.32 198.22 243.27 199.96 241.44 M 191.20 250.63 C 192.24 251.22 194.26 250.17 194.04 248.91 C 192.99 248.32 190.90 249.30 191.20 250.63 Z" />
<path fill="#373636" opacity="1.00" d=" M 221.01 248.16 C 222.46 245.79 223.72 243.20 225.98 241.48 C 226.14 244.32 224.47 246.59 222.80 248.69 C 223.58 248.78 225.14 248.95 225.92 249.04 C 224.33 249.49 222.72 249.85 221.11 250.20 C 220.82 252.94 220.76 256.15 218.20 257.85 C 217.82 254.92 218.77 252.16 219.91 249.53 C 216.79 249.82 214.81 253.60 211.39 252.45 C 209.05 251.19 211.30 248.52 213.16 248.16 C 214.85 247.31 216.65 248.16 218.31 248.56 C 218.99 248.46 220.34 248.26 221.01 248.16 M 213.14 249.18 C 212.03 250.58 214.53 251.76 215.49 250.71 C 216.45 249.37 214.07 247.97 213.14 249.18 Z" />
<path fill="#373636" opacity="1.00" d=" M 188.02 244.46 C 189.54 243.84 190.83 246.31 188.87 246.60 C 187.33 247.23 186.02 244.72 188.02 244.46 Z" />
<path fill="#373636" opacity="1.00" d=" M 269.46 244.25 C 270.34 244.86 271.21 245.48 272.08 246.11 C 270.81 246.17 269.54 246.20 268.27 246.18 C 268.57 245.69 269.16 244.73 269.46 244.25 Z" />
<path fill="#373636" opacity="1.00" d=" M 179.28 249.06 C 178.44 246.00 183.18 247.66 182.30 249.96 C 181.25 250.01 180.17 249.57 179.28 249.06 Z" />
<path fill="#373636" opacity="1.00" d=" M 280.22 248.27 C 281.35 247.93 282.51 247.67 283.66 247.37 C 284.09 248.46 284.53 249.55 284.98 250.64 C 285.79 250.50 287.40 250.21 288.21 250.07 C 286.36 251.53 284.18 252.54 281.79 252.61 C 283.34 250.73 282.05 249.17 280.22 248.27 Z" />
</g>
</svg>
