<?xml version="1.0" encoding="UTF-8" ?>
<!DOCTYPE svg PUBLIC "-//W3C//DTD SVG 1.1//EN" "http://www.w3.org/Graphics/SVG/1.1/DTD/svg11.dtd">
<svg width="304pt" height="166pt" viewBox="0 0 304 166" version="1.1" xmlns="http://www.w3.org/2000/svg">
<g id="#ffffffff">
</g>
<g id="#948e8eff">
<path fill="#948e8e" opacity="1.00" d=" M 183.92 43.26 C 184.72 43.28 186.31 43.33 187.11 43.36 C 186.95 47.62 187.11 51.88 186.98 56.15 C 188.54 52.43 193.28 51.88 196.49 53.55 C 201.96 57.39 200.93 67.08 194.82 69.72 C 191.83 70.93 188.80 69.64 186.26 68.04 C 185.43 68.81 184.61 69.58 183.78 70.34 C 184.11 61.32 183.83 52.29 183.92 43.26 M 191.36 54.36 C 184.65 55.71 184.89 70.10 192.76 68.89 C 198.09 66.21 198.37 54.59 191.36 54.36 Z" />
<path fill="#948e8e" opacity="1.00" d=" M 285.75 52.93 C 286.48 48.50 288.29 43.53 293.30 42.61 C 293.42 43.76 293.54 44.92 293.67 46.08 C 292.31 46.08 290.96 46.08 289.61 46.07 C 288.20 48.20 288.18 50.69 288.88 53.07 C 290.51 53.15 292.09 53.46 293.62 54.01 C 292.13 54.52 290.60 54.82 289.03 54.91 C 289.00 59.79 288.97 64.68 289.03 69.56 C 288.25 69.67 286.70 69.90 285.92 70.02 C 285.98 65.06 286.01 60.10 285.95 55.15 C 285.23 54.83 283.77 54.21 283.04 53.89 C 283.72 53.65 285.07 53.17 285.75 52.93 Z" />
<path fill="#948e8e" opacity="1.00" d=" M 139.25 45.55 C 143.50 45.83 147.77 45.79 152.02 45.52 C 152.01 46.14 151.99 47.36 151.98 47.98 C 148.93 47.78 145.88 47.61 142.82 47.52 C 142.68 50.44 142.66 53.37 142.76 56.30 C 145.66 56.89 150.75 54.08 151.63 58.12 C 148.61 58.10 145.59 58.04 142.58 58.06 C 142.60 61.33 142.66 64.59 142.78 67.86 C 145.90 67.96 149.03 67.92 152.15 67.75 C 152.11 68.29 152.02 69.36 151.98 69.90 C 147.72 69.78 143.46 69.77 139.20 69.78 C 139.65 61.71 139.58 53.62 139.25 45.55 Z" />
<path fill="#948e8e" opacity="1.00" d=" M 155.55 53.00 C 157.38 52.68 158.55 53.31 159.07 54.91 C 161.50 51.64 167.02 52.12 169.00 55.64 C 170.33 52.86 173.66 52.78 176.31 52.60 C 177.35 53.22 178.40 53.82 179.45 54.42 C 180.63 59.42 179.51 64.54 180.02 69.60 C 179.18 69.66 177.51 69.78 176.67 69.85 C 176.93 65.28 177.03 60.71 176.79 56.14 C 174.77 54.10 171.88 54.53 169.74 56.14 C 168.94 60.66 169.16 65.26 169.40 69.82 C 168.57 69.80 166.91 69.75 166.07 69.73 C 166.28 65.49 166.82 61.18 166.04 56.97 C 165.31 53.90 159.90 54.03 159.18 57.08 C 158.14 61.20 158.82 65.53 158.77 69.73 C 157.97 69.76 156.36 69.81 155.56 69.84 C 155.85 64.23 155.89 58.61 155.55 53.00 Z" />
<path fill="#948e8e" opacity="1.00" d=" M 203.50 56.81 C 203.53 50.60 215.89 51.46 215.05 57.94 C 215.88 61.35 213.09 67.06 216.91 68.75 C 216.55 71.36 213.17 69.28 212.01 68.22 C 210.04 69.84 207.54 70.54 205.03 69.97 C 201.44 69.35 200.97 63.72 203.97 62.05 C 206.46 60.66 209.43 60.55 212.14 59.80 C 213.53 54.09 206.40 52.84 203.50 56.81 M 206.97 62.22 C 204.82 63.92 204.58 66.85 206.65 68.75 C 208.52 68.56 210.28 67.91 211.92 67.01 C 211.95 65.09 212.00 63.17 212.07 61.25 C 210.37 61.61 208.67 61.94 206.97 62.22 Z" />
<path fill="#948e8e" opacity="1.00" d=" M 219.13 58.03 C 218.62 55.42 220.96 53.82 222.79 52.51 C 224.88 52.71 226.97 53.00 229.02 53.52 C 228.73 54.46 228.44 55.40 228.16 56.33 C 226.44 54.41 224.06 53.53 221.80 55.18 C 220.25 61.62 230.96 58.79 230.07 65.12 C 229.39 70.39 223.30 70.75 219.21 69.66 C 219.22 68.83 219.25 67.19 219.26 66.36 C 221.52 67.71 224.24 70.06 226.77 67.85 C 226.96 67.12 227.32 65.67 227.50 64.95 C 225.00 62.23 218.71 62.88 219.13 58.03 Z" />
<path fill="#948e8e" opacity="1.00" d=" M 233.20 54.36 C 234.10 53.83 235.00 53.29 235.90 52.75 C 237.84 52.85 239.80 52.95 241.75 53.08 C 241.69 53.91 241.58 55.58 241.53 56.41 C 239.13 52.87 233.62 53.96 234.99 58.84 C 238.33 60.03 244.38 60.89 242.89 65.90 C 241.72 70.76 235.99 70.51 232.15 69.59 C 232.17 68.84 232.20 67.35 232.22 66.61 C 234.69 68.48 239.55 70.38 240.51 65.95 C 239.64 62.72 235.72 62.64 233.16 61.47 C 232.66 60.04 232.22 58.60 231.81 57.15 C 232.27 56.22 232.74 55.29 233.20 54.36 Z" />
<path fill="#948e8e" opacity="1.00" d=" M 244.29 53.17 C 245.19 53.17 246.98 53.16 247.88 53.16 C 249.30 57.58 251.09 61.87 252.96 66.11 C 255.99 61.97 255.30 54.49 260.46 52.56 C 257.41 61.48 252.38 69.65 249.50 78.66 C 248.76 78.82 247.29 79.14 246.55 79.30 C 247.90 75.84 251.06 72.80 250.85 68.93 C 249.07 63.53 246.53 58.39 244.29 53.17 Z" />
<path fill="#948e8e" opacity="1.00" d=" M 270.29 53.22 C 273.92 51.92 278.70 52.66 281.01 56.02 C 284.09 60.55 282.57 68.44 276.78 69.90 C 274.20 70.24 271.36 70.33 269.00 69.11 C 263.43 65.66 263.85 55.49 270.29 53.22 M 272.06 54.22 C 267.11 57.30 267.26 65.96 272.19 69.06 C 281.73 70.91 281.62 51.66 272.06 54.22 Z" />
<path fill="#948e8e" opacity="1.00" d=" M 218.25 132.12 C 218.77 132.26 219.81 132.54 220.32 132.67 C 220.24 135.92 220.23 139.17 220.23 142.43 C 219.72 142.53 218.69 142.74 218.18 142.84 C 218.01 139.27 217.97 135.69 218.25 132.12 Z" />
<path fill="#948e8e" opacity="1.00" d=" M 235.32 132.14 C 235.79 132.22 236.73 132.39 237.21 132.47 C 237.24 133.50 237.30 135.56 237.33 136.59 C 239.35 134.92 240.69 131.39 243.90 132.45 C 242.56 133.80 241.21 135.13 239.87 136.48 C 241.19 138.62 242.68 140.66 244.34 142.56 C 243.62 142.56 242.19 142.54 241.47 142.53 C 240.32 140.92 239.14 139.33 237.89 137.80 C 237.49 139.31 237.22 140.84 237.09 142.40 C 236.65 142.55 235.77 142.84 235.33 142.98 C 235.05 139.37 235.07 135.75 235.32 132.14 Z" />
<path fill="#948e8e" opacity="1.00" d=" M 222.47 134.68 C 222.97 134.86 223.99 135.23 224.50 135.42 C 229.90 133.11 229.51 138.55 229.28 142.31 C 228.77 142.46 227.77 142.78 227.26 142.94 C 227.18 140.72 227.14 138.51 227.10 136.30 C 223.32 136.08 224.50 140.38 224.31 142.76 C 223.81 142.70 222.83 142.60 222.33 142.54 C 222.35 139.92 222.38 137.30 222.47 134.68 Z" />
<path fill="#948e8e" opacity="1.00" d=" M 244.89 140.89 C 242.76 134.57 252.42 132.43 252.48 139.26 C 250.69 139.29 248.91 139.30 247.12 139.30 C 245.91 142.53 250.48 140.29 252.10 140.11 C 251.36 143.61 246.68 143.40 244.89 140.89 Z" />
<path fill="#948e8e" opacity="1.00" d=" M 253.38 135.24 C 255.52 135.18 257.66 135.13 259.81 135.15 C 260.62 137.57 260.54 140.14 260.50 142.66 C 260.01 142.68 259.03 142.71 258.54 142.72 C 258.01 140.32 259.90 135.18 255.74 136.57 C 255.63 138.65 255.56 140.74 255.58 142.82 C 255.07 142.71 254.04 142.49 253.52 142.38 C 253.68 140.00 253.66 137.61 253.38 135.24 Z" />
<path fill="#948e8e" opacity="1.00" d=" M 261.46 134.88 C 264.95 134.48 264.46 138.70 265.57 140.90 C 266.44 138.76 265.60 134.59 268.98 134.76 C 268.06 138.48 266.58 142.02 265.18 145.58 C 264.41 145.54 262.89 145.45 262.12 145.41 C 262.87 144.65 263.62 143.89 264.38 143.14 C 263.43 140.38 262.44 137.63 261.46 134.88 Z" />
<path fill="#948e8e" opacity="1.00" d=" M 275.74 136.62 C 265.86 139.92 272.01 132.59 276.50 135.58 C 276.60 138.10 276.65 140.62 276.64 143.14 C 275.82 142.72 275.00 142.30 274.18 141.89 C 273.59 142.22 272.41 142.89 271.82 143.22 C 270.93 142.20 270.09 141.14 269.29 140.07 C 270.90 139.20 274.13 137.48 275.74 136.62 Z" />
</g>
<g id="#fc0102ff">
<path fill="#fc0102" opacity="1.00" d=" M 39.49 45.75 C 47.63 43.30 56.88 42.37 64.85 45.37 C 67.78 46.06 70.44 47.51 73.15 48.77 C 79.62 52.85 85.24 58.37 88.94 65.10 C 89.55 66.43 90.15 67.77 90.73 69.11 C 92.69 73.66 94.01 78.54 93.77 83.53 L 94.28 83.44 C 94.24 85.45 94.23 87.45 94.25 89.46 L 93.78 89.50 C 93.68 91.68 93.48 93.86 93.19 96.02 C 92.65 97.30 92.22 98.62 91.80 99.94 C 91.29 101.34 90.72 102.72 90.18 104.11 C 89.42 105.65 88.63 107.19 87.73 108.66 C 84.82 113.62 80.68 117.86 76.00 121.18 C 73.49 122.77 70.86 124.15 68.14 125.34 C 64.85 126.70 61.44 127.68 57.87 127.92 C 54.87 128.50 51.80 128.26 48.76 128.20 C 43.28 127.17 37.60 125.87 33.00 122.57 C 32.73 122.57 32.19 122.56 31.92 122.56 C 30.38 121.18 28.71 119.96 27.23 118.53 L 26.75 118.50 C 26.51 118.20 26.02 117.61 25.77 117.31 C 24.65 116.38 23.57 115.40 22.67 114.24 C 22.46 113.97 22.04 113.43 21.84 113.16 C 17.39 107.93 14.65 101.48 13.06 94.85 C 11.96 89.32 12.27 83.59 12.81 78.00 C 13.37 76.57 13.59 75.04 13.72 73.52 L 14.28 73.50 C 14.40 72.82 14.64 71.47 14.76 70.79 C 16.76 66.06 19.22 61.52 22.61 57.63 C 27.21 52.60 32.79 48.00 39.50 46.21 L 39.49 45.75 Z" />
</g>
<g id="#1e1e1eff">
<path fill="#1e1e1e" opacity="1.00" d=" M 118.09 45.57 C 121.28 46.59 124.67 46.44 127.89 45.63 C 126.44 66.72 127.56 87.88 127.19 109.00 C 126.46 119.04 117.44 127.21 107.40 127.12 C 107.17 126.32 106.71 124.71 106.48 123.91 C 110.17 124.33 113.23 122.23 115.55 119.60 C 119.05 112.95 118.75 105.28 118.75 98.00 C 118.60 80.52 119.09 63.03 118.09 45.57 Z" />
<path fill="#1e1e1e" opacity="1.00" d=" M 142.78 83.14 C 149.70 79.19 160.13 77.52 166.22 83.71 C 170.49 90.34 166.11 98.77 168.06 106.01 C 168.79 107.94 171.12 107.49 172.72 107.73 C 171.23 110.57 166.84 109.17 164.09 109.24 C 163.24 108.29 162.48 107.28 161.93 106.13 C 156.60 110.25 148.68 111.83 142.66 108.29 C 138.27 105.80 138.70 98.25 143.42 96.38 C 149.10 93.15 156.15 94.76 161.84 91.69 C 163.87 80.59 148.05 79.85 142.97 86.94 C 142.91 85.67 142.85 84.40 142.78 83.14 M 146.02 100.16 C 144.79 109.27 157.50 109.34 161.71 103.64 C 161.78 100.55 161.71 97.45 162.14 94.38 C 156.65 95.55 149.56 94.90 146.02 100.16 Z" />
<path fill="#1e1e1e" opacity="1.00" d=" M 185.52 86.27 C 192.15 76.10 210.99 77.80 214.13 90.05 C 217.21 99.21 210.49 109.18 200.99 110.18 C 195.35 110.61 189.21 109.41 185.64 104.62 C 185.57 111.69 186.04 118.74 186.33 125.80 C 184.03 125.45 181.69 125.48 179.38 125.81 C 180.07 110.69 180.22 95.47 179.32 80.36 C 181.66 80.51 184.02 80.52 186.37 80.39 C 186.05 82.34 185.77 84.30 185.52 86.27 M 194.41 82.55 C 186.14 84.11 184.12 94.44 186.69 101.27 C 188.48 107.99 197.78 109.90 203.02 106.18 C 212.47 99.40 207.95 78.90 194.41 82.55 Z" />
<path fill="#1e1e1e" opacity="1.00" d=" M 224.35 83.19 C 231.26 78.96 242.19 77.47 248.01 84.19 C 251.92 91.31 246.69 100.42 250.53 107.54 C 251.82 107.55 253.11 107.58 254.41 107.63 C 251.86 110.88 244.64 110.43 243.17 106.09 C 238.12 110.31 230.40 111.62 224.50 108.52 C 220.22 106.14 219.87 99.70 223.96 96.95 C 229.75 93.23 237.07 94.47 243.34 92.06 C 245.74 80.85 229.52 79.50 224.56 87.10 C 224.47 85.80 224.39 84.49 224.35 83.19 M 229.77 97.65 C 226.86 99.50 226.53 104.40 229.70 106.18 C 234.00 109.39 239.81 106.92 243.29 103.63 C 243.27 100.51 243.42 97.40 243.46 94.28 C 238.90 95.35 233.92 95.27 229.77 97.65 Z" />
<path fill="#1e1e1e" opacity="1.00" d=" M 268.59 85.34 C 273.93 78.48 286.20 77.24 291.89 84.16 C 295.60 92.06 291.84 101.13 293.39 109.50 C 291.18 109.49 288.97 109.48 286.77 109.48 C 287.47 103.02 287.42 96.51 287.25 90.03 C 287.07 86.40 284.26 83.78 280.92 82.85 C 276.61 82.59 271.15 83.66 269.49 88.25 C 267.68 95.19 268.94 102.48 269.19 109.55 C 266.94 109.44 264.69 109.47 262.45 109.59 C 262.98 99.86 263.02 90.07 262.41 80.34 C 264.60 80.51 266.80 80.54 269.00 80.39 C 268.85 82.04 268.71 83.69 268.59 85.34 Z" />
</g>
</svg>
