<?xml version="1.0" encoding="UTF-8" ?>
<!DOCTYPE svg PUBLIC "-//W3C//DTD SVG 1.1//EN" "http://www.w3.org/Graphics/SVG/1.1/DTD/svg11.dtd">
<svg width="550pt" height="366pt" viewBox="0 0 550 366" version="1.1" xmlns="http://www.w3.org/2000/svg">
<g id="#ffffffff">
</g>
<g id="#f5fbfdff">
<path fill="#f5fbfd" opacity="1.00" d=" M 245.32 9.35 C 251.66 8.46 258.54 5.32 264.51 9.27 C 261.00 11.54 257.13 13.21 253.69 15.59 C 258.23 17.60 263.21 18.00 268.11 18.24 C 266.46 18.89 264.83 19.59 263.13 20.07 C 249.35 22.42 235.94 27.50 224.61 35.79 C 219.45 39.57 214.35 43.50 209.96 48.17 C 204.96 50.11 199.52 49.65 194.29 49.54 C 194.49 48.03 194.69 46.53 194.89 45.03 C 207.26 31.61 223.04 21.64 240.12 15.39 C 245.26 13.88 250.44 12.44 255.37 10.30 C 251.55 10.21 247.69 10.25 243.97 11.17 C 244.30 10.71 244.98 9.80 245.32 9.35 Z" />
</g>
<g id="#c0c1bbff">
<path fill="#c0c1bb" opacity="1.00" d=" M 294.62 11.01 C 299.60 7.60 305.96 9.98 310.88 12.31 C 309.08 12.48 307.32 12.83 305.54 13.08 C 301.80 13.23 298.19 11.92 294.62 11.01 Z" />
</g>
<g id="#afa5acff">
<path fill="#afa5ac" opacity="1.00" d=" M 243.97 11.17 C 247.69 10.25 251.55 10.21 255.37 10.30 C 250.44 12.44 245.26 13.88 240.12 15.39 C 238.67 14.98 237.23 14.58 235.77 14.27 L 235.02 14.10 C 237.98 13.06 240.92 11.93 243.97 11.17 Z" />
</g>
<g id="#a1a2a2ff">
<path fill="#a1a2a2" opacity="1.00" d=" M 305.54 13.08 C 307.32 12.83 309.08 12.48 310.88 12.31 C 333.67 19.23 353.42 34.38 367.68 53.28 C 370.07 56.66 372.13 60.25 374.23 63.81 C 368.22 67.78 359.61 69.59 353.76 64.32 C 352.75 63.00 351.75 61.67 350.70 60.40 C 356.52 62.85 362.94 62.54 369.07 61.75 C 367.89 59.60 366.72 57.44 365.43 55.35 C 364.58 53.98 363.69 52.63 362.72 51.35 C 360.44 48.28 357.85 45.48 355.11 42.83 C 347.21 34.51 337.77 27.75 327.65 22.39 C 320.65 18.43 312.89 16.23 305.54 13.08 Z" />
</g>
<g id="#7f7f84ff">
<path fill="#7f7f84" opacity="1.00" d=" M 235.77 14.27 C 237.23 14.58 238.67 14.98 240.12 15.39 C 223.04 21.64 207.26 31.61 194.89 45.03 C 192.24 47.70 189.92 50.67 187.84 53.80 C 186.17 56.06 184.38 58.23 182.73 60.51 C 181.15 63.50 180.05 66.71 178.94 69.89 C 184.70 68.29 190.79 68.34 196.36 70.66 C 191.77 79.61 187.68 88.93 185.54 98.80 C 185.48 99.06 185.36 99.58 185.30 99.85 C 185.21 100.19 185.03 100.88 184.94 101.23 C 184.68 100.98 184.15 100.47 183.88 100.22 C 183.43 100.05 182.52 99.70 182.06 99.52 C 182.87 95.96 183.84 92.44 184.91 88.95 C 185.98 86.54 187.25 84.23 188.37 81.84 C 189.43 79.43 190.35 76.92 190.74 74.30 C 186.95 72.89 182.87 72.75 178.90 72.32 C 178.43 71.11 177.97 69.89 177.51 68.68 C 177.01 68.63 175.99 68.53 175.48 68.49 C 187.66 43.55 209.97 24.20 235.77 14.27 Z" />
</g>
<g id="#75b4cfff">
<path fill="#75b4cf" opacity="1.00" d=" M 263.13 20.07 C 268.96 19.43 274.91 19.34 280.74 19.97 C 282.28 20.83 283.78 21.76 285.33 22.62 C 274.55 22.59 263.73 23.78 253.32 26.63 C 242.64 29.41 233.22 35.49 224.03 41.40 C 224.23 39.53 224.40 37.66 224.61 35.79 C 235.94 27.50 249.35 22.42 263.13 20.07 Z" />
</g>
<g id="#92bcceff">
<path fill="#92bcce" opacity="1.00" d=" M 280.74 19.97 C 283.03 19.91 285.36 19.92 287.62 20.43 C 300.08 23.40 312.53 27.47 323.16 34.83 C 327.82 38.01 331.74 42.12 336.12 45.66 C 334.73 45.46 333.33 45.26 331.95 45.06 C 330.81 47.14 329.68 49.23 328.57 51.32 L 328.24 50.57 C 327.39 48.62 326.42 46.55 324.44 45.51 C 313.13 38.73 299.90 36.17 286.95 34.74 C 280.07 34.13 273.21 35.48 266.50 36.85 C 248.98 40.82 233.56 54.84 229.87 72.71 C 229.08 73.67 228.28 74.63 227.47 75.57 C 227.43 71.91 227.27 68.14 228.52 64.64 C 230.59 58.34 235.20 53.38 239.58 48.58 C 244.43 43.19 250.79 39.52 256.98 35.88 C 257.56 35.73 258.74 35.44 259.32 35.30 C 268.08 33.30 276.99 31.06 286.04 31.73 C 297.79 32.71 309.16 35.96 320.67 38.31 C 316.16 32.83 309.23 30.73 302.93 28.11 C 297.19 25.86 291.08 24.82 285.33 22.62 C 283.78 21.76 282.28 20.83 280.74 19.97 Z" />
</g>
<g id="#e9ebe8ff">
<path fill="#e9ebe8" opacity="1.00" d=" M 287.62 20.43 C 292.23 20.50 296.80 21.31 301.13 22.90 C 305.80 24.60 310.75 25.52 315.23 27.72 C 324.28 32.71 331.73 39.99 340.07 45.99 C 344.52 46.01 348.93 46.76 353.39 46.73 C 353.95 45.43 354.52 44.13 355.11 42.83 C 357.85 45.48 360.44 48.28 362.72 51.35 C 359.67 51.95 356.60 51.49 353.60 50.91 C 350.50 50.25 347.42 51.32 344.46 52.12 C 341.86 49.74 338.95 47.75 336.12 45.66 C 331.74 42.12 327.82 38.01 323.16 34.83 C 312.53 27.47 300.08 23.40 287.62 20.43 Z" />
</g>
<g id="#a9e0f6ff">
<path fill="#a9e0f6" opacity="1.00" d=" M 253.32 26.63 C 263.73 23.78 274.55 22.59 285.33 22.62 C 291.08 24.82 297.19 25.86 302.93 28.11 C 309.23 30.73 316.16 32.83 320.67 38.31 C 309.16 35.96 297.79 32.71 286.04 31.73 C 276.99 31.06 268.08 33.30 259.32 35.30 C 257.25 32.46 255.26 29.56 253.32 26.63 Z" />
</g>
<g id="#99ddf9ff">
<path fill="#99ddf9" opacity="1.00" d=" M 224.03 41.40 C 233.22 35.49 242.64 29.41 253.32 26.63 C 255.26 29.56 257.25 32.46 259.32 35.30 C 258.74 35.44 257.56 35.73 256.98 35.88 C 252.62 36.68 248.12 37.69 244.67 40.67 C 242.23 42.84 239.19 44.11 235.91 44.09 C 236.61 45.53 237.30 46.97 237.86 48.47 C 234.22 49.78 229.32 49.14 227.03 52.88 C 224.88 56.04 222.38 58.96 219.25 61.19 C 219.08 59.35 218.91 57.52 218.74 55.68 C 215.59 55.89 212.42 55.60 209.44 54.49 C 213.41 49.23 218.89 45.41 224.03 41.40 Z" />
</g>
<g id="#fcfdfdff">
</g>
<g id="#91c0d5ff">
<path fill="#91c0d5" opacity="1.00" d=" M 209.96 48.17 C 214.35 43.50 219.45 39.57 224.61 35.79 C 224.40 37.66 224.23 39.53 224.03 41.40 C 218.89 45.41 213.41 49.23 209.44 54.49 C 206.85 58.06 204.22 62.29 205.04 66.91 C 205.76 71.46 207.36 75.81 208.75 80.18 C 207.31 77.39 205.69 74.69 204.58 71.75 C 204.43 71.09 204.15 69.79 204.00 69.13 C 203.57 66.45 202.57 63.92 201.13 61.63 C 200.72 60.60 200.31 59.57 199.91 58.54 C 203.78 55.61 206.89 51.89 209.96 48.17 Z" />
</g>
<g id="#93d5e8ff">
<path fill="#93d5e8" opacity="1.00" d=" M 244.67 40.67 C 248.12 37.69 252.62 36.68 256.98 35.88 C 250.79 39.52 244.43 43.19 239.58 48.58 C 235.20 53.38 230.59 58.34 228.52 64.64 C 227.27 68.14 227.43 71.91 227.47 75.57 C 227.46 78.28 227.39 80.99 227.26 83.71 C 225.69 83.64 224.13 83.58 222.56 83.53 C 219.76 78.00 216.29 72.42 216.14 66.03 C 215.88 63.84 217.81 62.46 219.25 61.19 C 222.38 58.96 224.88 56.04 227.03 52.88 C 229.32 49.14 234.22 49.78 237.86 48.47 C 237.30 46.97 236.61 45.53 235.91 44.09 C 239.19 44.11 242.23 42.84 244.67 40.67 Z" />
</g>
<g id="#d1d5d6ff">
<path fill="#d1d5d6" opacity="1.00" d=" M 187.84 53.80 C 189.92 50.67 192.24 47.70 194.89 45.03 C 194.69 46.53 194.49 48.03 194.29 49.54 C 199.52 49.65 204.96 50.11 209.96 48.17 C 206.89 51.89 203.78 55.61 199.91 58.54 C 195.66 57.86 191.39 57.31 187.11 56.78 C 187.33 55.78 187.57 54.79 187.84 53.80 Z" />
</g>
<g id="#5558a7ff">
<path fill="#5558a7" opacity="1.00" d=" M 331.95 45.06 C 333.33 45.26 334.73 45.46 336.12 45.66 C 338.08 48.01 340.15 50.28 342.44 52.34 C 342.48 55.22 342.91 58.07 343.61 60.86 C 345.86 61.96 348.48 62.85 349.89 65.08 C 352.15 68.61 354.01 72.39 356.09 76.03 C 356.69 81.99 356.34 88.00 357.15 93.94 C 357.40 97.26 358.21 100.74 357.12 103.99 C 354.70 105.63 351.79 106.22 349.05 107.08 C 351.89 114.64 353.16 122.88 351.72 130.89 C 351.03 134.45 348.54 137.24 346.52 140.11 C 345.35 139.06 344.12 138.09 342.93 137.07 L 342.44 136.45 C 341.97 134.85 341.56 133.24 341.15 131.62 C 342.59 131.57 344.04 131.51 345.50 131.45 C 346.42 126.34 347.51 121.16 347.09 115.94 C 347.11 112.87 344.38 111.02 342.46 109.05 C 344.34 107.40 347.90 106.29 347.37 103.22 C 346.88 93.38 343.99 83.88 340.45 74.75 C 339.44 71.70 337.71 67.75 333.77 68.51 C 332.86 68.48 331.96 68.45 331.06 68.43 C 332.30 66.39 333.78 64.43 334.47 62.11 C 332.63 58.44 330.00 55.20 328.57 51.32 C 329.68 49.23 330.81 47.14 331.95 45.06 Z" />
</g>
<g id="#bcbbbcff">
<path fill="#bcbbbc" opacity="1.00" d=" M 336.12 45.66 C 338.95 47.75 341.86 49.74 344.46 52.12 C 346.74 54.05 348.78 56.79 351.93 57.24 C 356.50 57.85 361.19 57.11 365.43 55.35 C 366.72 57.44 367.89 59.60 369.07 61.75 C 362.94 62.54 356.52 62.85 350.70 60.40 C 348.19 57.47 345.37 54.83 342.44 52.34 C 340.15 50.28 338.08 48.01 336.12 45.66 Z" />
</g>
<g id="#d0d1cfff">
<path fill="#d0d1cf" opacity="1.00" d=" M 344.46 52.12 C 347.42 51.32 350.50 50.25 353.60 50.91 C 356.60 51.49 359.67 51.95 362.72 51.35 C 363.69 52.63 364.58 53.98 365.43 55.35 C 361.19 57.11 356.50 57.85 351.93 57.24 C 348.78 56.79 346.74 54.05 344.46 52.12 Z" />
</g>
<g id="#b6bfd5ff">
<path fill="#b6bfd5" opacity="1.00" d=" M 320.07 67.43 C 322.99 61.91 325.46 56.16 328.24 50.57 C 326.96 56.90 323.92 62.64 321.70 68.65 C 318.33 67.95 315.18 66.54 312.24 64.79 C 301.68 58.68 289.03 56.57 277.00 58.07 C 270.20 58.90 264.40 63.41 260.73 69.02 C 258.39 73.63 257.71 78.99 259.02 84.01 C 259.58 85.85 260.30 87.63 261.11 89.37 C 262.82 91.46 264.65 93.44 266.43 95.48 L 265.62 95.86 C 262.29 92.97 258.97 89.63 257.95 85.19 C 256.54 79.02 256.85 71.98 260.71 66.70 C 265.67 59.56 274.53 56.11 283.01 55.97 C 296.19 56.09 308.87 60.68 320.07 67.43 Z" />
</g>
<g id="#5e6aadff">
<path fill="#5e6aad" opacity="1.00" d=" M 328.24 50.57 L 328.57 51.32 C 330.00 55.20 332.63 58.44 334.47 62.11 C 333.78 64.43 332.30 66.39 331.06 68.43 C 331.96 68.45 332.86 68.48 333.77 68.51 C 331.84 69.63 329.89 70.80 328.39 72.48 C 329.11 76.76 331.04 80.73 331.86 85.00 C 333.25 92.10 336.32 98.83 336.57 106.15 C 339.38 105.49 342.19 104.84 345.01 104.20 C 343.72 102.79 342.41 101.40 341.13 99.99 C 342.16 97.42 343.23 94.86 344.30 92.31 C 342.67 91.79 339.66 92.03 339.64 89.62 C 339.54 84.65 340.99 79.74 340.45 74.75 C 343.99 83.88 346.88 93.38 347.37 103.22 C 347.90 106.29 344.34 107.40 342.46 109.05 C 344.38 111.02 347.11 112.87 347.09 115.94 C 347.51 121.16 346.42 126.34 345.50 131.45 C 344.04 131.51 342.59 131.57 341.15 131.62 C 341.56 133.24 341.97 134.85 342.44 136.45 C 339.80 133.48 336.83 130.80 333.70 128.35 C 334.35 125.68 334.43 122.78 335.80 120.34 C 337.16 118.96 339.22 118.54 340.71 117.32 C 341.47 116.16 341.81 114.81 342.32 113.54 C 339.79 113.48 337.27 113.47 334.74 113.46 C 333.14 108.56 330.77 103.98 328.87 99.20 C 326.93 94.33 327.00 88.62 323.59 84.40 C 320.15 80.14 316.68 75.45 311.36 73.47 C 305.35 71.07 300.11 67.26 294.88 63.53 C 296.81 62.88 298.99 61.67 300.94 62.98 C 307.27 66.30 313.96 69.11 321.11 70.06 C 321.26 69.71 321.55 69.01 321.70 68.65 C 323.92 62.64 326.96 56.90 328.24 50.57 Z" />
</g>
<g id="#4d4c81ff">
<path fill="#4d4c81" opacity="1.00" d=" M 343.61 60.86 C 342.91 58.07 342.48 55.22 342.44 52.34 C 345.37 54.83 348.19 57.47 350.70 60.40 C 351.75 61.67 352.75 63.00 353.76 64.32 C 355.91 67.31 357.79 70.51 359.38 73.84 C 361.39 78.22 363.17 82.72 365.64 86.88 C 365.91 88.81 366.14 90.76 366.45 92.69 C 364.51 90.39 362.40 88.23 360.63 85.80 C 359.35 82.44 357.86 79.16 356.09 76.03 C 354.01 72.39 352.15 68.61 349.89 65.08 C 348.48 62.85 345.86 61.96 343.61 60.86 Z" />
</g>
<g id="#b3b3b7ff">
<path fill="#b3b3b7" opacity="1.00" d=" M 182.73 60.51 C 184.38 58.23 186.17 56.06 187.84 53.80 C 187.57 54.79 187.33 55.78 187.11 56.78 C 191.39 57.31 195.66 57.86 199.91 58.54 C 200.31 59.57 200.72 60.60 201.13 61.63 C 196.60 65.11 190.46 65.73 185.13 63.95 C 184.16 62.93 183.47 61.70 182.73 60.51 Z" />
</g>
<g id="#b4e5f8ff">
<path fill="#b4e5f8" opacity="1.00" d=" M 209.44 54.49 C 212.42 55.60 215.59 55.89 218.74 55.68 C 218.91 57.52 219.08 59.35 219.25 61.19 C 217.81 62.46 215.88 63.84 216.14 66.03 C 216.29 72.42 219.76 78.00 222.56 83.53 C 224.56 87.64 225.42 92.15 226.33 96.59 C 223.57 94.97 220.74 93.49 217.95 91.95 C 215.29 89.32 212.69 86.63 210.39 83.68 C 209.83 82.52 209.29 81.35 208.75 80.18 C 207.36 75.81 205.76 71.46 205.04 66.91 C 204.22 62.29 206.85 58.06 209.44 54.49 Z" />
</g>
<g id="#646ba0ff">
<path fill="#646ba0" opacity="1.00" d=" M 260.73 69.02 C 264.40 63.41 270.20 58.90 277.00 58.07 C 289.03 56.57 301.68 58.68 312.24 64.79 C 315.18 66.54 318.33 67.95 321.70 68.65 C 321.55 69.01 321.26 69.71 321.11 70.06 C 313.96 69.11 307.27 66.30 300.94 62.98 C 298.99 61.67 296.81 62.88 294.88 63.53 C 292.17 61.93 289.01 61.21 285.87 61.48 C 280.67 61.81 275.26 62.15 270.45 64.37 C 267.55 65.63 266.23 68.67 264.87 71.30 C 263.55 71.63 262.25 72.05 260.96 72.48 C 260.87 71.32 260.79 70.17 260.73 69.02 Z" />
</g>
<g id="#96979eff">
<path fill="#96979e" opacity="1.00" d=" M 178.94 69.89 C 180.05 66.71 181.15 63.50 182.73 60.51 C 183.47 61.70 184.16 62.93 185.13 63.95 C 190.46 65.73 196.60 65.11 201.13 61.63 C 202.57 63.92 203.57 66.45 204.00 69.13 C 203.07 67.25 202.03 65.42 201.01 63.59 C 199.39 65.90 197.77 68.22 196.36 70.66 C 190.79 68.34 184.70 68.29 178.94 69.89 Z" />
</g>
<g id="#6375baff">
<path fill="#6375ba" opacity="1.00" d=" M 285.87 61.48 C 289.01 61.21 292.17 61.93 294.88 63.53 C 300.11 67.26 305.35 71.07 311.36 73.47 C 316.68 75.45 320.15 80.14 323.59 84.40 C 327.00 88.62 326.93 94.33 328.87 99.20 C 330.77 103.98 333.14 108.56 334.74 113.46 C 337.27 113.47 339.79 113.48 342.32 113.54 C 341.81 114.81 341.47 116.16 340.71 117.32 C 339.22 118.54 337.16 118.96 335.80 120.34 C 334.43 122.78 334.35 125.68 333.70 128.35 C 333.27 128.03 332.40 127.38 331.96 127.06 C 330.40 125.87 328.86 124.65 327.32 123.44 C 326.38 115.41 326.88 107.03 323.59 99.46 C 321.52 93.44 316.61 89.14 313.45 83.76 C 311.88 81.36 310.55 78.45 307.71 77.31 C 295.84 72.16 282.99 70.17 270.46 67.27 C 270.40 68.66 270.33 70.05 270.27 71.44 C 268.47 71.35 266.67 71.27 264.87 71.30 C 266.23 68.67 267.55 65.63 270.45 64.37 C 275.26 62.15 280.67 61.81 285.87 61.48 Z" />
</g>
<g id="#37378aff">
<path fill="#37378a" opacity="1.00" d=" M 196.36 70.66 C 197.77 68.22 199.39 65.90 201.01 63.59 C 202.03 65.42 203.07 67.25 204.00 69.13 C 204.15 69.79 204.43 71.09 204.58 71.75 C 204.71 80.39 198.82 87.57 197.98 96.09 C 194.04 97.75 189.87 99.06 185.54 98.80 C 187.68 88.93 191.77 79.61 196.36 70.66 Z" />
</g>
<g id="#8a898aff">
<path fill="#8a898a" opacity="1.00" d=" M 353.76 64.32 C 359.61 69.59 368.22 67.78 374.23 63.81 C 375.76 66.76 377.29 69.74 378.26 72.93 C 377.30 71.94 376.32 70.99 375.33 70.05 C 373.89 70.84 372.45 71.63 370.99 72.39 C 367.04 71.37 362.92 71.74 359.38 73.84 C 357.79 70.51 355.91 67.31 353.76 64.32 Z" />
</g>
<g id="#6b83c2ff">
<path fill="#6b83c2" opacity="1.00" d=" M 270.46 67.27 C 282.99 70.17 295.84 72.16 307.71 77.31 C 310.55 78.45 311.88 81.36 313.45 83.76 C 316.61 89.14 321.52 93.44 323.59 99.46 C 326.88 107.03 326.38 115.41 327.32 123.44 C 321.90 119.72 318.83 113.77 316.07 108.01 C 314.46 104.50 314.06 100.61 312.80 96.98 C 311.55 93.61 308.58 91.33 305.92 89.09 C 300.04 84.46 294.02 79.23 286.35 78.06 C 281.27 77.40 276.54 75.05 271.46 74.63 C 266.19 75.99 263.71 81.57 259.02 84.01 C 257.71 78.99 258.39 73.63 260.73 69.02 C 260.79 70.17 260.87 71.32 260.96 72.48 C 262.25 72.05 263.55 71.63 264.87 71.30 C 266.67 71.27 268.47 71.35 270.27 71.44 C 270.33 70.05 270.40 68.66 270.46 67.27 Z" />
</g>
<g id="#646562ff">
<path fill="#646562" opacity="1.00" d=" M 175.48 68.49 C 175.99 68.53 177.01 68.63 177.51 68.68 C 177.97 69.89 178.43 71.11 178.90 72.32 C 182.87 72.75 186.95 72.89 190.74 74.30 C 190.35 76.92 189.43 79.43 188.37 81.84 C 182.98 79.46 177.17 78.29 171.29 78.15 C 172.55 74.87 174.01 71.68 175.48 68.49 Z" />
</g>
<g id="#6b72baff">
<path fill="#6b72ba" opacity="1.00" d=" M 333.77 68.51 C 337.71 67.75 339.44 71.70 340.45 74.75 C 340.99 79.74 339.54 84.65 339.64 89.62 C 339.66 92.03 342.67 91.79 344.30 92.31 C 343.23 94.86 342.16 97.42 341.13 99.99 C 342.41 101.40 343.72 102.79 345.01 104.20 C 342.19 104.84 339.38 105.49 336.57 106.15 C 336.32 98.83 333.25 92.10 331.86 85.00 C 331.04 80.73 329.11 76.76 328.39 72.48 C 329.89 70.80 331.84 69.63 333.77 68.51 Z" />
</g>
<g id="#6c6c6eff">
<path fill="#6c6c6e" opacity="1.00" d=" M 370.99 72.39 C 372.45 71.63 373.89 70.84 375.33 70.05 C 376.32 70.99 377.30 71.94 378.26 72.93 C 380.01 75.33 381.15 78.20 381.66 81.12 C 381.76 81.87 381.97 83.36 382.07 84.10 C 381.06 81.96 379.93 79.88 378.89 77.75 C 374.30 77.48 369.69 77.68 365.14 78.35 C 365.91 81.51 366.62 84.69 367.47 87.84 C 367.01 87.60 366.10 87.12 365.64 86.88 C 363.17 82.72 361.39 78.22 359.38 73.84 C 362.92 71.74 367.04 71.37 370.99 72.39 Z" />
</g>
<g id="#46489cff">
<path fill="#46489c" opacity="1.00" d=" M 204.58 71.75 C 205.69 74.69 207.31 77.39 208.75 80.18 C 209.29 81.35 209.83 82.52 210.39 83.68 C 211.77 86.87 213.17 90.04 214.75 93.13 C 209.78 96.51 203.80 97.35 197.97 97.94 C 194.37 98.20 191.24 100.05 188.56 102.34 C 190.77 107.88 189.62 113.94 190.95 119.64 C 192.10 125.45 194.21 131.01 196.42 136.48 C 199.10 143.16 199.52 150.63 203.09 156.96 C 205.15 160.41 207.70 163.54 209.77 166.98 C 212.81 172.03 216.84 176.53 218.82 182.17 C 218.19 183.48 217.51 184.77 216.79 186.04 C 215.18 186.16 213.58 186.32 211.98 186.48 C 206.45 180.64 203.16 173.16 197.81 167.18 C 193.54 162.31 191.97 155.87 190.35 149.77 C 188.00 140.01 185.08 130.14 185.92 119.98 C 186.48 113.26 186.89 106.47 185.30 99.85 C 185.36 99.58 185.48 99.06 185.54 98.80 C 189.87 99.06 194.04 97.75 197.98 96.09 C 198.82 87.57 204.71 80.39 204.58 71.75 Z" />
</g>
<g id="#aecfdfff">
<path fill="#aecfdf" opacity="1.00" d=" M 227.47 75.57 C 228.28 74.63 229.08 73.67 229.87 72.71 C 229.04 81.46 228.55 90.94 233.08 98.85 C 239.33 110.94 250.77 119.20 262.50 125.48 C 271.04 129.81 280.00 133.50 287.66 139.35 C 293.25 143.60 297.15 150.07 298.08 157.05 C 298.67 161.19 297.21 165.19 296.30 169.17 C 296.41 167.17 296.46 165.17 296.47 163.17 C 296.83 157.64 296.32 151.83 293.03 147.16 L 292.66 146.70 C 290.00 143.27 286.86 140.17 283.14 137.90 C 272.54 131.31 260.45 127.36 250.41 119.83 C 247.13 117.45 244.01 114.86 241.13 112.02 C 240.55 111.46 239.97 110.90 239.40 110.33 C 234.47 105.13 228.20 101.58 222.57 97.24 C 221.57 96.13 220.61 94.98 219.63 93.85 C 219.21 93.38 218.37 92.42 217.95 91.95 C 220.74 93.49 223.57 94.97 226.33 96.59 C 225.42 92.15 224.56 87.64 222.56 83.53 C 224.13 83.58 225.69 83.64 227.26 83.71 C 227.39 80.99 227.46 78.28 227.47 75.57 Z" />
</g>
<g id="#7293cbff">
<path fill="#7293cb" opacity="1.00" d=" M 271.46 74.63 C 276.54 75.05 281.27 77.40 286.35 78.06 C 294.02 79.23 300.04 84.46 305.92 89.09 C 308.58 91.33 311.55 93.61 312.80 96.98 C 314.06 100.61 314.46 104.50 316.07 108.01 C 318.83 113.77 321.90 119.72 327.32 123.44 C 328.86 124.65 330.40 125.87 331.96 127.06 C 327.88 124.94 323.88 122.65 320.10 120.03 C 316.85 117.60 313.27 115.50 310.61 112.39 C 308.09 108.48 308.56 103.48 306.61 99.33 C 304.82 97.32 302.22 96.30 300.05 94.78 C 296.83 92.78 294.32 89.84 291.04 87.95 C 287.90 86.37 284.31 86.33 280.91 85.81 C 276.05 85.25 271.37 83.74 266.77 82.14 C 266.22 82.99 265.67 83.84 265.15 84.71 C 266.27 86.07 267.36 87.46 268.43 88.87 C 266.14 90.15 263.56 90.27 261.11 89.37 C 260.30 87.63 259.58 85.85 259.02 84.01 C 263.71 81.57 266.19 75.99 271.46 74.63 Z" />
</g>
<g id="#484c9dff">
<path fill="#484c9d" opacity="1.00" d=" M 356.09 76.03 C 357.86 79.16 359.35 82.44 360.63 85.80 C 362.29 93.04 365.07 102.19 359.28 108.31 C 358.78 108.92 358.28 109.52 357.78 110.12 C 360.46 112.69 363.19 115.95 362.12 119.97 C 360.45 127.57 357.18 134.75 355.92 142.48 C 354.27 142.46 352.63 142.44 351.00 142.44 C 351.27 144.00 351.53 145.56 351.88 147.11 C 350.28 144.64 348.52 142.27 346.52 140.11 C 348.54 137.24 351.03 134.45 351.72 130.89 C 353.16 122.88 351.89 114.64 349.05 107.08 C 351.79 106.22 354.70 105.63 357.12 103.99 C 358.21 100.74 357.40 97.26 357.15 93.94 C 356.34 88.00 356.69 81.99 356.09 76.03 Z" />
</g>
<g id="#44453fff">
<path fill="#44453f" opacity="1.00" d=" M 171.29 78.15 C 177.17 78.29 182.98 79.46 188.37 81.84 C 187.25 84.23 185.98 86.54 184.91 88.95 C 185.07 88.39 185.41 87.26 185.57 86.69 C 179.72 86.88 172.99 86.02 168.51 90.64 C 168.65 89.23 168.78 87.81 168.98 86.41 C 169.49 83.59 170.23 80.82 171.29 78.15 Z" />
</g>
<g id="#484947ff">
<path fill="#484947" opacity="1.00" d=" M 365.14 78.35 C 369.69 77.68 374.30 77.48 378.89 77.75 C 379.93 79.88 381.06 81.96 382.07 84.10 C 382.20 84.66 382.47 85.77 382.61 86.32 C 378.30 83.65 373.49 85.66 369.20 87.21 C 369.37 88.91 369.51 90.61 369.75 92.30 C 369.05 90.78 368.26 89.31 367.47 87.84 C 366.62 84.69 365.91 81.51 365.14 78.35 Z" />
</g>
<g id="#969698ff">
<path fill="#969698" opacity="1.00" d=" M 381.66 81.12 C 384.70 85.97 385.72 91.70 386.51 97.28 C 387.37 104.60 388.62 111.92 388.47 119.33 C 384.74 120.74 380.97 122.07 377.20 123.36 C 376.01 122.88 374.83 122.40 373.66 121.92 C 378.05 121.58 382.26 120.27 386.46 119.02 C 386.76 107.99 385.52 96.96 382.61 86.32 C 382.47 85.77 382.20 84.66 382.07 84.10 C 381.97 83.36 381.76 81.87 381.66 81.12 Z" />
</g>
<g id="#75a1d7ff">
<path fill="#75a1d7" opacity="1.00" d=" M 265.15 84.71 C 265.67 83.84 266.22 82.99 266.77 82.14 C 271.37 83.74 276.05 85.25 280.91 85.81 C 284.31 86.33 287.90 86.37 291.04 87.95 C 294.32 89.84 296.83 92.78 300.05 94.78 C 302.22 96.30 304.82 97.32 306.61 99.33 C 308.56 103.48 308.09 108.48 310.61 112.39 C 313.27 115.50 316.85 117.60 320.10 120.03 C 316.41 118.30 312.61 116.86 308.92 115.16 C 303.84 112.34 302.67 106.21 298.68 102.46 C 292.35 98.33 286.00 93.15 278.12 92.70 C 274.01 92.16 270.04 93.68 266.43 95.48 C 264.65 93.44 262.82 91.46 261.11 89.37 C 263.56 90.27 266.14 90.15 268.43 88.87 C 267.36 87.46 266.27 86.07 265.15 84.71 Z" />
</g>
<g id="#202021ff">
<path fill="#202021" opacity="1.00" d=" M 169.04 83.79 C 169.02 84.45 168.99 85.75 168.98 86.41 C 168.78 87.81 168.65 89.23 168.51 90.64 C 172.99 86.02 179.72 86.88 185.57 86.69 C 185.41 87.26 185.07 88.39 184.91 88.95 C 183.84 92.44 182.87 95.96 182.06 99.52 C 180.31 106.93 178.81 114.63 180.30 122.23 C 175.07 122.40 170.37 119.50 165.46 118.06 C 165.05 106.50 166.97 95.10 169.04 83.79 Z" />
</g>
<g id="#5c60abff">
<path fill="#5c60ab" opacity="1.00" d=" M 210.39 83.68 C 212.69 86.63 215.29 89.32 217.95 91.95 C 218.37 92.42 219.21 93.38 219.63 93.85 C 218.49 95.16 217.35 96.45 216.21 97.74 C 214.04 97.72 211.88 97.75 209.73 97.91 C 207.00 98.19 204.20 98.50 201.67 99.64 C 200.26 105.21 200.81 111.03 201.46 116.67 C 202.32 122.99 202.92 129.48 205.61 135.35 C 207.79 140.12 208.99 145.25 210.89 150.12 C 212.58 154.42 215.85 157.77 218.48 161.48 C 220.80 164.71 221.74 168.62 222.89 172.36 C 221.35 175.55 220.22 178.92 218.82 182.17 C 216.84 176.53 212.81 172.03 209.77 166.98 C 207.70 163.54 205.15 160.41 203.09 156.96 C 199.52 150.63 199.10 143.16 196.42 136.48 C 194.21 131.01 192.10 125.45 190.95 119.64 C 189.62 113.94 190.77 107.88 188.56 102.34 C 191.24 100.05 194.37 98.20 197.97 97.94 C 203.80 97.35 209.78 96.51 214.75 93.13 C 213.17 90.04 211.77 86.87 210.39 83.68 Z" />
</g>
<g id="#1f1f20ff">
<path fill="#1f1f20" opacity="1.00" d=" M 369.20 87.21 C 373.49 85.66 378.30 83.65 382.61 86.32 C 385.52 96.96 386.76 107.99 386.46 119.02 C 382.26 120.27 378.05 121.58 373.66 121.92 C 375.08 114.88 373.47 107.75 372.03 100.86 C 371.39 97.98 370.52 95.15 369.75 92.30 C 369.51 90.61 369.37 88.91 369.20 87.21 Z" />
</g>
<g id="#3c3c94ff">
<path fill="#3c3c94" opacity="1.00" d=" M 359.28 108.31 C 365.07 102.19 362.29 93.04 360.63 85.80 C 362.40 88.23 364.51 90.39 366.45 92.69 C 367.31 95.53 368.10 98.39 368.88 101.25 C 364.55 109.60 369.23 118.79 367.65 127.53 C 366.72 132.84 365.52 138.10 364.32 143.35 C 363.08 148.71 360.25 153.47 357.55 158.19 C 355.91 154.37 353.86 150.75 351.88 147.11 C 351.53 145.56 351.27 144.00 351.00 142.44 C 352.63 142.44 354.27 142.46 355.92 142.48 C 357.18 134.75 360.45 127.57 362.12 119.97 C 363.19 115.95 360.46 112.69 357.78 110.12 C 358.28 109.52 358.78 108.92 359.28 108.31 Z" />
</g>
<g id="#817eb0ff">
<path fill="#817eb0" opacity="1.00" d=" M 365.64 86.88 C 366.10 87.12 367.01 87.60 367.47 87.84 C 368.26 89.31 369.05 90.78 369.75 92.30 C 370.52 95.15 371.39 97.98 372.03 100.86 C 371.46 100.71 370.32 100.41 369.75 100.26 C 369.68 101.55 369.64 102.84 369.62 104.14 C 369.43 103.42 369.06 101.97 368.88 101.25 C 368.10 98.39 367.31 95.53 366.45 92.69 C 366.14 90.76 365.91 88.81 365.64 86.88 Z" />
</g>
<g id="#76b1deff">
<path fill="#76b1de" opacity="1.00" d=" M 266.43 95.48 C 270.04 93.68 274.01 92.16 278.12 92.70 C 286.00 93.15 292.35 98.33 298.68 102.46 C 302.67 106.21 303.84 112.34 308.92 115.16 C 300.48 111.92 291.80 109.22 283.68 105.19 C 277.57 102.25 271.86 98.53 265.62 95.86 L 266.43 95.48 Z" />
</g>
<g id="#6574b7ff">
<path fill="#6574b7" opacity="1.00" d=" M 219.63 93.85 C 220.61 94.98 221.57 96.13 222.57 97.24 C 225.25 100.41 228.02 103.50 230.87 106.51 C 228.73 109.16 225.69 111.54 225.14 115.08 C 224.52 126.12 228.45 136.69 232.32 146.84 C 234.33 152.05 238.69 155.77 243.18 158.83 C 247.98 162.06 252.21 166.47 257.96 167.99 C 262.92 169.41 267.94 170.79 273.09 171.38 C 278.46 171.89 283.21 168.78 288.30 167.66 C 290.36 167.10 292.18 168.65 293.99 169.39 C 292.25 169.34 290.52 169.31 288.78 169.33 C 287.05 172.27 285.62 175.82 282.39 177.43 C 278.44 179.08 274.04 179.01 269.84 178.99 C 259.35 178.66 248.67 176.08 239.86 170.21 C 235.36 167.27 233.14 162.17 230.30 157.81 C 228.36 161.39 226.69 165.10 224.80 168.71 C 224.18 169.93 223.51 171.13 222.89 172.36 C 221.74 168.62 220.80 164.71 218.48 161.48 C 215.85 157.77 212.58 154.42 210.89 150.12 C 208.99 145.25 207.79 140.12 205.61 135.35 C 202.92 129.48 202.32 122.99 201.46 116.67 C 200.81 111.03 200.26 105.21 201.67 99.64 C 204.20 98.50 207.00 98.19 209.73 97.91 C 207.75 102.67 206.66 107.83 207.10 113.00 C 207.74 120.83 207.21 129.04 210.40 136.41 C 214.38 145.65 218.05 155.23 224.45 163.14 C 225.82 159.06 228.32 154.82 227.54 150.43 C 222.37 141.16 214.57 132.25 214.77 121.01 C 214.46 114.05 217.74 107.69 218.58 100.91 C 218.90 99.30 217.34 98.45 216.21 97.74 C 217.35 96.45 218.49 95.16 219.63 93.85 Z" />
</g>
<g id="#9ecdd9ff">
<path fill="#9ecdd9" opacity="1.00" d=" M 265.62 95.86 C 271.86 98.53 277.57 102.25 283.68 105.19 C 291.80 109.22 300.48 111.92 308.92 115.16 C 312.61 116.86 316.41 118.30 320.10 120.03 C 323.88 122.65 327.88 124.94 331.96 127.06 C 332.40 127.38 333.27 128.03 333.70 128.35 C 336.83 130.80 339.80 133.48 342.44 136.45 L 342.93 137.07 L 343.41 137.73 C 341.12 136.10 338.76 134.57 336.48 132.94 C 332.23 129.86 327.79 127.04 323.10 124.69 C 323.08 132.12 327.01 138.82 332.62 143.47 C 332.45 144.60 332.29 145.73 332.15 146.86 C 330.40 156.52 329.90 166.44 327.00 175.87 C 325.61 180.47 322.86 184.47 320.53 188.62 C 318.97 191.32 317.20 193.95 314.77 195.93 C 314.13 195.97 312.84 196.06 312.20 196.10 C 311.39 195.25 310.60 194.41 309.82 193.55 C 318.06 186.59 324.16 176.68 325.52 165.88 C 326.15 156.72 326.72 147.00 322.46 138.55 C 319.35 130.61 312.71 124.97 306.32 119.68 C 299.78 114.34 291.75 111.48 284.46 107.39 C 278.07 103.74 271.00 101.04 265.62 95.86 Z" />
</g>
<g id="#6d84c0ff">
<path fill="#6d84c0" opacity="1.00" d=" M 222.57 97.24 C 228.20 101.58 234.47 105.13 239.40 110.33 C 237.31 111.17 235.20 111.99 233.09 112.79 C 232.25 117.82 231.79 123.00 232.83 128.04 C 233.84 134.68 237.26 140.60 240.87 146.14 C 244.48 151.60 250.43 154.71 255.67 158.34 C 261.12 161.80 267.15 165.64 273.90 164.89 C 281.44 164.01 288.42 160.69 294.97 157.02 C 295.49 159.07 296.03 161.11 296.47 163.17 C 296.46 165.17 296.41 167.17 296.30 169.17 C 296.26 169.51 296.18 170.18 296.14 170.52 C 295.80 170.34 295.13 169.98 294.80 169.80 L 293.99 169.39 C 292.18 168.65 290.36 167.10 288.30 167.66 C 283.21 168.78 278.46 171.89 273.09 171.38 C 267.94 170.79 262.92 169.41 257.96 167.99 C 252.21 166.47 247.98 162.06 243.18 158.83 C 238.69 155.77 234.33 152.05 232.32 146.84 C 228.45 136.69 224.52 126.12 225.14 115.08 C 225.69 111.54 228.73 109.16 230.87 106.51 C 228.02 103.50 225.25 100.41 222.57 97.24 Z" />
</g>
<g id="#7883c2ff">
<path fill="#7883c2" opacity="1.00" d=" M 209.73 97.91 C 211.88 97.75 214.04 97.72 216.21 97.74 C 217.34 98.45 218.90 99.30 218.58 100.91 C 217.74 107.69 214.46 114.05 214.77 121.01 C 214.57 132.25 222.37 141.16 227.54 150.43 C 228.32 154.82 225.82 159.06 224.45 163.14 C 218.05 155.23 214.38 145.65 210.40 136.41 C 207.21 129.04 207.74 120.83 207.10 113.00 C 206.66 107.83 207.75 102.67 209.73 97.91 Z" />
</g>
<g id="#a7a9c3ff">
<path fill="#a7a9c3" opacity="1.00" d=" M 182.06 99.52 C 182.52 99.70 183.43 100.05 183.88 100.22 C 184.15 100.47 184.68 100.98 184.94 101.23 C 181.99 111.10 181.49 121.55 182.60 131.76 C 183.26 135.93 183.95 140.11 183.99 144.35 L 183.97 145.26 C 180.99 137.90 181.97 129.84 180.30 122.23 C 178.81 114.63 180.31 106.93 182.06 99.52 Z" />
</g>
<g id="#353670ff">
<path fill="#353670" opacity="1.00" d=" M 185.30 99.85 C 186.89 106.47 186.48 113.26 185.92 119.98 C 185.08 130.14 188.00 140.01 190.35 149.77 C 191.97 155.87 193.54 162.31 197.81 167.18 C 203.16 173.16 206.45 180.64 211.98 186.48 C 213.58 186.32 215.18 186.16 216.79 186.04 C 216.47 186.60 215.82 187.71 215.49 188.27 L 215.10 188.97 C 214.42 190.13 213.72 191.28 213.03 192.44 C 207.56 187.52 202.61 182.02 198.47 175.93 C 196.34 172.89 194.12 169.91 192.11 166.78 C 190.77 163.79 189.38 160.82 188.18 157.77 C 186.78 153.29 185.33 148.84 183.99 144.35 C 183.95 140.11 183.26 135.93 182.60 131.76 C 181.49 121.55 181.99 111.10 184.94 101.23 C 185.03 100.88 185.21 100.19 185.30 99.85 Z" />
</g>
<g id="#a6a5c8ff">
<path fill="#a6a5c8" opacity="1.00" d=" M 369.75 100.26 C 370.32 100.41 371.46 100.71 372.03 100.86 C 373.47 107.75 375.08 114.88 373.66 121.92 C 371.98 128.23 371.89 134.86 370.19 141.18 C 370.43 134.42 371.82 127.75 371.65 120.97 C 371.62 115.30 370.28 109.75 369.62 104.14 C 369.64 102.84 369.68 101.55 369.75 100.26 Z" />
</g>
<g id="#313076ff">
<path fill="#313076" opacity="1.00" d=" M 367.65 127.53 C 369.23 118.79 364.55 109.60 368.88 101.25 C 369.06 101.97 369.43 103.42 369.62 104.14 C 370.28 109.75 371.62 115.30 371.65 120.97 C 371.82 127.75 370.43 134.42 370.19 141.18 C 369.57 144.16 368.70 147.09 367.88 150.02 C 366.25 154.67 364.92 159.47 362.68 163.88 C 362.16 164.77 361.63 165.65 361.08 166.52 C 360.07 164.28 359.09 162.04 358.18 159.76 C 358.02 159.37 357.71 158.58 357.55 158.19 C 360.25 153.47 363.08 148.71 364.32 143.35 C 365.52 138.10 366.72 132.84 367.65 127.53 Z" />
</g>
<g id="#7291ccff">
<path fill="#7291cc" opacity="1.00" d=" M 239.40 110.33 C 239.97 110.90 240.55 111.46 241.13 112.02 C 241.73 116.90 241.03 121.78 240.01 126.55 C 239.07 129.76 241.30 132.53 242.95 135.05 C 245.46 138.56 247.64 142.33 250.38 145.67 C 253.83 149.82 259.35 151.00 264.13 152.94 C 268.73 154.55 273.33 157.24 278.38 156.46 C 283.02 155.82 287.66 154.92 292.36 155.17 C 291.74 153.60 290.99 152.06 290.69 150.39 C 291.36 149.24 292.22 148.21 293.03 147.16 C 296.32 151.83 296.83 157.64 296.47 163.17 C 296.03 161.11 295.49 159.07 294.97 157.02 C 288.42 160.69 281.44 164.01 273.90 164.89 C 267.15 165.64 261.12 161.80 255.67 158.34 C 250.43 154.71 244.48 151.60 240.87 146.14 C 237.26 140.60 233.84 134.68 232.83 128.04 C 231.79 123.00 232.25 117.82 233.09 112.79 C 235.20 111.99 237.31 111.17 239.40 110.33 Z" />
</g>
<g id="#77a0d5ff">
<path fill="#77a0d5" opacity="1.00" d=" M 241.13 112.02 C 244.01 114.86 247.13 117.45 250.41 119.83 C 249.47 124.24 249.66 128.89 251.90 132.90 C 253.77 136.78 255.59 141.19 259.64 143.26 C 267.80 147.52 278.46 150.70 286.70 144.85 C 288.66 145.53 290.68 146.05 292.66 146.70 L 293.03 147.16 C 292.22 148.21 291.36 149.24 290.69 150.39 C 290.99 152.06 291.74 153.60 292.36 155.17 C 287.66 154.92 283.02 155.82 278.38 156.46 C 273.33 157.24 268.73 154.55 264.13 152.94 C 259.35 151.00 253.83 149.82 250.38 145.67 C 247.64 142.33 245.46 138.56 242.95 135.05 C 241.30 132.53 239.07 129.76 240.01 126.55 C 241.03 121.78 241.73 116.90 241.13 112.02 Z" />
</g>
<g id="#7bb5d6ff">
<path fill="#7bb5d6" opacity="1.00" d=" M 250.41 119.83 C 260.45 127.36 272.54 131.31 283.14 137.90 C 286.86 140.17 290.00 143.27 292.66 146.70 C 290.68 146.05 288.66 145.53 286.70 144.85 C 279.44 140.10 272.80 133.65 264.03 131.88 C 259.97 130.90 255.81 131.71 251.90 132.90 C 249.66 128.89 249.47 124.24 250.41 119.83 Z" />
</g>
<g id="#ced0d2ff">
<path fill="#ced0d2" opacity="1.00" d=" M 370.19 141.18 C 371.89 134.86 371.98 128.23 373.66 121.92 C 374.83 122.40 376.01 122.88 377.20 123.36 C 375.87 123.86 374.48 124.19 373.14 124.66 C 372.78 127.75 372.94 130.90 372.62 134.00 C 372.25 140.23 369.70 146.24 370.54 152.55 C 376.68 148.48 379.64 140.84 386.51 137.82 C 386.89 141.78 387.44 146.05 385.22 149.63 C 385.17 148.92 385.05 147.51 384.99 146.80 C 384.94 145.90 384.85 144.08 384.80 143.18 C 378.21 146.74 373.79 152.89 368.37 157.85 C 368.16 155.24 367.93 152.63 367.88 150.02 C 368.70 147.09 369.57 144.16 370.19 141.18 Z" />
</g>
<g id="#9edff8ff">
<path fill="#9edff8" opacity="1.00" d=" M 323.10 124.69 C 327.79 127.04 332.23 129.86 336.48 132.94 C 333.95 134.67 331.46 136.47 329.00 138.29 C 332.69 141.04 336.95 143.50 339.14 147.72 C 340.91 151.16 342.29 154.81 343.12 158.59 C 344.01 162.61 342.41 166.55 341.43 170.39 C 340.36 173.99 340.11 177.77 339.99 181.51 C 342.57 180.48 345.61 179.83 347.35 177.45 C 349.84 174.12 352.00 170.53 353.88 166.82 C 355.64 163.34 354.84 159.30 354.46 155.60 C 356.12 159.69 358.35 164.03 357.43 168.57 C 356.46 172.75 354.15 176.45 352.43 180.34 C 348.63 182.99 344.78 185.56 340.80 187.93 C 335.04 191.33 330.34 196.20 324.63 199.68 C 317.24 204.74 309.01 208.34 300.92 212.10 C 297.03 213.25 293.08 214.17 289.10 214.91 C 282.41 215.25 275.72 215.66 269.02 215.79 C 256.93 215.31 244.86 211.97 234.77 205.17 C 235.42 204.76 236.74 203.93 237.39 203.52 C 239.26 204.43 241.21 205.17 243.21 205.73 C 243.67 206.94 244.14 208.14 244.61 209.35 C 251.35 210.57 258.10 212.03 264.99 212.05 C 274.22 212.11 283.66 212.52 292.61 209.83 C 298.83 208.24 303.71 203.77 309.63 201.47 C 312.28 200.67 313.74 198.33 314.77 195.93 C 317.20 193.95 318.97 191.32 320.53 188.62 C 326.09 186.32 331.53 183.12 335.31 178.34 C 337.89 173.56 338.65 168.04 339.91 162.80 C 340.12 160.48 341.19 157.63 339.57 155.60 C 336.55 153.21 332.98 150.92 332.15 146.86 C 332.29 145.73 332.45 144.60 332.62 143.47 C 327.01 138.82 323.08 132.12 323.10 124.69 Z" />
</g>
<g id="#72b3e5ff">
<path fill="#72b3e5" opacity="1.00" d=" M 251.90 132.90 C 255.81 131.71 259.97 130.90 264.03 131.88 C 272.80 133.65 279.44 140.10 286.70 144.85 C 278.46 150.70 267.80 147.52 259.64 143.26 C 255.59 141.19 253.77 136.78 251.90 132.90 Z" />
</g>
<g id="#b3e5f6ff">
<path fill="#b3e5f6" opacity="1.00" d=" M 329.00 138.29 C 331.46 136.47 333.95 134.67 336.48 132.94 C 338.76 134.57 341.12 136.10 343.41 137.73 C 347.35 143.52 351.78 149.08 354.46 155.60 C 354.84 159.30 355.64 163.34 353.88 166.82 C 352.00 170.53 349.84 174.12 347.35 177.45 C 345.61 179.83 342.57 180.48 339.99 181.51 C 340.11 177.77 340.36 173.99 341.43 170.39 C 342.41 166.55 344.01 162.61 343.12 158.59 C 342.29 154.81 340.91 151.16 339.14 147.72 C 336.95 143.50 332.69 141.04 329.00 138.29 Z" />
</g>
<g id="#7ba4c9ff">
<path fill="#7ba4c9" opacity="1.00" d=" M 342.93 137.07 C 344.12 138.09 345.35 139.06 346.52 140.11 C 348.52 142.27 350.28 144.64 351.88 147.11 C 353.86 150.75 355.91 154.37 357.55 158.19 C 357.71 158.58 358.02 159.37 358.18 159.76 C 359.00 163.71 360.00 167.91 358.86 171.91 C 357.67 175.33 354.72 177.67 352.43 180.34 C 354.15 176.45 356.46 172.75 357.43 168.57 C 358.35 164.03 356.12 159.69 354.46 155.60 C 351.78 149.08 347.35 143.52 343.41 137.73 L 342.93 137.07 Z" />
</g>
<g id="#c7c9e7ff">
<path fill="#c7c9e7" opacity="1.00" d=" M 165.40 137.61 C 172.78 141.25 176.69 148.96 183.17 153.73 C 183.33 150.89 183.91 148.10 183.97 145.26 L 183.99 144.35 C 185.33 148.84 186.78 153.29 188.18 157.77 C 187.96 159.30 187.73 160.82 187.48 162.34 C 180.27 155.31 174.51 146.85 166.35 140.81 C 166.25 142.88 166.19 144.97 166.20 147.05 C 165.16 144.01 165.12 140.78 165.40 137.61 Z" />
</g>
<g id="#a19f9fff">
<path fill="#a19f9f" opacity="1.00" d=" M 166.35 140.81 C 174.51 146.85 180.27 155.31 187.48 162.34 C 187.73 160.82 187.96 159.30 188.18 157.77 C 189.38 160.82 190.77 163.79 192.11 166.78 C 192.29 168.31 192.41 169.85 192.54 171.39 C 184.21 164.18 177.10 155.68 168.62 148.65 C 168.93 152.47 169.35 156.35 170.93 159.89 C 171.49 161.32 172.15 162.71 172.80 164.11 C 178.31 176.21 185.49 187.67 194.77 197.24 C 197.23 199.80 199.69 202.37 202.10 204.97 C 200.66 204.08 199.22 203.17 197.93 202.07 C 186.84 192.04 178.44 179.34 172.23 165.81 C 169.41 159.86 167.41 153.52 166.20 147.05 C 166.19 144.97 166.25 142.88 166.35 140.81 Z" />
</g>
<g id="#9d9ca1ff">
<path fill="#9d9ca1" opacity="1.00" d=" M 368.37 157.85 C 373.79 152.89 378.21 146.74 384.80 143.18 C 384.85 144.08 384.94 145.90 384.99 146.80 C 384.95 150.73 384.01 154.62 382.35 158.18 C 382.77 155.06 382.98 151.92 383.22 148.79 C 377.57 154.97 370.91 160.24 365.92 166.98 C 365.33 166.82 364.16 166.50 363.58 166.34 C 363.35 165.72 362.90 164.49 362.68 163.88 C 364.92 159.47 366.25 154.67 367.88 150.02 C 367.93 152.63 368.16 155.24 368.37 157.85 Z" />
</g>
<g id="#8bd9ebff">
<path fill="#8bd9eb" opacity="1.00" d=" M 332.15 146.86 C 332.98 150.92 336.55 153.21 339.57 155.60 C 341.19 157.63 340.12 160.48 339.91 162.80 C 338.65 168.04 337.89 173.56 335.31 178.34 C 331.53 183.12 326.09 186.32 320.53 188.62 C 322.86 184.47 325.61 180.47 327.00 175.87 C 329.90 166.44 330.40 156.52 332.15 146.86 Z" />
</g>
<g id="#737286ff">
<path fill="#737286" opacity="1.00" d=" M 168.62 148.65 C 177.10 155.68 184.21 164.18 192.54 171.39 C 192.41 169.85 192.29 168.31 192.11 166.78 C 194.12 169.91 196.34 172.89 198.47 175.93 C 197.61 177.16 196.75 178.38 195.89 179.61 C 193.06 176.28 190.14 173.03 187.04 169.96 C 181.80 164.79 177.14 159.03 171.44 154.33 C 171.25 156.18 170.99 158.03 170.93 159.89 C 169.35 156.35 168.93 152.47 168.62 148.65 Z" />
</g>
<g id="#6c6969ff">
<path fill="#6c6969" opacity="1.00" d=" M 365.92 166.98 C 370.91 160.24 377.57 154.97 383.22 148.79 C 382.98 151.92 382.77 155.06 382.35 158.18 C 381.89 159.35 381.16 160.39 380.49 161.44 C 380.68 159.34 380.82 157.23 380.97 155.12 C 377.71 159.41 374.01 163.33 370.26 167.18 C 368.13 168.51 365.92 169.68 363.80 171.01 C 364.52 169.67 365.18 168.31 365.92 166.98 Z" />
</g>
<g id="#54544fff">
<path fill="#54544f" opacity="1.00" d=" M 170.93 159.89 C 170.99 158.03 171.25 156.18 171.44 154.33 C 177.14 159.03 181.80 164.79 187.04 169.96 C 190.14 173.03 193.06 176.28 195.89 179.61 C 201.05 185.63 207.22 190.75 211.87 197.22 C 203.19 192.06 197.30 183.76 190.25 176.77 C 184.69 170.95 179.29 164.94 173.14 159.72 C 173.01 161.18 172.89 162.64 172.80 164.11 C 172.15 162.71 171.49 161.32 170.93 159.89 Z" />
</g>
<g id="#383938ff">
<path fill="#383938" opacity="1.00" d=" M 370.26 167.18 C 374.01 163.33 377.71 159.41 380.97 155.12 C 380.82 157.23 380.68 159.34 380.49 161.44 C 379.79 165.21 377.69 168.51 376.02 171.90 C 369.30 184.82 360.05 196.40 348.92 205.78 C 338.21 213.14 327.53 221.06 314.94 224.92 C 314.19 224.93 312.68 224.94 311.93 224.95 C 316.59 220.24 321.70 216.01 326.40 211.34 C 336.30 202.28 346.88 193.80 355.32 183.28 C 359.95 177.59 365.86 173.08 370.26 167.18 Z" />
</g>
<g id="#5f689eff">
<path fill="#5f689e" opacity="1.00" d=" M 224.80 168.71 C 226.69 165.10 228.36 161.39 230.30 157.81 C 233.14 162.17 235.36 167.27 239.86 170.21 C 248.67 176.08 259.35 178.66 269.84 178.99 C 274.04 179.01 278.44 179.08 282.39 177.43 C 285.62 175.82 287.05 172.27 288.78 169.33 C 290.52 169.31 292.25 169.34 293.99 169.39 L 294.80 169.80 C 293.34 173.35 291.33 176.86 287.93 178.88 C 277.53 185.44 264.40 185.50 252.83 182.40 C 242.77 179.69 232.48 176.04 224.80 168.71 Z" />
</g>
<g id="#383837ff">
<path fill="#383837" opacity="1.00" d=" M 173.14 159.72 C 179.29 164.94 184.69 170.95 190.25 176.77 C 197.30 183.76 203.19 192.06 211.87 197.22 C 215.55 201.51 219.04 205.99 223.06 209.97 C 225.96 212.86 229.59 214.82 232.76 217.37 C 235.47 219.55 237.57 222.35 239.81 224.98 C 237.29 224.55 234.76 224.15 232.25 223.67 C 221.18 219.39 211.03 212.74 202.10 204.97 C 199.69 202.37 197.23 199.80 194.77 197.24 C 185.49 187.67 178.31 176.21 172.80 164.11 C 172.89 162.64 173.01 161.18 173.14 159.72 Z" />
</g>
<g id="#688095ff">
<path fill="#688095" opacity="1.00" d=" M 358.18 159.76 C 359.09 162.04 360.07 164.28 361.08 166.52 C 361.63 165.65 362.16 164.77 362.68 163.88 C 362.90 164.49 363.35 165.72 363.58 166.34 C 364.16 166.50 365.33 166.82 365.92 166.98 C 365.18 168.31 364.52 169.67 363.80 171.01 C 359.81 175.28 355.54 179.29 351.83 183.81 C 347.15 189.55 342.12 195.19 335.60 198.87 C 335.86 198.49 336.39 197.72 336.65 197.34 C 339.73 194.19 343.29 191.53 346.18 188.20 C 348.39 185.68 350.25 182.88 352.43 180.34 C 354.72 177.67 357.67 175.33 358.86 171.91 C 360.00 167.91 359.00 163.71 358.18 159.76 Z" />
</g>
<g id="#435d6bff">
<path fill="#435d6b" opacity="1.00" d=" M 363.80 171.01 C 365.92 169.68 368.13 168.51 370.26 167.18 C 365.86 173.08 359.95 177.59 355.32 183.28 C 346.88 193.80 336.30 202.28 326.40 211.34 C 326.32 210.54 326.15 208.94 326.06 208.13 C 328.17 206.17 330.06 203.99 332.11 201.97 C 333.28 200.94 334.44 199.91 335.60 198.87 C 342.12 195.19 347.15 189.55 351.83 183.81 C 355.54 179.29 359.81 175.28 363.80 171.01 Z" />
</g>
<g id="#5b6574ff">
<path fill="#5b6574" opacity="1.00" d=" M 198.47 175.93 C 202.61 182.02 207.56 187.52 213.03 192.44 C 213.72 191.28 214.42 190.13 215.10 188.97 C 214.73 191.23 214.49 193.51 214.25 195.79 C 220.50 200.83 226.51 206.23 231.70 212.37 C 234.33 215.88 237.95 218.37 241.77 220.43 C 244.59 221.82 245.84 224.83 247.26 227.44 C 244.82 227.30 242.39 227.14 239.97 226.83 C 237.17 226.46 234.66 225.06 232.25 223.67 C 234.76 224.15 237.29 224.55 239.81 224.98 C 237.57 222.35 235.47 219.55 232.76 217.37 C 229.59 214.82 225.96 212.86 223.06 209.97 C 219.04 205.99 215.55 201.51 211.87 197.22 C 207.22 190.75 201.05 185.63 195.89 179.61 C 196.75 178.38 197.61 177.16 198.47 175.93 Z" />
</g>
<g id="#82cfe8ff">
<path fill="#82cfe8" opacity="1.00" d=" M 340.80 187.93 C 344.78 185.56 348.63 182.99 352.43 180.34 C 350.25 182.88 348.39 185.68 346.18 188.20 C 343.29 191.53 339.73 194.19 336.65 197.34 C 324.40 201.50 313.80 209.72 300.92 212.10 C 309.01 208.34 317.24 204.74 324.63 199.68 C 330.34 196.20 335.04 191.33 340.80 187.93 Z" />
</g>
<g id="#729bb0ff">
<path fill="#729bb0" opacity="1.00" d=" M 215.49 188.27 C 216.60 190.44 217.97 192.49 219.78 194.14 C 224.84 200.14 230.52 205.53 236.73 210.35 C 235.05 211.02 233.37 211.69 231.70 212.37 C 226.51 206.23 220.50 200.83 214.25 195.79 C 214.49 193.51 214.73 191.23 215.10 188.97 L 215.49 188.27 Z" />
</g>
<g id="#8bc4d9ff">
<path fill="#8bc4d9" opacity="1.00" d=" M 219.78 194.14 C 224.31 196.33 229.01 198.17 233.57 200.31 C 234.86 201.36 236.09 202.48 237.39 203.52 C 236.74 203.93 235.42 204.76 234.77 205.17 C 244.86 211.97 256.93 215.31 269.02 215.79 C 275.72 215.66 282.41 215.25 289.10 214.91 C 286.24 215.63 283.42 216.48 280.62 217.40 C 285.81 217.59 291.02 217.92 296.22 217.61 L 297.04 217.57 C 284.41 220.46 271.24 219.81 258.49 218.08 C 253.26 216.85 248.18 215.03 242.90 214.01 C 240.68 213.08 238.62 211.82 236.73 210.35 C 230.52 205.53 224.84 200.14 219.78 194.14 Z" />
</g>
<g id="#abbec8ff">
<path fill="#abbec8" opacity="1.00" d=" M 269.99 205.75 C 284.05 206.22 298.61 202.22 309.82 193.55 C 310.60 194.41 311.39 195.25 312.20 196.10 C 302.94 202.45 292.30 206.98 281.08 208.15 C 268.42 208.80 255.61 208.70 243.21 205.73 C 241.21 205.17 239.26 204.43 237.39 203.52 C 236.09 202.48 234.86 201.36 233.57 200.31 C 239.66 202.24 245.92 203.51 252.16 204.81 C 258.02 206.04 264.04 205.70 269.99 205.75 Z" />
</g>
<g id="#b5e1f3ff">
<path fill="#b5e1f3" opacity="1.00" d=" M 312.20 196.10 C 312.84 196.06 314.13 195.97 314.77 195.93 C 313.74 198.33 312.28 200.67 309.63 201.47 C 303.71 203.77 298.83 208.24 292.61 209.83 C 283.66 212.52 274.22 212.11 264.99 212.05 C 258.10 212.03 251.35 210.57 244.61 209.35 C 244.14 208.14 243.67 206.94 243.21 205.73 C 255.61 208.70 268.42 208.80 281.08 208.15 C 292.30 206.98 302.94 202.45 312.20 196.10 Z" />
</g>
<g id="#6db0caff">
<path fill="#6db0ca" opacity="1.00" d=" M 300.92 212.10 C 313.80 209.72 324.40 201.50 336.65 197.34 C 336.39 197.72 335.86 198.49 335.60 198.87 C 334.44 199.91 333.28 200.94 332.11 201.97 C 326.48 204.77 320.40 207.44 316.80 212.89 C 316.16 212.95 314.87 213.06 314.23 213.11 C 310.61 213.43 307.03 214.16 303.61 215.37 C 301.16 216.16 298.75 217.13 296.22 217.61 C 291.02 217.92 285.81 217.59 280.62 217.40 C 283.42 216.48 286.24 215.63 289.10 214.91 C 293.08 214.17 297.03 213.25 300.92 212.10 Z" />
</g>
<g id="#688ca2ff">
<path fill="#688ca2" opacity="1.00" d=" M 316.80 212.89 C 320.40 207.44 326.48 204.77 332.11 201.97 C 330.06 203.99 328.17 206.17 326.06 208.13 C 324.83 209.21 323.55 210.24 322.23 211.22 C 320.43 211.81 318.60 212.31 316.80 212.89 Z" />
</g>
<g id="#999b9dff">
<path fill="#999b9d" opacity="1.00" d=" M 314.94 224.92 C 327.53 221.06 338.21 213.14 348.92 205.78 C 346.92 208.48 344.41 210.76 341.60 212.58 C 331.36 219.44 320.34 225.62 308.22 228.32 C 306.24 228.21 304.26 228.03 302.29 227.87 C 306.50 222.31 311.53 217.43 316.80 212.89 C 318.60 212.31 320.43 211.81 322.23 211.22 C 316.23 216.01 310.56 221.28 305.80 227.33 C 308.88 226.67 311.94 225.91 314.94 224.92 Z" />
</g>
<g id="#656265ff">
<path fill="#656265" opacity="1.00" d=" M 322.23 211.22 C 323.55 210.24 324.83 209.21 326.06 208.13 C 326.15 208.94 326.32 210.54 326.40 211.34 C 321.70 216.01 316.59 220.24 311.93 224.95 C 312.68 224.94 314.19 224.93 314.94 224.92 C 311.94 225.91 308.88 226.67 305.80 227.33 C 310.56 221.28 316.23 216.01 322.23 211.22 Z" />
</g>
<g id="#a0a1a7ff">
<path fill="#a0a1a7" opacity="1.00" d=" M 231.70 212.37 C 233.37 211.69 235.05 211.02 236.73 210.35 C 238.62 211.82 240.68 213.08 242.90 214.01 C 244.02 217.56 246.57 220.22 249.57 222.29 C 251.66 224.60 253.43 227.16 255.19 229.72 C 252.80 229.76 250.41 229.81 248.02 229.72 C 245.13 229.51 242.45 228.27 239.97 226.83 C 242.39 227.14 244.82 227.30 247.26 227.44 C 245.84 224.83 244.59 221.82 241.77 220.43 C 237.95 218.37 234.33 215.88 231.70 212.37 Z" />
</g>
<g id="#bdc9d1ff">
<path fill="#bdc9d1" opacity="1.00" d=" M 303.61 215.37 C 307.03 214.16 310.61 213.43 314.23 213.11 C 310.67 216.95 306.66 220.33 302.78 223.83 C 300.73 225.51 299.85 228.06 299.04 230.49 C 297.77 230.42 296.59 230.00 295.54 229.32 C 299.06 224.48 303.44 220.38 307.97 216.50 C 306.51 216.12 305.06 215.74 303.61 215.37 Z" />
</g>
<g id="#a8aaaeff">
<path fill="#a8aaae" opacity="1.00" d=" M 314.23 213.11 C 314.87 213.06 316.16 212.95 316.80 212.89 C 311.53 217.43 306.50 222.31 302.29 227.87 C 304.26 228.03 306.24 228.21 308.22 228.32 C 305.25 229.37 302.19 230.22 299.04 230.49 C 299.85 228.06 300.73 225.51 302.78 223.83 C 306.66 220.33 310.67 216.95 314.23 213.11 Z" />
</g>
<g id="#e1e1e1ff">
<path fill="#e1e1e1" opacity="1.00" d=" M 249.57 222.29 C 254.25 223.00 257.10 227.08 260.31 230.11 C 256.54 232.96 251.92 231.39 248.02 229.72 C 250.41 229.81 252.80 229.76 255.19 229.72 C 253.43 227.16 251.66 224.60 249.57 222.29 Z" />
</g>
<g id="#242456ff">
<path fill="#242456" opacity="1.00" d=" M 293.90 266.54 C 299.93 266.24 305.97 266.54 312.00 266.46 C 319.27 266.61 326.68 265.76 333.77 267.82 C 341.01 270.14 347.22 275.92 349.29 283.35 C 350.55 289.37 349.78 296.01 345.97 301.02 C 341.67 306.40 335.15 310.96 327.99 310.55 C 320.48 310.60 312.98 310.59 305.47 310.55 C 304.98 321.25 306.24 332.04 304.42 342.64 C 300.48 342.52 296.53 342.80 292.62 342.38 C 292.38 317.57 292.44 292.74 292.56 267.94 C 292.90 267.59 293.57 266.89 293.90 266.54 M 304.67 292.01 C 304.77 294.12 303.68 297.08 306.10 298.23 C 312.39 298.66 318.72 298.29 325.03 298.41 C 329.01 298.55 333.04 296.82 335.54 293.69 C 337.01 291.61 338.44 288.76 336.89 286.32 C 335.16 282.07 330.60 279.24 326.04 279.39 C 319.16 279.29 312.29 279.50 305.41 279.36 C 305.50 283.60 305.37 287.82 304.67 292.01 Z" />
<path fill="#242456" opacity="1.00" d=" M 359.99 297.83 C 364.37 289.90 371.95 283.43 380.99 281.68 C 387.18 281.32 393.78 280.73 399.54 283.53 C 408.45 287.48 415.99 295.78 417.62 305.49 C 416.49 308.77 415.31 312.04 414.28 315.36 C 400.14 316.19 385.91 314.66 371.82 316.32 C 387.00 317.98 402.38 315.38 417.50 317.59 C 417.85 317.75 418.56 318.07 418.91 318.23 C 402.78 318.61 386.64 318.08 370.52 318.52 C 373.51 326.18 381.74 331.79 390.09 330.20 C 395.22 329.80 398.74 325.77 402.92 323.32 C 404.04 323.60 405.14 323.98 406.21 324.45 C 408.45 325.96 410.59 327.59 412.84 329.09 C 408.81 335.89 401.53 340.40 393.98 342.27 C 387.90 342.66 381.37 343.37 375.69 340.64 C 369.74 338.34 364.93 333.75 361.36 328.57 C 355.35 319.57 354.85 307.33 359.99 297.83 M 370.78 305.51 C 381.90 305.73 393.03 305.78 404.15 305.50 C 403.00 301.59 400.24 298.40 396.83 296.28 C 392.60 293.22 387.07 294.32 382.20 294.45 C 377.01 296.08 372.43 300.23 370.78 305.51 M 371.78 307.56 C 378.10 309.10 384.60 307.97 391.00 308.24 C 395.10 308.38 399.22 308.19 403.28 307.57 C 392.80 307.25 382.26 306.88 371.78 307.56 Z" />
</g>
<g id="#232456ff">
<path fill="#232456" opacity="1.00" d=" M 8.99 277.03 C 13.12 272.21 19.04 269.23 25.13 267.77 C 30.40 267.29 35.75 267.27 41.02 267.78 C 47.04 269.30 53.02 272.11 57.04 277.00 C 60.10 280.49 61.14 285.16 61.94 289.60 C 57.72 291.27 53.12 290.26 48.71 290.54 C 47.10 287.66 45.58 284.37 42.43 282.86 C 38.16 281.13 33.45 281.27 28.94 281.60 C 24.72 281.99 20.37 284.05 18.40 287.99 C 17.99 291.54 20.88 294.62 24.11 295.63 C 32.87 298.86 42.46 298.88 51.27 301.96 C 56.18 303.96 60.15 308.17 61.92 313.16 C 63.59 320.57 62.60 329.26 56.44 334.44 C 43.36 345.06 22.62 345.25 9.68 334.30 C 5.89 330.14 2.56 324.38 3.87 318.56 C 7.93 318.39 12.01 318.34 16.07 318.54 C 18.17 320.39 18.36 323.60 20.50 325.40 C 25.28 328.92 31.49 327.44 37.00 327.76 C 40.77 328.08 44.57 326.94 47.30 324.28 C 48.75 322.07 49.12 318.76 47.53 316.56 C 42.80 312.65 36.53 312.20 30.82 310.77 C 23.48 309.55 15.23 308.92 9.71 303.30 C 2.91 296.46 2.67 284.27 8.99 277.03 Z" />
</g>
<g id="#242558ff">
<path fill="#242558" opacity="1.00" d=" M 259.85 271.61 L 259.94 272.44 C 260.46 276.61 260.52 280.82 260.31 285.01 C 261.86 280.76 263.39 275.66 268.37 274.43 C 269.35 277.70 270.30 280.99 271.32 284.26 C 271.43 280.28 271.79 276.32 272.17 272.37 L 272.34 271.51 C 272.61 275.86 272.37 280.23 272.59 284.58 C 276.26 284.62 280.00 284.34 283.60 285.23 C 283.64 289.32 283.61 293.41 283.51 297.51 C 279.78 297.56 275.91 297.04 272.34 298.40 C 271.47 298.06 270.59 297.73 269.73 297.40 C 268.58 311.58 271.17 325.84 268.87 339.97 C 267.00 339.86 265.13 339.76 263.26 339.67 C 261.99 327.78 262.91 315.83 262.94 303.92 C 262.75 301.40 263.29 297.34 259.67 297.46 C 256.31 297.36 252.94 297.49 249.57 297.54 C 249.47 293.67 249.30 289.80 249.57 285.94 C 252.12 283.28 256.37 285.13 259.66 284.57 C 259.73 280.25 259.55 275.93 259.85 271.61 Z" />
</g>
<g id="#151734ff">
<path fill="#151734" opacity="1.00" d=" M 259.94 272.44 C 263.97 271.56 268.14 271.42 272.17 272.37 C 271.79 276.32 271.43 280.28 271.32 284.26 C 270.30 280.99 269.35 277.70 268.37 274.43 C 263.39 275.66 261.86 280.76 260.31 285.01 C 260.52 280.82 260.46 276.61 259.94 272.44 Z" />
</g>
<g id="#f9fdfbff">
</g>
<g id="#9d9bb0ff">
<path fill="#9d9bb0" opacity="1.00" d=" M 498.11 286.23 C 502.27 280.90 509.74 280.33 516.00 280.39 C 522.40 280.34 528.20 283.39 533.32 286.95 C 533.71 285.39 534.08 283.83 534.49 282.29 C 539.10 281.55 543.79 281.72 548.37 282.58 C 548.55 302.06 548.22 321.55 548.53 341.03 C 544.03 342.79 539.14 342.52 534.46 341.77 C 534.03 340.21 533.75 338.63 533.35 337.08 C 527.50 341.43 520.38 344.23 513.00 343.64 C 507.62 343.38 501.61 342.22 498.07 337.78 C 505.40 342.03 514.25 343.36 522.49 341.37 C 527.25 339.89 531.20 336.74 535.31 334.06 C 535.47 336.15 535.52 338.25 535.70 340.35 C 539.25 340.37 542.79 340.38 546.35 340.35 C 546.52 321.49 546.56 302.62 546.33 283.76 C 542.79 283.72 539.25 283.73 535.72 283.73 C 535.55 285.82 535.48 287.92 535.34 290.01 C 531.19 287.36 527.30 284.07 522.49 282.66 C 514.26 280.77 505.39 281.85 498.11 286.23 Z" />
</g>
<g id="#242455ff">
<path fill="#242455" opacity="1.00" d=" M 83.17 288.53 C 87.52 284.65 92.95 281.33 98.97 281.49 C 104.09 281.43 109.59 280.90 114.18 283.67 C 122.13 287.27 127.62 294.84 130.24 302.98 C 130.97 308.63 130.86 314.39 130.39 320.06 C 128.11 330.33 120.06 339.15 109.94 342.14 C 105.35 342.85 100.66 342.62 96.05 342.36 C 90.76 341.91 86.92 337.93 82.28 335.90 C 81.68 335.67 80.47 335.22 79.86 334.99 C 79.54 342.03 79.95 349.15 78.42 356.10 C 76.44 355.09 74.46 354.09 72.48 353.09 C 73.27 341.06 72.11 329.02 72.62 316.99 C 73.03 306.89 71.67 296.75 73.06 286.68 C 76.21 287.17 79.35 287.71 82.47 288.38 L 83.17 288.53 M 92.46 295.51 C 88.66 297.43 85.59 300.74 83.65 304.51 C 81.63 308.01 82.31 312.23 82.42 316.08 C 83.80 322.04 88.52 326.90 94.01 329.38 C 97.98 330.00 102.07 329.93 106.06 329.49 C 110.98 327.89 114.96 323.97 117.25 319.40 C 119.39 313.44 119.19 306.06 114.96 301.05 C 112.04 297.45 107.93 294.07 103.05 294.23 C 99.52 294.35 95.66 293.67 92.46 295.51 Z" />
<path fill="#242455" opacity="1.00" d=" M 498.11 286.23 C 505.39 281.85 514.26 280.77 522.49 282.66 C 527.30 284.07 531.19 287.36 535.34 290.01 C 535.48 287.92 535.55 285.82 535.72 283.73 C 539.25 283.73 542.79 283.72 546.33 283.76 C 546.56 302.62 546.52 321.49 546.35 340.35 C 542.79 340.38 539.25 340.37 535.70 340.35 C 535.52 338.25 535.47 336.15 535.31 334.06 C 531.20 336.74 527.25 339.89 522.49 341.37 C 514.25 343.36 505.40 342.03 498.07 337.78 C 491.87 332.92 487.12 325.92 485.79 318.08 C 485.15 311.21 485.21 303.97 488.63 297.76 C 490.91 293.31 494.09 289.24 498.11 286.23 M 508.47 295.53 C 502.33 298.45 497.58 305.00 498.27 312.00 C 497.59 318.76 502.05 324.99 507.72 328.23 C 510.70 330.42 514.58 329.63 518.03 329.79 C 524.72 330.23 530.38 324.99 533.21 319.36 C 535.43 313.45 535.13 306.11 530.91 301.14 C 527.83 297.26 523.22 293.86 518.04 294.22 C 514.84 294.35 511.34 293.77 508.47 295.53 Z" />
</g>
<g id="#242355ff">
<path fill="#242355" opacity="1.00" d=" M 160.40 282.29 C 163.47 281.23 166.80 281.55 170.00 281.44 C 184.36 280.42 197.63 292.19 200.38 305.93 C 200.60 312.31 201.38 319.20 198.09 324.98 C 194.10 333.54 186.19 340.01 177.03 342.24 C 172.06 342.69 167.02 342.76 162.06 342.18 C 151.52 339.19 142.94 330.44 139.85 319.96 C 139.23 314.69 139.18 309.30 139.87 304.05 C 142.81 294.11 150.69 285.86 160.40 282.29 M 164.17 294.57 C 158.30 296.64 153.24 301.74 152.00 307.93 C 149.71 316.88 155.39 326.58 163.99 329.53 C 167.98 329.95 172.03 329.94 176.01 329.49 C 181.21 327.44 185.33 323.16 187.40 318.00 C 187.90 314.03 187.93 309.96 187.39 305.99 C 185.15 300.92 181.08 296.69 175.94 294.54 C 172.05 294.11 168.05 294.01 164.17 294.57 Z" />
</g>
<g id="#a0a1b8ff">
<path fill="#a0a1b8" opacity="1.00" d=" M 230.18 284.26 C 232.88 282.82 235.85 281.32 239.01 281.77 C 240.97 282.22 242.75 283.19 244.55 284.08 C 244.43 288.07 244.46 292.07 244.55 296.07 C 240.45 296.79 236.25 296.34 232.16 297.01 C 228.70 298.42 226.50 301.65 223.79 304.07 C 225.09 300.38 227.85 296.98 231.73 295.88 C 235.20 295.01 238.80 295.55 242.33 295.65 C 242.43 291.67 242.45 287.70 242.38 283.73 C 238.31 283.66 234.23 283.74 230.18 284.26 Z" />
</g>
<g id="#242354ff">
<path fill="#242354" opacity="1.00" d=" M 429.44 293.77 C 431.72 287.16 438.53 283.36 444.97 281.80 C 452.54 281.16 461.02 280.58 467.41 285.49 C 472.95 288.76 475.98 295.17 475.70 301.51 C 471.75 301.59 467.79 301.61 463.84 301.64 C 462.62 298.77 461.34 295.51 458.04 294.53 C 454.04 294.08 449.96 294.12 445.96 294.54 C 443.16 295.29 441.44 297.67 440.13 300.08 C 444.42 306.01 452.28 305.45 458.61 307.26 C 463.02 307.90 467.78 308.62 471.11 311.89 C 476.26 316.11 477.62 323.56 475.72 329.72 C 472.90 336.97 465.32 341.07 458.01 342.35 C 451.87 342.51 445.32 343.41 439.60 340.64 C 432.31 337.87 426.52 330.44 427.53 322.39 C 431.48 322.45 435.43 322.47 439.39 322.35 C 440.13 324.90 440.83 327.99 443.61 329.07 C 450.10 331.04 457.58 331.06 463.52 327.46 C 463.57 325.73 463.59 324.01 463.61 322.29 C 461.16 320.78 458.61 319.32 455.78 318.66 C 449.84 317.78 443.90 316.67 438.15 314.94 C 429.75 312.17 426.15 301.58 429.44 293.77 Z" />
</g>
<g id="#17143bff">
<path fill="#17143b" opacity="1.00" d=" M 69.59 283.43 C 73.57 283.36 77.56 283.46 81.54 283.41 C 81.88 285.06 82.20 286.71 82.47 288.38 C 79.35 287.71 76.21 287.17 73.06 286.68 C 71.67 296.75 73.03 306.89 72.62 316.99 C 72.11 329.02 73.27 341.06 72.48 353.09 C 74.46 354.09 76.44 355.09 78.42 356.10 C 79.95 349.15 79.54 342.03 79.86 334.99 C 80.47 335.22 81.68 335.67 82.28 335.90 C 82.29 342.29 82.30 348.68 82.29 355.07 C 82.38 356.60 81.76 358.03 81.10 359.38 C 77.71 359.49 74.31 359.52 70.92 359.36 C 69.92 358.47 69.49 357.36 69.64 356.03 C 69.57 331.83 69.65 307.63 69.59 283.43 Z" />
</g>
<g id="#232455ff">
<path fill="#232455" opacity="1.00" d=" M 230.18 284.26 C 234.23 283.74 238.31 283.66 242.38 283.73 C 242.45 287.70 242.43 291.67 242.33 295.65 C 238.80 295.55 235.20 295.01 231.73 295.88 C 227.85 296.98 225.09 300.38 223.79 304.07 C 222.91 316.86 224.11 329.76 223.19 342.52 C 219.41 342.62 215.62 342.70 211.85 342.52 C 210.73 341.63 210.29 340.47 210.53 339.05 C 210.63 321.66 210.50 304.27 210.59 286.88 C 210.89 286.50 211.49 285.75 211.79 285.37 C 216.25 285.20 220.83 284.92 225.07 286.59 C 226.82 285.92 228.43 284.94 230.18 284.26 Z" />
</g>
<g id="#f4fafeff">
</g>
<g id="#fcfdfcff">
</g>
<g id="#fbfdfdff">
</g>
<g id="#141740ff">
<path fill="#141740" opacity="1.00" d=" M 259.67 297.46 C 263.29 297.34 262.75 301.40 262.94 303.92 C 262.91 315.83 261.99 327.78 263.26 339.67 C 265.13 339.76 267.00 339.86 268.87 339.97 C 271.17 325.84 268.58 311.58 269.73 297.40 C 270.59 297.73 271.47 298.06 272.34 298.40 C 272.56 313.11 272.48 327.84 272.39 342.55 C 268.24 342.54 264.09 342.59 259.95 342.55 C 259.37 327.53 259.92 312.48 259.67 297.46 Z" />
</g>
<g id="#11113cff">
<path fill="#11113c" opacity="1.00" d=" M 414.28 315.36 C 415.31 312.04 416.49 308.77 417.62 305.49 C 417.92 309.51 418.04 313.58 417.50 317.59 C 402.38 315.38 387.00 317.98 371.82 316.32 C 385.91 314.66 400.14 316.19 414.28 315.36 Z" />
</g>
<g id="#12133dff">
<path fill="#12133d" opacity="1.00" d=" M 371.78 307.56 C 382.26 306.88 392.80 307.25 403.28 307.57 C 399.22 308.19 395.10 308.38 391.00 308.24 C 384.60 307.97 378.10 309.10 371.78 307.56 Z" />
</g>
<g id="#f5f7fdff">
</g>
</svg>
