<?xml version="1.0" encoding="UTF-8" ?>
<!DOCTYPE svg PUBLIC "-//W3C//DTD SVG 1.1//EN" "http://www.w3.org/Graphics/SVG/1.1/DTD/svg11.dtd">
<svg width="370pt" height="280pt" viewBox="0 0 370 280" version="1.1" xmlns="http://www.w3.org/2000/svg">
<g id="#ffffffff">
</g>
<g id="#161510ff">
<path fill="#161510" opacity="1.00" d=" M 146.20 45.11 C 146.68 45.17 147.65 45.28 148.13 45.33 C 159.46 80.87 171.68 116.14 183.28 151.59 C 183.72 153.10 183.73 154.69 183.80 156.25 C 181.73 152.68 180.86 148.60 179.48 144.76 C 168.36 111.55 157.44 78.28 146.20 45.11 Z" />
<path fill="#161510" opacity="1.00" d=" M 220.70 50.49 C 221.57 48.39 221.79 45.69 223.99 44.49 C 205.87 99.21 187.54 153.87 169.41 208.59 C 168.93 209.93 168.41 211.26 167.66 212.47 L 166.95 212.73 C 172.22 195.30 178.41 178.15 184.02 160.83 C 196.23 124.05 208.58 87.31 220.70 50.49 Z" />
<path fill="#161510" opacity="1.00" d=" M 96.99 133.58 C 106.68 128.20 116.18 122.38 126.40 118.05 C 129.67 127.87 132.31 137.97 136.95 147.26 C 120.87 154.69 106.12 164.68 90.02 172.05 C 78.06 177.52 65.00 180.92 51.78 180.34 C 48.28 170.52 45.09 160.59 41.93 150.66 C 50.49 150.92 59.08 149.71 67.26 147.20 C 77.70 143.94 87.47 138.90 96.99 133.58 Z" />
<path fill="#161510" opacity="1.00" d=" M 187.49 165.77 C 187.98 166.50 188.40 167.26 188.76 168.05 C 193.94 182.90 198.45 197.99 203.87 212.75 C 203.49 212.69 202.73 212.57 202.35 212.51 C 197.09 197.86 192.68 182.91 187.31 168.29 C 187.35 167.66 187.45 166.40 187.49 165.77 Z" />
</g>
<g id="#c3c3c3ff">
<path fill="#c3c3c3" opacity="1.00" d=" M 223.99 44.49 C 226.26 45.46 225.96 48.16 225.85 50.19 C 223.22 58.85 220.08 67.36 217.44 76.02 C 220.71 76.12 223.99 76.17 227.25 76.51 C 223.53 76.38 219.81 76.52 216.09 76.51 C 212.44 84.83 210.12 93.63 207.08 102.16 C 205.92 105.35 205.19 108.67 204.58 112.01 C 208.47 112.25 212.38 112.45 216.25 112.93 C 212.54 112.58 208.81 112.67 205.09 112.79 C 201.93 121.53 199.56 130.56 195.96 139.13 C 192.93 144.89 191.55 151.28 189.33 157.36 C 188.35 160.07 187.58 162.88 187.49 165.77 C 187.45 166.40 187.35 167.66 187.31 168.29 C 186.71 169.37 186.10 170.45 185.48 171.52 C 181.94 177.28 180.82 184.08 178.33 190.31 C 175.95 197.87 173.12 205.29 171.10 212.96 C 173.56 213.39 176.19 213.62 178.19 215.27 C 173.24 215.86 167.90 217.32 163.14 215.13 C 164.27 214.12 165.45 213.11 166.95 212.73 L 167.66 212.47 C 168.41 211.26 168.93 209.93 169.41 208.59 C 187.54 153.87 205.87 99.21 223.99 44.49 Z" />
</g>
<g id="#9b2122ff">
<path fill="#9b2122" opacity="1.00" d=" M 125.57 51.49 C 131.58 49.50 137.97 49.50 144.23 49.53 C 146.78 56.95 149.79 64.28 151.45 71.97 C 146.68 66.15 146.42 58.18 143.29 51.52 C 137.39 50.75 131.48 51.93 125.57 51.49 Z" />
</g>
<g id="#030303ff">
<path fill="#030303" opacity="1.00" d=" M 225.85 50.19 L 226.60 49.58 C 248.57 48.51 268.54 59.39 287.00 69.96 C 305.70 80.77 325.99 91.68 348.28 90.60 C 345.64 99.54 342.30 108.26 339.74 117.23 C 322.14 118.21 305.26 111.58 290.05 103.34 C 294.07 100.53 297.66 97.02 299.99 92.66 C 294.74 93.64 290.45 97.14 287.28 101.29 C 285.47 97.00 284.27 92.47 282.19 88.29 L 281.73 89.22 C 278.43 95.67 276.67 102.77 274.55 109.65 L 274.12 108.93 C 276.16 101.91 278.70 95.05 280.96 88.09 L 279.68 88.19 C 275.82 87.94 272.59 90.18 269.59 92.29 C 269.65 86.10 269.15 79.50 265.52 74.27 C 264.70 79.73 265.08 85.32 266.71 90.60 C 254.61 83.53 241.27 78.05 227.25 76.51 C 223.99 76.17 220.71 76.12 217.44 76.02 C 220.08 67.36 223.22 58.85 225.85 50.19 Z" />
<path fill="#030303" opacity="1.00" d=" M 226.22 269.21 C 226.84 269.85 226.84 269.85 226.22 269.21 Z" />
</g>
<g id="#c8191eff">
<path fill="#c8191e" opacity="1.00" d=" M 106.97 57.59 C 112.95 55.06 119.06 52.19 125.57 51.49 C 131.48 51.93 137.39 50.75 143.29 51.52 C 146.42 58.18 146.68 66.15 151.45 71.97 C 152.66 73.61 153.24 75.64 153.42 77.65 C 153.76 84.13 155.72 90.58 159.46 95.91 C 162.82 103.52 164.89 111.67 167.68 119.52 C 169.75 126.14 172.28 132.61 174.08 139.31 C 161.24 138.76 148.66 142.25 136.95 147.26 C 132.31 137.97 129.67 127.87 126.40 118.05 C 123.36 107.76 120.06 97.52 116.23 87.49 C 113.72 77.34 109.08 67.86 106.97 57.59 Z" />
</g>
<g id="#1e9b39ff">
<path fill="#1e9b39" opacity="1.00" d=" M 72.77 75.75 C 84.12 69.61 95.12 62.75 106.97 57.59 C 109.08 67.86 113.72 77.34 116.23 87.49 C 107.04 92.38 97.77 97.12 88.90 102.59 C 76.99 108.86 65.04 115.52 51.79 118.53 C 45.29 120.10 38.58 120.47 31.91 120.38 C 28.24 110.55 25.12 100.50 22.00 90.49 C 40.04 91.31 57.31 84.40 72.77 75.75 Z" />
</g>
<g id="#f0ece9ff">
<path fill="#f0ece9" opacity="1.00" d=" M 265.52 74.27 C 269.15 79.50 269.65 86.10 269.59 92.29 C 269.84 96.12 270.53 99.90 270.99 103.71 C 271.29 106.01 271.41 108.36 272.19 110.57 C 273.27 111.62 274.62 112.35 275.88 113.17 C 271.54 119.64 275.62 127.32 276.07 134.30 C 277.57 134.61 279.07 134.95 280.53 135.45 C 290.59 140.78 301.12 145.52 312.37 147.65 C 317.84 148.76 323.44 148.72 328.99 148.84 C 328.58 150.66 328.18 152.50 327.70 154.31 C 323.56 153.23 319.24 153.57 315.03 152.95 C 301.47 151.31 288.92 145.45 276.96 139.16 C 277.51 142.97 278.25 146.77 278.19 150.63 C 276.07 146.88 275.96 142.49 275.10 138.37 C 274.84 136.88 274.60 135.38 274.40 133.88 C 273.86 129.82 273.24 125.77 272.63 121.72 C 271.12 128.43 269.07 135.02 265.84 141.11 C 264.61 140.63 262.94 140.50 262.36 139.12 C 262.55 132.15 265.59 125.78 268.34 119.52 C 264.29 122.10 260.73 125.33 257.05 128.38 C 254.03 130.71 251.09 133.20 247.63 134.85 C 249.75 131.77 252.77 129.51 255.59 127.13 C 243.34 120.40 230.24 114.64 216.25 112.93 C 212.38 112.45 208.47 112.25 204.58 112.01 C 205.19 108.67 205.92 105.35 207.08 102.16 C 210.12 93.63 212.44 84.83 216.09 76.51 C 219.81 76.52 223.53 76.38 227.25 76.51 C 241.27 78.05 254.61 83.53 266.71 90.60 C 265.08 85.32 264.70 79.73 265.52 74.27 M 216.12 80.97 C 214.87 82.05 214.67 83.82 214.06 85.27 C 211.73 92.82 209.03 100.24 206.72 107.80 C 224.01 107.01 240.52 113.52 255.44 121.63 C 256.83 122.41 257.80 123.70 258.83 124.89 C 262.09 121.78 265.96 119.37 269.14 116.18 C 270.33 114.25 270.89 111.86 270.54 109.61 C 269.91 104.90 269.17 100.21 268.19 95.56 C 264.77 95.55 261.96 93.41 259.00 92.00 C 245.79 85.15 231.10 80.66 216.12 80.97 M 264.08 139.36 C 265.51 137.12 266.05 134.49 266.89 132.01 C 268.12 127.86 269.88 123.87 270.75 119.62 C 267.90 125.93 265.98 132.69 264.08 139.36 Z" />
</g>
<g id="#9c2a2cff">
<path fill="#9c2a2c" opacity="1.00" d=" M 153.42 77.65 C 155.99 83.52 158.07 89.65 159.46 95.91 C 155.72 90.58 153.76 84.13 153.42 77.65 Z" />
</g>
<g id="#b01c1aff">
<path fill="#b01c1a" opacity="1.00" d=" M 216.12 80.97 C 231.10 80.66 245.79 85.15 259.00 92.00 C 261.96 93.41 264.77 95.55 268.19 95.56 C 269.17 100.21 269.91 104.90 270.54 109.61 C 270.89 111.86 270.33 114.25 269.14 116.18 C 265.96 119.37 262.09 121.78 258.83 124.89 C 257.80 123.70 256.83 122.41 255.44 121.63 C 240.52 113.52 224.01 107.01 206.72 107.80 C 209.03 100.24 211.73 92.82 214.06 85.27 C 214.67 83.82 214.87 82.05 216.12 80.97 M 262.83 100.86 C 259.05 107.26 257.19 114.81 257.91 122.23 C 264.48 116.14 267.22 106.38 266.15 97.61 C 264.89 98.53 263.56 99.44 262.83 100.86 Z" />
</g>
<g id="#f5f6f5ff">
<path fill="#f5f6f5" opacity="1.00" d=" M 116.23 87.49 C 120.06 97.52 123.36 107.76 126.40 118.05 C 116.18 122.38 106.68 128.20 96.99 133.58 C 96.62 133.14 95.89 132.25 95.53 131.80 C 97.57 125.93 93.69 120.56 91.81 115.23 C 90.86 112.26 88.39 110.30 85.93 108.61 C 86.92 106.60 87.87 104.58 88.90 102.59 C 97.77 97.12 107.04 92.38 116.23 87.49 Z" />
</g>
<g id="#b21f21ff">
<path fill="#b21f21" opacity="1.00" d=" M 269.59 92.29 C 272.59 90.18 275.82 87.94 279.68 88.19 C 275.70 93.49 273.51 99.87 272.56 106.38 C 272.02 105.50 271.49 104.61 270.99 103.71 C 270.53 99.90 269.84 96.12 269.59 92.29 Z" />
</g>
<g id="#f9d4d0ff">
<path fill="#f9d4d0" opacity="1.00" d=" M 279.68 88.19 L 280.96 88.09 C 278.70 95.05 276.16 101.91 274.12 108.93 C 273.60 108.08 273.08 107.23 272.56 106.38 C 273.51 99.87 275.70 93.49 279.68 88.19 Z" />
</g>
<g id="#b72321ff">
<path fill="#b72321" opacity="1.00" d=" M 282.19 88.29 C 284.27 92.47 285.47 97.00 287.28 101.29 C 285.64 103.20 283.79 104.91 281.88 106.54 C 279.98 107.68 278.12 108.91 276.10 109.83 C 279.74 103.64 282.32 96.51 281.73 89.22 L 282.19 88.29 Z" />
</g>
<g id="#f2ebeaff">
<path fill="#f2ebea" opacity="1.00" d=" M 274.55 109.65 C 276.67 102.77 278.43 95.67 281.73 89.22 C 282.32 96.51 279.74 103.64 276.10 109.83 C 275.71 109.78 274.93 109.70 274.55 109.65 Z" />
<path fill="#f2ebea" opacity="1.00" d=" M 287.28 101.29 C 290.45 97.14 294.74 93.64 299.99 92.66 C 297.66 97.02 294.07 100.53 290.05 103.34 C 305.26 111.58 322.14 118.21 339.74 117.23 C 339.22 118.76 338.71 120.31 338.25 121.86 L 337.48 121.86 C 319.44 123.10 302.42 115.72 286.87 107.41 C 286.74 106.84 286.49 105.69 286.37 105.11 C 285.39 105.74 284.42 106.37 283.45 107.01 C 283.05 106.89 282.27 106.65 281.88 106.54 C 283.79 104.91 285.64 103.20 287.28 101.29 Z" />
</g>
<g id="#100202ff">
<path fill="#100202" opacity="1.00" d=" M 262.83 100.86 C 263.56 99.44 264.89 98.53 266.15 97.61 C 267.22 106.38 264.48 116.14 257.91 122.23 C 257.19 114.81 259.05 107.26 262.83 100.86 Z" />
</g>
<g id="#e9e9eaff">
<path fill="#e9e9ea" opacity="1.00" d=" M 51.79 118.53 C 65.04 115.52 76.99 108.86 88.90 102.59 C 87.87 104.58 86.92 106.60 85.93 108.61 C 88.39 110.30 90.86 112.26 91.81 115.23 C 93.69 120.56 97.57 125.93 95.53 131.80 C 95.89 132.25 96.62 133.14 96.99 133.58 C 87.47 138.90 77.70 143.94 67.26 147.20 C 65.42 145.95 63.41 144.84 61.93 143.14 C 61.10 140.94 61.02 138.54 60.45 136.27 C 59.88 133.54 57.18 131.73 56.92 128.91 C 56.65 126.94 56.67 124.92 56.05 123.03 C 55.23 121.05 53.35 119.86 51.79 118.53 Z" />
</g>
<g id="#d8a5a0ff">
<path fill="#d8a5a0" opacity="1.00" d=" M 270.99 103.71 C 271.49 104.61 272.02 105.50 272.56 106.38 C 273.08 107.23 273.60 108.08 274.12 108.93 L 274.55 109.65 C 274.93 109.70 275.71 109.78 276.10 109.83 C 278.12 108.91 279.98 107.68 281.88 106.54 C 282.27 106.65 283.05 106.89 283.45 107.01 C 281.00 109.14 278.45 111.16 275.88 113.17 C 274.62 112.35 273.27 111.62 272.19 110.57 C 271.41 108.36 271.29 106.01 270.99 103.71 Z" />
</g>
<g id="#af201fff">
<path fill="#af201f" opacity="1.00" d=" M 283.45 107.01 C 284.42 106.37 285.39 105.74 286.37 105.11 C 286.49 105.69 286.74 106.84 286.87 107.41 C 279.84 113.73 277.72 123.64 277.72 132.72 C 278.31 132.55 279.47 132.23 280.06 132.06 C 280.21 133.19 280.37 134.32 280.53 135.45 C 279.07 134.95 277.57 134.61 276.07 134.30 C 275.62 127.32 271.54 119.64 275.88 113.17 C 278.45 111.16 281.00 109.14 283.45 107.01 Z" />
</g>
<g id="#120203ff">
<path fill="#120203" opacity="1.00" d=" M 277.72 132.72 C 277.72 123.64 279.84 113.73 286.87 107.41 C 286.55 111.76 286.37 116.15 285.32 120.40 C 284.24 124.56 282.02 128.28 280.06 132.06 C 279.47 132.23 278.31 132.55 277.72 132.72 Z" />
<path fill="#120203" opacity="1.00" d=" M 264.08 139.36 C 265.98 132.69 267.90 125.93 270.75 119.62 C 269.88 123.87 268.12 127.86 266.89 132.01 C 266.05 134.49 265.51 137.12 264.08 139.36 Z" />
</g>
<g id="#b21b1aff">
<path fill="#b21b1a" opacity="1.00" d=" M 286.87 107.41 C 302.42 115.72 319.44 123.10 337.48 121.86 C 337.31 125.02 336.04 127.95 335.09 130.93 C 333.01 136.88 331.30 142.96 328.99 148.84 C 323.44 148.72 317.84 148.76 312.37 147.65 C 301.12 145.52 290.59 140.78 280.53 135.45 C 280.37 134.32 280.21 133.19 280.06 132.06 C 282.02 128.28 284.24 124.56 285.32 120.40 C 286.37 116.15 286.55 111.76 286.87 107.41 Z" />
</g>
<g id="#16632fff">
<path fill="#16632f" opacity="1.00" d=" M 205.09 112.79 C 208.81 112.67 212.54 112.58 216.25 112.93 C 230.24 114.64 243.34 120.40 255.59 127.13 C 252.77 129.51 249.75 131.77 247.63 134.85 C 251.09 133.20 254.03 130.71 257.05 128.38 C 258.63 132.36 259.53 136.65 261.70 140.38 C 262.63 142.16 264.81 142.89 266.70 142.40 C 269.73 141.62 272.36 139.82 275.10 138.37 C 275.96 142.49 276.07 146.88 278.19 150.63 C 278.25 146.77 277.51 142.97 276.96 139.16 C 288.92 145.45 301.47 151.31 315.03 152.95 C 319.24 153.57 323.56 153.23 327.70 154.31 C 324.34 162.77 321.57 171.48 318.96 180.20 C 299.60 181.67 281.32 173.39 264.81 164.21 C 247.69 154.64 230.63 143.67 210.95 140.31 C 206.02 139.27 200.95 139.58 195.96 139.13 C 199.56 130.56 201.93 121.53 205.09 112.79 Z" />
</g>
<g id="#eff0efff">
<path fill="#eff0ef" opacity="1.00" d=" M 31.91 120.38 C 38.58 120.47 45.29 120.10 51.79 118.53 C 53.35 119.86 55.23 121.05 56.05 123.03 C 56.67 124.92 56.65 126.94 56.92 128.91 C 57.18 131.73 59.88 133.54 60.45 136.27 C 61.02 138.54 61.10 140.94 61.93 143.14 C 63.41 144.84 65.42 145.95 67.26 147.20 C 59.08 149.71 50.49 150.92 41.93 150.66 C 40.27 140.09 35.37 130.42 31.91 120.38 Z" />
</g>
<g id="#a9221fff">
<path fill="#a9221f" opacity="1.00" d=" M 257.05 128.38 C 260.73 125.33 264.29 122.10 268.34 119.52 C 265.59 125.78 262.55 132.15 262.36 139.12 C 262.94 140.50 264.61 140.63 265.84 141.11 C 269.81 140.44 273.95 138.37 274.40 133.88 C 274.60 135.38 274.84 136.88 275.10 138.37 C 272.36 139.82 269.73 141.62 266.70 142.40 C 264.81 142.89 262.63 142.16 261.70 140.38 C 259.53 136.65 258.63 132.36 257.05 128.38 Z" />
</g>
<g id="#b5211fff">
<path fill="#b5211f" opacity="1.00" d=" M 265.84 141.11 C 269.07 135.02 271.12 128.43 272.63 121.72 C 273.24 125.77 273.86 129.82 274.40 133.88 C 273.95 138.37 269.81 140.44 265.84 141.11 Z" />
</g>
<g id="#d1d1d1ff">
<path fill="#d1d1d1" opacity="1.00" d=" M 185.48 171.52 C 186.10 170.45 186.71 169.37 187.31 168.29 C 192.68 182.91 197.09 197.86 202.35 212.51 C 202.73 212.57 203.49 212.69 203.87 212.75 C 206.67 213.12 209.48 213.37 212.28 213.68 C 212.43 214.15 212.74 215.10 212.89 215.57 C 206.39 216.46 199.77 216.73 193.29 215.55 C 193.26 215.09 193.20 214.19 193.17 213.74 C 195.10 213.46 197.03 213.17 198.97 212.88 C 197.94 206.82 195.38 201.20 193.54 195.37 C 190.84 187.42 188.39 179.39 185.48 171.52 Z" />
</g>
<g id="#6d6d6dff">
<path fill="#6d6d6d" opacity="1.00" d=" M 168.32 273.17 C 168.88 273.74 168.88 273.74 168.32 273.17 Z" />
</g>
</svg>
