<?xml version="1.0" encoding="UTF-8" ?>
<!DOCTYPE svg PUBLIC "-//W3C//DTD SVG 1.1//EN" "http://www.w3.org/Graphics/SVG/1.1/DTD/svg11.dtd">
<svg width="1172pt" height="667pt" viewBox="0 0 1172 667" version="1.1" xmlns="http://www.w3.org/2000/svg">
<g id="#ffffffff">
</g>
<g id="#fff112ff">
<path fill="#fff112" opacity="1.00" d=" M 275.24 0.00 L 276.53 0.00 C 287.79 6.32 299.28 12.22 310.59 18.46 C 320.52 24.19 330.30 30.19 340.35 35.72 C 368.82 53.51 396.66 72.31 423.32 92.73 C 434.46 101.47 445.06 110.89 455.02 120.96 C 463.39 129.26 472.27 137.05 480.04 145.94 C 493.02 160.66 506.52 175.01 517.86 191.08 C 522.10 196.81 526.74 202.23 530.75 208.12 C 532.92 210.85 534.30 214.60 537.94 215.69 C 541.13 214.51 544.05 211.73 543.64 208.06 C 543.58 164.02 543.45 119.98 543.39 75.95 C 543.68 71.23 546.04 66.67 549.49 63.47 C 551.80 61.20 555.65 61.34 557.57 58.56 C 570.83 42.38 592.78 36.06 613.06 36.83 C 621.88 37.51 631.14 38.34 638.87 43.06 C 646.23 47.16 651.80 53.62 658.50 58.60 C 659.35 59.17 660.40 60.18 661.48 59.38 C 670.42 54.59 677.87 47.20 687.57 43.83 C 701.70 39.35 717.14 41.26 730.77 46.55 C 739.34 49.96 747.55 54.44 754.58 60.47 C 758.58 63.38 761.63 67.34 765.49 70.39 C 770.10 72.37 775.33 71.67 780.20 71.30 C 789.74 69.81 799.42 69.61 808.99 68.38 C 826.29 66.50 843.93 71.32 858.66 80.39 C 879.39 92.33 895.19 110.99 908.27 130.68 C 911.06 130.16 913.79 128.89 916.08 127.20 C 919.04 123.42 921.34 119.15 924.15 115.25 C 935.75 97.83 951.62 83.94 967.56 70.63 C 980.08 61.52 994.30 53.81 1009.99 52.47 C 1034.05 51.21 1058.19 57.93 1078.80 70.22 C 1090.13 77.93 1100.46 87.09 1109.30 97.56 C 1115.64 104.40 1120.60 112.36 1125.93 119.98 C 1133.97 132.40 1141.57 145.17 1147.38 158.81 C 1155.95 179.76 1162.77 201.50 1166.63 223.83 C 1167.51 228.19 1168.15 232.60 1169.01 236.96 C 1170.19 250.35 1172.91 263.75 1170.87 277.21 C 1170.52 290.68 1168.38 303.99 1166.35 317.27 C 1160.61 343.26 1150.34 368.34 1135.67 390.58 C 1131.61 397.31 1126.11 403.01 1120.44 408.38 C 1105.66 422.46 1086.98 432.16 1067.25 437.10 C 1053.00 441.23 1037.92 441.65 1023.26 440.10 C 1008.51 437.54 993.64 432.70 981.85 423.17 C 975.86 418.73 969.60 414.68 963.62 410.24 C 960.22 407.79 956.45 404.85 951.98 405.59 C 946.43 405.96 942.90 410.69 938.73 413.72 C 927.44 422.35 915.45 430.57 901.85 435.06 C 888.86 439.86 874.73 442.64 860.91 440.49 C 852.77 439.90 845.26 436.45 838.09 432.83 C 831.82 429.79 826.53 425.16 821.11 420.86 C 818.34 418.70 816.03 415.74 812.58 414.64 C 806.07 412.29 798.38 411.33 792.19 415.04 C 786.93 431.50 781.17 448.07 771.57 462.57 C 764.66 472.27 755.59 481.30 743.87 484.70 C 732.74 488.16 720.57 485.02 710.88 479.04 C 705.19 476.05 700.45 471.65 695.79 467.30 C 686.34 457.90 680.39 445.54 677.28 432.69 C 676.38 428.91 676.32 424.98 675.30 421.22 C 666.52 427.38 660.07 436.09 653.09 444.09 C 647.37 451.20 641.05 458.74 632.03 461.55 C 622.03 465.42 610.30 466.21 600.55 461.18 C 587.53 454.82 579.44 442.33 570.40 431.57 C 560.80 420.01 551.88 406.88 538.17 399.86 C 524.05 392.27 507.37 393.03 491.97 395.01 C 483.49 396.44 475.23 398.88 466.93 401.09 C 452.90 405.58 439.58 411.99 426.52 418.74 C 417.93 423.23 409.93 428.74 401.50 433.52 C 385.98 443.32 371.69 454.87 357.50 466.47 C 352.45 470.06 348.48 474.88 343.71 478.80 C 339.54 482.31 336.41 486.80 332.94 490.96 C 328.22 496.85 323.15 502.45 318.40 508.31 C 307.25 522.65 295.32 536.45 283.68 550.32 C 274.52 543.90 265.82 536.74 256.46 530.56 C 241.87 519.44 227.08 508.57 212.23 497.79 C 219.42 489.34 227.02 481.24 234.80 473.34 C 231.20 472.92 227.57 472.74 223.95 472.73 C 211.10 472.52 198.33 470.06 186.22 465.81 C 173.16 460.43 161.26 452.54 150.64 443.28 C 146.07 439.22 141.98 434.63 137.02 431.03 C 133.91 434.25 131.07 437.74 127.65 440.65 C 116.54 450.49 102.02 457.17 86.95 456.56 C 76.17 456.82 66.35 451.77 56.97 447.07 C 50.13 443.59 44.83 437.90 39.20 432.82 C 30.55 423.34 24.11 411.92 20.21 399.71 C 16.26 391.37 17.21 381.96 17.33 373.03 C 19.31 331.00 21.60 288.98 23.70 246.95 C 24.84 237.99 24.11 228.93 25.19 219.98 C 25.48 217.94 24.48 216.04 23.74 214.21 C 18.84 203.57 12.85 193.46 8.19 182.71 C 4.20 173.29 1.48 163.28 0.88 153.04 C -1.09 133.07 1.62 112.45 10.13 94.18 C 13.99 85.91 17.65 77.44 22.86 69.90 C 29.22 62.28 36.31 55.10 44.66 49.66 C 62.90 36.78 86.08 32.99 107.98 34.43 C 120.99 36.79 133.82 41.60 144.35 49.74 C 149.36 53.45 152.44 58.99 156.03 63.95 C 162.71 73.03 167.62 83.23 173.84 92.61 C 199.76 88.88 227.23 88.11 251.91 98.11 C 265.09 102.88 277.29 110.10 288.35 118.66 C 291.32 120.75 294.01 123.24 297.10 125.16 C 300.34 127.00 304.02 123.24 303.02 119.95 C 301.71 113.88 299.51 108.05 297.93 102.05 C 289.33 73.41 281.53 44.55 273.00 15.90 C 271.84 10.93 268.76 5.52 271.84 0.62 C 272.97 0.40 274.10 0.19 275.24 0.00 M 301.61 35.41 C 305.54 55.78 311.01 75.79 316.17 95.87 C 322.72 121.45 330.15 146.85 334.85 172.87 C 346.12 228.81 346.41 286.98 335.34 342.97 C 330.93 366.39 323.56 389.26 313.48 410.85 C 310.52 417.24 306.68 423.17 303.30 429.33 C 296.66 438.12 290.16 447.03 283.82 456.03 C 271.98 471.61 259.05 486.34 246.13 501.00 C 246.77 502.51 248.58 503.20 249.25 504.76 C 249.43 505.98 250.76 506.50 251.57 507.28 C 257.54 511.67 263.40 516.19 269.29 520.69 C 271.08 521.97 272.57 524.10 275.03 523.92 C 275.29 523.50 275.80 522.66 276.05 522.24 C 280.89 518.03 285.18 513.27 289.65 508.68 C 313.93 483.94 337.72 458.56 364.53 436.49 C 388.35 417.02 414.75 400.10 444.09 390.29 C 463.62 383.38 484.37 380.45 505.02 380.05 C 510.55 380.14 516.27 379.70 521.57 381.61 C 533.00 384.80 543.92 390.25 552.90 398.06 C 564.62 407.46 572.55 420.62 578.94 434.01 C 583.11 432.49 587.02 430.40 591.03 428.53 C 594.17 430.11 598.30 430.64 600.11 434.05 C 603.46 438.98 608.81 443.03 614.97 443.20 C 621.30 443.03 627.17 438.97 630.30 433.59 C 632.50 426.22 633.86 418.61 635.93 411.20 C 645.06 414.03 653.92 405.83 654.23 396.89 C 653.37 391.52 651.14 386.40 650.62 380.98 C 650.82 370.92 650.83 360.85 651.19 350.79 C 657.97 358.81 662.90 368.28 670.12 375.96 C 672.89 378.51 675.96 381.62 680.04 381.46 C 687.31 381.66 693.68 377.53 698.85 372.81 C 700.07 387.16 700.64 401.56 701.95 415.90 C 702.58 423.48 702.06 431.86 706.67 438.38 C 708.99 441.85 713.10 443.34 716.02 446.16 C 718.95 451.25 721.33 456.65 724.19 461.79 C 728.48 469.12 739.08 468.62 745.52 464.62 C 750.60 461.82 752.86 456.23 755.44 451.37 C 761.03 440.74 762.85 428.66 763.93 416.84 C 767.19 415.35 770.44 413.53 772.65 410.62 C 776.78 405.44 778.17 398.77 779.10 392.37 C 780.49 380.07 780.59 367.67 780.76 355.30 C 787.91 358.70 793.11 365.04 797.28 371.58 C 799.14 376.70 800.84 382.25 805.35 385.74 C 810.67 390.61 818.59 390.50 824.96 387.93 C 830.20 391.40 836.54 393.33 840.92 398.02 C 842.90 401.00 844.23 404.51 847.06 406.87 C 852.94 412.43 861.16 414.32 868.95 415.34 C 880.52 416.13 892.19 415.55 903.59 413.37 C 912.75 410.50 921.04 405.38 928.52 399.42 C 941.85 388.07 950.46 372.29 956.11 355.93 C 958.01 357.43 958.82 359.82 960.23 361.74 C 970.70 377.78 982.68 393.56 999.05 403.98 C 1011.95 412.52 1027.49 417.01 1042.96 416.76 C 1053.77 416.98 1064.55 415.31 1075.01 412.67 C 1103.38 402.48 1128.43 380.66 1138.83 351.93 C 1156.75 306.70 1157.90 256.06 1147.55 208.90 C 1141.56 184.04 1132.05 159.74 1117.57 138.55 C 1111.18 128.34 1104.20 118.49 1096.88 108.93 C 1088.06 98.19 1078.16 87.88 1065.77 81.28 C 1052.80 73.80 1037.79 70.52 1022.94 69.88 C 1008.63 69.82 993.51 76.50 986.61 89.56 C 978.29 95.15 969.62 100.44 962.49 107.58 C 950.57 118.61 941.56 132.57 935.47 147.57 C 928.27 166.23 924.81 186.14 923.52 206.03 C 923.08 218.33 921.98 230.68 923.26 242.97 C 923.55 250.91 925.12 258.72 925.70 266.64 C 920.13 261.07 914.38 255.32 906.99 252.26 C 903.97 251.21 903.71 247.43 902.32 244.99 C 907.41 233.91 911.30 222.19 912.64 210.03 C 914.34 197.59 912.47 185.03 909.57 172.92 C 905.57 157.97 896.95 144.75 887.10 133.00 C 880.45 125.26 875.04 116.46 867.54 109.47 C 853.57 95.21 833.94 86.33 813.87 86.30 C 800.41 87.84 788.60 95.01 777.84 102.78 C 769.44 107.84 763.63 116.14 759.54 124.87 C 758.42 109.22 752.95 92.86 740.99 82.13 C 737.68 74.94 732.93 68.01 725.75 64.26 C 715.39 58.62 702.05 56.44 691.34 62.40 C 683.95 66.09 679.35 73.48 676.71 81.06 C 674.66 85.61 675.74 90.73 674.76 95.51 C 674.61 103.38 673.53 111.18 673.38 119.05 C 673.29 125.90 671.00 132.44 669.82 139.13 C 669.20 143.28 666.23 146.50 664.43 150.17 C 662.48 140.72 660.60 131.25 658.67 121.79 C 657.30 115.96 657.80 109.86 656.19 104.07 C 654.32 96.19 649.35 89.62 644.83 83.08 C 642.89 80.32 641.97 76.98 639.77 74.40 C 636.48 70.33 633.41 66.04 629.45 62.58 C 623.51 57.29 615.88 53.98 607.99 53.11 C 603.68 52.56 598.95 51.76 594.96 53.94 C 586.08 57.34 576.26 61.66 571.98 70.78 C 567.65 79.62 569.97 89.60 570.43 98.96 C 570.43 105.35 571.71 111.65 571.40 118.05 C 571.18 133.68 571.96 149.36 570.69 164.96 C 570.46 171.96 570.56 178.99 569.80 185.96 C 569.36 209.33 567.70 232.63 567.28 255.99 C 566.41 265.26 566.50 274.59 566.22 283.89 C 565.43 283.68 564.80 283.25 564.33 282.62 C 528.58 238.71 492.72 194.91 456.95 151.02 C 451.40 144.84 446.85 137.83 441.10 131.83 C 421.54 113.73 400.08 97.80 377.93 83.01 C 352.88 66.53 326.96 51.42 301.61 35.41 M 64.89 56.82 C 53.62 62.60 42.29 69.18 34.19 79.15 C 23.84 91.56 18.67 107.94 19.12 124.03 C 19.18 133.74 18.84 143.53 20.52 153.14 C 22.44 165.68 27.24 177.88 35.02 187.96 C 38.75 192.17 39.15 198.14 42.42 202.62 C 43.77 204.76 45.88 206.22 47.79 207.82 C 46.34 214.81 46.45 222.06 44.59 228.97 C 43.32 233.79 39.48 237.83 39.78 243.06 C 39.77 288.06 38.46 333.05 37.74 378.05 C 37.91 383.24 36.85 388.62 38.67 393.63 C 40.67 399.90 45.72 404.53 48.44 410.44 C 49.71 414.35 50.51 418.56 53.24 421.81 C 56.78 426.66 62.81 428.34 68.03 430.71 C 74.24 433.49 81.32 433.65 87.93 432.42 C 91.69 431.50 93.60 427.88 96.27 425.46 C 101.54 424.81 105.36 420.87 110.01 418.70 C 113.90 416.61 115.44 412.03 115.61 407.87 C 115.92 400.61 115.38 393.34 115.52 386.07 C 115.53 384.16 117.67 382.98 117.56 381.06 C 117.62 373.70 117.49 366.34 117.61 358.99 C 118.72 349.68 119.35 340.33 120.43 331.02 C 120.65 320.66 120.66 310.30 120.76 299.94 C 121.66 282.34 121.27 264.70 121.65 247.08 C 122.09 243.25 119.79 239.97 118.11 236.74 C 115.74 232.54 113.91 227.95 113.59 223.08 C 117.29 222.38 120.73 220.78 124.17 219.32 C 135.19 245.56 147.91 272.23 169.33 291.68 C 178.70 300.67 189.68 307.77 201.08 313.89 C 213.78 320.46 227.12 325.90 239.10 333.78 C 241.65 335.54 244.08 337.55 246.00 340.00 C 247.42 345.87 243.56 351.40 238.93 354.61 C 229.71 361.08 217.56 363.19 206.68 360.31 C 204.82 354.75 204.65 348.77 202.74 343.23 C 201.58 339.38 198.82 336.01 194.83 334.97 C 194.47 329.21 193.11 323.24 189.32 318.72 C 185.73 314.58 180.59 311.45 174.98 311.42 C 167.25 310.87 160.03 315.23 155.00 320.79 C 148.52 320.88 141.61 320.61 135.72 323.76 C 130.43 326.88 127.85 333.13 127.49 339.05 C 127.22 345.35 127.26 351.67 127.55 357.97 C 128.50 369.07 131.81 379.98 137.27 389.70 C 145.33 402.54 152.20 416.30 162.52 427.56 C 172.47 438.70 186.12 446.40 200.76 449.34 C 232.04 455.47 266.33 449.48 292.13 430.20 C 295.46 427.50 299.16 424.86 300.65 420.64 C 310.98 402.81 322.94 385.41 328.20 365.22 C 329.75 358.65 330.84 351.54 328.48 345.02 C 318.20 309.83 297.73 276.90 268.00 254.96 C 267.76 254.66 267.29 254.06 267.05 253.77 C 279.18 252.27 290.34 245.48 297.75 235.83 C 299.75 233.13 301.95 230.32 302.44 226.88 C 304.89 215.02 306.26 202.97 308.12 191.01 C 309.07 184.13 310.06 176.88 307.74 170.16 C 305.99 165.06 301.88 161.23 297.63 158.15 C 297.24 151.05 292.91 144.53 286.63 141.26 C 280.96 137.92 274.17 137.83 267.80 138.36 C 266.39 133.61 262.75 130.00 259.18 126.76 C 247.98 117.36 233.72 112.49 219.56 109.63 C 206.47 107.14 192.76 106.75 179.84 110.40 C 169.21 113.94 158.75 118.72 150.34 126.27 C 150.02 125.60 149.78 124.91 149.61 124.20 C 146.98 111.42 142.58 99.00 136.65 87.37 C 132.35 79.13 127.20 71.00 119.61 65.41 C 110.73 57.45 99.11 51.93 87.00 52.27 C 79.48 52.31 71.43 52.68 64.89 56.82 Z" />
</g>
<g id="#070908ff">
<path fill="#070908" opacity="1.00" d=" M 301.61 35.41 C 326.96 51.42 352.88 66.53 377.93 83.01 C 400.08 97.80 421.54 113.73 441.10 131.83 C 446.85 137.83 451.40 144.84 456.95 151.02 C 492.72 194.91 528.58 238.71 564.33 282.62 C 564.80 283.25 565.43 283.68 566.22 283.89 C 566.50 274.59 566.41 265.26 567.28 255.99 C 567.70 232.63 569.36 209.33 569.80 185.96 C 570.56 178.99 570.46 171.96 570.69 164.96 C 571.96 149.36 571.18 133.68 571.40 118.05 C 571.71 111.65 570.43 105.35 570.43 98.96 C 569.97 89.60 567.65 79.62 571.98 70.78 C 576.26 61.66 586.08 57.34 594.96 53.94 C 598.95 51.76 603.68 52.56 607.99 53.11 C 615.88 53.98 623.51 57.29 629.45 62.58 C 633.41 66.04 636.48 70.33 639.77 74.40 C 641.97 76.98 642.89 80.32 644.83 83.08 C 649.35 89.62 654.32 96.19 656.19 104.07 C 657.80 109.86 657.30 115.96 658.67 121.79 C 660.60 131.25 662.48 140.72 664.43 150.17 C 666.23 146.50 669.20 143.28 669.82 139.13 C 671.00 132.44 673.29 125.90 673.38 119.05 C 673.53 111.18 674.61 103.38 674.76 95.51 C 675.74 90.73 674.66 85.61 676.71 81.06 C 679.35 73.48 683.95 66.09 691.34 62.40 C 702.05 56.44 715.39 58.62 725.75 64.26 C 732.93 68.01 737.68 74.94 740.99 82.13 C 752.95 92.86 758.42 109.22 759.54 124.87 C 763.63 116.14 769.44 107.84 777.84 102.78 C 788.60 95.01 800.41 87.84 813.87 86.30 C 833.94 86.33 853.57 95.21 867.54 109.47 C 875.04 116.46 880.45 125.26 887.10 133.00 C 896.95 144.75 905.57 157.97 909.57 172.92 C 912.47 185.03 914.34 197.59 912.64 210.03 C 911.30 222.19 907.41 233.91 902.32 244.99 C 903.71 247.43 903.97 251.21 906.99 252.26 C 914.38 255.32 920.13 261.07 925.70 266.64 C 925.12 258.72 923.55 250.91 923.26 242.97 C 921.98 230.68 923.08 218.33 923.52 206.03 C 924.81 186.14 928.27 166.23 935.47 147.57 C 941.56 132.57 950.57 118.61 962.49 107.58 C 969.62 100.44 978.29 95.15 986.61 89.56 C 993.51 76.50 1008.63 69.82 1022.94 69.88 C 1037.79 70.52 1052.80 73.80 1065.77 81.28 C 1078.16 87.88 1088.06 98.19 1096.88 108.93 C 1104.20 118.49 1111.18 128.34 1117.57 138.55 C 1132.05 159.74 1141.56 184.04 1147.55 208.90 C 1157.90 256.06 1156.75 306.70 1138.83 351.93 C 1128.43 380.66 1103.38 402.48 1075.01 412.67 C 1064.55 415.31 1053.77 416.98 1042.96 416.76 C 1027.49 417.01 1011.95 412.52 999.05 403.98 C 982.68 393.56 970.70 377.78 960.23 361.74 C 958.82 359.82 958.01 357.43 956.11 355.93 C 950.46 372.29 941.85 388.07 928.52 399.42 C 921.04 405.38 912.75 410.50 903.59 413.37 C 892.19 415.55 880.52 416.13 868.95 415.34 C 861.16 414.32 852.94 412.43 847.06 406.87 C 844.23 404.51 842.90 401.00 840.92 398.02 C 836.54 393.33 830.20 391.40 824.96 387.93 C 818.59 390.50 810.67 390.61 805.35 385.74 C 800.84 382.25 799.14 376.70 797.28 371.58 C 793.11 365.04 787.91 358.70 780.76 355.30 C 780.59 367.67 780.49 380.07 779.10 392.37 C 778.17 398.77 776.78 405.44 772.65 410.62 C 770.44 413.53 767.19 415.35 763.93 416.84 C 762.85 428.66 761.03 440.74 755.44 451.37 C 752.86 456.23 750.60 461.82 745.52 464.62 C 739.08 468.62 728.48 469.12 724.19 461.79 C 721.33 456.65 718.95 451.25 716.02 446.16 C 713.10 443.34 708.99 441.85 706.67 438.38 C 702.06 431.86 702.58 423.48 701.95 415.90 C 700.64 401.56 700.07 387.16 698.85 372.81 C 693.68 377.53 687.31 381.66 680.04 381.46 C 675.96 381.62 672.89 378.51 670.12 375.96 C 662.90 368.28 657.97 358.81 651.19 350.79 C 650.83 360.85 650.82 370.92 650.62 380.98 C 651.14 386.40 653.37 391.52 654.23 396.89 C 653.92 405.83 645.06 414.03 635.93 411.20 C 633.86 418.61 632.50 426.22 630.30 433.59 C 627.17 438.97 621.30 443.03 614.97 443.20 C 608.81 443.03 603.46 438.98 600.11 434.05 C 598.30 430.64 594.17 430.11 591.03 428.53 C 587.02 430.40 583.11 432.49 578.94 434.01 C 572.55 420.62 564.62 407.46 552.90 398.06 C 543.92 390.25 533.00 384.80 521.57 381.61 C 516.27 379.70 510.55 380.14 505.02 380.05 C 484.37 380.45 463.62 383.38 444.09 390.29 C 414.75 400.10 388.35 417.02 364.53 436.49 C 337.72 458.56 313.93 483.94 289.65 508.68 C 285.18 513.27 280.89 518.03 276.05 522.24 C 280.87 515.45 285.65 508.61 290.77 502.04 C 290.29 499.73 289.61 497.45 289.35 495.10 C 292.29 490.23 295.82 485.72 298.98 480.98 C 300.91 478.43 299.22 475.19 299.35 472.33 C 304.69 465.73 313.75 462.01 316.64 453.49 C 315.07 453.48 313.17 452.54 311.87 453.85 C 307.63 457.38 303.59 461.15 299.36 464.69 C 298.63 463.96 298.33 462.94 297.86 462.07 C 316.80 445.25 336.29 429.04 355.35 412.34 C 358.86 409.78 356.73 404.53 359.06 401.28 C 386.95 378.89 418.55 360.43 453.21 350.90 C 476.21 344.89 500.40 342.73 523.95 346.56 C 534.47 347.95 544.64 351.01 554.81 353.87 C 544.71 326.37 530.96 300.35 515.82 275.32 C 492.46 237.50 463.84 202.98 431.26 172.77 C 410.70 154.14 388.94 136.77 365.36 122.10 C 366.86 130.53 369.44 138.72 370.99 147.15 C 381.85 195.57 386.64 245.60 381.79 295.09 C 381.29 299.77 381.57 304.62 379.93 309.12 C 373.00 327.42 366.47 345.87 359.56 364.19 C 359.24 358.45 358.74 352.71 358.84 346.97 C 360.60 334.34 362.70 321.76 364.54 309.15 C 365.32 303.12 366.87 297.14 366.56 291.02 C 366.33 285.34 366.42 279.65 365.95 273.99 C 362.93 287.24 361.11 300.73 358.62 314.09 C 356.27 327.75 353.23 341.29 349.60 354.67 C 348.13 353.18 346.53 351.80 344.60 350.97 C 342.10 357.68 338.77 364.02 335.71 370.48 C 332.60 377.87 329.91 385.47 328.28 393.34 C 325.26 396.00 321.79 398.32 319.79 401.92 C 314.43 411.13 309.32 420.53 303.30 429.33 C 306.68 423.17 310.52 417.24 313.48 410.85 C 323.56 389.26 330.93 366.39 335.34 342.97 C 346.41 286.98 346.12 228.81 334.85 172.87 C 330.15 146.85 322.72 121.45 316.17 95.87 C 311.01 75.79 305.54 55.78 301.61 35.41 M 585.88 87.04 C 585.71 93.71 585.98 100.38 586.11 107.04 C 585.76 110.64 590.31 112.44 589.89 116.04 C 589.89 136.04 589.86 156.04 589.90 176.03 C 590.20 180.94 586.60 185.11 586.81 190.01 C 586.87 198.68 586.92 207.35 586.96 216.02 C 587.22 218.80 584.10 220.32 583.80 222.91 C 583.42 234.92 583.75 246.97 582.73 258.96 C 582.34 278.67 581.82 298.39 582.54 318.10 C 582.56 320.43 583.66 322.56 584.27 324.78 C 590.66 343.21 597.40 361.52 603.41 380.08 C 604.98 379.98 606.06 378.58 606.07 377.05 C 605.33 362.30 605.26 347.52 605.04 332.75 C 606.38 332.92 607.72 333.09 609.08 333.26 C 609.43 344.54 610.21 355.79 610.38 367.08 C 610.04 369.53 613.06 370.65 613.08 373.03 C 613.06 376.57 615.24 379.34 617.07 382.16 C 620.51 379.93 622.84 376.37 626.08 373.85 C 625.20 371.94 623.70 370.40 622.81 368.52 C 622.11 363.68 621.39 358.85 620.78 354.00 C 621.84 341.05 621.16 328.00 622.08 315.04 C 622.74 302.70 622.20 290.31 623.23 278.00 C 623.44 270.67 623.34 263.32 623.77 256.00 C 624.56 257.18 624.39 258.66 624.69 260.00 C 626.81 271.40 630.82 282.34 635.43 292.95 C 643.54 310.06 654.13 325.83 664.96 341.31 C 667.35 341.26 669.74 341.14 672.12 340.78 C 675.61 324.65 680.91 308.96 685.06 293.00 C 691.79 269.77 698.61 246.47 702.28 222.52 C 703.09 218.68 703.09 214.67 704.32 210.93 C 705.37 215.94 707.52 220.79 707.20 226.01 C 708.41 250.17 709.51 274.34 710.78 298.49 C 711.82 323.41 712.56 348.35 713.60 373.26 C 715.23 373.87 717.31 373.92 718.60 375.17 C 718.72 380.47 718.64 385.77 718.63 391.07 C 718.67 393.95 716.50 396.21 716.18 399.02 C 716.03 402.77 717.81 406.26 717.76 410.00 C 717.75 416.78 717.87 423.56 717.68 430.33 C 719.28 431.58 720.88 433.21 723.02 433.41 C 725.84 431.82 727.57 428.93 729.20 426.23 C 732.80 419.40 734.47 411.69 734.75 404.02 C 734.94 395.68 735.83 387.39 736.03 379.05 C 737.71 379.00 739.39 378.96 741.08 378.94 C 742.86 381.21 744.74 383.40 746.83 385.40 C 749.49 378.16 749.67 370.30 751.42 362.82 C 752.80 357.62 751.71 352.27 751.44 347.01 C 749.10 301.28 746.33 255.58 743.63 209.87 C 739.44 179.22 735.14 148.58 731.26 117.90 C 729.87 109.66 729.29 101.28 727.55 93.11 C 725.69 84.74 719.88 76.10 710.91 74.58 C 700.54 72.58 689.67 81.41 689.48 91.95 C 689.19 103.67 689.12 115.39 688.90 127.10 C 680.59 163.23 671.10 199.11 662.64 235.22 C 660.66 233.77 657.66 232.88 657.53 230.00 C 647.16 182.28 636.52 134.62 626.14 86.91 C 624.04 78.43 617.00 70.48 607.89 69.85 C 597.62 68.76 586.98 76.59 585.88 87.04 M 1004.93 92.06 C 1003.24 93.31 1001.77 95.70 1003.27 97.67 C 1005.24 100.24 1008.50 101.33 1011.48 102.27 C 1018.96 103.16 1026.67 103.92 1033.52 107.36 C 1034.87 107.85 1034.87 109.44 1034.42 110.57 C 1033.51 113.33 1030.32 114.34 1029.23 117.02 C 1033.08 122.38 1038.46 126.31 1043.38 130.61 C 1052.98 138.42 1061.63 147.72 1067.15 158.91 C 1080.03 182.09 1084.69 208.73 1086.36 234.90 C 1087.27 252.26 1087.59 269.87 1084.07 286.98 C 1082.58 296.52 1078.76 305.55 1073.85 313.81 C 1068.00 326.86 1055.70 336.30 1042.03 339.97 C 1034.25 342.05 1025.45 341.84 1018.44 337.54 C 1009.24 330.96 1002.21 321.78 996.96 311.84 C 984.93 289.86 980.24 264.73 978.65 239.97 C 977.76 216.80 980.48 193.43 987.26 171.23 C 990.50 162.55 993.31 153.51 998.75 145.88 C 1002.32 140.40 1007.79 136.53 1013.35 133.26 C 1015.64 131.99 1017.16 129.49 1017.37 126.89 C 1016.60 124.09 1013.74 122.57 1010.97 122.75 C 999.18 121.64 987.76 127.39 979.81 135.81 C 979.47 135.35 978.78 134.45 978.43 134.00 C 981.76 129.84 985.24 125.75 989.51 122.52 C 993.28 119.21 997.75 116.68 1001.05 112.84 C 1000.09 109.74 998.37 106.47 995.08 105.39 C 987.27 108.97 980.09 113.89 973.68 119.60 C 966.65 126.50 961.14 134.81 956.44 143.43 C 954.02 148.18 951.27 152.83 949.88 158.01 C 939.84 187.28 937.64 218.73 939.88 249.43 C 941.29 266.49 943.93 283.57 949.34 299.86 C 952.44 312.97 957.92 325.47 964.90 336.97 C 970.57 347.27 978.37 356.15 985.72 365.26 C 992.00 371.69 999.45 377.28 1008.07 380.12 C 1018.32 383.70 1029.35 383.55 1040.07 383.79 C 1053.67 381.27 1067.24 377.24 1079.25 370.25 C 1089.94 364.05 1097.81 353.95 1103.04 342.91 C 1114.30 319.54 1122.60 294.14 1122.64 267.97 C 1123.31 247.49 1120.12 227.21 1116.74 207.09 C 1115.18 198.18 1118.46 188.73 1114.81 180.19 C 1112.01 171.58 1108.73 163.13 1105.04 154.86 C 1095.16 132.22 1080.46 111.31 1060.67 96.28 C 1055.40 92.57 1049.23 90.38 1042.96 89.13 C 1048.67 95.14 1055.69 99.65 1061.90 105.10 C 1066.05 108.67 1068.90 113.40 1071.69 118.05 C 1067.36 115.93 1063.92 112.47 1060.10 109.61 C 1049.19 100.87 1038.51 90.86 1024.89 86.62 C 1017.94 85.93 1010.43 87.60 1004.93 92.06 M 787.31 112.33 C 776.05 122.48 769.95 137.20 767.85 151.99 C 765.25 183.25 772.14 214.12 775.52 245.04 C 777.40 257.90 776.25 271.00 778.11 283.88 C 779.77 298.93 783.90 313.62 789.31 327.73 C 792.73 336.77 794.40 346.76 800.44 354.59 C 801.51 356.20 803.39 356.83 805.09 357.57 C 805.54 357.22 806.43 356.50 806.88 356.15 C 807.84 339.43 805.15 322.81 804.19 306.16 C 806.16 308.48 809.15 310.28 809.62 313.53 C 811.73 321.10 811.60 329.84 816.94 336.10 C 820.24 337.33 824.38 335.20 825.27 331.82 C 823.18 319.04 819.31 306.62 816.79 293.91 C 815.54 285.19 814.06 276.47 813.86 267.63 C 837.47 273.82 859.77 283.91 882.67 292.18 C 882.64 294.45 882.64 296.72 882.70 299.00 C 886.79 305.33 890.50 311.92 894.76 318.15 C 893.30 324.09 891.83 330.23 888.32 335.35 C 883.04 343.66 873.53 348.36 864.04 349.90 C 853.52 351.22 842.82 350.82 832.42 348.77 C 827.58 348.33 822.27 346.01 817.72 348.73 C 815.98 352.25 818.73 355.71 821.26 357.93 C 828.92 364.78 839.27 366.85 848.85 369.56 C 847.55 372.52 845.93 375.31 844.31 378.10 C 846.50 381.97 850.90 383.53 854.97 384.59 C 870.39 388.25 886.90 383.73 899.51 374.47 C 920.90 358.60 932.03 330.04 927.17 303.87 C 922.77 288.41 912.92 274.78 900.36 264.88 C 886.73 253.53 869.69 246.52 852.11 244.47 C 852.29 243.57 852.48 242.68 852.68 241.80 C 860.55 242.34 865.98 235.92 870.34 230.31 C 884.94 209.94 890.24 182.76 883.24 158.59 C 877.98 144.01 868.56 131.18 857.46 120.49 C 846.75 110.71 833.73 102.29 818.95 100.94 C 807.37 99.69 795.79 104.61 787.31 112.33 M 1032.78 167.79 C 1030.14 169.33 1026.92 170.91 1025.98 174.06 C 1023.49 176.49 1021.69 179.55 1020.15 182.64 C 1018.43 182.57 1018.25 184.57 1017.58 185.67 C 1011.90 200.76 1010.19 216.97 1009.11 232.94 C 1009.24 237.00 1009.22 241.07 1008.49 245.09 C 1008.18 257.39 1007.77 269.83 1010.10 281.98 C 1011.29 290.98 1013.14 300.01 1016.92 308.31 L 1017.97 308.41 C 1020.47 314.61 1024.89 320.16 1030.72 323.50 C 1032.32 325.78 1035.59 324.42 1037.94 324.64 C 1046.11 324.82 1053.67 319.39 1056.76 311.93 C 1069.75 285.69 1069.49 255.71 1069.67 227.13 C 1066.82 213.25 1065.38 199.06 1061.25 185.45 C 1058.48 177.08 1054.34 168.33 1046.48 163.66 C 1041.70 163.74 1037.08 165.80 1032.78 167.79 M 1112.67 358.52 C 1111.78 360.71 1112.03 363.20 1111.66 365.51 C 1113.06 365.23 1114.47 364.92 1115.89 364.60 C 1119.23 358.49 1123.27 352.75 1126.40 346.53 C 1126.41 345.54 1126.99 342.52 1125.15 343.37 C 1119.56 347.09 1116.45 353.19 1112.67 358.52 M 678.48 358.48 C 679.28 360.47 679.49 362.63 680.24 364.63 C 681.69 364.90 683.35 364.62 684.59 363.79 C 684.85 362.10 684.35 360.41 684.18 358.75 C 682.28 358.61 680.37 358.53 678.48 358.48 M 906.91 386.54 C 906.97 389.04 907.04 391.54 907.09 394.04 C 908.73 393.78 910.39 393.50 912.05 393.22 C 912.08 391.15 912.13 389.10 912.20 387.04 C 910.42 386.87 908.66 386.71 906.91 386.54 M 882.43 400.04 C 883.26 401.61 885.50 402.32 886.90 403.53 C 890.64 401.98 894.47 400.63 898.19 399.01 C 897.69 397.41 897.13 395.84 896.52 394.30 C 891.63 395.57 886.25 396.68 882.43 400.04 M 1039.99 399.51 C 1040.37 400.05 1041.13 401.13 1041.50 401.68 C 1047.84 401.22 1054.57 403.65 1060.60 400.95 C 1059.75 399.99 1058.94 399.06 1058.11 398.13 C 1053.38 398.22 1048.65 398.19 1043.93 398.28 C 1042.48 398.17 1041.24 398.97 1039.99 399.51 M 747.13 421.95 C 745.30 425.14 743.98 428.58 743.68 432.28 C 744.62 433.22 745.59 434.17 746.56 435.11 C 748.87 430.87 750.19 426.27 750.49 421.45 C 749.65 421.58 747.97 421.83 747.13 421.95 Z" />
<path fill="#070908" opacity="1.00" d=" M 64.89 56.82 C 71.43 52.68 79.48 52.31 87.00 52.27 C 99.11 51.93 110.73 57.45 119.61 65.41 C 127.20 71.00 132.35 79.13 136.65 87.37 C 142.58 99.00 146.98 111.42 149.61 124.20 C 149.78 124.91 150.02 125.60 150.34 126.27 C 158.75 118.72 169.21 113.94 179.84 110.40 C 192.76 106.75 206.47 107.14 219.56 109.63 C 233.72 112.49 247.98 117.36 259.18 126.76 C 262.75 130.00 266.39 133.61 267.80 138.36 C 274.17 137.83 280.96 137.92 286.63 141.26 C 292.91 144.53 297.24 151.05 297.63 158.15 C 301.88 161.23 305.99 165.06 307.74 170.16 C 310.06 176.88 309.07 184.13 308.12 191.01 C 306.26 202.97 304.89 215.02 302.44 226.88 C 301.95 230.32 299.75 233.13 297.75 235.83 C 290.34 245.48 279.18 252.27 267.05 253.77 C 267.29 254.06 267.76 254.66 268.00 254.96 C 297.73 276.90 318.20 309.83 328.48 345.02 C 330.84 351.54 329.75 358.65 328.20 365.22 C 322.94 385.41 310.98 402.81 300.65 420.64 C 299.16 424.86 295.46 427.50 292.13 430.20 C 266.33 449.48 232.04 455.47 200.76 449.34 C 186.12 446.40 172.47 438.70 162.52 427.56 C 152.20 416.30 145.33 402.54 137.27 389.70 C 131.81 379.98 128.50 369.07 127.55 357.97 C 127.26 351.67 127.22 345.35 127.49 339.05 C 127.85 333.13 130.43 326.88 135.72 323.76 C 141.61 320.61 148.52 320.88 155.00 320.79 C 160.03 315.23 167.25 310.87 174.98 311.42 C 180.59 311.45 185.73 314.58 189.32 318.72 C 193.11 323.24 194.47 329.21 194.83 334.97 C 198.82 336.01 201.58 339.38 202.74 343.23 C 204.65 348.77 204.82 354.75 206.68 360.31 C 217.56 363.19 229.71 361.08 238.93 354.61 C 243.56 351.40 247.42 345.87 246.00 340.00 C 244.08 337.55 241.65 335.54 239.10 333.78 C 227.12 325.90 213.78 320.46 201.08 313.89 C 189.68 307.77 178.70 300.67 169.33 291.68 C 147.91 272.23 135.19 245.56 124.17 219.32 C 120.73 220.78 117.29 222.38 113.59 223.08 C 113.91 227.95 115.74 232.54 118.11 236.74 C 119.79 239.97 122.09 243.25 121.65 247.08 C 121.27 264.70 121.66 282.34 120.76 299.94 C 120.66 310.30 120.65 320.66 120.43 331.02 C 119.35 340.33 118.72 349.68 117.61 358.99 C 117.49 366.34 117.62 373.70 117.56 381.06 C 117.67 382.98 115.53 384.16 115.52 386.07 C 115.38 393.34 115.92 400.61 115.61 407.87 C 115.44 412.03 113.90 416.61 110.01 418.70 C 105.36 420.87 101.54 424.81 96.27 425.46 C 93.60 427.88 91.69 431.50 87.93 432.42 C 81.32 433.65 74.24 433.49 68.03 430.71 C 62.81 428.34 56.78 426.66 53.24 421.81 C 50.51 418.56 49.71 414.35 48.44 410.44 C 45.72 404.53 40.67 399.90 38.67 393.63 C 36.85 388.62 37.91 383.24 37.74 378.05 C 38.46 333.05 39.77 288.06 39.78 243.06 C 39.48 237.83 43.32 233.79 44.59 228.97 C 46.45 222.06 46.34 214.81 47.79 207.82 C 45.88 206.22 43.77 204.76 42.42 202.62 C 39.15 198.14 38.75 192.17 35.02 187.96 C 27.24 177.88 22.44 165.68 20.52 153.14 C 18.84 143.53 19.18 133.74 19.12 124.03 C 18.67 107.94 23.84 91.56 34.19 79.15 C 42.29 69.18 53.62 62.60 64.89 56.82 M 74.72 80.42 C 76.49 83.84 80.39 85.22 83.78 86.48 C 84.70 88.17 85.30 90.11 84.69 92.02 C 83.85 93.83 81.86 94.78 80.01 95.21 C 76.36 95.82 74.41 91.69 71.09 91.05 C 68.09 91.10 65.43 92.65 63.00 94.25 C 61.89 93.43 60.55 92.57 60.90 90.96 C 64.02 87.66 67.58 84.78 70.37 81.17 C 68.77 78.58 67.12 73.60 63.14 75.21 C 50.89 82.10 39.66 92.95 36.69 107.19 C 32.98 127.36 31.79 148.73 38.46 168.43 C 41.61 178.51 50.14 185.93 59.46 190.30 C 69.23 194.75 80.29 197.20 90.99 195.55 C 99.57 193.08 107.04 187.40 112.56 180.47 C 118.54 172.57 120.42 162.56 122.04 153.02 C 123.79 142.38 124.17 131.45 122.62 120.79 C 123.49 118.81 125.61 117.37 125.72 115.08 C 125.76 111.41 124.14 108.01 123.24 104.52 C 119.17 92.05 113.83 79.00 102.72 71.17 C 98.98 69.66 94.88 70.71 91.03 71.13 C 87.33 70.45 83.85 67.85 79.96 69.03 C 75.07 69.96 72.32 76.13 74.72 80.42 M 153.36 145.00 C 152.42 153.72 151.16 162.39 149.83 171.06 C 147.73 183.69 143.64 196.10 136.74 206.95 C 142.14 224.22 150.54 240.77 162.73 254.25 C 167.04 259.63 172.27 264.17 178.04 267.92 C 196.34 281.26 217.38 290.18 236.04 302.96 C 244.17 308.63 251.94 315.17 257.55 323.42 C 265.67 339.30 259.05 362.20 242.02 369.17 C 229.82 375.42 215.47 378.10 202.00 374.95 C 192.55 372.61 183.04 366.78 179.77 357.13 C 177.63 349.25 177.86 340.99 177.36 332.91 C 177.29 331.47 176.60 330.19 176.16 328.86 C 174.12 327.08 170.82 327.15 169.11 329.35 C 162.52 339.63 160.53 352.10 160.82 364.12 C 161.47 366.52 158.70 366.65 157.16 367.27 C 156.19 358.20 156.39 349.00 155.01 340.00 C 153.72 334.34 144.84 335.29 143.57 340.44 C 141.99 346.16 143.01 352.17 143.84 357.94 C 145.61 373.51 152.83 388.93 165.27 398.78 C 174.36 405.43 184.07 411.76 195.13 414.51 C 206.17 417.60 217.77 416.90 229.09 416.50 C 233.69 416.43 238.14 415.11 242.54 413.88 C 255.92 410.01 268.64 403.37 278.85 393.83 C 291.93 381.17 300.23 363.36 300.27 345.04 C 301.04 328.24 299.05 310.16 288.71 296.28 C 284.33 289.99 277.83 285.75 271.45 281.74 C 250.51 267.63 227.67 256.58 207.00 242.06 C 195.65 233.94 184.57 224.86 177.18 212.84 C 173.26 201.82 171.05 189.54 174.48 178.10 C 176.58 170.47 182.03 163.75 189.15 160.27 C 194.27 158.71 199.70 158.23 205.04 158.39 C 213.29 158.41 221.05 162.50 227.00 167.98 C 233.49 176.43 235.19 187.33 236.19 197.66 C 236.88 202.91 236.72 208.39 238.55 213.42 C 240.51 217.25 245.30 217.09 248.96 217.83 C 255.37 218.32 262.92 218.73 267.98 214.00 C 273.81 209.14 276.88 201.50 276.66 193.98 C 278.61 182.28 276.78 169.26 283.54 158.88 C 281.27 155.57 276.91 152.95 272.98 154.96 C 267.76 160.39 265.83 167.90 262.97 174.66 C 262.59 174.26 261.83 173.44 261.44 173.04 C 259.90 163.68 259.41 153.78 254.73 145.30 C 251.19 140.78 246.33 137.47 241.34 134.71 C 227.39 127.65 211.66 123.72 195.98 124.56 C 179.96 125.97 164.15 132.86 153.36 145.00 M 205.35 199.33 C 202.32 202.04 203.25 206.46 202.63 210.06 C 202.07 214.85 204.12 220.24 208.72 222.32 C 214.87 225.17 220.05 229.59 225.69 233.25 C 227.46 234.59 229.68 234.38 231.53 233.35 C 231.52 231.90 232.33 230.08 230.96 229.02 C 227.40 225.26 222.97 221.85 221.57 216.60 C 220.88 212.11 221.91 207.46 220.56 203.05 C 219.37 196.41 209.66 194.60 205.35 199.33 M 75.12 231.68 C 73.64 232.05 72.16 232.42 70.68 232.77 C 69.98 229.81 69.23 226.02 65.96 224.89 C 63.83 224.15 61.02 223.40 59.26 225.28 C 56.93 228.24 58.95 232.33 57.53 235.58 C 56.70 238.02 55.06 240.27 55.08 242.94 C 54.95 256.62 54.63 270.31 54.37 284.00 C 54.21 287.65 57.89 290.33 57.38 294.04 C 56.78 309.02 56.11 323.99 55.60 338.96 C 54.92 346.28 55.97 353.79 53.83 360.92 C 51.94 368.45 50.61 376.22 51.22 384.01 C 52.32 386.35 53.96 388.38 55.26 390.62 C 58.29 395.72 63.87 399.73 70.05 398.95 C 73.30 397.58 73.45 393.57 74.74 390.74 C 76.60 390.84 78.47 390.84 80.33 390.70 C 79.43 388.59 79.70 386.26 79.58 384.03 C 80.23 383.99 81.51 383.92 82.16 383.88 C 83.34 386.55 81.96 390.50 84.88 392.61 C 89.27 387.94 88.75 380.87 88.59 374.93 C 87.65 365.26 89.82 355.70 90.12 346.06 C 90.89 337.92 90.82 329.71 91.80 321.59 C 92.40 317.39 93.97 313.32 93.75 309.03 C 93.79 282.00 94.42 254.97 94.70 227.95 C 94.64 223.66 89.52 222.14 86.02 221.82 C 80.23 221.15 76.71 226.93 75.12 231.68 M 94.51 403.38 C 93.94 405.21 93.92 407.16 93.77 409.07 C 95.23 409.59 96.67 410.15 98.11 410.73 C 100.93 408.56 102.52 405.47 102.70 401.90 C 101.76 401.15 100.81 400.41 99.87 399.67 C 98.04 400.82 95.95 401.72 94.51 403.38 Z" />
<path fill="#070908" opacity="1.00" d=" M 76.51 114.87 C 77.33 110.90 78.75 106.10 82.63 104.15 C 84.12 107.35 86.66 110.22 86.76 113.91 C 88.30 123.93 86.35 133.99 86.70 144.03 C 86.84 148.08 84.77 151.75 82.17 154.69 C 78.44 153.47 75.21 150.08 75.42 145.95 C 75.56 135.58 75.67 125.21 76.51 114.87 Z" />
<path fill="#070908" opacity="1.00" d=" M 811.90 146.92 C 813.50 144.65 816.11 142.70 819.04 143.16 C 824.36 143.63 828.02 147.95 831.64 151.40 C 836.46 156.87 839.83 163.45 842.81 170.06 C 845.73 178.92 844.96 188.62 842.29 197.44 C 839.79 205.46 834.79 213.19 827.06 216.98 C 821.09 220.12 814.34 221.70 807.59 221.43 C 807.69 202.24 803.98 183.04 806.77 163.91 C 807.79 158.10 808.34 151.85 811.90 146.92 Z" />
<path fill="#070908" opacity="1.00" d=" M 424.21 208.77 C 429.04 212.53 433.09 217.19 437.41 221.52 C 457.47 243.10 474.91 267.24 488.51 293.41 C 489.31 295.45 488.64 297.72 488.61 299.86 C 483.09 299.31 477.63 297.75 472.04 298.56 C 457.22 299.38 442.58 303.40 429.70 310.83 C 419.83 316.06 411.19 323.25 403.08 330.86 C 404.26 324.97 408.92 320.85 411.67 315.75 C 413.59 310.99 416.84 306.98 419.43 302.59 C 427.64 289.82 431.24 274.04 428.79 259.02 C 427.62 242.24 425.00 225.58 424.21 208.77 Z" />
</g>
<g id="#f3ffffff">
<path fill="#f3ffff" opacity="1.00" d=" M 74.72 80.42 C 72.32 76.13 75.07 69.96 79.96 69.03 C 83.85 67.85 87.33 70.45 91.03 71.13 C 94.88 70.71 98.98 69.66 102.72 71.17 C 113.83 79.00 119.17 92.05 123.24 104.52 C 124.14 108.01 125.76 111.41 125.72 115.08 C 125.61 117.37 123.49 118.81 122.62 120.79 C 124.17 131.45 123.79 142.38 122.04 153.02 C 120.42 162.56 118.54 172.57 112.56 180.47 C 107.04 187.40 99.57 193.08 90.99 195.55 C 80.29 197.20 69.23 194.75 59.46 190.30 C 50.14 185.93 41.61 178.51 38.46 168.43 C 31.79 148.73 32.98 127.36 36.69 107.19 C 39.66 92.95 50.89 82.10 63.14 75.21 C 67.12 73.60 68.77 78.58 70.37 81.17 C 67.58 84.78 64.02 87.66 60.90 90.96 C 60.55 92.57 61.89 93.43 63.00 94.25 C 65.43 92.65 68.09 91.10 71.09 91.05 C 74.41 91.69 76.36 95.82 80.01 95.21 C 81.86 94.78 83.85 93.83 84.69 92.02 C 85.30 90.11 84.70 88.17 83.78 86.48 C 80.39 85.22 76.49 83.84 74.72 80.42 M 76.51 114.87 C 75.67 125.21 75.56 135.58 75.42 145.95 C 75.21 150.08 78.44 153.47 82.17 154.69 C 84.77 151.75 86.84 148.08 86.70 144.03 C 86.35 133.99 88.30 123.93 86.76 113.91 C 86.66 110.22 84.12 107.35 82.63 104.15 C 78.75 106.10 77.33 110.90 76.51 114.87 Z" />
<path fill="#f3ffff" opacity="1.00" d=" M 585.88 87.04 C 586.98 76.59 597.62 68.76 607.89 69.85 C 617.00 70.48 624.04 78.43 626.14 86.91 C 636.52 134.62 647.16 182.28 657.53 230.00 C 657.66 232.88 660.66 233.77 662.64 235.22 C 671.10 199.11 680.59 163.23 688.90 127.10 C 689.12 115.39 689.19 103.67 689.48 91.95 C 689.67 81.41 700.54 72.58 710.91 74.58 C 719.88 76.10 725.69 84.74 727.55 93.11 C 729.29 101.28 729.87 109.66 731.26 117.90 C 735.14 148.58 739.44 179.22 743.63 209.87 C 746.33 255.58 749.10 301.28 751.44 347.01 C 751.71 352.27 752.80 357.62 751.42 362.82 C 749.67 370.30 749.49 378.16 746.83 385.40 C 744.74 383.40 742.86 381.21 741.08 378.94 C 739.39 378.96 737.71 379.00 736.03 379.05 C 735.83 387.39 734.94 395.68 734.75 404.02 C 734.47 411.69 732.80 419.40 729.20 426.23 C 727.57 428.93 725.84 431.82 723.02 433.41 C 720.88 433.21 719.28 431.58 717.68 430.33 C 717.87 423.56 717.75 416.78 717.76 410.00 C 717.81 406.26 716.03 402.77 716.18 399.02 C 716.50 396.21 718.67 393.95 718.63 391.07 C 718.64 385.77 718.72 380.47 718.60 375.17 C 717.31 373.92 715.23 373.87 713.60 373.26 C 712.56 348.35 711.82 323.41 710.78 298.49 C 709.51 274.34 708.41 250.17 707.20 226.01 C 707.52 220.79 705.37 215.94 704.32 210.93 C 703.09 214.67 703.09 218.68 702.28 222.52 C 698.61 246.47 691.79 269.77 685.06 293.00 C 680.91 308.96 675.61 324.65 672.12 340.78 C 669.74 341.14 667.35 341.26 664.96 341.31 C 654.13 325.83 643.54 310.06 635.43 292.95 C 630.82 282.34 626.81 271.40 624.69 260.00 C 624.39 258.66 624.56 257.18 623.77 256.00 C 623.34 263.32 623.44 270.67 623.23 278.00 C 622.20 290.31 622.74 302.70 622.08 315.04 C 621.16 328.00 621.84 341.05 620.78 354.00 C 621.39 358.85 622.11 363.68 622.81 368.52 C 623.70 370.40 625.20 371.94 626.08 373.85 C 622.84 376.37 620.51 379.93 617.07 382.16 C 615.24 379.34 613.06 376.57 613.08 373.03 C 613.06 370.65 610.04 369.53 610.38 367.08 C 610.21 355.79 609.43 344.54 609.08 333.26 C 607.72 333.09 606.38 332.92 605.04 332.75 C 605.26 347.52 605.33 362.30 606.07 377.05 C 606.06 378.58 604.98 379.98 603.41 380.08 C 597.40 361.52 590.66 343.21 584.27 324.78 C 583.66 322.56 582.56 320.43 582.54 318.10 C 581.82 298.39 582.34 278.67 582.73 258.96 C 583.75 246.97 583.42 234.92 583.80 222.91 C 584.10 220.32 587.22 218.80 586.96 216.02 C 586.92 207.35 586.87 198.68 586.81 190.01 C 586.60 185.11 590.20 180.94 589.90 176.03 C 589.86 156.04 589.89 136.04 589.89 116.04 C 590.31 112.44 585.76 110.64 586.11 107.04 C 585.98 100.38 585.71 93.71 585.88 87.04 Z" />
<path fill="#f3ffff" opacity="1.00" d=" M 1004.93 92.06 C 1010.43 87.60 1017.94 85.93 1024.89 86.62 C 1038.51 90.86 1049.19 100.87 1060.10 109.61 C 1063.92 112.47 1067.36 115.93 1071.69 118.05 C 1068.90 113.40 1066.05 108.67 1061.90 105.10 C 1055.69 99.65 1048.67 95.14 1042.96 89.13 C 1049.23 90.38 1055.40 92.57 1060.67 96.28 C 1080.46 111.31 1095.16 132.22 1105.04 154.86 C 1108.73 163.13 1112.01 171.58 1114.81 180.19 C 1118.46 188.73 1115.18 198.18 1116.74 207.09 C 1120.12 227.21 1123.31 247.49 1122.64 267.97 C 1122.60 294.14 1114.30 319.54 1103.04 342.91 C 1097.81 353.95 1089.94 364.05 1079.25 370.25 C 1067.24 377.24 1053.67 381.27 1040.07 383.79 C 1029.35 383.55 1018.32 383.70 1008.07 380.12 C 999.45 377.28 992.00 371.69 985.72 365.26 C 978.37 356.15 970.57 347.27 964.90 336.97 C 957.92 325.47 952.44 312.97 949.34 299.86 C 943.93 283.57 941.29 266.49 939.88 249.43 C 937.64 218.73 939.84 187.28 949.88 158.01 C 951.27 152.83 954.02 148.18 956.44 143.43 C 961.14 134.81 966.65 126.50 973.68 119.60 C 980.09 113.89 987.27 108.97 995.08 105.39 C 998.37 106.47 1000.09 109.74 1001.05 112.84 C 997.75 116.68 993.28 119.21 989.51 122.52 C 985.24 125.75 981.76 129.84 978.43 134.00 C 978.78 134.45 979.47 135.35 979.81 135.81 C 987.76 127.39 999.18 121.64 1010.97 122.75 C 1013.74 122.57 1016.60 124.09 1017.37 126.89 C 1017.16 129.49 1015.64 131.99 1013.35 133.26 C 1007.79 136.53 1002.32 140.40 998.75 145.88 C 993.31 153.51 990.50 162.55 987.26 171.23 C 980.48 193.43 977.76 216.80 978.65 239.97 C 980.24 264.73 984.93 289.86 996.96 311.84 C 1002.21 321.78 1009.24 330.96 1018.44 337.54 C 1025.45 341.84 1034.25 342.05 1042.03 339.97 C 1055.70 336.30 1068.00 326.86 1073.85 313.81 C 1078.76 305.55 1082.58 296.52 1084.07 286.98 C 1087.59 269.87 1087.27 252.26 1086.36 234.90 C 1084.69 208.73 1080.03 182.09 1067.15 158.91 C 1061.63 147.72 1052.98 138.42 1043.38 130.61 C 1038.46 126.31 1033.08 122.38 1029.23 117.02 C 1030.32 114.34 1033.51 113.33 1034.42 110.57 C 1034.87 109.44 1034.87 107.85 1033.52 107.36 C 1026.67 103.92 1018.96 103.16 1011.48 102.27 C 1008.50 101.33 1005.24 100.24 1003.27 97.67 C 1001.77 95.70 1003.24 93.31 1004.93 92.06 Z" />
<path fill="#f3ffff" opacity="1.00" d=" M 787.31 112.33 C 795.79 104.61 807.37 99.69 818.95 100.94 C 833.73 102.29 846.75 110.71 857.46 120.49 C 868.56 131.18 877.98 144.01 883.24 158.59 C 890.24 182.76 884.94 209.94 870.34 230.31 C 865.98 235.92 860.55 242.34 852.68 241.80 C 852.48 242.68 852.29 243.57 852.11 244.47 C 869.69 246.52 886.73 253.53 900.36 264.88 C 912.92 274.78 922.77 288.41 927.17 303.87 C 932.03 330.04 920.90 358.60 899.51 374.47 C 886.90 383.73 870.39 388.25 854.97 384.59 C 850.90 383.53 846.50 381.97 844.31 378.10 C 845.93 375.31 847.55 372.52 848.85 369.56 C 839.27 366.85 828.92 364.78 821.26 357.93 C 818.73 355.71 815.98 352.25 817.72 348.73 C 822.27 346.01 827.58 348.33 832.42 348.77 C 842.82 350.82 853.52 351.22 864.04 349.90 C 873.53 348.36 883.04 343.66 888.32 335.35 C 891.83 330.23 893.30 324.09 894.76 318.15 C 890.50 311.92 886.79 305.33 882.70 299.00 C 882.64 296.72 882.64 294.45 882.67 292.18 C 859.77 283.91 837.47 273.82 813.86 267.63 C 814.06 276.47 815.54 285.19 816.79 293.91 C 819.31 306.62 823.18 319.04 825.27 331.82 C 824.38 335.20 820.24 337.33 816.94 336.10 C 811.60 329.84 811.73 321.10 809.62 313.53 C 809.15 310.28 806.16 308.48 804.19 306.16 C 805.15 322.81 807.84 339.43 806.88 356.15 C 806.43 356.50 805.54 357.22 805.09 357.57 C 803.39 356.83 801.51 356.20 800.44 354.59 C 794.40 346.76 792.73 336.77 789.31 327.73 C 783.90 313.62 779.77 298.93 778.11 283.88 C 776.25 271.00 777.40 257.90 775.52 245.04 C 772.14 214.12 765.25 183.25 767.85 151.99 C 769.95 137.20 776.05 122.48 787.31 112.33 M 811.90 146.92 C 808.34 151.85 807.79 158.10 806.77 163.91 C 803.98 183.04 807.69 202.24 807.59 221.43 C 814.34 221.70 821.09 220.12 827.06 216.98 C 834.79 213.19 839.79 205.46 842.29 197.44 C 844.96 188.62 845.73 178.92 842.81 170.06 C 839.83 163.45 836.46 156.87 831.64 151.40 C 828.02 147.95 824.36 143.63 819.04 143.16 C 816.11 142.70 813.50 144.65 811.90 146.92 Z" />
<path fill="#f3ffff" opacity="1.00" d=" M 153.36 145.00 C 164.15 132.86 179.96 125.97 195.98 124.56 C 211.66 123.72 227.39 127.65 241.34 134.71 C 246.33 137.47 251.19 140.78 254.73 145.30 C 259.41 153.78 259.90 163.68 261.44 173.04 C 261.83 173.44 262.59 174.26 262.97 174.66 C 265.83 167.90 267.76 160.39 272.98 154.96 C 276.91 152.95 281.27 155.57 283.54 158.88 C 276.78 169.26 278.61 182.28 276.66 193.98 C 276.88 201.50 273.81 209.14 267.98 214.00 C 262.92 218.73 255.37 218.32 248.96 217.83 C 245.30 217.09 240.51 217.25 238.55 213.42 C 236.72 208.39 236.88 202.91 236.19 197.66 C 235.19 187.33 233.49 176.43 227.00 167.98 C 221.05 162.50 213.29 158.41 205.04 158.39 C 199.70 158.23 194.27 158.71 189.15 160.27 C 182.03 163.75 176.58 170.47 174.48 178.10 C 171.05 189.54 173.26 201.82 177.18 212.84 C 184.57 224.86 195.65 233.94 207.00 242.06 C 227.67 256.58 250.51 267.63 271.45 281.74 C 277.83 285.75 284.33 289.99 288.71 296.28 C 299.05 310.16 301.04 328.24 300.27 345.04 C 300.23 363.36 291.93 381.17 278.85 393.83 C 268.64 403.37 255.92 410.01 242.54 413.88 C 238.14 415.11 233.69 416.43 229.09 416.50 C 217.77 416.90 206.17 417.60 195.13 414.51 C 184.07 411.76 174.36 405.43 165.27 398.78 C 152.83 388.93 145.61 373.51 143.84 357.94 C 143.01 352.17 141.99 346.16 143.57 340.44 C 144.84 335.29 153.72 334.34 155.01 340.00 C 156.39 349.00 156.19 358.20 157.16 367.27 C 158.70 366.65 161.47 366.52 160.82 364.12 C 160.53 352.10 162.52 339.63 169.11 329.35 C 170.82 327.15 174.12 327.08 176.16 328.86 C 176.60 330.19 177.29 331.47 177.36 332.91 C 177.86 340.99 177.63 349.25 179.77 357.13 C 183.04 366.78 192.55 372.61 202.00 374.95 C 215.47 378.10 229.82 375.42 242.02 369.17 C 259.05 362.20 265.67 339.30 257.55 323.42 C 251.94 315.17 244.17 308.63 236.04 302.96 C 217.38 290.18 196.34 281.26 178.04 267.92 C 172.27 264.17 167.04 259.63 162.73 254.25 C 150.54 240.77 142.14 224.22 136.74 206.95 C 143.64 196.10 147.73 183.69 149.83 171.06 C 151.16 162.39 152.42 153.72 153.36 145.00 Z" />
<path fill="#f3ffff" opacity="1.00" d=" M 75.12 231.68 C 76.71 226.93 80.23 221.15 86.02 221.82 C 89.52 222.14 94.64 223.66 94.70 227.95 C 94.42 254.97 93.79 282.00 93.75 309.03 C 93.97 313.32 92.40 317.39 91.80 321.59 C 90.82 329.71 90.89 337.92 90.12 346.06 C 89.82 355.70 87.65 365.26 88.59 374.93 C 88.75 380.87 89.27 387.94 84.88 392.61 C 81.96 390.50 83.34 386.55 82.16 383.88 C 81.51 383.92 80.23 383.99 79.58 384.03 C 79.70 386.26 79.43 388.59 80.33 390.70 C 78.47 390.84 76.60 390.84 74.74 390.74 C 73.45 393.57 73.30 397.58 70.05 398.95 C 63.87 399.73 58.29 395.72 55.26 390.62 C 53.96 388.38 52.32 386.35 51.22 384.01 C 50.61 376.22 51.94 368.45 53.83 360.92 C 55.97 353.79 54.92 346.28 55.60 338.96 C 56.11 323.99 56.78 309.02 57.38 294.04 C 57.89 290.33 54.21 287.65 54.37 284.00 C 54.63 270.31 54.95 256.62 55.08 242.94 C 55.06 240.27 56.70 238.02 57.53 235.58 C 58.95 232.33 56.93 228.24 59.26 225.28 C 61.02 223.40 63.83 224.15 65.96 224.89 C 69.23 226.02 69.98 229.81 70.68 232.77 C 72.16 232.42 73.64 232.05 75.12 231.68 Z" />
</g>
<g id="#ef04abff">
<path fill="#ef04ab" opacity="1.00" d=" M 365.36 122.10 C 388.94 136.77 410.70 154.14 431.26 172.77 C 463.84 202.98 492.46 237.50 515.82 275.32 C 530.96 300.35 544.71 326.37 554.81 353.87 C 544.64 351.01 534.47 347.95 523.95 346.56 C 500.40 342.73 476.21 344.89 453.21 350.90 C 418.55 360.43 386.95 378.89 359.06 401.28 C 356.73 404.53 358.86 409.78 355.35 412.34 C 336.29 429.04 316.80 445.25 297.86 462.07 C 298.33 462.94 298.63 463.96 299.36 464.69 C 303.59 461.15 307.63 457.38 311.87 453.85 C 313.17 452.54 315.07 453.48 316.64 453.49 C 313.75 462.01 304.69 465.73 299.35 472.33 C 299.22 475.19 300.91 478.43 298.98 480.98 C 295.82 485.72 292.29 490.23 289.35 495.10 C 289.61 497.45 290.29 499.73 290.77 502.04 C 285.65 508.61 280.87 515.45 276.05 522.24 C 275.80 522.66 275.29 523.50 275.03 523.92 C 272.57 524.10 271.08 521.97 269.29 520.69 C 263.40 516.19 257.54 511.67 251.57 507.28 C 250.76 506.50 249.43 505.98 249.25 504.76 C 249.89 501.70 252.35 499.55 254.07 497.09 C 259.97 488.97 265.83 480.83 271.69 472.68 C 275.66 467.08 280.25 461.91 283.82 456.03 C 290.16 447.03 296.66 438.12 303.30 429.33 C 309.32 420.53 314.43 411.13 319.79 401.92 C 321.79 398.32 325.26 396.00 328.28 393.34 C 329.91 385.47 332.60 377.87 335.71 370.48 C 338.77 364.02 342.10 357.68 344.60 350.97 C 346.53 351.80 348.13 353.18 349.60 354.67 C 353.23 341.29 356.27 327.75 358.62 314.09 C 361.11 300.73 362.93 287.24 365.95 273.99 C 366.42 279.65 366.33 285.34 366.56 291.02 C 366.87 297.14 365.32 303.12 364.54 309.15 C 362.70 321.76 360.60 334.34 358.84 346.97 C 358.74 352.71 359.24 358.45 359.56 364.19 C 366.47 345.87 373.00 327.42 379.93 309.12 C 381.57 304.62 381.29 299.77 381.79 295.09 C 386.64 245.60 381.85 195.57 370.99 147.15 C 369.44 138.72 366.86 130.53 365.36 122.10 M 424.21 208.77 C 425.00 225.58 427.62 242.24 428.79 259.02 C 431.24 274.04 427.64 289.82 419.43 302.59 C 416.84 306.98 413.59 310.99 411.67 315.75 C 408.92 320.85 404.26 324.97 403.08 330.86 C 411.19 323.25 419.83 316.06 429.70 310.83 C 442.58 303.40 457.22 299.38 472.04 298.56 C 477.63 297.75 483.09 299.31 488.61 299.86 C 488.64 297.72 489.31 295.45 488.51 293.41 C 474.91 267.24 457.47 243.10 437.41 221.52 C 433.09 217.19 429.04 212.53 424.21 208.77 Z" />
</g>
<g id="#6a6726ff">
<path fill="#6a6726" opacity="1.00" d=" M 1032.78 167.79 C 1037.08 165.80 1041.70 163.74 1046.48 163.66 C 1054.34 168.33 1058.48 177.08 1061.25 185.45 C 1065.38 199.06 1066.82 213.25 1069.67 227.13 C 1069.49 255.71 1069.75 285.69 1056.76 311.93 C 1053.67 319.39 1046.11 324.82 1037.94 324.64 C 1035.59 324.42 1032.32 325.78 1030.72 323.50 C 1039.62 325.63 1050.29 322.04 1054.68 313.64 C 1061.27 301.04 1065.26 287.11 1066.57 272.96 C 1068.45 257.73 1068.77 242.34 1068.65 227.01 C 1066.04 214.83 1064.66 202.40 1061.59 190.31 C 1059.10 180.56 1054.87 170.30 1046.08 164.63 C 1042.56 165.45 1038.98 166.14 1035.61 167.49 C 1031.97 168.96 1028.97 171.58 1025.98 174.06 C 1026.92 170.91 1030.14 169.33 1032.78 167.79 Z" />
</g>
<g id="#f4f708ff">
<path fill="#f4f708" opacity="1.00" d=" M 1035.61 167.49 C 1038.98 166.14 1042.56 165.45 1046.08 164.63 C 1054.87 170.30 1059.10 180.56 1061.59 190.31 C 1064.66 202.40 1066.04 214.83 1068.65 227.01 C 1068.77 242.34 1068.45 257.73 1066.57 272.96 C 1065.26 287.11 1061.27 301.04 1054.68 313.64 C 1050.29 322.04 1039.62 325.63 1030.72 323.50 C 1024.89 320.16 1020.47 314.61 1017.97 308.41 C 1012.36 293.95 1010.10 278.40 1009.51 262.97 C 1009.79 239.51 1010.10 215.67 1016.34 192.87 C 1017.21 189.33 1018.69 185.98 1020.15 182.64 C 1021.69 179.55 1023.49 176.49 1025.98 174.06 C 1028.97 171.58 1031.97 168.96 1035.61 167.49 Z" />
</g>
<g id="#363435ff">
<path fill="#363435" opacity="1.00" d=" M 1017.58 185.67 C 1018.25 184.57 1018.43 182.57 1020.15 182.64 C 1018.69 185.98 1017.21 189.33 1016.34 192.87 C 1010.10 215.67 1009.79 239.51 1009.51 262.97 C 1010.10 278.40 1012.36 293.95 1017.97 308.41 L 1016.92 308.31 C 1013.14 300.01 1011.29 290.98 1010.10 281.98 C 1007.77 269.83 1008.18 257.39 1008.49 245.09 C 1009.22 241.07 1009.24 237.00 1009.11 232.94 C 1010.19 216.97 1011.90 200.76 1017.58 185.67 Z" />
</g>
<g id="#f4f709ff">
<path fill="#f4f709" opacity="1.00" d=" M 205.35 199.33 C 209.66 194.60 219.37 196.41 220.56 203.05 C 221.91 207.46 220.88 212.11 221.57 216.60 C 222.97 221.85 227.40 225.26 230.96 229.02 C 232.33 230.08 231.52 231.90 231.53 233.35 C 229.68 234.38 227.46 234.59 225.69 233.25 C 220.05 229.59 214.87 225.17 208.72 222.32 C 204.12 220.24 202.07 214.85 202.63 210.06 C 203.25 206.46 202.32 202.04 205.35 199.33 Z" />
</g>
<g id="#fffec8ff">
<path fill="#fffec8" opacity="1.00" d=" M 1169.01 236.96 C 1171.17 240.93 1170.01 245.67 1172.00 249.68 L 1172.00 287.48 C 1169.29 297.21 1170.34 307.86 1166.35 317.27 C 1168.38 303.99 1170.52 290.68 1170.87 277.21 C 1172.91 263.75 1170.19 250.35 1169.01 236.96 Z" />
</g>
<g id="#f3fdfdff">
<path fill="#f3fdfd" opacity="1.00" d=" M 1112.67 358.52 C 1116.45 353.19 1119.56 347.09 1125.15 343.37 C 1126.99 342.52 1126.41 345.54 1126.40 346.53 C 1123.27 352.75 1119.23 358.49 1115.89 364.60 C 1114.47 364.92 1113.06 365.23 1111.66 365.51 C 1112.03 363.20 1111.78 360.71 1112.67 358.52 Z" />
</g>
<g id="#f3fdfcff">
<path fill="#f3fdfc" opacity="1.00" d=" M 678.48 358.48 C 680.37 358.53 682.28 358.61 684.18 358.75 C 684.35 360.41 684.85 362.10 684.59 363.79 C 683.35 364.62 681.69 364.90 680.24 364.63 C 679.49 362.63 679.28 360.47 678.48 358.48 Z" />
<path fill="#f3fdfc" opacity="1.00" d=" M 747.13 421.95 C 747.97 421.83 749.65 421.58 750.49 421.45 C 750.19 426.27 748.87 430.87 746.56 435.11 C 745.59 434.17 744.62 433.22 743.68 432.28 C 743.98 428.58 745.30 425.14 747.13 421.95 Z" />
</g>
<g id="#f2fefeff">
<path fill="#f2fefe" opacity="1.00" d=" M 906.91 386.54 C 908.66 386.71 910.42 386.87 912.20 387.04 C 912.13 389.10 912.08 391.15 912.05 393.22 C 910.39 393.50 908.73 393.78 907.09 394.04 C 907.04 391.54 906.97 389.04 906.91 386.54 Z" />
<path fill="#f2fefe" opacity="1.00" d=" M 1039.99 399.51 C 1041.24 398.97 1042.48 398.17 1043.93 398.28 C 1048.65 398.19 1053.38 398.22 1058.11 398.13 C 1058.94 399.06 1059.75 399.99 1060.60 400.95 C 1054.57 403.65 1047.84 401.22 1041.50 401.68 C 1041.13 401.13 1040.37 400.05 1039.99 399.51 Z" />
<path fill="#f2fefe" opacity="1.00" d=" M 94.51 403.38 C 95.95 401.72 98.04 400.82 99.87 399.67 C 100.81 400.41 101.76 401.15 102.70 401.90 C 102.52 405.47 100.93 408.56 98.11 410.73 C 96.67 410.15 95.23 409.59 93.77 409.07 C 93.92 407.16 93.94 405.21 94.51 403.38 Z" />
</g>
<g id="#f3fefeff">
<path fill="#f3fefe" opacity="1.00" d=" M 882.43 400.04 C 886.25 396.68 891.63 395.57 896.52 394.30 C 897.13 395.84 897.69 397.41 898.19 399.01 C 894.47 400.63 890.64 401.98 886.90 403.53 C 885.50 402.32 883.26 401.61 882.43 400.04 Z" />
</g>
<g id="#09080dff">
<path fill="#09080d" opacity="1.00" d=" M 246.13 501.00 C 259.05 486.34 271.98 471.61 283.82 456.03 C 280.25 461.91 275.66 467.08 271.69 472.68 C 265.83 480.83 259.97 488.97 254.07 497.09 C 252.35 499.55 249.89 501.70 249.25 504.76 C 248.58 503.20 246.77 502.51 246.13 501.00 Z" />
</g>
<g id="#fffeffff">
</g>
</svg>
