<?xml version="1.0" encoding="utf-8"?>
<!-- Generator: Adobe Illustrator 21.1.0, SVG Export Plug-In . SVG Version: 6.00 Build 0)  -->
<!DOCTYPE svg PUBLIC "-//W3C//DTD SVG 1.1//EN" "http://www.w3.org/Graphics/SVG/1.1/DTD/svg11.dtd">
<svg version="1.1" id="レイヤー_1" xmlns="http://www.w3.org/2000/svg" xmlns:xlink="http://www.w3.org/1999/xlink" x="0px"
	 y="0px" viewBox="0 0 1014.3 533.4" style="enable-background:new 0 0 1014.3 533.4;" xml:space="preserve">
<style type="text/css">
	.st0{fill:#FFFFFF;}
</style>
<g>
	<g>
		<path class="st0" d="M50.1,514.8v-9.6h36.5v-21.1H50.1v-9.6h47.3v42.9H86.6v-2.5L50.1,514.8L50.1,514.8z"/>
		<path class="st0" d="M123.2,515.1v3.2h-10.3v-44.5h47.8v44.3h-10.3v-3H123.2L123.2,515.1z M150.2,505.6v-22.8h-27.1v22.8H150.2z"
			/>
		<path class="st0" d="M196.2,467.3l10.6,0.4c0.4,0,1.4,0,1.4,0.7s-0.9,1.1-1.4,1.1v11h19.5v9.2h-19.5c-0.7,10.6-4.4,24.1-21.8,33.1
			c-1.1-1.4-4.1-5.1-7.8-7.6c18.1-7.8,18.8-18.6,19.3-25.5h-24.1v-9.2h24.1v-13.3L196.2,467.3L196.2,467.3z"/>
		<path class="st0" d="M280.7,488c-4.4,0.3-9.6,0.7-20.9,5.8c-11,5.1-15.4,10.3-15.4,13.3c0,4.4,6.7,5.3,14.4,5.3
			c6.9,0,16.3-1.6,21.4-3.4c-0.4,2.7-0.9,5.3-0.7,11c-8.5,1.6-17.7,1.8-21.1,1.8c-10.8,0-15.1-1.6-18.1-3.2
			c-3.9-2.1-6.7-5.8-6.7-10.8c0-8.5,7.1-13.7,13.3-17.7c-3.2-3.4-3.4-6.9-4.6-14.7c-0.4-3-0.7-3.9-1.6-6.7l12.2-2.5
			c-0.3,3.2-0.4,4.6-0.4,6.4c0,7.6,2.1,12.2,2.7,13.3c9.6-4.6,14-6.2,21.6-8.9L280.7,488z"/>
		<path class="st0" d="M336.2,491.6h-30.3v-4.8c-2.1,1.4-3,1.8-8.8,5.1c-0.4-1.1-1.6-3.2-7.1-6.7c5.8-2.5,18.4-7.8,26.4-20l9.9,1.4
			c0.4,0,1.1,0.3,1.1,1.1c0,0.4-0.4,0.7-0.9,0.9c3.4,5.3,16.8,11.7,24.3,13.1c-2.7,2.7-4.6,6.4-5.1,8.1c-3-0.9-4.8-1.8-9.2-3.9v5.8
			L336.2,491.6L336.2,491.6z M298.4,504.5V496h40l3.9,3.4c-4.8,10.8-9.9,18.1-15.1,24.6c-5.1-3.4-7.8-4.1-9.5-4.6
			c3.7-3.9,8.1-8.8,11.3-15.1h-30.5L298.4,504.5L298.4,504.5z M331.2,483.4c-4.1-2.3-7.8-5.3-11-8.8c-3,3.2-7.6,7.1-9.6,8.8H331.2z"
			/>
		<path class="st0" d="M394.1,487.4h12.2v8.1h-12.2v7.4h20v8.1h-20v12.2h-9.6V511h-27.3v-8.1h9.5v-15.5h17.7v-6.7h-13.2
			c-0.3,0.4-3.9,6.4-8.1,10.3c-4.8-3.7-6.9-4.4-8.2-4.8c6.7-6.2,11.3-14,13.6-20.7l9.2,3c0.4,0.3,0.7,0.3,0.7,0.7
			c0,0.9-0.9,0.9-1.8,0.9c-0.3,0.9-0.7,1.6-0.9,2.1h35.6v8.2h-17.4v6.9L394.1,487.4L394.1,487.4z M384.4,495.3h-8.1v7.4h8.1V495.3z"
			/>
		<path class="st0" d="M451,512.6c13.6-2.5,17.4-12.9,17.4-19.3c0-5.1-2.7-14.3-14.4-15.1c-1.8,22.8-11.3,39.7-17.9,39.7
			c-4.8,0-13.7-8.2-13.7-19.8c0-13.3,12.2-29,30.5-29c13.6,0,25.5,9.2,25.5,24.1c0,2.7-0.3,10.8-7.4,19.3c-3.9,4.4-8.2,6.7-13.6,8.9
			C455.4,517.6,454,515.8,451,512.6z M431.5,497.2c0,4.8,2.7,8.5,3.9,8.5c1.6,0,2.7-2.7,3.4-4.4c2.7-6.2,4.8-13.3,4.8-21.4
			C436.6,482.5,431.5,491.6,431.5,497.2z"/>
		<path class="st0" d="M513,466.4c0.4,0,0.9,0.3,0.9,0.7s-0.4,0.9-1.1,1.1c-0.4,0.7-0.4,0.9-1.1,2.1h20.9l3.2,3.2
			c-4.6,7.6-11.3,13.7-12.9,15.4c3.9,2.5,13.1,7.8,23.2,9.6c-0.9,1.4-3.4,6-4.8,8.9c-7.4-2.5-17.7-7.4-25-13.1
			c-10.3,7.4-22.2,11.5-25.7,12.2c-0.9-1.6-3-5.1-5.3-7.8c6.7-0.7,17.9-4.8,24.6-9.9c-2.1-2.1-3.9-3.9-6.2-6.7
			c-3.7,4.6-6.4,7.1-8.9,8.9c-2.1-2.5-5.3-4.4-6.9-5.3c9.9-7.4,15.1-18.6,15.8-20.9L513,466.4z M501,506.6
			c20.5,4.6,29.1,9.6,31.9,11.5c-1.8,1.8-4.4,5.3-5.3,7.1c-5.3-3.9-22.9-9.9-31-10.6L501,506.6z M513.2,497
			c3.9,1.6,10.8,5.5,13.1,7.4c-1.6,1.4-3.2,2.7-5.5,6.2c-2.5-2.5-10.1-5.8-12.6-6.9L513.2,497z M511.4,478.2
			c0.9,1.1,2.1,2.7,4.8,5.5c3.7-3.4,4.1-4.4,4.8-5.5H511.4z"/>
		<path class="st0" d="M584.4,467.3c0.4,0,1.1,0.3,1.1,1.1c0,0.9-1.1,0.9-1.6,0.9l-1.4,3c1.8-0.3,7.8-1.1,12.9-3v9.2
			c-9.2,1.6-10.3,1.8-17.7,2.7c-0.7,1.4-0.9,1.6-2.5,4.4c2.3-1.1,4.8-1.1,5.5-1.1c3.2,0,7.1,1.8,9.2,5.3c9.2-4.4,10.3-4.8,12.6-6.2
			l3.7,9.9c-6.9,2.1-10.6,3.4-14.3,5.1c0.3,1.8,0.3,3.7,0.3,5.5c0,2.7-0.3,4.6-0.3,6.2c-2.1-0.3-4.1-0.3-6.2-0.3
			c-2.1,0-2.3,0-3.7,0.3c0.3-2.1,0.4-3.2,0.4-7.1c-3.9,2.3-7.8,5.1-7.8,7.6c0,2.7,6.4,3,9.5,3c6.9,0,13.3-1.1,20-3
			c-0.9,3.2-1.1,6.9-1.1,9.9c-5.8,1.4-11.5,1.8-17.4,1.8c-4.1,0-20.5,0-20.5-11c0-7.4,9.9-13.6,16.8-17c-0.9-2.7-3.2-3.2-4.6-3.2
			c-6.4,0-10.8,6.9-14.3,12.4l-8.8-4.8c4.1-4.4,10.3-12.9,12.6-16.8c-3.4,0.3-6.2,0.3-8.8,0v-8.9c1.8,0.3,5.5,0.4,9.6,0.4
			c1.8,0,2.5,0,3.4,0c2.3-4.8,2.7-6.4,3.2-8.1L584.4,467.3z"/>
		<path class="st0" d="M665.9,494.7h6.4v7.4h-6.4v4.8c0,3.7-1.4,7.4-9.9,6.9c-0.3-2.3-1.6-5.8-2.7-7.8c0.7,0.3,2.3,0.3,3,0.3
			c1.4,0,1.6-1.1,1.6-2.5V502h-6.4v-7.4h6.4v-2.3h0.7c0.7-0.9,0.9-1.1,1.1-1.6h-6.9v-4.8c-0.4,0.4-0.9,1.1-1.1,1.4
			c-0.4-0.4-1.1-0.9-1.6-1.1c-0.4,15-0.4,21.4-2.1,23.9c-1.1,2.1-2.7,3.7-8.9,3.7c-0.4-3.2-1.1-5.1-1.8-6.7
			c-1.4,3.2-2.1,4.1-2.5,5.1c-1.4-1.4-2.7-2.5-4.6-3.4v0.9c0,5.8,6.4,6,20,6c8.1,0,14.7-0.7,24.1-1.4c-1.4,2.5-2.3,5.8-2.5,8.5
			h-29.6c-9.2,0-13.7-2.3-16.3-6.2c-1.6,1.4-5.5,4.6-6.2,5.5c0,0.9,0,1.6-0.9,1.6c-0.7,0-0.9-0.7-1.1-0.9l-3.9-7.6
			c2.7-1.4,6.2-3.4,7.6-4.6V498h-5.8v-7.8H630v15.4c4.1-7.1,4.1-13.6,4.1-24.6h-4.6v-6.4c-0.4,0.4-3.9,3.9-5.8,6
			c-4.8-5.8-6.7-7.4-8.8-8.9l5.3-5.8c3.7,2.3,8.5,6.9,9.5,7.8v-0.3h6.7v-7.1l8.9,0.3c0.4,0,1.1,0.3,1.1,0.9c0,0.4-0.3,0.7-1.4,1.4
			v4.6h4.8v3.9c0.9-1.6,3.4-6,4.6-11.3l7.1,2.1c0.9,0.3,1.1,0.4,1.1,0.9c0,0.7-0.9,0.9-1.8,1.1c-0.3,0.4-0.4,1.4-0.9,2.1h11.9v7.6
			h-15.6c-0.3,0.4-0.9,1.8-2.3,3.7h14.7l3,3C670,489.6,667.8,492.3,665.9,494.7L665.9,494.7z M641.2,492.2c-0.4,5.5-2.3,11-3.4,13.6
			c0.4,0.3,1.4,0.3,2.1,0.3c1.8,0,2.5-0.7,3-2.3c0.4-1.4,0.9-6.7,0.7-11.7h-2.4V492.2L641.2,492.2z M648.7,484.8
			c-1.8-1.1-2.3-1.4-3.2-1.6c0.9-0.9,1.1-1.1,2.1-2.3h-5.8c0,1.1,0,3.4-0.3,3.9L648.7,484.8L648.7,484.8z"/>
		<path class="st0" d="M706.3,475.2c-6.9,6.9-11,16.5-11,25.7c0,7.8,4.1,11,9.9,11c9.6,0,12.6-9.5,12.6-16.1
			c0-8.1-2.5-15.1-7.6-23.2l9.2-4.8c4.1,8.9,9.9,15.1,19.3,22.1c-2.3,3-4.8,7.4-5.3,8.1c-3.4-3.2-4.4-3.9-7.8-8.1
			c0.4,1.8,0.9,4.1,0.9,8.2c0,5.8-1.6,22.8-20.7,22.8c-14.3,0-20.5-9.6-20.5-18.6c0-8.2,5.5-19.1,6.2-20.5c-4.1,1.8-6,2.3-8.1,2.7
			l-3-10.3c6.2-0.4,13.7-2.7,19.1-6.9L706.3,475.2z M729.5,469c1.1,1.1,3.9,4.8,4.8,6.4c-1.4,1.1-1.6,1.4-4.1,3.7
			c-1.1-1.8-3.4-5.5-5.1-7.1L729.5,469z M734.5,464.8c2.1,2.1,3.4,3.9,5.3,6.2c-0.7,0.4-3.9,3-4.4,3.4c-1.8-2.7-3-4.1-4.8-6.4
			L734.5,464.8z"/>
		<path class="st0" d="M758.9,490.1c-0.4,10.1-4.8,20.5-11.3,26.4c-2.1-3.4-4.1-5.5-6.4-7.1c5.8-5.5,9.2-12.2,9.2-28v-13.6h43.8V490
			H786c4.1,9.6,12.4,15,16.8,16.5c-2.5,1.6-4.8,5.8-6,8.1c-4.1-2.7-15-9.6-20.9-24.6L758.9,490.1L758.9,490.1z M759.4,508
			c18.1,2.3,27.1,6.7,30.1,8.5c-1.8,3-3.2,5.5-4.1,8.2c-5.5-3-15.6-6.9-29.1-8.2L759.4,508z M759.4,476.1v5.8h25.3v-5.8H759.4z
			 M763.9,493c8.8,2.3,12.2,3.4,16.3,6c-0.4,0.9-1.4,2.1-2.5,3.9c-1.6,3.2-1.8,3.7-2.1,4.1c-3.4-2.1-10.1-5.5-15.6-6.7L763.9,493z"
			/>
		<path class="st0" d="M847.8,471.5c0.4,0.3,0.7,0.4,0.7,0.9c0,0.4-0.4,0.7-0.7,0.7s-0.7-0.3-1.1-0.3c-1.1,1.1-11.5,9.2-13.6,10.8
			c-2.7,2.5-6.4,5.5-8.8,7.4c-2.1,1.8-2.1,2.1-2.1,2.5c0,0.7,0.3,0.9,2.7,2.1c0.3,0.3,6,3.9,11.5,8.2c7.1,5.5,10.1,8.5,12.9,12.2
			c-2.5,2.3-4.4,4.4-7.1,8.5c-2.7-4.1-13.1-15-31.2-26.6c-0.7-0.4-2.1-1.6-2.1-3.7c0-1.6,0.3-2.3,6.4-7.4c8.5-6.7,16.5-14,23.6-22.2
			L847.8,471.5z"/>
		<path class="st0" d="M912.5,491c-17.7,0-26.2,10.8-26.2,17c0,6.4,6.7,7.1,16.3,7.1c-1.1,2.7-2.5,6.2-3.4,9.5
			c-9.9-0.9-23.6-2.3-23.6-15.1c0-4.8,2.5-10.1,6.9-14c-8.8,1.1-18.4,4.1-23.2,5.5l-2.5-11.3c4.8-0.3,10.3-0.7,15.1-1.1
			c5.3-4.1,8.5-7.1,11.5-11.5c-1.6,0.3-8.5,0.9-9.9,0.9c-1.8,0.3-3.2,0.3-4.6,0.3l-0.7-9.6c1.6,0,3.9,0.3,7.1,0.3
			c1.8,0,15.8,0,24.6-2.5l3.9,5.8c-6.7,4.8-13.3,10.8-17,14.3c10.3-1.8,15.6-2.7,24.3-4.8L912.5,491z"/>
		<path class="st0" d="M923.6,486.8c2.7-0.3,3.9-0.7,13.3-4.1c3.9-1.4,10.3-3.9,17.2-3.9c9.2,0,17,6.2,17,17.4
			c0,19.3-21.4,26.9-29.6,28.3c-1.1-2.3-3.4-5.8-6.4-8.5c23.5-4.1,26.2-15.1,26.2-19.3c0-5.1-3.4-8.8-8.5-8.8
			c-5.3,0-15.6,3.7-24.8,11.5L923.6,486.8z M937.1,464.3c3.2,1.1,9.2,3,18.4,3c2.1,0,3.2,0,4.6-0.3c-0.7,3.4-1.1,7.1-1.1,10.3
			c-13.6-0.3-20-2.1-23.2-3.2L937.1,464.3z"/>
	</g>
</g>
<g>
	<g>
		<g>
			<path class="st0" d="M252.9,415.2c-0.6-1.5-1.8-2.3-3.3-2.4c-16.5-0.7-30.5-7.4-43.8-16.6c-3.7-2.6-6.7-5.9-10-8.9
				c-5-4.6-4.4-5-5.6-11.7c-0.5-2.9,2.1-5.7-0.2-8.2c5.3-2.3-1.6-4.6,0.1-7.1c1.7,1.1,3.4,2,4.8,3.4c1.6,1.6,3.8,2.4,5.6,0.2
				c2.1-2.5,4.7,0.1,7.2-1.1c0.7-1-0.1-2.3-0.4-3.4c-1.1-4.5,2.3-6,4.9-8.2c2.8-2.4,5.5,0.4,8.2,0c0.2,3.2,3.3,3.5,5.2,5.2
				c5.3,4.8,11.6,7.8,18.2,10.4c6.9,2.7,14,1,20.9,1.5c0.9,0.1,1.8-0.1,1.7-1.4c-0.3-2,1.4-3.3,2.5-4.4c4.1-3.8,1.7-7.2-0.2-10.6
				c-3.9-7.2-11.1-9.4-17.5-13.3c-6-3.7-13-3.7-18.2-8c-2.6-2.2-7.1-2-8.1-6.2c-0.1-0.3-0.4-0.6-0.5-0.6c-4.1,1.3-5.2-3.7-8.8-4
				c-2.4-0.3-3-4.2-5.3-5.9c-8.6-6-13-14.9-15.2-24.6c-2-8.8-0.1-17.8,2.5-26.4c2-6.4,4.8-12.5,8.8-17.7c5.1-6.7,12.3-11.3,20-14.6
				c10.2-4.6,21-6.8,32.3-6.3c1.3,0.1,2.6,0,3.6-1.1c0.4-0.5,1.1-1.5,1.7-0.9c4.5,4.3,10.3,2,15.2,3.5c7.6,2.2,15.4,5.4,20.7,11.6
				c1.8,2.1,3.8,3.9,5.6,5.9c4.1,4.6,6.6,10.2,9.2,15.7c-2.5-0.4-3.4-2.4-5.1-3.4c-2.6,2.6-2.6,2.6,0.4,6.9c-2.2-0.9-3.9-0.4-5.7-1
				c-1.8-0.6-3.2,0.7-4.5,2.2c-1.6,1.8,0.5,2,0.7,3c0.2,0.8,1.2,1.5,0.3,2.2c-0.8,0.6-1.7,0.1-2.5-0.2c-2.4-0.7-3.8-3.7-7.1-2.9
				c0.1,1.7,1.8,2.2,2.3,3.6c0.7,2.3,3.1,4.1-1,5.4c-0.3,0.1-0.4,0.7-0.6,1.1c-2.4,4.3-6.1,5-10.2,2.1c-8.9-6.3-18.8-9.2-29.8-8.5
				c-3.3,0.2-6.1,1.6-8.5,3.9c-3.7,3.6-3.5,6.1,0.7,9.2c8.9,6.4,18.6,11.3,28.5,16c7.6,3.6,14.9,8.2,21.7,13.5
				c3.9,3,6.8,6.7,10.3,9.8c1.8,1.7,4.8,3.5,5.5,6.7c0.3,1.4,1.6,2.4,2.5,3.4c3.2,3.3,4,7.4,3.4,11.8c0,0.3-0.4,0.7-0.3,0.8
				c4.6,3.2,2,8.2,2.8,12.3c0.8,4-1.1,8.2-1.8,12.3c-2.1,10.9-7.7,20.1-15,27.9c-6.9,7.4-15.6,12.9-26,14.6c-4.8,0.8-9.5,1.8-14.4,2
				c-1,0-2.1,0.1-2.5,1.4C257,415.2,254.9,415.2,252.9,415.2z"/>
			<path class="st0" d="M40.9,375.4c-0.9,0.8,0.4,2.3-0.9,2.8c-3.5-5.2,2.1-9.6,1-14.8c-1.1,0.4-0.2,2-1.4,2.3c0-9,0-18,0-27
				c2.4,0,1.1,1.9,2.9,2c-0.7-3.2,2.3-6.8-2.1-9.2c-0.4-0.2-0.4-1.8-0.1-2.4c2.5-5.7,0.6-11.6,1.1-17.3c0.4-5.8-4-11.4-0.1-17.1
				c-4.3-2.4,1.5-5,0.4-6c-2.8-2.2-1.8-6-1.5-7c2.3-6.2,0-12.3,0.4-18.3c0.6-10.7,0.5-21.4,0.4-32c0-3.6,1.1-4.6,4.7-4.8
				c18.1-1,36.2,1.1,54.3,1.3c8.3,0.1,16.7,0.1,25.1-1.4c5-0.9,11.5-2.1,17.2,1.8c2.1,1.4,6.5,0.2,9.7,1.5c2.3,0.9,4.6,1.6,7.8,2.5
				c-2.6,1.1-5.6,1.3-5.3,3.8c0.4,2.7,3.3,1.3,5.1,1.7c-0.4,3.5-5.3,4.1-5,7.8c0,0.5-1.4,2.8,1.4,2.2c1.2-0.3,3.3-1,3.7,1
				c0.2,1.5-1.8,1.9-3.1,2.6c-2.2,1.3-5.7,0.3-6.8,3.5c-0.1,0.2,0,0.5,0.1,1c1.9-0.5,3.7-1.6,5.8-0.7c1.9,0.7,4.5,0,3.7,3.8
				c-0.3,1.6,1.8,3.4,4.6,3.7c-2.3,1.6-4.1,0.6-6.2,1.3c0.9,1.4,1.8,2.7,2.8,4.4c-8.7,2.8-17.5,3.4-26.4,4.3
				c-14.4,1.4-28.6,0.5-43,0.5c-5.6,0-6,0.6-4.7,6c0.6,2.8,0.5,5.7-0.2,8.6c-1.1,4.8,0.8,6.9,5.5,6.7c0.3,0,0.6-0.1,0.9,0
				c6.4,2.8,13.1,1.2,19.7,1.5c4.8,0.3,9.7-0.3,14.5,1.1c2.4,0.7,3.7-2.2,6.5-1.8c2.6,0.4,3.8,2.5,5.9,3.2c3,1.2,0.3,3.8,0.9,5.1
				c2.2,4.7-1.4,9.5,0.6,14c0.1,0.3,0.3,0.6,0.2,0.8c-2.9,5.9,1.8,11.6,0.4,17.5c-0.6,2.5-1.6,4.4-3.9,5.2
				c-3.2,1.1-6.3,2.2-10.1,1.8c-7.6-1-15.3-1.7-23-1.4c-5.4,0.2-10.8,1.6-16.3,1.4c-1.4,0-2.3,0.7-2,2.5c0.5,5,2.3,9.9,0.8,15.1
				c-0.4,1.6,0.8,5.1,5,4.7c9.7-1,19.3,0.8,29.1,1c9.5,0.2,19.1,1.3,28.5,0.5c4.1-0.4,4.6,1.1,6.2,3.5c1.7,2.5,2.5,6.1,6.5,6.4
				c2.3,0.2,0.9,2.3,1.6,3.3c0.6,0.9-0.5,2.3-2,2.6c-2.6,0.7-5,1.4-3.8,5.2c0.5,1.7-1.2,2.5-2.5,3.2c-2.1,1.4-1.9,2.2,0.3,3.5
				c5.3,3.2,6.7,7.1,4.7,11.1c-1.1,2.3-6.8,4.5-9.3,3.6c-0.5-0.2-1.1-0.4-1.7-0.3c-4.9,1.2-23.6,1.8-28.4,1.7
				c-10.7-0.4-21.3-0.2-31.9-0.3c-3.4,0-6.9-0.4-10.3-0.5c-3.1-0.2-5.8-0.1-8.8,1.3c-6.3,2.9-13.3,0.3-20,1.1
				c-1.4,0.2-2.9,0-4.3-0.1c-6.2-0.1-6.4-0.1-6.1-6.2c0.3-5.9,1.2-11.7,1.1-17.6C40.5,383.9,41.5,379.8,40.9,375.4z"/>
			<path class="st0" d="M475.1,341.7c0.8,1,2.1,1.8,2.3,2.9c0.4,3-0.6,7.1,4.6,3.2c0.4-0.4,2.7,1,2.1,2.4c-1.5,3.6,2.7,4,3.3,6.5
				c0.2,0.9,0.8-0.5,1.1-0.8c1.2-1.3,1.6-3.3,3.4-4.6c1.8,4.6-0.6,8.3-2.7,13.2c3.2-2.6,5.5-4,7.1-6.4c1.1-1.8,1.1-1.3,3.2-0.6
				c1.3,0.4,3.3,1.2,4.6-0.5c0.7-0.9,1-2.1,2.4-2.3c1.8,3.8-2,5-3.7,8c2.5-1,4.3-2,6.3-1.9c1.4,2.4-0.9,3.9-1.6,5.4
				c-5.3,11.2-12.7,20.7-22.8,28.3c-5.4,4-11.1,7.9-17.1,10.9s-13.1,4-19.8,5.3c-17,3.2-33.6,1.1-49.7-5
				c-9.5-3.5-18.1-8.9-25.9-15.2c-3.9-3.2-7.7-7.3-10.2-12.1c-0.3-0.6-1-1.1-1.5-1.4c-2.2-1.3-4.6-4.6-5.1-7.2
				c-0.1-0.4-0.4-1.1-0.5-1.1c-6.3,0.2-5-5.6-7-8.8c-3.2-4.9-5.1-10.2-6.6-15.8c-2.8-10.5-3.9-21.3-3.8-32
				c0.1-7.6,1.8-15.1,4.1-22.6c2.5-8.6,7.6-15.8,10.2-24.3c0.3-0.9,1.3-1.5,1.8-2.4c1.7-2.6,5.2-3.7,6-7.3c0.3-1.4,1.8-2.6,3.5-2.9
				c0.9-0.1,1.8-0.3,2.3-1.1c3.6-7.2,10.4-10.2,16.8-14.2c6.6-4,13.4-6.9,20.6-9.5c9.5-3.4,19.4-4.2,29.3-4.3
				c19.9-0.2,37,7.4,52.7,19c7.4,5.5,13.9,12,19.4,19.5c0.4,0.6,0.8,1.1,1.8,1.6c2.8,1.1,2.6,2.5,0.2,4.6c-0.8,0.6-0.9,2.4-0.8,3.5
				c0.3,2.2,1.3,4.4-1.8,5.7c-0.6,0.3-1.8,2.9-0.5,4.8c0.5,0.7,0.9,2.2-0.1,2.7s-2.5,0.1-3-1c-1.6-3.2-4-3.2-6.9-2.2
				c-0.6,0.3-1.7,0.4-2.1,0c-4.5-3.9-5-0.8-5.1,2.9c-0.1,3.3-1.5,5.7-4.4,7.4c-3.3,1.9-8.8-0.1-10.9-3.2c-1.7-2.5-3.9-4.8-6.2-6.9
				c-11.8-10.2-25.5-14.3-40.8-13.1c-0.6,0-1.4-0.1-1.7,0.3c-4.5,5.2-11.5,5.8-17,9c-2,1.2-3.7,2.2-5.1,4.3
				c-2.5,3.7-5.4,7.1-8.8,10.2c-2.6,2.5-3.9,6-7,8.1c-0.5,0.4-1,1.4-0.9,1.9c1.3,5.2-0.9,10.2-0.7,15.5c0.3,7.3,4.3,13,5.1,19.9
				c0.4,3.2,2.9,6.6,5,8.8c6.8,7.5,14.1,14.4,25,16.4c5.3,1,10.2,3.3,15.9,3.4c6.7,0.1,13.4-1.4,18.1-5.4
				c6.1-5.3,13.3-8.3,19.8-12.7C473.9,346.7,473,343.5,475.1,341.7z"/>
			<path class="st0" d="M779.3,352.9c-4,0-8.1,0-12.1,0c-4.2-0.1-8,5.3-6.3,9.2c0.6,1.4,1.1,2.7,1.1,4.1c-0.8,8.7,0.2,17.5-1.9,26.2
				c-0.6,2.5-0.5,5.1,0.5,7.2c1.2,2.5,0.4,4.3-0.4,6.7c-1.4,4-2.7,4.1-7.1,4.2c-4.5,0.1-9.4-2.2-13.8,0.3c-0.4,0.2-1.1,0.4-1.2,0.2
				c-4.4-4.3-8.2,0.8-12.4,0.9c-5.4,0.1-8.2-1.4-10.1-6.6c-2.5-7.1-0.7-14.1-0.4-21.1c0.3-8.6,0.4-17.2-1.1-25.8
				c-1-5.8,0.2-11.5,0.2-17.2c0.1-11.9,0.8-23.9,0.8-35.8c0-8.3,0.3-16.6,0.4-24.9c0.1-4.8-0.2-10.2,2.2-14.9c0.5-1-0.4-1.7-0.4-2.4
				c0.1-2.5-4-4.7-0.3-7.4c0.2-0.1-0.1-1.2-0.4-1.6c-1.6-1.7-2.4-2.8,0.6-4c1.4-0.5,1.8-2.2-0.6-2.3c-1.1-0.1-1.8-0.7-1.6-1.6
				c0.9-4.6-0.4-9.5,1.7-13.9c1.6-3.4,4.9-3.6,7.7-3.8c15.5-0.9,31.1-1.5,46.6-2c8.8-0.3,17.7,0.4,26.5,1.5c1,0.1,1.7,0.4,2.2,1.1
				c0.8,1.1,1.5,2.6,1.8-0.2c0-0.1,0.6-0.4,0.7-0.3c2.6,2.2,6,1.7,8.8,2.8c2.9,1.1,6,2.4,8.9,3.6c3.6,1.5,7,3,8.8,6.7
				c0.3,0.6,0.5,1.1,1.1,1.1c7,1.4,9.6,7.6,13.1,12.6c2.4,3.4,4.3,7.3,5.7,11.2c1.6,4.6,2.6,9.3,3.4,14c1.7,10,1.5,20-1.5,29.8
				c-2.5,8.4-7.4,15.5-13.2,21.9c-14.6,15.8-33.4,20.5-54.1,20.4C782,353,780.6,353,779.3,352.9L779.3,352.9z M761.8,310.3
				c1.2,0.4,1.7-1.2,2.7-1.1c8.3,1.8,16.5-0.6,24.9-0.7c6.7-0.1,12.2-3.9,16.7-8.8c0.6-0.6,1.3-1.5,0.7-2.3
				c-1.6-1.9-0.9-4.1-1.1-6.2c-0.4-5.1-1.7-9.5-6.4-12.9c-4.6-3.2-10.1-5.6-14.7-6.7c-4.8-1.1-10.9-0.9-16.3-0.7
				c-5.4,0.2-8.1,2.9-7.5,7.8c0.9,7.4-0.3,14.6,0.1,22C761,303.9,761.9,307.1,761.8,310.3z"/>
			<path class="st0" d="M881.8,369.1c0.9,1.7,1.1,3,2.6,2.9c0.1-0.2,0.4-0.4,0.4-0.5c-3-5.5,0.2-10.9,0.2-16.4
				c-0.1-9.4,0.2-18.6-0.1-28c-0.3-9.2-1-18.4-1.3-27.6c-0.3-7.2,1.1-14.6,0.2-21.8c-1-7.5,1.3-15.1-0.8-22.4
				c-0.2-0.6,0-1.5,0.3-2.1c2.5-6.1,0.9-12.5,1.5-18.7c0.3-2.9,1.1-4.3,4-4.2c7,0.4,13.9-0.7,20.9-0.7c10.4,0,21,0.4,31.4-1.5
				c6-1.1,12.1-0.7,18,0.6c2.9,0.6,6,0.5,8.9,0.4c4.4-0.2,8.7,1,13,1.1c6.7,0.2,12.6,4.1,19.1,5.6c0.6,0.2,1.6,0.4,1.3,1.4
				c-0.5,1.6-2.3,1.6-3.4,2.5c3.2,2.5,3,3.3,0,5.9c-3.2,2.7-7.4,0.9-10.8,2.6c1.1,0.9,2.1,2.5,3.2,1.6c4-3.2,6.5,0.4,9.3,1.9
				c1.1,0.6,0.9,2.9,3,2.5c0.5-0.1,1.6,0.4,1.3,1.3c-0.3,1-1.1,1.2-2,1.4c-1.2,0.2-2.3-1.4-3.6-0.5c-0.3,1.8,1.2,1.3,1.9,1.8
				c2.5,1.4,3.1,3,0.4,4.9c-1.7,1.2-4,1.9-3.4,4.9c0.2,1-1.2,1-2,1.2c-8.1,2.9-16.3,3.4-24.9,2c-4.2-0.7-8.7,0.1-13,0.6
				c-9.4,1.2-18.7,0.5-28.1,0c-2.2-0.1-3.2-0.2-2.8,2.6c0.7,6.1,1.1,12.3,0.9,18.5c-0.1,2,1.1,2.6,2.8,3.9
				c7.6,5.5,15.3,0.4,22.8,1.3c4.2,0.4,8.2,1,12.3-0.2c2.4-0.6,4.4-0.8,6.7-0.1c8.3,2.5,11.9,10,8.1,17.9c-0.6,1.2-0.4,1.6,0.1,2.7
				c2.7,6.6,1.5,13.2,0,19.8c-0.3,1.5-1.5,3.2-3.3,2.9c-4.1-0.5-8.1,1.1-12.4,0.1c-5.5-1.3-10.8,0.8-16.2,1.8c-3,0.5-6.7,3.9-9.4-1
				c-0.3-0.6-1.3-0.1-2,0.2c-1.7,0.7-3.2,0.8-5.1,0.1c-3-1.1-4.4,1.7-4.5,3.6c-0.2,3.8,0.8,7.4-0.4,11.4c-1.3,4,3.1,7.6,7.2,8.4
				c5.1,1,10.2,1.8,15.4,1.6c6.5-0.3,12.8-2.3,19.1-3.5c3.9-0.8,8.1-1.1,11.7,0.9c4.3,2.3,8.3,5,12.5,7.4c1.7,1,2.2,2.7,2.2,3.9
				c-0.4,7.1,0.4,6.9,1.4,11.9c0.5,2.9,0.2,5.5,2.9,7.4c-3.7,2.4-0.5,3.2,1,4.6c1.1,1.1-0.1,1.5-1.1,2c-4.7,2.5-10.2,3.2-14,7.7
				c-1.1,1.2-4.4,0.7-5.5,0.4c-9.6-2.4-18.9,0.8-28.4,0.9c-4.2,0-8.5-0.6-12.7-1c-0.6-0.1-1.4-0.4-1.7-0.2
				c-3.7,2.8-7.2-0.2-10.8-0.2c-0.9,0-1.4-0.4-2.1,0.5c-1.6,2.4-4,1.4-5.2,0.1c-2.1-2.5-4.5-2.2-7.1-2.2c-7.7,0-15.3,0-23,0
				c-6.2,0-7.4-2.1-6.5-8.1c0.4-2.8,1.1-5.8,0.5-8.8c-0.4-1.9-1.7-4.2,0.4-6.2c1-1-0.3-1.1-1.1-1.6c-1.4-0.7-1.2-2.5-0.2-2.8
				c3.2-1.1,1.7-2.9,0.7-4.1C881.5,374.2,881.3,372.3,881.8,369.1z"/>
			<path class="st0" d="M602.6,230.3c8.1-2,11.6,1.6,14.6,9.4c4.8,11.9,10.3,23.7,16.7,35c4.5,7.9,7.6,16.5,11,24.9
				c1.1,2.8,3.4,4.6,4.6,7.3c2.1,4.6,3.8,9.5,6.9,13.4c3.7,4.6,4.7,10,7.2,14.7c3.2,6.3,6.8,12.7,9.3,19.1
				c2.8,7.3,7.1,13.6,9.9,20.6c3.7,9,5.2,18.9,9.5,27.8c1.5,3.2-1.5,4-3.6,4.3c-3,0.3-6.2,0.5-9-0.4c-5.6-1.8-10.7-0.2-16,0.6
				c-4,0.6-8.1,1-12.2,1.4c-2.9,0.4-4.3-2.9-5.7-5.1c-2.5-4.1-3.5-9.2-8-12c-0.3-0.2-0.4-0.7-0.5-1.1c-2.7-7.6-4.8-8.1-13.3-5.3
				c-3.3,1.1-7.4,0.8-11,0.3c-8.6-1.2-17.2-1.1-25.9-1.2c-1.7,0-3.4-0.4-5.1-0.7c-2.2-0.4-4.1,1.1-5.6,1.4c-3.3,0.5-3.6,2.5-4,4.5
				c-0.6,3.2-4.6,3.2-5.3,6.6c-0.9,4.2-5.1,6.6-7.1,10.2c-0.6,1.1-1.4,1.4-2.5,1.1c-5.7-1.5-11.5-1.9-17.3-0.6
				c-0.3,0.1-0.6,0.1-0.9,0c-4.5-3.2-8.6,0.5-12.8,0.9c-5.8,0.4-8.1-1.1-7.8-6.9c0.4-7.3,4.7-13.2,7.5-19.6
				c2.8-6.3,5.4-12.6,7.4-19.2c1.9-6.4,4.5-12.4,7.1-18.5c7.6-17.5,17.2-34,24.8-51.6c3-6.8,8.5-12.5,10.5-19.9
				c2.2-8.2,5.3-16,7.9-24.2c1.8-5.6,5.3-10.2,7.4-15.6c0.5-1.3,2-1.5,3.4-1.5C597.3,230.3,599.9,230.3,602.6,230.3z M604,313.1
				c-3,2.5-1.4,6.2-3,9.1c-3.3,6-5.8,12.5-8.6,18.8c-0.4,1-1.1,2.7,0.7,2.5c6.3-0.8,12.6,0.8,18.8-0.7c5.2-1.2,4.7-0.9,3-6
				c-2-5.6-8-8.6-8.8-15C605.7,319.1,605.8,315.9,604,313.1z"/>
		</g>
		<g>
			<path class="st0" d="M10.1,18.9c3.8-1.4,7.7-1.8,10.8-5.2c1.5-1.7,4.1-0.6,5.9,1c3,2.6,7.4,1.5,10.6,4c0.5,0.4,2.4-0.1,3.6-0.9
				c8.7-6,15.6-3.6,19.3,5.8c4.4,10.9,8,21.9,11.5,33c1,3.1,4.7,5.2,5.8,8.8c3.6,12.2,9,23.6,10.7,36.5c0.7,5.3,4,10.5,7.6,16
				c1.6-7.2,5.9-12.8,6-20c0.1-4.6,2.9-8.9,4.3-13.4c5.6-18.2,11.6-36.3,17.8-54.3c1.5-4.3,2.9-9.3,7.8-11.3
				c3.6-1.5,7.4-2.5,11.4-2.2c0.3,0,0.7,0.3,0.7,0.3c2.7-4.2,7.6-0.2,10.8-2.9c0.5-0.4,3.1-2.1,2.5,1.1c0,0.2,0.4,0.7,0.4,0.7
				c4.4-1.9,6.9,3,10.9,2.6c3.5-0.3,5.5,1.3,4.9,5.3c-0.3,1.7-0.7,3.4,1.3,4.6c6.4,3.5,7.9,10.9,6.9,15.9c-1,5.2,1.5,8.8,1.5,13.1
				c0,2.4,2.9,4,2.7,5.3c-0.5,4.4,3.2,6.4,4.3,9.9c1.1,3.4,2.2,6.8,4.1,9.9c2,3.2,1.8,7.2,2.8,10.8c1.8,6.2,2.5,12.8,7.6,18.2
				c1.6-4.7,2.8-8.8,4.4-12.7c0.4-0.9-0.7-5.5,3.2-2.1c0.9,0.8,1-0.8,1.1-1.2c0.8-8.1,4.9-14.8,8.2-21.9c0.6-1.3,0.8-2.5-0.3-3.9
				c-1.3-1.8,1-7.7,3-7.6c3.2,0.2,1.9-1.5,2.1-3c0.4-5,3.7-8.8,6-13c0.4-0.7,2-1.1,1.5-2.2c-1.8-3.4,0.5-6,1.4-9
				c0.5-1.8,0.9-3.4,0.5-5.4c-0.4-3.1,1.5-5.5,4.2-7.4c4.5-3.1,8.7-6.8,14.2-7.3c3.7-0.3,7.6,0.9,11.5,0.2c5.7-1.1,11.4-2,17-3.2
				c3.2-0.6,2.5,2.8,4.3,4c1.3,0.9,1.5,3.5,3.3,4.7c0.4,0.4,0.7,2,0.4,2.4c-4,3.6-3.2,8.8-4.7,13.3c-0.9,2.5-1.5,5.1-2.9,7.4
				c-1,1.6-2,3.1-1.6,5.7c0.4,2.7-1.8,5.7-4.5,7.7c-3,2.2-5,5-2.4,8.9c0.7,1.1-0.6,1.8-0.7,2.6c-0.9,6.4-6.8,10-8.8,15.3
				c-2.2,5.9-4.7,11.7-6.2,17.9c-2.6,10.8-7.2,21-9.9,31.8c-6.2,5.2-4.3,13.7-8.2,20c-0.9,1.5-0.8,3.6-0.9,5.4
				c-0.7,8.6-6.6,15-9.5,22.6c-0.7,1.9-2.1,3.8-1.9,5.9c0.2,3-2.2,3.8-3.8,3.7c-2.6-0.1-4.1,1.1-5.5,2.7c-1.2,1.3-3,0.6-3.9,1.1
				c-4.2,1.8-8-0.7-11.5-0.3c-2.2,0.3-5.9-1.1-7.7,2c-0.1,0.1-0.8,0.1-0.8,0c-0.8-4.3-3.3-1-4.9-1c-4.6-0.2-9.4-4.1-9.6-8.6
				c-0.1-1.3-0.3-2.5-0.8-3.8c-8.1-19.8-13.4-40.5-20.2-60.7c-2.5-7.4-3.7-15.1-6.4-22.5c-0.5-1.4-1.6-2.6-2.5-4.2
				c-2.2,2.1-3.7,4.2-4,6.8c-0.8,5.8-4.4,10.9-4.6,16.6c-0.2,5-3.2,8.8-4.5,13.3c-1.6,5.4-3.9,10.9-6.4,15.6
				c-3.2,5.7-3.2,11.6-5.9,17.1c1.3,0.4,1.8-2.5,2.5-0.5c1.1,2.8-4.6,13.6-6.5,15.8c-1.3,1.6-3.6-0.4-4.1,1.9
				c-0.7,3.1-1.3,6.1,0.2,9.1c0.4,0.8,0.6,1.6,1.1,3.1c-2.2-1.3-4.4-0.2-5.7-2.4c-0.7-1.1-1.9,0-2.8-0.4c-1.7,5-6.3-0.8-8.5,2.4
				c-2-2.5-3.9,0.9-6,0c-2.4-0.9-3.4-3-5.1-4.6c-0.4,0.1-0.9,0.2-0.9,0.3c0.5,5.9-5.8,3.2-7.7,6c-0.4,0.5-1.1-0.6-1.3-1.2
				c-0.4-0.6-0.4-1.7-1.4-1.3c-6.9,2.9-7.9-3.5-10-6.9c-7.8-12.6-11.4-26.9-15.7-40.9c-1.8-6.1-3.3-12.4-5.9-18.4
				c-4.7-11.6-7.6-23.8-13-35.1c-6.1-12.7-8.7-26.7-13.9-39.6c-3.8-9.2-4.5-19.3-8.1-28.5c-0.5-1.3-0.1-3.4-2.5-3.3
				C10.1,20,10.1,19.4,10.1,18.9z"/>
			<path class="st0" d="M487,103.7c2-8.1,1.5-16.7,1.8-25.1c0.4-13.7,0.8-27.3,1.6-40.9c0.4-7.2,2.1-14.2,0.8-21.4
				c-0.3-1.6,1.3-1.5,2.4-1.8c3-1.2,6.2-1.7,8.7-4.1c0.7-0.7,2.8-1.1,3.2-0.6c2.8,3,7.3,1.9,10.2,4.8c1.9,2,4.1,0,5.6-1.3
				c3.2-2.7,6.8-2.8,10.6-2c3,0.6,5.4,3.9,5.2,5.3c-1.3,6.9,1.2,13.7,0,20.6c-0.9,4.7,0.2,9.7-0.3,14.6c-0.3,2.8,2.5,5.1,2.2,8.5
				c-0.8,8.8,1.8,17.9-0.5,26.7c-2.2,8.4-1.3,16.5,0.1,24.6c0.5,3.2-1.8,5.5-1.1,9.1c0.8,4.3-0.2,9.3,0.2,13.8
				c0.7,10.4-2.2,20.6-1.5,30.9c0.3,3.5,3.1,6.3,1.8,10.2c-0.5,1.7-0.3,3.7-1.7,5.2c-2.4,2.5-1,5.8-1.3,8.9c-3.7-1.8-4.2,0-4.1,3.1
				c0.2,5.8,0,5.8-5.7,5.9c-1.1,0-2-0.1-3.1,0c-6.7,1.1-11.8-1-15.4-6.8c-1.4-2.3-3.4-4.2-5.9-0.8c-0.1,0.1-0.2,0.2-0.4,0.3
				c-1.1-3.6-5.7,0.2-7-3.3c-1.6-4.4-3.4-8.7-3.5-13.5c0-2.2-1.1-3.8-2.5-5.3c-8.9-9.6-17.9-19.3-26.6-29
				c-8-8.9-15.5-18.3-24.1-26.6c-1.7-1.6-3.2-3.2-5.6-4.5c0.5,5.3-2.7,9.6-2.4,14.8c0.2,2.2-0.1,4.1,1.1,6.1
				c1.7,2.7-0.9,5.9-0.4,8.1c0.9,3.7-0.4,7.1,0.1,10.6c1.5,11.3-2.2,22.5-0.7,33.9c0.4,3.2,2.3,6.2,1,9.5c-1.3,3.2-3.1,6-2.8,9.8
				c0.2,1.8-2.5,0.7-3.7,0.3c-0.8-0.4-1.4-2.2-2.3-1.5c-3.8,3.1-7.4-0.3-11.1,0.1c-0.5,0.1-1.5-0.4-1.7-0.1c-3.8,5.5-4.1-1-6.7-1.8
				c-0.9,4.6-5.9,2.9-8.8,5.1c-0.3,0.2-1.1,0.3-1.1,0.3c-1-4.4-4.6,0.8-5.6-1.5c-0.9-2.1-2.3-3.9-2.9-6.1c-2.8-10.6-1.8-21.4-1.3-32
				c0.3-5.5,1.1-11.3,1-16.6c-0.1-5.6-0.5-11.4-1.3-17c-0.4-2.5-0.9-4.9-0.6-7.3c1.3-11.8,0.6-23.6,0.7-35.4
				c0.3-23.8,0.1-47.5,0.1-71.3c0-5.5,0.2-5.6,5.5-5.7c1.1,0,2.4,0.2,3.5,0c9.7-2.1,16.3,2.9,22.1,9.7c11.9,13.7,23.8,27.5,35.9,41
				c7.4,8.3,15.3,16,22.5,24.5C476.5,92.2,481.4,98.5,487,103.7z"/>
			<path class="st0" d="M996.3,203.6c-5.8-2.1-10.8-0.4-15.6-1.3c-3.5-0.7-7.4,2.5-10.8-1.1c-1.3,3.1-4.3,2-6.5,2.5
				c-4.5,0.8-9.2,0.4-12.1-3.2c-3.5-4.4-7.7-8.2-9.6-14c-2.8-8.5-7.4-16.3-10.9-24.4c-3.2-7.2-7.5-13.6-11.5-20.2
				c-0.7-1.1-1.5-1.6-2.8-1.6c-3.1-0.1-6-0.4-9.1-0.4c-3.8-0.1-5.5,1.8-5.3,5.6c0.4,9,1.4,18-0.9,27c-0.5,2.3-1.1,5.3,1.8,7.1
				c0.4,0.3,0.7,1.3,0.5,1.4c-3,2.4-0.6,5.2-0.8,7.7c-0.2,2.2-0.2,4.2-1.8,6.1c-1.8,2.3-1.6,5.1-1.1,7.5c-3.4,1-6.4-4.5-9.8-0.2
				c-0.3,0.3-1.2,0.4-1.7,0.1c-3.2-2.3-5.9-3-9.5,0c-1.6,1.3-2.7-2.7-5-3.9c-0.6,5.5-6.2,3.1-8.7,5.8c-1.6-2.5-4.7-0.4-6-1.5
				c-1.6-1.5-2.8-3.8-3.5-6.3c-3-10.5-1.8-21.1-1.5-31.7c0.2-6.8,0.4-13.7-0.9-20.6c-1.1-5.6,0.2-11.7,0.4-17.6
				c0.4-7.8,0.5-15.5,0.3-23.3c-0.3-7.2,0.9-14.4,0.4-21.6c-0.9-11.6,2.3-22.8,2-34.1c0-1.4-0.4-2.9-0.9-4.1
				c-0.5-1.2-1.4-2.4,0.6-3.1c1.1-0.4,1.1-1.5,0.5-2.1c-1.8-1.8-2.9-3.2,0.5-4.5c0.9-0.4,0.9-1.6-0.4-1.8c-1.1-0.3-2.3-0.5-2-1.8
				c1-5.3-1-11.1,2.7-15.8c2.8-3.7,7.5-2.3,11.4-2.9c7.6-1.2,15.4-0.3,23.1-1.3c6.2-0.8,12.5,0.1,18.9-0.4
				c7.2-0.6,14.5-0.3,21.6,0.7c6.2,0.8,12.3,2.1,18.5,3.8c4.5,1.1,8.3,3.8,13,4.4c3.2,0.4,6.4,2.5,7.4,6.1c0.4,1.8,1.8,2.1,2.8,2
				c2.1-0.2,3.7,0.9,4.3,2.3c1.9,4.3,6.6,6.2,8.6,10.4c2.1,4.4,5.3,8.3,6.5,12.9c4.6,17.1,6.7,34.3-1.3,51.1
				c-2.5,5.3-5.9,10.4-10.1,14.8c-1.8,1.8-3.4,3.9-4.8,6c-1.2,1.9-2.7,3.3-5.5,3.6c-5.4,0.4-8,6.1-4.6,10.4
				c2.8,3.6,3.9,7.6,4.8,11.8c0.3,1.2,0.4,2.7,1.2,3.6c6.7,7.2,7.7,17.3,13.2,25c1.1,1.7,0.9,4.3,1.8,6.1c1,1.8,0.6,5.3,4.4,4.6
				c-0.1,3.2,3.4,5.4,2.7,8.6C995,199.6,995.2,201.1,996.3,203.6z M926.2,58.7c-2.5-5.3-6.8-3.4-10.8-3.4c-2,0-3.7,1.1-5.8,0.6
				c-4.5-1.1-6.9,0.8-7.4,5.3c-1.1,10.1,0,20,1.5,29.8c0.4,2.3,1.5,4.3,4,4.2c8.1-0.3,16.1-0.7,24.2-1.3c7.2-0.5,12.6-4.6,17.3-9.6
				c0.6-0.6,1.3-1.1,0.6-2.5c-1.8-3.7-1.8-7.8-2.1-11.7c-0.1-1.3,0-3.2-0.7-3.7c-4.2-2.6-7.7-6.4-12.8-7.4c-1.7-0.4-3.2-1.1-4.9-1.7
				c-1.1-0.4-0.6-3.2-2.5-2C926.1,55.7,926.4,57.6,926.2,58.7z"/>
			<path class="st0" d="M832.2,162c2.4,0.4,4.3-0.8,6.6,1.1c-0.7,0.3-1.1,0.4-1.5,0.6c-1.3,0.7-4.1-0.8-3.2,3c1.3,6-4.6,2.7-6.6,4.6
				c-0.5,0.4-1.9-0.6-2.8,0.9c3.2,1.8,7.7,1.2,9.8,4.9c-1.5,1.8-3.9-0.4-5.1,1.8c-1.5,3,0.1,4.3,2.5,5.4c0.7,0.4,2.7-1,2.1,1.3
				c-0.4,1.1,0.3,3.2-2.4,2.6c-1.2-0.3-2.5,0.5-2.5,1.8c0,1.1,0.7,2.4,2.4,2.3c2.6-0.1,1.1,3.6,3.6,3.9c-1.9,0.4-3.5,0.1-5.3-0.3
				c-4.6-0.8-9,0.4-13.3,2.2c-1.7,0.7-3.7,1.1-5.4,1c-4.7-0.4-9.5-0.2-14.2-0.9c-7.3-1.1-15-1.2-22.5-0.7
				c-11.6,0.8-23.3,1.5-34.9,1.8c-6.9,0.2-14.1-0.5-21.1-0.9c-2.8-0.2-2.4-2.4-2.4-4.2c-0.1-10.7,0-21.4-0.4-32
				c-0.2-5.2,1.5-10.7,0.2-15.3c-1.3-4.7,0.4-9.1-0.6-13.8c-1.1-5.8-0.9-12.5,1.4-18.4c1.4-3.6-0.4-6.7-0.1-10
				c0.5-5.2-0.7-10.4,1-15.6c0.2-0.5,1.6-3.7-1.9-2.4c-0.6,0.3-0.5-1.4-0.7-2.2c-1.2-8.3-0.1-16.8-1-25c-0.9-8.5,2.8-16.6,1.5-25.1
				c-0.8-5.4-0.8-11-1.2-16.5c-0.3-3.3,1.1-4.8,4.6-4.6c2.7,0.3,5.5,0.7,8.1,0.4c12.2-1.2,23.9,3.3,36.1,2.1
				c14.1-1.5,28.2,0.3,42.2-0.5c6.7-0.4,13.5,0.5,20.2,0.8c2.2,0.1,4.1-0.3,6.3,1.2c4.8,3.2,6.2,6.5,2.8,11.2
				c-2.7,3.8-1.8,7.7-1.9,11.6c0,2.1,2.4,2.6,3.9,3.6c1.1,0.7,4.4,1.1,0.4,2.8c1.9,3.3-2.2,2.2-2.5,3.4c-0.6,2.3-2.2,3.5-3.9,4.9
				c-0.1,0.1-0.2,0.3-0.3,0.4c-3.2,3.8-3.2,3.6-8.8,3.8c-14.6,0.4-29.3,0.5-43.9,1.8c-3.7,0.4-7,0-10.6,0c-4.6-0.1-5.8,1.8-5,6.4
				c0.7,3.9,0.5,8.1-0.8,12c-0.8,2.3-0.2,3.8,2.1,3.9c6.6,0.3,13.1,1.5,19.8,1.3c5.7-0.2,11.3-0.4,17-0.7c3.1-0.2,5.9-1.4,9.2,0.2
				c6.7,3.1,7.5,3.8,6.8,11.3c-0.3,2.7-1.9,6.3-1.4,7.7c1.5,4-0.5,7.9,0.6,11.6c1.1,3.9-0.6,8,0.4,12.2c0.5,1.9-3.9,2.9-6.1,3.4
				c-1.7,0.4-4.3,2.4-6-0.9c-0.4-0.8-2.2-0.3-3.3-0.1c-7.6,1.2-15.2,1.9-22.8,0.5c-1.4-0.3-2.5,0-3.7,0.6c-2.1,1.1-4.4,1.5-6.7,1.4
				c-5.3-0.2-6.9,1.8-5.9,6.8c0.4,2.3,2.9,5.2-1.1,7.1c-0.2,0.1,0.9,4,0.8,6.4c0,1.4,2.4,1,3.8,0.8c9.4-0.7,18.8-1.1,28.1-0.7
				c7.5,0.4,15.2,0.6,22.8,1.9c4.9,0.8,10,0.5,14.7,2.3c1.5,0.6,3.9-0.6,4.6,1.4C835.6,159.4,833.5,160.4,832.2,162z"/>
			<path class="st0" d="M577.1,61c-7.4,1.5-13.3-1.5-19.9-3c3.1-4.8-0.7-10.6,1.9-15.7c0.1-0.2,0-0.5-0.1-0.9
				c-0.8-4.9-0.8-4.9,2.1-7.9c-3.3-1.9-3.9-6.6-4-10.2c-0.2-7.9,5.5-7.2,10.2-8.1c12.6-2.5,25.1-0.4,37.7,0.9c3.1,0.4,6.4-1.6,9.7-1
				c10.9,1.8,21.6-1.5,32.5-0.7c4.6,0.4,9.4,1.2,13.8,0.5c8.2-1.3,15.9,2.2,24.1,1.8c1.3-0.1,2.6,0.3,3.9-0.3
				c1.6-0.8,1.9,0.2,2.3,1.5c1.1,4,2.9,8,3.2,12c0.2,2.8-1.2,6.1-2.8,8.6c-1.5,2.2-1.1,3.9-0.1,5.5c1.7,2.5,2,5.3,2.4,8.2
				c0.6,5.1-2.2,7.6-7.4,7.8c-7.7,0.3-15.5-0.2-23.2,0.2c-4.7,0.3-9.3,2.8-14.4,1.7c-1.2-0.3-1.1,1.4-1.1,2.4
				c-0.4,6.9,0.5,13.8-0.8,20.7c-0.1,0.5-0.9,1.6,1,1.4c1.7-0.2,1.5,1.8,1.5,3.1c0,6.7,0,13.3-0.1,20c0,2.6-0.3,2.5-2.8,4.6
				c-1.2,1-0.7,2.8-0.4,4.1c1.1,4.1,1.4,8.3,2.3,12.5c0.7,3.1-0.4,6.7-0.5,9.9c-0.2,9.9-0.2,19.8-1.4,29.6c-0.3,2.5,0.8,2.6,1.9,2.4
				c0.7,6.7-2,12.9-3.6,19.5c-0.9-0.4-2.6,0.7-3.9-1c-0.2-0.2-0.6-0.4-0.7-0.4c-4.4,3.6-9.5-3.2-14,1.1c-1.1,1.1-2.8,0.4-3.6-1.1
				c-0.7-1.1-1.2-2.3-2.9-2.4c0,1.4-0.6,3.7-1.3,3.6c-2.8-0.5-4.9,1.7-7.5,1.3c-6.6-0.8-7.2-5.4-8.4-10.8c-2.5-10.4-0.5-20.6,0-30.8
				c0.2-3.1,0.1-6.2,1.2-9.4c0.5-1.4-1.8-3.6-1.5-6c0.8-9.7,0.4-19.4-0.4-29.1c-0.6-7.3,0.4-14.6,0.6-21.9c0-0.6,0.4-1.2,0.2-1.7
				c-2.4-5.9,0.8-11.4,1.2-17.1c0.4-4.6,0-5.9-4.5-5.3c-7.3,0.8-14.3-1.4-21.4-1.4C574.3,59.4,577.1,61.1,577.1,61z"/>
			<path class="st0" d="M354.8,19.2c1.1,5.7,0.3,11.4,0.2,17.1c0,1.7,2.4,4,2.4,6.7c0,5.5-0.4,11-0.9,16.5
				c-0.7,8.8-0.4,17.8-0.6,26.6c0,1-0.4,1.9-0.6,2.9c-0.4,1.7-1.3,3.7-0.8,5.1c3.1,7.8,0.6,15.6,0.3,23.4c0,0.9-0.2,1.7,1.1,1.8
				c1.3,0.1,1.5,1.2,1.4,2.3c-0.4,6.6,1.8,13.5-1.9,19.8c-1.1,1.8-0.4,3.8,0.4,5.4c1.3,3.2,0.9,6.4,0.4,9.7
				c-0.9,6.7-0.3,13.5-1.7,20c-0.5,2.4,1,2.5,2.5,2.7c-2.4,2.3,0.7,5.7-1.7,8c-0.1,0.1-0.2,0.2-0.3,0.4c-1.8,3.7-3.9,4.2-8.5,4.6
				c-4.9,0.4-10.2-3-14.9,0.5c-0.1,0.1-0.4,0-0.4,0c-4.5-3.2-8.6,0.5-12.9,0.9c-6.5,0.5-8.8-0.7-11.2-6.7c-2.5-6.1-1-12.2-0.5-18.2
				c0.8-9.9,1.3-19.7-0.1-29.6c-1-7.2,0.4-14.4,0.4-21.5c0-4.8,0.7-9.6-0.4-14.5c-1.8-8.1-0.1-16.3,1.1-24.3c0.4-2.5-1.6-3.9-1.1-6
				c2.4-8.3-1-16.5-0.4-24.8c0.6-8.1,0.4-16.1,2-24c0.1-0.4,0.4-0.9,0.3-1.2c-1.8-6.5,2.5-7.3,7.3-8.3c6.2-1.3,12-0.8,17.8,1.5
				c1.8,0.7,3.7-0.2,5.4-0.9c3.6-1.5,7.4-1.8,11-1.1C352.5,14.3,356.2,14.7,354.8,19.2z"/>
		</g>
	</g>
</g>
</svg>
