<?xml version="1.0" encoding="utf-8"?>
<!-- Generator: Adobe Illustrator 18.1.1, SVG Export Plug-In . SVG Version: 6.00 Build 0)  -->
<svg version="1.1" id="レイヤー_1" xmlns="http://www.w3.org/2000/svg" xmlns:xlink="http://www.w3.org/1999/xlink" x="0px"
	 y="0px" viewBox="0 0 161.8 156" enable-background="new 0 0 161.8 156" xml:space="preserve">
<g>
	<path fill="#FFFFFF" d="M99,8c-0.2-0.1-0.4-0.1-0.6,0c-0.6,0.5-1.1,0.7-1.6,0.8c-0.4,0-0.7,0.2-1,0.5l-0.4,0.4
		c0,0.1-0.2,0.2-0.8,0.2c-0.1,0.1-0.4,0.2-0.3,0.4c0.2,0.2,0.4,0.5,0.5,0.8c0.1,0.6,0,1.2-0.5,1.8c-0.2,0.2-0.5,0.3-0.9,0.3
		c-0.2,0-0.4-0.1-0.4-0.4c0-0.2,0.1-0.4,0.3-0.5c0.4-0.5,0.4-0.8,0-1.2c-0.3-0.1-0.6-0.1-0.9,0c-0.6,0.2-0.6,0.7-0.3,1.2
		c0,0.1,0,0.3-0.1,0.5c-0.1,0.3-0.4,0.4-0.7,0.3c-0.5-0.3-0.8-0.8-0.7-1.6c0.2-0.4,0.5-0.7,0.8-1c-0.3-0.6-0.8-1-1.3-1.3
		c-0.6,0.3-1,0.7-1.4,1.3c0.3,0.3,0.5,0.6,0.7,1c0.1,0.5,0,1-0.3,1.4c-0.4,0.2-0.7,0.4-1.1,0.2c-0.3-0.2-0.3-0.5-0.1-0.8
		c0.3-0.4,0.2-0.8-0.1-1.1c-0.3-0.2-0.6-0.2-0.9,0c-0.4,0.3-0.3,0.6,0,1.1c0,0.2,0,0.4,0,0.5c-0.3,0.6-0.7,0.5-1.2,0.3
		c-0.9-0.8-0.8-1.7,0.2-2.6c0.2-0.3,0.1-0.6-0.3-0.7c-0.7-0.2-1.4-0.5-1.8-1.1c-0.4-0.9-1-0.9-1.4,0c-0.4,0.6-1.1,0.9-1.8,1.1
		c-0.4,0.1-0.5,0.4-0.3,0.6c1.1,0.9,1.1,1.7,0.2,2.6c-0.5,0.2-0.9,0.2-1.2-0.3c-0.1-0.1-0.1-0.3,0-0.5c0.3-0.4,0.3-0.8,0-1.1
		c-0.3-0.2-0.6-0.2-0.9,0c-0.3,0.3-0.3,0.7-0.1,1.1c0.1,0.3,0.1,0.6-0.1,0.8c-0.4,0.2-0.7,0.1-1.1-0.1c-0.4-0.5-0.4-1-0.4-1.4
		c0.1-0.4,0.4-0.7,0.6-1.1c-0.3-0.5-0.7-1-1.3-1.3c-0.5,0.3-1,0.7-1.3,1.3c0.3,0.3,0.6,0.6,0.8,1.1c0.1,0.8-0.1,1.3-0.7,1.6
		c-0.4,0.1-0.6,0-0.7-0.3c0-0.2-0.1-0.3-0.1-0.5c0.4-0.5,0.2-1-0.3-1.2c-0.3-0.1-0.6-0.1-0.9,0c-0.3,0.4-0.4,0.7,0,1.2
		c0.2,0.1,0.3,0.3,0.3,0.5c0,0.2-0.2,0.4-0.4,0.4c-0.4,0-0.6-0.1-0.8-0.3c-0.6-0.6-0.7-1.2-0.6-1.9c0.1-0.3,0.3-0.5,0.5-0.8
		c0.1-0.2-0.2-0.4-0.3-0.4c-0.6-0.1-0.7-0.2-0.7-0.2l-0.4-0.4c-0.2-0.2-0.6-0.4-1-0.4c-0.4,0-1-0.3-1.6-0.8c-0.1-0.1-0.3-0.1-0.5,0
		C67,8.1,67,8.3,67.1,8.5c2.2,1.9,2.9,4.2,3.1,5.4H96c0.2-1.2,0.9-3.4,3.1-5.3C99.2,8.3,99.2,8.1,99,8"/>
	<path fill="#FFFFFF" d="M69,7.6C69.7,7.8,70.4,8,71,8.4c0.4,0.1,0.8,0,1.1-0.2c1.6-1.2,3.3-2.3,5.4-2.9c0.3-0.1,0.5,0,0.4,0.3
		c-0.8,0.6-1.4,1.4-1.8,2.5c0,0.3,0.2,0.5,0.7,0.4c0.4-0.1,0.6-0.1,0.9,0.1c0.3,0.1,0.6,0,0.8-0.5c0.2-1.4,1.1-2.3,2.3-3
		c0.6-0.1,0.8,0.2,0.7,0.7c-0.5,0.5-0.8,1-1,1.6c0,0.5,0.3,0.7,0.8,0.6c0.3,0,0.5-0.2,0.7-0.7c0.5-0.8,1.7-0.8,2.1,0
		c0.2,0.5,0.4,0.7,0.6,0.7c0.5,0.1,0.8,0,0.8-0.6c-0.1-0.6-0.5-1.1-1-1.6C84.6,5.2,84.8,5,85.4,5c1.2,0.7,2.1,1.6,2.3,3
		c0.2,0.5,0.5,0.6,0.7,0.5c0.2-0.1,0.5-0.2,0.9-0.1c0.5,0,0.7-0.1,0.7-0.4c-0.4-1.1-1-1.9-1.8-2.5c-0.1-0.3,0.1-0.4,0.4-0.3
		c2.1,0.6,3.9,1.7,5.4,2.9c0.3,0.2,0.7,0.3,1.1,0.2c0.6-0.4,1.2-0.6,1.9-0.7c0.4-0.1,0.6-0.4,0.5-0.9c-0.3-0.5-0.8-0.7-1.4-0.8
		c-0.2,0-0.5,0-0.6-0.2c-0.4-0.7-1.1-0.9-2.1-0.8c-0.5-0.5-1.1-0.6-1.8-0.6c-0.6-0.6-1.3-0.7-2-0.6c-0.8-0.5-1.5-0.7-2.1-0.4
		c-1-0.4-1.8-0.2-2.6,0.2c-0.2-0.5-0.6-0.9-1.2-1.1V1.9h0.9V0.9h-0.9V0h-1.6v0.9h-0.9v0.9h0.9v0.6c-0.6,0.2-1,0.6-1.2,1.1
		c-0.7-0.5-1.6-0.6-2.6-0.2c-0.6-0.3-1.3-0.1-2.1,0.4c-0.7-0.1-1.4-0.1-2,0.6c-0.7,0-1.3,0.1-1.8,0.6c-1-0.1-1.7,0.1-2.1,0.8
		C70.5,5.9,70.2,6,70,5.9c-0.6,0.1-1.1,0.4-1.4,0.8C68.5,7.2,68.6,7.5,69,7.6 M83.1,3C83.6,3,84,3.5,84,4.1c0,0.6-0.4,1.2-0.9,1.2
		c-0.5,0-0.9-0.5-0.9-1.2C82.2,3.5,82.6,3,83.1,3"/>
	<path fill="#FFFFFF" d="M70.2,18H96v-2.4H70.2V18z M93.1,16.2c0.4,0,0.7,0.3,0.7,0.7c0,0.4-0.3,0.7-0.7,0.7c-0.4,0-0.7-0.3-0.7-0.7
		C92.4,16.5,92.7,16.2,93.1,16.2 M88.2,16.2c0.4,0,0.7,0.3,0.7,0.7c0,0.4-0.3,0.7-0.7,0.7c-0.4,0-0.7-0.3-0.7-0.7
		C87.5,16.5,87.8,16.2,88.2,16.2 M83.1,16.2c0.4,0,0.7,0.3,0.7,0.7c0,0.4-0.3,0.7-0.7,0.7c-0.4,0-0.7-0.3-0.7-0.7
		C82.4,16.5,82.7,16.2,83.1,16.2 M78,16.2c0.4,0,0.7,0.3,0.7,0.7c0,0.4-0.3,0.7-0.7,0.7c-0.4,0-0.7-0.3-0.7-0.7
		C77.3,16.5,77.6,16.2,78,16.2 M73.1,16.2c0.4,0,0.7,0.3,0.7,0.7c0,0.4-0.3,0.7-0.7,0.7c-0.4,0-0.7-0.3-0.7-0.7
		C72.3,16.5,72.7,16.2,73.1,16.2"/>
	<rect x="70.2" y="14.4" fill="#FFFFFF" width="25.8" height="0.6"/>
	<path fill="#FFFFFF" d="M127.2,42.8l-2.7-2.6c0,0,0,0-0.1,0c0,0-0.1,0-0.1,0l-2.4,2.6c-0.5-0.4-3.5-2.8-6.3-3.3
		c0.1-0.1,0.2-0.2,0.3-0.3c0.3-0.4,0.4-0.5,0.4-0.5c0,0,0,0,0-0.1v-10c0,0,0,0,0-0.1c-0.1-0.2-0.5-0.7-0.6-1.1
		c0.5-0.1,3.3-0.7,5.9-2.2c0.4,0.1,3.2,1.1,6,2v10.7c0,0.4,0.4,1.3,1.5,1.5c0.6,0.1,1,0.2,1.2,0.2L127.2,42.8z M120.2,37.4
		C120.2,37.5,120.3,37.5,120.2,37.4c0.1,0.1,1.9,0.8,3.1,1.7c0,0,0.1,0,0.1,0c0,0,0-0.1,0-0.1v-9.9c0,0,0-0.1-0.1-0.1
		c-1.4-0.5-2.9-1.1-3.1-1.2c0,0-0.1,0-0.1,0c0,0-0.1,0.1-0.1,0.1V37.4z M114.5,39.7c-2.1,1.3-2.9,2.5-3.2,3c-0.2-0.5-1-1.7-3.1-3
		h0.9c0.1,0,0.1,0,0.1-0.1V29.2c0,0,0-0.1,0-0.1l-1.4-1.1c0,0-0.1,0-0.1,0l-1.9,1.1c0,0-0.1,0-0.1,0.1v10.4c0,0.1,0,0.1,0.1,0.1h0.9
		c-2.1,1.3-2.9,2.5-3.2,3c-0.3-0.5-1.1-1.7-3.2-3l0.9,0c0,0,0.1,0,0.1,0c0,0,0,0,0-0.1V29.3c0-0.6-0.5-1.7-1.6-1.9l3.2-2
		c0.3,0.2,2.3,1.4,2.6,1.9c0,0,0,0,0,0c0.1,0,0.8,0.2,3.7-1.7l0.5-0.3c0.4,0.2,2.8,1.7,4.1,2.2c0,0,0,0,0,0.1c0,0.3-0.3,0.9-0.4,1.1
		c0,0,0,0,0,0l0,10.8c0,0.1,0,0.1,0.1,0.1H114.5z M98.8,39.7c-0.9,0.2-4.1,0.9-6.1,3.1c-0.4-0.5-2.7-2.7-7.3-3.2
		c0.1-0.1,0.2-0.2,0.3-0.4c0.6-0.8,0.8-0.9,0.8-0.9c0,0,0.1-0.1,0.1-0.1v-9.5c0,0,0,0,0-0.1c-0.2-0.2-0.5-0.7-0.6-1.1
		c0.6-0.1,3.9-0.4,6.1-2.2c0.5,0.2,4.2,1.8,6.7,2.2c-0.2,0.2-0.6,0.7-0.6,1.1v9.8C98.1,38.6,98.3,39.3,98.8,39.7 M90.3,37.9
		C90.3,37.9,90.3,37.9,90.3,37.9c0.1,0.1,0.7,0.7,3.5,1.3c0,0,0.1,0,0.1,0c0,0,0,0,0-0.1v-9.9c0,0,0-0.1-0.1-0.1
		c-2.2-0.9-3.4-1.3-3.5-1.2c0,0-0.1,0.1-0.1,0.1V37.9z M85.3,27.6c-0.1,0.5-0.5,1.2-1.3,1.5c-0.9,0.4-2.2,0.1-3.8-0.7c0,0,0,0,0,0
		c0,0-0.6-0.1-0.8,0.1c-0.1,0.1-0.2,0.2-0.2,0.4v10.8c0,0.1,0,0.1,0.1,0.1h0.9c-2.1,1.3-2.9,2.5-3.2,3c-0.3-0.5-1.1-1.7-3.2-3l0.9,0
		c0,0,0,0,0.1,0c0,0,0,0,0-0.1V29.3c0-0.6-0.5-1.7-1.6-1.9l3.3-2c0.3,0.2,2.1,1.3,2.5,1.8v0c0,0,0,0.1,0,0.1c0.1,0,0.1,0,2.6-1.6
		l0.4-0.3C82.6,25.7,84.1,27.3,85.3,27.6 M72.1,39.7c-0.9,0.2-4.1,0.9-6.1,3.1c-0.4-0.5-2.7-2.7-7.3-3.2c0.1-0.1,0.1-0.2,0.3-0.4
		c0.6-0.8,0.8-0.9,0.9-0.9c0,0,0.1-0.1,0.1-0.1v-9.5c0,0,0,0,0-0.1c-0.2-0.2-0.5-0.7-0.6-1.1c0.6-0.1,3.9-0.4,6.1-2.2
		c0.5,0.2,4.2,1.8,6.7,2.2c-0.2,0.2-0.6,0.7-0.6,1.1v9.8C71.4,38.6,71.6,39.3,72.1,39.7 M63.6,37.9C63.6,37.9,63.6,37.9,63.6,37.9
		c0,0.1,0.7,0.7,3.5,1.3c0,0,0.1,0,0.1,0c0,0,0,0,0-0.1v-9.9c0,0,0-0.1-0.1-0.1c-2.2-0.9-3.4-1.3-3.5-1.2c0,0-0.1,0.1-0.1,0.1V37.9z
		 M62.9,21.9c-1.4,1.5-3.8,1.7-4.8,1.7c-0.4,0-0.6,0-0.6,0c0,0-0.1,0-0.1,0c0,0,0,0,0,0.1v19c0,0,0,0.1,0,0.1c0,0,0.1,0,0.1,0
		c0,0,0.6-0.3,1.1-0.4c0,0,0.1,0,0.1,0c0.2,0,0.3,0.2,0.3,0.3c0,0.1,0,0.2-0.1,0.2c-0.4,0.3-1.4,1.1-1.4,1.1c0,0,0,0,0,0.1v4.6
		c0,0.9-0.9,1.5-1.9,1.5c-1.1,0-1.9-0.7-1.9-1.5c0-0.8,0.9-1.5,1.9-1.5c0,0,0,0,0.1,0c0.3,0,0.4-0.2,0.4-0.2v-2c0,0,0-0.1,0-0.1
		c0,0-0.1,0-0.1,0c-3.6,2-8.4,2-9,2h0c-8.5,0-14.2-5.1-14.2-12.8c0-3.7,2-7.6,5.4-10.6c3.2-2.8,7.4-4.5,11.1-4.5v0.3
		c-2.4,0.9-4,2.3-4,2.3c-4.3,3.7-5.2,6.7-5.2,9.9c0,0.6,0,1.2,0.1,1.9c0.4,4.7,5.3,7.9,5.4,8c0,0,0.1,0,0.1,0l1.2-1.2c0,0,0,0,0-0.1
		V25.1c0,0,0,0,0,0l-0.4-1c5.8-1.5,9.8-5.5,10.5-6.2C58.5,21.2,62,21.8,62.9,21.9 M47.5,42.3C47.5,42.4,47.5,42.4,47.5,42.3
		c0.1,0.1,1.2,1,5,1c1,0,2.1-0.1,3.4-0.2c0.1,0,0.1,0,0.1-0.1V23.4c0,0,0-0.1,0-0.1c-0.1,0-2-1.3-2.7-1.3c-0.1,0-0.2,0-0.2,0.1
		c0,0-0.1,0.1-0.1,0.2v15.4L47.5,42.3C47.5,42.3,47.5,42.3,47.5,42.3"/>
	<path fill="#FFFFFF" d="M149.5,67.1c0.1-0.4-0.4-0.4-0.6-0.6C149.1,66.8,149.2,67,149.5,67.1 M150,67.1v0.2h0.3
		C150.4,67.1,150.2,67,150,67.1 M161.2,98.1l-1.9,0c0.8,0.8-0.5,1.2-0.2,0l-0.5,0l-2.9,0.1l-1.8-0.1c0,0.1-0.1,0.1-0.1,0l-2.9-0.1
		H149c0.1,0,0.1,0.1,0.3,0.2c-0.7,0-0.8,0.5-0.8-0.2h-1.2c0,0.3-0.2,0.3-0.3,0h-1.8c-0.1,0.4-0.4,0.5-0.3,0h-2.6
		c0.1,0.2-0.1,0.6-0.6,1.2c0-0.5-0.1-0.6-0.2-0.6l0.1,21.4l0.1,5.5l-0.2,4.6v3.6l0.3,0.2l1.3-0.2h0.7l15.1,0.2h1.7l0.9-0.2v-6.7
		l-0.2,0.1l-1.3-0.1l-9.1,0.1l-1.6-0.1v-7.4h9.9l0.1-0.1v-0.6l-0.1-0.6v-1.1l-0.1-1.6v-1l0.1-1.1v-0.7l-0.3,0.1l-1,0.2l-3.8-0.2
		h-4.9v-7.9l5.1,0l3.6-0.1h3.5l0.1-1.4v-5C161.3,98.4,161.1,98.3,161.2,98.1 M144.4,101.3C145.6,102.4,144,103.1,144.4,101.3
		 M147.5,98.2c0.1,0.1,0.5,0.1,0.3,0.5C147.5,98.6,146.9,98.3,147.5,98.2 M145.7,99.2C146,97.8,147.2,99.2,145.7,99.2 M145.7,99.8
		C146.1,100.3,145.7,100.6,145.7,99.8 M145.7,101.1C147.9,101.1,145.7,102.8,145.7,101.1 M146.7,101.8
		C147.2,102.4,146.7,102.7,146.7,101.8 M147,98.7c0.5,0.5,0.5,0.6,0,1.3V98.7z M147.2,101.3h0.5
		C147.4,101.7,147.6,101.6,147.2,101.3 M147.7,99.5C149.7,99.5,146.8,102,147.7,99.5 M148.3,101.3C149,102,148.3,103.3,148.3,101.3
		 M148.8,98.5C149.2,99,148.8,99.3,148.8,98.5 M150.1,100.8h0.5C150.3,101.2,150.5,101.1,150.1,100.8 M156.8,98.2
		c0.8,0.2,0.4-0.1,0.8,0.5C157.2,98.8,157,98.6,156.8,98.2 M149.1,69.9c-0.2,0.4,0.6,0.1,0.3-0.1C149.3,69.7,149.1,69.9,149.1,69.9
		 M147.1,70.2c0,0.1-0.1,0.1-0.1,0.2c0.2,0,0.4,0,0.3-0.2H147.1z M149.2,81.5v0.2h0.3C149.5,81.5,149.4,81.4,149.2,81.5 M148.3,78.1
		c-0.1-0.1-0.3,0.1-0.3,0.1C147.8,78.7,148.5,78.3,148.3,78.1 M147.5,84.3c-0.2,0-0.2,0.1-0.2,0.2h0.2V84.3z M147.5,78.9h-0.3
		c0,0.3,0.2,0.4,0.3,0.5V78.9z M146.9,79.9c-0.1,0.4,0.4,0.2,0.3,0.5c0.3,0,0.4-0.3,0.7-0.3c-0.2-0.4,0.1-0.8,0.5-0.6
		c0-0.5-0.4-1.1-0.8-0.8c0.5,0.4-0.3,1.5-0.5,1.5C147.1,80.1,147.1,79.7,146.9,79.9 M147.9,84c-0.1-0.2-0.6-0.2-0.6,0.1
		C147.5,84.1,147.9,84.2,147.9,84 M149,81c0-0.3-0.3-0.3-0.6-0.3C148.2,81.1,148.7,81,149,81 M141.7,98h-0.2l0,0.3
		C141.6,98.3,141.7,98.2,141.7,98 M115.5,91.9h0.7l15.1,0.2h1.2c-0.1-0.2-0.2-0.6-0.4-1.4c0.7,0,0.8,1,0.7,1.4h0.1l0.9-0.2v-1.5
		c0-0.1-0.1-0.3-0.1-0.8c0,0.1,0.1,0.1,0.1,0.2V87c0-0.1-0.1-0.2-0.1-0.5c0,0,0.1,0.1,0.1,0.1v-1.5l-0.2,0.1l-1.3-0.1l-0.8,0
		c0.1,0.3-0.1,0.5-0.4,0l-7.9,0.1l-1.6-0.1v-7.4h9.9l0.1-0.1v-0.6l-0.1-0.6v-1.1l-0.1-1.6v-1l0.1-1.1V71l-0.3,0.1l-1,0.2l-3.8-0.2
		h-4.9v-7.9l5.1,0.1l3.6-0.1h3.5l0.1-1.4v-5.4l-2.9,0.1l-2.9,0.1l-4.8-0.2h-9.3l0.2,21.9l0.1,5.5l-0.2,4.6v3.6l0.3,0.2L115.5,91.9z
		 M133,85.2C133.4,85.8,133,86.1,133,85.2 M132.2,88.6C132.6,89.2,132.2,89.5,132.2,88.6 M119.7,88.4
		C120.2,88.9,119.7,89.2,119.7,88.4 M120,89.1C120.5,89.7,120,90,120,89.1 M131.4,90.9c-0.3,0.4-0.1,0.3-0.5,0H131.4z M130.6,88.9
		C131.5,88.9,131.2,89.3,130.6,88.9 M130.6,86c0.1,0.1,0.5,0.1,0.3,0.5C130.6,86.4,130.1,86.1,130.6,86 M128.6,87.3
		C129,88,128.6,88.8,128.6,87.3 M126.5,86C126.9,86.7,126.5,87.5,126.5,86 M126,85.8C126.8,85.8,126.5,86.2,126,85.8 M126,86.8
		C126.8,87.5,126.1,89.1,126,86.8 M123.9,88.4C124.8,89.3,123.9,92.9,123.9,88.4 M123.1,88.1C123.9,89.2,122.8,89.8,123.1,88.1
		 M122.1,88.9C122.5,89.4,122.1,89.7,122.1,88.9 M121.8,87.6C122.3,88.2,121.8,89,121.8,87.6 M120,86.8
		C124.2,86.8,120,86.9,120,86.8 M119.7,84.2C121,86.2,119.3,86.8,119.7,84.2 M119.5,89.9C119.9,90.5,119.5,90.8,119.5,89.9
		 M118.5,87.3C119.4,88.1,118.5,88.7,118.5,87.3 M118.2,84C118.6,84.5,118.2,84.8,118.2,84 M117.9,81.1
		C118.5,81.9,117.5,82.5,117.9,81.1 M116.4,84.7C116.8,85.3,116.4,85.6,116.4,84.7 M115.3,82.1C115.8,82.8,115.3,83.6,115.3,82.1
		 M114.6,80.3C116,80.8,115.2,81,114.6,80.3 M114.3,88.9C115.2,88.9,114.9,89.3,114.3,88.9 M148.5,79.9c-0.2,0-0.4,0-0.5,0.1
		c0.3,0.2-0.3,0.4-0.2,0.8h0.5C148.2,80.4,148.5,80.2,148.5,79.9 M148.3,82.4c0,0.2-0.1,0.3-0.1,0.5C148.5,83,148.5,82.3,148.3,82.4
		 M0.8,56C0.9,56,1,56,1.2,55.9c0-0.1,0-0.2-0.1-0.2H0.6C0.6,55.8,0.7,55.9,0.8,56L0.8,56z M8.7,55.7L8.7,55.7L8.7,55.7
		C8.6,55.7,8.6,55.7,8.7,55.7C8.6,55.7,8.6,55.7,8.7,55.7 M13.8,133.7l0.3,0v0L13.8,133.7L13.8,133.7z M12.4,133.4l-0.1,0.1
		c0,0.1,0,0.1,0,0.1l0.6,0c0,0,0-0.1-0.1-0.2C12.6,133.4,12.7,133.4,12.4,133.4 M14.2,133.7l0.4,0v0L14.2,133.7L14.2,133.7z
		 M1.2,130v0.4h0.1C1.3,130.2,1.3,130.1,1.2,130L1.2,130z M5.3,133.5C5.3,133.5,5.3,133.6,5.3,133.5l0.3,0.1c0,0,0,0,0-0.1H5.3z
		 M0,56.4l0,0.3c0,0,0.1,0,0.1-0.1C0.1,56.4,0.1,56.5,0,56.4 M144.1,92c0,0-0.1-0.1-0.2-0.2h0.5c-0.1,0.1-0.1,0.2-0.2,0.2l0.3,0h1.8
		c0,0,0-0.1-0.1-0.2c0.7,0,0.5,0,0.3,0.2h0.2l0.1-0.3l-0.1-1l-0.1-1.8c0-0.1,0-0.1,0-0.2c0,0,0,0,0,0l0.1-3.7v-5.4
		c0.1-0.1,0.1-0.1,0.3-0.1c0.1-0.3-0.2-0.2-0.3-0.3v-0.1c0.3,0,0.7-0.3,0.4-0.5c-0.1,0.1-0.3,0.1-0.4,0.1v-0.8h0l0.1,0.1l0.3-0.1
		c0,0.1-0.1,0.2-0.2,0.5c0.3,0,0.6,0,0.7-0.1c-0.1-0.4-0.4-0.3,0.2-0.3c0,0,0,0,0-0.1h0.2v0.1h0.2v-0.1h0.4l0.1,0.2
		c-0.1,0-0.1-0.1-0.2-0.1c-0.3,0.2,0.1,0.3,0.2,0.2l0.2,0.6c0,0-0.1,0.1-0.1,0.1c0.1,0,0.1,0,0.1,0.1l0,0c0,0,0,0,0,0.1h0l0.9,3
		c0.5,0.1,0.4,0.1,0.7,0.2c-0.5-0.1-0.5-0.1-0.7-0.2l0.6,1.9l0.8,2.6l0.8,2.6l0.9,2.8l1.1,0.2l2.1-0.2h1.7c0,0,0-0.1-0.1-0.2
		c0.7,0,0.5,0,0.3,0.2h2.8l-5.5-16.1c3.6-1.1,6-4.6,6-8.7c0-2.3-0.7-4.6-2-6.3c-0.6-0.8-1.3-1.4-2.1-2c-0.9-0.9-1.9-1.5-3.1-1.8
		c-1.2-0.4-2.6-0.6-4.1-0.6h-11.5v2.4l0.1,2.5l0.1,4.9l0.1,6.5l-0.2,8.6v3c1,0.6,0.5,1.2,0,0.2v1c0.6,0,0.4,0.4,0,0.1v6.4l2.1,0.1
		h1.4L144.1,92z M155.8,81.9c0.3,0.4,0.5,0.3,0,0.5V81.9z M150.1,80.6C153.5,80.5,150.1,83.1,150.1,80.6 M152.2,81.9
		C152.6,82.4,152.2,82.7,152.2,81.9 M153.4,82.4C154,83.3,153,85.1,153.4,82.4 M152.9,80.6c0.6,0.5,0.6,0,0.8,1
		C152.8,81.3,152.9,81.3,152.9,80.6 M146.8,63.2h0.4l0.5,0.1l1-0.1h2.1c0.3,0.1,0.6,0.1,0.8,0.2c0.8,0.3,1.5,0.7,1.9,1.5
		c0.2,0.3,0.3,0.6,0.4,0.9c0,0.2,0.1,0.5,0.1,0.8c0.1,0.3,0.1,0.5,0.1,0.7v0.1c0,0.2,0,0.3,0.1,0.5c-0.2,0.5-0.3,1-0.5,1.4
		c-0.5,1.3-1.6,2-3.2,2l-1,0.1l-0.7,0.1l-0.9-0.2h-1.1V63.2z M143.1,91.7C143.9,91.7,143.7,92.2,143.1,91.7 M145.9,82.9
		C146.4,83.5,145.9,83.8,145.9,82.9 M143.9,91.5c0.5-0.4,0.6-0.9,0.3-1.6C145.6,89.9,144.8,91.1,143.9,91.5 M143.9,89.7
		c-0.1-0.5,0-0.9,0.3-1.3C145.1,88.2,145,88.6,143.9,89.7 M144.4,86.5C144.8,87.1,144.4,87.4,144.4,86.5 M144.1,87.1
		c0.3,0.5,0.3,0.6,0,1V87.1z M143.9,82.4c-0.2-0.3-0.1-0.1-0.3-0.5C144.5,81.9,143.9,81.8,143.9,82.4 M143.6,88.1
		C144.4,88.1,144.2,88.5,143.6,88.1 M142.8,87.3C143.7,87.3,143.4,87.8,142.8,87.3 M140.2,87.3v-1C140.5,86.7,140.5,86.9,140.2,87.3
		 M140.5,84C141.3,84,141.1,84.4,140.5,84 M1.2,132.1C1.2,132.1,1.3,132.1,1.2,132.1c0-0.1,0-0.2,0-0.3V132.1z M1.2,132.4v0.4
		c0,0,0,0,0.1,0c0,0,0,0-0.1,0.1v0.7l0.3,0.2l0.2,0c-0.1-0.4,0-0.8-0.1-1.2C1.4,132.5,1.3,132.4,1.2,132.4 M66.2,97.3h-0.4
		c-0.4,0.1-0.7,0.1-1,0.3c-0.8-0.2-1.6-0.1-2.3,0.2c-1.6,0.5-3,1.2-4.1,2.2c-0.8,0.7-1.4,1.6-1.9,2.5c-0.7,1-1.1,2.1-1.4,3.3
		c-0.3,1.2-0.4,2.4-0.4,3.8l0.3,0.2l-0.3,1.1v11.5c0,6.5,3.3,12.2,11.6,12.2c8.3,0,11.6-5.6,11.6-12.2v-1.4l-0.3,0.1l-0.4,0.1
		l-0.9-0.2l-3,0.1l-1.6-0.1h-1.6l0.1,0.4l0.1,0.5l-0.2,0.5v1.7c0,0.4-0.1,0.8,0,1.1c-0.4,0.7-0.6,1.2-1,1.6
		c-0.7,0.8-1.6,1.2-2.9,1.2c-2.5,0-3.8-1.5-3.8-4.6l-0.1-8.8v-2.2l0.1-2v-1.5c0-0.1,0-0.2-0.1-0.2c0.1-0.6,0.1-1.1,0.2-1.5
		c0.4-2,1.7-2.9,3.7-2.9h0.1c0.1,0,0.1,0,0.2,0.1c0.5-0.1,0.8,0,1.2,0.2c1.6,0.5,2.5,1.9,2.5,4.4v2.3h0.5l4.3,0.1H76l1.1-0.1h0.8
		l-0.1-0.1l0.1-0.7v-0.8C77.8,102.9,74.5,97.3,66.2,97.3 M68.5,101.1L68.5,101.1c-0.1,0-0.1-0.1-0.1-0.1c-0.1-0.2-0.1-0.2-0.1-0.3
		l0.2,0.1V101.1z M102.1,88.9c0,0.3,0,0.6,0.2,0.7C102.4,89.3,102.4,89,102.1,88.9 M101.6,87.2c0,0.3,0.1,0.3,0.4,0.3
		C102.1,87.2,101.9,87.2,101.6,87.2 M102,91.2h0.3c0-0.2-0.1-0.2-0.3-0.2V91.2z M102.3,89.9C102.3,89.9,102.3,89.8,102.3,89.9
		c0.1-0.2,0.1-0.3-0.1-0.3C102.2,89.8,102.2,89.9,102.3,89.9 M106.2,124.6v-0.2l-0.1-0.3H106v-0.2c0,0,0.1,0,0.1,0l-0.5-1.8
		c-0.1,0.1-0.3,0.1-0.2-0.2c0,0,0.1-0.1,0.1-0.1l-2.7-10.5l-1.4-5.4l-1-4.9l-0.9-3.6h-9.3l-4.4,18.3l-1.6,6l-1.5,6.1l-0.8,3.4
		l-0.5,1.7h8l0.1-0.7l0.2-1.7l1-3.9l3.6-0.1h4.7l1.3,6.3h4.3c-0.1-0.1-0.1-0.1,0-0.3c0.3,0,0.5,0,0.6,0.3h3.1L106.2,124.6
		L106.2,124.6z M89.4,101.9h0.2c0,0-0.1,0-0.1,0.1v0.1h-0.2C89.4,102,89.4,101.9,89.4,101.9 M89.7,116.7c-0.1,0-0.1,0-0.2,0.1v-0.2
		h0.2V116.7z M94.4,119.9h-2.1l0.6-2.8l0.8-4l0.8-3.4l0.6-2.6v0.1l0.1,0.3l0.1,0.3l0.4,1.7l0.8,3.6l1.4,6.9L94.4,119.9z
		 M100.3,131.4h-0.2v-0.2h0.2V131.4z M106.2,126.4c0,0.3-0.3,0.3-0.5,0.1C105.8,126.4,106,126.4,106.2,126.4 M105.5,127.6v-0.3
		c0.2,0,0.3,0.1,0.5,0.1C105.9,127.5,105.8,127.6,105.5,127.6 M105.7,128.5c0,0.1-0.1,0.1-0.1,0.2c-0.1,0-0.1-0.1-0.2-0.1
		c0-0.1,0.1-0.1,0.1-0.2C105.6,128.4,105.6,128.5,105.7,128.5 M105.8,126.7h0.2v0.2h-0.2V126.7z M106.1,125.7
		c-0.3,0-0.4-0.1-0.3-0.3C106,125.3,106.1,125.5,106.1,125.7 M105.7,123.3c-0.2,0.2-0.6,0.2-0.7,0.1
		C105.1,123.1,105.5,123.4,105.7,123.3 M105,126.1c0.2,0,0.4,0,0.3,0.2H105V126.1z M104.6,127.3c0.1,0.3-0.8,0.4-0.7,0
		C104,127.2,104.4,127.2,104.6,127.3 M104,127h-0.5C103.4,126.5,104.1,126.5,104,127 M103.8,128.6c0,0.3-0.2,0.4-0.5,0.5
		c-0.1-0.1-0.1-0.2-0.1-0.3C103.3,128.6,103.5,128.6,103.8,128.6 M103.4,122.1h0.2c0.1,0.2-0.2,0.2-0.3,0.2
		C103.3,122.3,103.4,122.3,103.4,122.1 M103,127.3h0.2v0.5H103V127.3z M103.1,128.7c0,0.2-0.2,0.3-0.5,0.2
		C102.6,128.5,102.8,128.6,103.1,128.7 M102.6,129h0.2v0.2h-0.2V129z M101.8,130.9c-0.4-0.1-0.2-0.3-0.1-0.6
		C102.2,130.3,101.8,130.7,101.8,130.9 M101.9,130.2c0-0.2,0.1-0.2,0.1-0.3h0.2c0,0.2-0.1,0.2-0.1,0.3H101.9z M101.9,129h0.3v0.5
		C102,129.5,101.9,129.4,101.9,129 M102.2,128.1c0-0.2,0.1-0.2,0.1-0.3h0.2v0.3H102.2z M102.3,127.4c-0.1,0.2-0.2,0.4-0.6,0.3
		C101.7,127.4,102,127.2,102.3,127.4 M101.5,129.9v-0.3C101.8,129.3,101.8,130,101.5,129.9 M101.3,121.3h0.2v0.2h-0.2V121.3z
		 M100.4,131.2V131c0.2-0.1,0.2,0.2,0.2,0.3C100.6,131.3,100.5,131.2,100.4,131.2 M101,128.1c0.2,0,0.4,0,0.3,0.2H101V128.1z
		 M101.6,132.9h-0.2v-0.2h0.2V132.9z M102.2,131.2c0,0.4-0.3,0.4-0.6,0.5C101.6,131.4,101.8,131.2,102.2,131.2 M101.9,132.7h-0.2
		v-0.2h0.2V132.7z M102.4,132.9c-0.5,0.2-0.1-0.5-0.2-0.8c-0.2,0-0.2,0.1-0.2,0.2c-0.5-0.2,0-0.4,0.1-0.6c0.2,0.1,0.2,0.5,0.5,0.5
		C102.3,132.4,102.2,132.6,102.4,132.9 M102.3,131.2c-0.1-0.3,0.2-0.2,0.3-0.3c-0.1-0.2-0.4-0.1-0.5,0c-0.2-0.1,0-0.1,0-0.3
		c0.4,0,1,0.1,1.4-0.1c0.4,0.2-0.1,0.5-0.5,0.5c0,0.3,0.4,0.1,0.3,0.5c-0.2,0-0.3,0.1-0.3,0.2C102.9,131.2,102.6,131.3,102.3,131.2
		 M103.8,130.9v0.5c-0.2-0.1-0.4-0.2-0.3-0.5H103.8z M103.2,131.8c0.2-0.1,0.2,0.2,0.2,0.2c0.2,0,1-1.1,0.5-1.5
		c0.4-0.3,0.8,0.3,0.8,0.8c-0.4-0.2-0.6,0.2-0.5,0.6c-0.3,0-0.3,0.3-0.7,0.3C103.6,132,103.1,132.2,103.2,131.8 M104.2,130.2
		c0,0,0.2-0.2,0.3-0.1C104.8,130.3,104.1,130.6,104.2,130.2 M104.6,132.7h-0.5c-0.1-0.4,0.5-0.6,0.2-0.8c0-0.2,0.3-0.1,0.5-0.1
		C104.8,132.2,104.5,132.3,104.6,132.7 M104.8,129.9h-0.2v-0.2h0.2V129.9z M105,129.9c0.1,0,0.1,0.1,0.2,0.1
		C105.2,130.2,104.7,130,105,129.9 M104.6,128.8c-0.2,0.1-0.1,0.4-0.5,0.2c-0.2,0.5,0.3,0.4,0.2,0.8c-0.6,0-0.3,0-0.2,0.3
		c-0.1,0.1-0.4,0.1-0.7,0.1c0.2-0.7,0.4-0.3,0-0.9c0.1-0.1,0.3-0.1,0.5-0.1c-0.1-0.3-0.2-0.4,0.1-0.6c0-0.3-0.3-0.3-0.3-0.7
		c0.2,0,0.2-0.1,0.5-0.1c-0.4,0.4,0.2,0.4,0.1,0.8c0.2-0.7,0.5,0.1,1,0C105.3,129.3,104.8,128.9,104.6,128.8 M104.7,127.7
		c0.5-0.1,0.3,0.4,0.8,0.2C105.4,128.6,104.8,127.9,104.7,127.7 M105.7,130.9h-0.2c0-0.1,0-0.1-0.1-0.1
		C105.3,130.6,105.9,130.6,105.7,130.9 M105.8,128.7c0,0,0.2-0.2,0.3-0.1C106.4,128.8,105.5,129.1,105.8,128.7 M49.5,56.5l-2.1-0.1
		h-3.9v35.5l6.6,0.2l0.8,0.1l0.4-0.3V56.4h-0.7L49.5,56.5z M44.1,57.3H44l-0.1-0.1V57h0.4C44.2,57.2,44.2,57.2,44.1,57.3 M45.4,61
		c-0.1,0-0.1,0-0.2,0.1V61L45.4,61L45.4,61z M45.9,57v-0.1H46C45.9,56.9,45.9,56.9,45.9,57 M46.3,59.4l-0.2-0.1v-0.5l0.2,0.1V59.4z
		 M48.8,66.1h-0.1v-0.2h0.2C48.9,66,48.9,66.1,48.8,66.1 M49.1,57.5c-0.1-0.1-0.1-0.2-0.2-0.2c0.1,0,0.1,0,0.2,0.1V57.5z M50.8,59
		c0.3,0.1,0.2,0,0.3,0.2c-0.1,0-0.2-0.1-0.3-0.1C50.7,59,50.8,59,50.8,59 M50.7,59.9L50.7,59.9c-0.2-0.1-0.2-0.1-0.3-0.3l0.3,0.1
		V59.9z M101.6,85.5v0.2h0.3C101.9,85.5,101.8,85.5,101.6,85.5 M76.7,56.4h-3l0.2,9.4l0.1,4l-0.2,4.4v4.5l-4.6-13.4l0,0v0.1
		c-0.1,0.1-0.1,0.2-0.2,0.2c-0.1,0-0.2,0-0.2-0.1c0-0.2,0-0.3,0.1-0.5c0.1,0,0.2,0.1,0.3,0.1L68,61.9l-0.7-2.6c0,0,0,0,0,0h0
		l-0.2-0.6l-0.5-1.5c0,0,0,0.1-0.1,0.1l-0.1-0.1c0-0.1-0.1-0.3-0.1-0.4c0.1,0.1,0.2,0.1,0.2,0.2l-0.1-0.3h0v-0.1l-0.1-0.2l-8.3,0.2
		h-0.9l-0.5-0.2v35.5h7.6V69l7.3,22.9l9.2,0.1l0.5-0.1V56.4l-2.5,0.1L76.7,56.4z M58.6,57.9c-0.1,0-0.2,0-0.3-0.1
		c0.1-0.2,0-0.1,0.1-0.2c0.1,0,0.2-0.1,0.2-0.1l0.1,0.1C58.7,57.7,58.6,57.8,58.6,57.9 M61.8,63L61.8,63c0-0.1,0-0.2,0-0.3
		C61.9,62.8,61.9,62.8,61.8,63 M63.4,67.3v-0.2h0.1C63.5,67.1,63.5,67.2,63.4,67.3 M64.9,61.2v-0.1H65
		C64.9,61.2,64.9,61.2,64.9,61.2 M65.8,58.6l-0.1,0.1l-0.1-0.1c0-0.1,0.1-0.2,0.1-0.3h0.1V58.6z M66,58.1c-0.1,0-0.1,0-0.2,0.1V58
		L66,58.1L66,58.1z M66.2,58.1c0-0.1,0-0.1-0.1-0.2l0.2-0.1c0.2,0,0.3,0,0.5,0.1c0,0,0,0.1,0.1,0.1c-0.1,0.1-0.1,0.2-0.2,0.2
		C66.5,58.2,66.3,58.1,66.2,58.1 M66.9,62.6L66.9,62.6l-0.1-0.2c0.1,0,0.1,0.1,0.2,0.1L66.9,62.6z M67.5,62l-0.3,0.1V62
		c0.1-0.2,0.2-0.4,0.2-0.6h0.2C67.6,61.7,67.6,61.9,67.5,62 M68.1,62.8v-0.2c0,0,0.1,0.1,0.1,0.1L68.1,62.8z M71.8,91.5
		c-0.1,0-0.2,0-0.3-0.1c0-0.1,0.1-0.2,0.1-0.2c0.2,0,0.2,0,0.3,0.1L71.8,91.5z M76.9,62.8c0.2,0.1,0.2,0,0.2,0.3
		C76.9,63,77,63.1,76.9,62.8 M76.8,61.5v-0.1c0-0.1,0-0.2-0.1-0.2c0.1,0,0.1,0,0.2-0.1c0.1,0,0.2,0.1,0.2,0.1
		C77,61.4,77,61.5,76.8,61.5 M77.3,58.5c0.1-0.1,0.2-0.3,0.2-0.4c0.1,0.1,0.2,0.1,0.2,0.2c-0.1,0.2-0.1,0.3-0.2,0.5
		c-0.1,0-0.2,0-0.3,0.1V58.5z M78,61.7c-0.1,0-0.2,0.1-0.3,0.1l-0.1-0.1c0-0.1,0.1-0.2,0.1-0.3h0.2c0,0,0.1,0.1,0.1,0.1V61.7z
		 M78.2,58.4c0-0.1-0.1-0.2-0.1-0.2c0,0,0.1,0,0.1-0.1h0.1c0,0.1,0,0.2,0.1,0.3H78.2z M80.8,58.4c0-0.1,0.1-0.2,0.1-0.2l0.2,0.1v0.1
		c0,0.1-0.1,0.2-0.1,0.3h-0.2V58.4z M79.2,58.7h0.2V59c-0.1,0-0.2,0-0.3,0.1C79.1,58.9,79.1,58.8,79.2,58.7 M101.8,86.6
		c0,0.2-0.3,0.2-0.2,0.5C101.9,87,102.2,86.6,101.8,86.6 M101.6,80c0,0.3,0.1,0.3,0.4,0.3c0-0.1,0-0.2,0.1-0.3
		C101.8,79.8,101.8,80,101.6,80 M102,84.2v-0.2c-0.1,0-0.1,0-0.1-0.1h-0.2c0,0.1,0,0.1-0.1,0.1v0.2c0.1,0,0.1,0,0.1,0.1L102,84.2
		C101.9,84.3,102,84.2,102,84.2 M101.7,83.5c0.1-0.1,0.4-0.7,0-0.7C101.7,82.9,101.5,83.4,101.7,83.5 M101.6,82.1
		C101.6,82.7,102.1,82.2,101.6,82.1 M101.6,88.1h0.2c0-0.1,0.1-0.1,0.1-0.2c-0.1,0-0.1-0.1-0.3-0.1V88.1z M9.4,109.5
		c0,0.3,0.1,0.3,0.4,0.3c0-0.1,0-0.2,0.1-0.3C9.7,109.3,9.6,109.4,9.4,109.5 M9.6,108.5c-0.2,0-0.1-0.2-0.3-0.2
		C9.3,108.5,9.6,108.7,9.6,108.5 M9.6,107.8c-0.1-0.1-0.3,0.1-0.3,0.1C9.2,108.3,9.8,108,9.6,107.8 M9.4,109.3
		c0.2,0,0.4-0.1,0.4-0.4H9.4V109.3z M6,131.5H5.8v0.3H6V131.5z M9.8,120.4v0.2h0.3C10.1,120.5,10,120.4,9.8,120.4 M15.3,98.2
		L10.6,98H1.2L1.4,120l0,0.7c0.1,0,0.1,0.1,0.1,0.2c0,0.1,0,0.1-0.1,0.1l0,2c0.2,0.1,0.4,0.1,0.9,0.2c0,0.5,0.1,0.5,0.3,0.9H1.7
		v-0.3c0.1-0.1,0.1,0,0.1-0.3H1.4l0,0.9c0,0,0,0,0,0c0.1,0,0.3,0.1,0.1,0.3c0,0-0.1-0.1-0.2-0.1l0,0.6c0.1,0,0,0,0.2-0.1
		c0.4,0.1,0.5,0,0.7,0.1c-0.5,0.2-0.2,0.3-0.6,0.4c-0.1-0.1-0.2-0.2-0.3-0.3l0,0.2l0,0.5c0.1,0,0.1,0.1,0.2,0.1H1.4c0,0,0,0,0,0
		l-0.1,1.3c0,0,0,0.1,0.1,0.2H1.3l-0.1,1.4c0.1,0.1,0.1,0.3,0.2,0.6c0.3,0.1,0.3,0,0.4,0.1c-0.1,0.3-0.2,0.2,0.1,0.4
		c0.1-0.1,0.2-0.2,0.3-0.3v0.3c0,0,0.1,0.1,0.1,0.1c-0.6,0.1-0.6,0.1-1.1,0v0.1c0,0,0,0-0.1,0.1v0.6c0,0,0.1,0.1,0.1,0.1
		c0,0-0.1,0-0.1,0.1v0c0.2-0.1,0.2-0.1,0.4-0.4h0.3v0.6c-0.2,0.2-0.3,0.4-0.4,0.7c0.8,0.5,0.5,0.8,0.6,1.4l0.7-0.1
		c0-0.3,0-0.5-0.2-0.8h0.3v0.1c0.2,0.3,0.2,0.4,0.3,0.6h0.4l1.2,0c-0.2-0.2-0.5-0.5-0.7-0.6c0.1-0.2,0.2-0.5,0.3-0.7h0.3v0.4
		c-0.1,0.1-0.2,0.2-0.3,0.3h0.4c0.1-0.1,0-0.1,0.3-0.1c0-0.1,0.1-0.3,0.1-0.4c-0.2-0.2-0.3-0.3-0.4-0.6c0.3-0.3,0.3-0.1,0.1-0.4
		c-0.1-0.4-0.2-0.3-0.4-0.6h0.7c-0.1,0.4,0,0.7,0.1,1.1h0.3c0-0.4,0.1-0.5,0.1-0.7h0.4v0.4c0.3,0.2,1.1,0.4,1.3,0.7
		c0,0.1,0.1,0.1,0,0.1c-0.4,0.3-0.5,0.5-0.9,0.9v-0.1c-0.4-0.5,0.1-0.8-0.6-1c-0.2,0.4-0.3,0.4-0.4,0.9c0,0.1-0.1,0.1,0,0.1
		c0.1,0.2,0.2,0.3,0.3,0.4l3.2,0c0-0.3,0.1-0.5,0.1-0.8c-0.3-0.1-0.3,0-0.4-0.1c0.5-0.3,0-0.4,0.4-0.7c0,0.9,0.3,1.2,0.6,1.7l0.8,0
		c0.1-0.2,0.1-0.2,0.2-0.4l0.4,0.4l0.4,0c0-0.2,0-0.4-0.1-0.7h0.1c0.4,0.5,0.8,0.2,1.6,0.4c0,0.1,0,0.2,0,0.3l0.3,0
		c-0.1-0.1-0.1-0.3-0.2-0.4c0.3-0.1,0.5-0.3,0.9-0.4c-0.3-0.4-0.4-0.5-0.7-1l-0.4,0.1v0.1c0.2,0.2,0.3,0.5,0.1,0.7
		c-0.1,0.1,0,0.1-0.3,0.1c-0.2-0.6-0.4-0.4-1-0.3v-0.3c0.6-0.3,1.1-1,1.7-1.3v0.1c0.4,0.5,0.7,1.3,1,1.8c-0.4,0-0.5,0.1-0.7,0.1v0.3
		h0.4c0.2-0.1,0.2-0.1,0.6-0.1c0.1,0.1,0.2,0.2,0.3,0.3l0.9,0v-0.5c-0.1-0.3-0.1-0.1,0-0.4c0.3,0.1,0.3,0,0.4,0.1
		c-0.2,0.2-0.2,0.4-0.2,0.8l2.5,0h0.9c0-0.1,0.1-0.2,0.3-0.5c0.4,0.2,0.1-0.1,0.3,0.3c0,0.1,0,0.1,0,0.2h0.2l0.9-0.2v-1.4
		c0,0,0,0-0.1-0.1h0.1v-5.3l-0.2,0.1l-1.3-0.1l-9.1,0.1l-1.5,0c0,0.1-0.1,0.1-0.1,0.2H8.8v-0.3c0.1-0.1,0.1-0.1,0.2-0.2v-7.1h9.9
		l0.1-0.1v-0.6l-0.1-0.6v-1.1l-0.1-1.6v-1l0.1-1.1v-0.7l-0.3,0.1l-1,0.2l-3.8-0.2H9.7c0.1-0.2,0.2-0.5-0.1-0.5
		c-0.1,0.1-0.1,0.3-0.1,0.5H9v-0.3c0.1,0,0.1-0.1,0.3-0.1v-0.2c-0.1,0-0.1-0.1-0.2-0.1c0,0.1,0,0.1-0.1,0.1v-0.3h0.2v-0.2H9v-1.7
		c0.1-0.1,0.1-0.2,0.2-0.4c-0.5,0,0.3-0.4-0.2-0.5v-0.9c0,0,0.1,0,0.1,0c0.1-0.1,0.1-0.5-0.1-0.5v-0.4c0.1,0,0.2-0.1,0.2-0.3H9v-0.2
		c0,0,0.1,0,0.1,0.1c0-0.1,0.3-1.1-0.1-1.2v-0.3c0.1,0.1,0.1,0.4,0.3,0.1c-0.1,0-0.2-0.3-0.3-0.3v-0.4l0.5,0
		c-0.3,0.1-0.2,0.5,0.2,0.6c0-0.3-0.2-0.4,0-0.6l4.4,0l3.6-0.1h3.4l0.1-1.4V98l-2.9,0.1L15.3,98.2z M17.8,132.9
		c-0.1,0.1,0,0.1-0.3,0.1v-0.1c0.2-0.3,0.1-0.3,0-0.7h0.3C17.8,132.7,17.8,132.8,17.8,132.9 M19.5,132.9h-0.1
		c-0.2,0.1-0.4,0.1-0.7,0.1c0.1-0.3,0-0.3,0.1-0.4c0,0,0.1,0.6,0.1,0.3v-0.1c0.3-0.1,0.1-0.2,0.3,0
		C19.2,132.8,19.7,132.9,19.5,132.9 M20.9,133.1c0,0.1-0.3,0.4-0.6,0.6v-0.1l-0.1-0.1c0.3-0.2,0.5-0.4,0.6-0.9
		C21,132.8,21,132.8,20.9,133.1 M20,130.2h0.3v0.1C20.1,130.3,20.2,130.4,20,130.2 M20.7,129.7v-0.4c0.1,0.2,0.1,0.1,0.1,0.4H20.7z
		 M20.6,127c0.2,0.2,0.3,0.2,0,0.3V127z M20.2,130.1c-0.3-0.4-0.6-0.2-0.7-0.9c0.4,0.1,0.6,0,1-0.3
		C20.6,129.2,20.5,129.6,20.2,130.1 M19.6,130.4h-0.1v-0.3C19.6,130.2,19.5,130.1,19.6,130.4 M19.8,128.7c-0.1,0.3,0,0.3-0.1,0.4
		c-0.3-0.4-0.3,0-0.4-0.4H19.8z M19.3,129.5v0.1c-0.2-0.1-0.1,0-0.3-0.1H19.3z M18.8,129.7c0.1,0.1,0.1,0,0.1,0.3h-0.1V129.7z
		 M19,131.1v-0.3c0.3-0.1,0.2-0.1,0.4-0.3C19.8,130.9,19.7,130.9,19,131.1v0.1h-0.3l-0.1,0.3c-0.4-0.3-0.2-0.1-0.3-0.4
		C18.7,131.1,18.5,131.1,19,131.1 M18,127.8c0.1,0.2,0.1,0.1,0.1,0.4H18V127.8z M17.6,130.1c0.3-0.2,0.3-0.3,0.4-0.7
		c0.2,0.2,0.2,0.1,0.3,0.4c-0.2,0.2-0.3,0.3-0.4,0.6h-0.3V130.1z M17.1,127.1c0.2,0.2,0.3,0.2,0,0.3V127.1z M17.1,128.7
		c0.1,0,0.3,0.1,0.4,0.1v0.1h-0.4V128.7z M16.9,133.4c0.1-0.1,0.1,0,0.1-0.3c0.1,0.2,0.1,0.1,0.1,0.4h-0.3V133.4z M16.3,131.7v0.6
		h-0.1v-0.1c-0.1-0.2-0.1-0.1-0.1-0.4H16.3z M8.6,100.5c0.2,0.1,0.2,0.1,0.1,0.3H8.6l-0.1-0.1C8.5,100.7,8.5,100.6,8.6,100.5
		 M8.5,120.2v-0.3C8.7,120.1,8.8,120,8.5,120.2 M8.5,120.7v0.1c-0.2-0.1-0.1,0-0.3-0.1H8.5z M7.3,124.4c0.3,0.2,0.3,0.2,0.4,0.6H7.4
		C7.2,124.6,7.2,124.9,7.3,124.4 M6.7,121.2H7l-0.1,0.1c-0.2,0.2-0.2,0.2-0.4,0.1c0,0-0.1-0.1-0.1-0.1
		C6.6,121.2,6.5,121.3,6.7,121.2 M7.1,123.6H7v-0.3C7.1,123.4,7,123.3,7.1,123.6 M6.3,125c0.1,0.2,0.1,0.1,0.1,0.4H6.3V125z
		 M6.5,126H6.1L6,125.7c0.2-0.1,0.1,0,0.3-0.1C6.4,125.7,6.4,125.8,6.5,126 M6,119.2v0.1c-0.2-0.1-0.1,0-0.3-0.1H6z M5.6,127.5
		c0.1,0,0.3,0.1,0.4,0.1c-0.1,0.3-0.2,0.6-0.3,0.9c0,0-0.1-0.1-0.1-0.1c-0.1-0.1-0.1,0-0.1-0.3C5.7,127.8,5.6,128.1,5.6,127.5
		 M5.4,127.7v-0.2h0.2C5.5,127.6,5.5,127.7,5.4,127.7L5.4,127.7z M5.7,127H5.4v-0.1c0.2-0.2,0.2-0.3,0.3-0.6H6
		C5.9,126.5,5.8,126.7,5.7,127 M5.7,125c0.1,0.2,0.1,0.2,0.1,0.6H5.6c-0.1-0.2,0-0.1-0.1-0.3v-0.1C5.7,125,5.5,125.1,5.7,125
		 M5.6,124.1h0.3v0.1C5.6,124.2,5.7,124.3,5.6,124.1 M5.7,120.6c0.2,0.2,0.3,0.2,0,0.3V120.6z M5.7,121.7v0.1
		c-0.5,0-0.2,0.2-0.6-0.1H5.7z M5.4,125.8c-0.2,0.2-0.1,0.2-0.3,0H5.4z M5,128.3c0.1,0.2,0.2,0.5,0.3,0.7H5c-0.1-0.2,0-0.1-0.1-0.3
		C4.9,128.5,4.9,128.4,5,128.3 M4.8,128.3v-0.2H5L4.8,128.3z M5.1,127.4v0.1c-0.1-0.1-0.2-0.2-0.3-0.3c0-0.1,0.1-0.3,0.1-0.4
		C5.1,127,5.3,127.3,5.1,127.4 M3.8,116.5v0.1c-0.2-0.1-0.1,0-0.3-0.1H3.8z M4,119.9H3.8v-0.4C4,119.6,3.9,119.6,4,119.9 M3.7,124
		c-0.1,0.3-0.3,1-0.6,1.1v-0.6c0.1-0.2,0.1-0.3,0.1-0.7C3.4,123.9,3.6,123.9,3.7,124 M3.3,122.9h0.3v0.3H3.3V122.9z M3.6,125.7
		c0.1,0.1,0.1,0,0.1,0.2H3.6C3.6,125.9,3.6,125.8,3.6,125.7 M3.4,122.1c-0.2-0.5-0.2,0,0-0.6c0.1,0,0.3,0.1,0.4,0.1L3.4,122.1z
		 M3.4,118.5c-0.2-0.1-0.1,0-0.3-0.1h0.3V118.5z M3.2,103.6H2.8c0-0.1,0-0.2-0.1-0.3c0.1,0,0.2-0.1,0.2-0.1
		C3.1,103.3,3.1,103.4,3.2,103.6 M2.8,102.4c0.1,0.1,0.1,0,0.1,0.2l-0.1-0.1C2.7,102.5,2.8,102.4,2.8,102.4 M2.7,120.6
		c0.1,0.1,0.1,0,0.1,0.3H2.7V120.6z M2.9,121.4c-0.2-0.1-0.4-0.3-0.1-0.3C2.8,121.2,3,121.2,2.9,121.4 M2.8,123.7c0,0-0.1,0-0.1-0.1
		c0,0,0-0.1-0.1-0.1c0-0.1,0-0.2,0.1-0.3C2.8,123.3,2.8,123.4,2.8,123.7 M1.9,107.4c0.2,0.2,0.1,0.1,0.1,0.3l-0.1-0.1
		C1.9,107.5,1.9,107.5,1.9,107.4 M1.4,118.9v-0.3c0.3,0,0.4,0.1,0.6,0.1v0.1H1.4z M1.9,122.7c0,0-0.1-0.1-0.1-0.1
		c-0.2-0.2-0.2-0.4-0.3-0.9h0.9v0.3C1.7,122.2,2,122.3,1.9,122.7 M2.3,122.9v-0.3c0.1,0.1,0,0,0.1,0.3H2.3z M1.9,120.6
		c0.3,0.1,0.4,0.1,0.6,0.3C2.1,121.1,2,120.8,1.9,120.6 M2.4,119.7c0-0.5,0.1-0.8,0.1-1.1C2.7,118.8,2.6,119.4,2.4,119.7 M2,126.8
		h0.3v0.3H2V126.8z M1.9,127v0.1c-0.2-0.1-0.1,0-0.3-0.1H1.9z M1.4,128.4c0.3,0.1,0.3,0,0.4,0.1C1.6,128.5,1.6,128.5,1.4,128.4
		 M2,129.2c-0.1-0.1-0.1,0-0.1-0.3c0.3-0.3,0.2-0.1,0.1-0.5c-0.2-0.1-0.4-0.2-0.6-0.3V128c0.2,0,0.2,0,0.3,0.1
		c0.2,0.1,0.3,0.3,0.5,0.4v0c0.2,0.1,0.2,0.2,0.4,0.3v0.1C2.2,129.1,2.1,129.4,2,129.2 M2.4,131v0.1c-0.2-0.1-0.1,0-0.3-0.1H2.4z
		 M2.1,133.4v-0.3c0.1,0.1,0.1,0,0.1,0.3H2.1z M2.7,132.2H2.4c-0.2,0.2-0.1,0.2-0.4,0.3v-0.1c0.1-0.1,0.1,0,0.1-0.3h0.6V132.2z
		 M3.6,133.2c0,0-0.1-0.1-0.1-0.1c0,0-0.1-0.1-0.1-0.1c0.2-0.1,0.1,0,0.3-0.1C3.7,133.1,3.6,132.9,3.6,133.2 M3.8,132.8
		c-0.4-0.4-0.3-0.5-1-0.6c0.1-0.3,0-0.3,0.1-0.4c0.3,0.3,0,0.2,0.6,0.1v-0.4c-0.2,0-0.5-0.1-0.7-0.1c-0.1-0.4-0.2-0.3-0.3-0.7
		c0.4-0.3,0.2-0.5,0.1-1h0.1c0.2,0.3,0.2,0.3,0.3,0.9h0.4c0,1,0.3,1.2,0.4,2.1C3.9,132.7,3.9,132.8,3.8,132.8 M3.8,129.8v0.3
		c0.1,0.1,0.2,0.2,0.3,0.3H3.6c0-0.2-0.1-0.5-0.1-0.7c0.4-0.1,0.5-0.2,0.7-0.6c-0.5-0.4-0.3-0.9-0.4-1.4c-0.2,0.1-0.1,0-0.3,0.1H3.3
		c0.1,0.3,0.1,0.3,0.3,0.6H3.1c-0.1-0.1,0-0.1-0.3-0.1v-0.4c0.2-0.2,0.1-0.3,0.4-0.4v0.1c0,0,0.1-0.1,0.1-0.1c0.3-0.3,0.3-0.5,0.4-1
		l-0.1-0.1c-0.2,0.1-0.1,0-0.3,0.1c-0.1,0.2,0,0.3-0.1,0.6c-0.1-0.1,0,0-0.3-0.1c-0.1-0.3-0.1-0.6-0.1-1c0,0-0.1-0.1-0.1-0.1h0.6
		c0.2,0.5,0.5,0.3,0.7,0.7c0.4,0.6-0.2,1.1,0,2c0.3,0.3,0.4,0.6,0.4,1.4H3.8z M4.4,124.6H4.1v-0.3h0.3V124.6z M4.6,122.1
		c-0.2-0.1-0.1,0-0.3-0.1h0.3V122.1z M4.7,118.7c0,0,0.3,0.1,0.1,0.3C4.7,119,4.4,118.8,4.7,118.7 M5.1,130.1c0.3,0.1,0.3,0,0.4,0.1
		C5.3,130.2,5.3,130.2,5.1,130.1 M5.8,130.1c-0.4-0.6-0.7-0.4-1.1-1H5c0.2,0.3,0.1,0.2,0.6,0.3c0.2-0.6,0.3-0.1,0.4-0.6
		C6.2,129.2,6.2,129.7,5.8,130.1 M6.4,126.1l-0.1,0.1c0,0,0-0.1-0.1-0.1H6.4z M6.3,129.7v-0.3C6.4,129.6,6.5,129.5,6.3,129.7
		 M6.5,130.8v-0.1c0.2-0.3,0.1-0.5,0-0.9h0.6c0.1,0.2,0,0.1,0.1,0.3C7.1,130.6,7.1,130.7,6.5,130.8 M7.3,131.9v-0.3
		c0.1,0.1,0,0,0.1,0.3H7.3z M7.3,128.8c0-0.5-0.1-0.7-0.4-1.1c0.5,0.2,0.6,0.6,1,0.9v0.3H7.3z M7.7,127c0.1,0,0.3,0.1,0.1,0.3
		C7.7,127.2,7.4,127,7.7,127 M7.7,133.5c-0.2-0.1-0.1,0-0.3-0.1h0.3V133.5z M8.1,133.1H7.8v-0.1c-0.1-0.1-0.1,0-0.1-0.3
		c0.1,0,0.3,0.1,0.4,0.1V133.1z M8.1,131.2c-0.2-0.1-0.1,0-0.3-0.1H7.7c0-0.1-0.1-0.3-0.1-0.4c0.4,0.2,0.2,0,0.3,0.4h0.3V131.2z
		 M7.8,129.1c0.2,0.2,0.2,0.1,0.3,0.4C7.6,129.3,7.8,129.5,7.8,129.1 M8.1,126c-0.8,0.1-0.2,0.2-0.9,0.3c0.1,0.4,0.1,0.3,0.3,0.6
		H7.1c-0.2-0.5-0.3-0.3-0.4-1c0,0,0.1-0.1,0.1-0.1H7v0.4h0.4v-0.4c0.4,0,0.5,0.1,0.7,0.1V126z M8.2,125v-0.3c0.1,0.1,0,0,0.1,0.3
		H8.2z M8.1,121.7c0.3,0,0.4,0,0.6,0.1C8.3,121.8,8.3,121.8,8.1,121.7 M8.7,131.2V131c0.1,0.1,0.1,0,0.1,0.3H8.7z M8.8,131.7v-0.3
		c0.1,0.1,0.1,0,0.1,0.3H8.8z M9,131H8.8v-0.4h0.3C9.1,130.7,9,130.8,9,131 M15.6,133.2c-0.2-0.1-0.1,0-0.3-0.1h-0.1v-0.3
		c0.1,0.1,0,0,0.1,0.3h0.3V133.2z M15.3,127.5c0.1,0.1,0.1,0,0.1,0.3h-0.1V127.5z M15.3,129c0.1,0.1,0.1,0,0.1,0.3h-0.1V129z
		 M15.3,130.1c0.1,0.1,0.1,0,0.1,0.3h-0.1V130.1z M14.9,130.5c0.3,0.1,0.3,0,0.4,0.1c-0.6,0.3-0.3,0.8-0.3,1.3h-0.1
		C14.8,131.1,14.8,131.3,14.9,130.5 M14.8,131.9c0.1,0.2,0.1,0.2,0.1,0.6h-0.1v-0.1C14.7,132.2,14.8,132.4,14.8,131.9 M14.5,130.4
		v0.1c-0.2-0.1-0.1,0-0.3-0.1H14.5z M13.5,130.5c-0.2,0.2-0.3,0.4-0.4,0.6V131c-0.4-0.2-0.3-0.1-0.4-0.6h0.9V130.5z M13.2,129.8
		c-0.2-0.1-0.1,0-0.3-0.1h0.3V129.8z M12.6,129c0.2,0.1,0.1,0,0.1,0.1h0.2v0.1c-0.2-0.1-0.2-0.1-0.2-0.1c0,0,0,0,0,0
		c-0.1,0.1-0.1,0.2-0.2,0.2c0-0.1-0.1-0.1-0.1-0.2c0-0.1,0-0.1-0.1-0.2L12.6,129z M12.2,129.7c0.3,0.1,0.4,0.1,0.6,0.3
		c-0.3,0.2-0.4,0.3-0.6,0.7c0.6,0.4,0.3,0.2,0.1,0.9c0,0-0.1-0.1-0.1-0.1c-0.3-0.4-0.2-0.8-0.1-1.1c-0.4-0.1-0.2,0.1-0.3-0.3
		C12,129.9,12.1,129.8,12.2,129.7 M11.2,128.5c0.1-0.1,0.1,0,0.1-0.3h0.3c0,0.1-0.1,0.3-0.1,0.4h-0.3V128.5z M11.1,131.7
		c0.1,0,0.2,0.1,0.3,0.1v-0.1c0.1-0.1,0.2-0.4,0.3-0.6v0.1h0.1c-0.1,0.5-0.1,0.4,0,1c-0.4,0.1-0.4,0.3-0.6,0.1
		C11,132.1,11,132,11.1,131.7 M10.5,130.1c0.1,0.1,0.1,0,0.1,0.3h-0.1V130.1z M10.5,132.7c-0.2-0.1-0.1,0-0.3-0.1h0.3V132.7z
		 M10.1,128.8c0.1,0.1,0.1,0,0.1,0.3h-0.1V128.8z M10.4,131.4v0.1c-0.2-0.1-0.1,0-0.3-0.1H10.4z M10.1,132.7c0.1,0.1,0.1,0,0.1,0.3
		h-0.1V132.7z M9.7,129.8c0.3,0.2,0.2,0.1,0.3,0.6c-0.3,0.2-0.2,0.2-0.4,0.4c0-0.4-0.1-0.6-0.1-0.9C9.6,129.9,9.5,129.9,9.7,129.8
		 M9,127.8c0.4,0.2,0.1-0.1,0.3,0.3c-0.1,0.1-0.2,0.2-0.3,0.4H8.8v-0.3C8.9,128.1,8.9,128.1,9,127.8 M9,122.4
		c-0.2-0.1-0.1,0-0.3-0.1H9V122.4z M14,103.5c0,0-0.1,0-0.1,0.1c-0.1,0-0.1,0-0.2-0.1c0-0.1,0-0.2-0.1-0.2c0.1,0,0.2,0,0.3,0.1
		V103.5z M9.5,111.6C9.4,112.2,9.9,111.6,9.5,111.6 M9.5,111c-0.2,0.2,0,0.4,0.2,0.5C9.8,111.3,9.8,110.9,9.5,111 M9.4,110
		c-0.1,0.3,0.2,0.3,0.1,0.6C9.9,110.7,9.8,109.9,9.4,110 M9.4,105.8c-0.2,0.2-0.1,0.7,0.2,0.8C9.7,106.4,9.6,105.9,9.4,105.8
		 M9.5,106.9c-0.1,0.1-0.2,0.7,0.2,0.6C9.5,107.2,9.8,107,9.5,106.9 M9.7,105.6H9.6v0.2h0.2V105.6z M101.6,77.4
		c-0.1,0.1-0.2,0.7,0.2,0.6C101.7,77.7,102,77.5,101.6,77.4 M37,104.6c-0.2,0-0.2-0.2-0.5-0.1v0.3C36.8,104.8,37,104.8,37,104.6
		 M36.5,105.8c0.1,0,0.1,0.1,0.2,0.1c0-0.1,0.1-0.1,0.1-0.2c-0.1,0-0.1-0.1-0.2-0.1C36.6,105.7,36.5,105.7,36.5,105.8 M101.6,79.4
		v0.4c0.2,0,0.4-0.1,0.4-0.4H101.6z M37.3,105.8c-0.1-0.1-0.3,0.1-0.3,0.1C36.6,106.3,37.4,106,37.3,105.8 M35.8,104.9
		c0.1,0.2,0.7,0.9,0.8,0.2C36.1,105.3,36.2,104.8,35.8,104.9 M49,120.6c0-0.9-0.3-1.6-0.6-2.2c-0.5-0.9-1.2-1.7-2-2.4
		c-0.6-0.5-1.2-0.9-1.8-1.2c-0.5-0.6-1.1-0.9-1.8-1.2c-0.5-0.3-1.1-0.5-1.6-0.7c-1.6-0.7-2.7-1.3-3.7-1.8c-0.5-0.3-0.8-0.5-1.2-0.8
		c0-0.3-0.2-0.3-0.4-0.3c-0.1-0.1-0.2-0.2-0.2-0.3c0.1-0.2,0.2-0.3,0.2-0.6c-0.2,0-0.4,0-0.5,0.1c0.1,0.1,0.1,0.1,0.1,0.2
		c-0.1-0.1-0.1-0.2-0.2-0.3c-0.1-0.3,0.1-0.7,0.5-0.5c0-0.5-0.4-1.1-0.8-0.8c0.3,0.2,0.2,0.5,0.1,0.8c0,0,0-0.1,0-0.1
		c0-0.1-0.1-0.2-0.1-0.3v-0.1h0c-0.1-0.2-0.1-0.4-0.1-0.6c0.2,0,0.4,0,0.5-0.1c-0.1-0.4-0.4-0.3,0.2-0.3c0.1-0.5-0.4-0.3-0.2-0.8
		c0.4,0.1,0.3-0.2,0.5-0.2c0.2,0.1,0.7,0.4,0.7-0.1c-0.6,0.1-0.8-0.7-1,0c0.1-0.3-0.2-0.4-0.2-0.6c0.4-0.7,1-1.2,1.8-1.4v0.2h0.2
		V104h-0.2c0.3-0.1,0.5-0.1,0.8-0.1H38c0.2,0.1,0.3,0.1,0.4,0.2c0.2-0.2,0.4-0.1,0.6,0c0.4,0.1,0.7,0.3,1,0.6
		c0.3,0.3,0.5,0.5,0.7,0.8l0.3,0.8c0.1,0.4,0.2,0.8,0.2,1.2h7.6c0-0.4,0-0.9-0.1-1.3c-0.1-0.6-0.3-1.2-0.6-1.8
		c-0.3-1.5-1-2.7-1.9-3.8c-1.8-1.9-4.4-3.3-8.2-3.3c-0.7,0-1.3,0.1-1.9,0.2c-0.9,0.1-1.7,0.4-2.4,0.8c-1.6,0.5-2.8,1.3-3.8,2.4
		c-1.8,1.9-2.6,4.4-2.6,6.7c0,4.8,2.4,8.4,8.5,11.1c0.1,0,0.1,0.1,0.2,0.1c0.2,0.1,0.5,0.3,0.7,0.5c0.9,0.2,1.6,0.5,2.3,0.9
		c2,1.1,3,2.3,3,4.4c0,2.2-1.6,3.5-3.8,3.5c0,0,0,0-0.1,0.1c-0.1-0.1-0.2-0.1-0.3-0.1c-0.3-0.1-0.5-0.1-0.8-0.1
		c-0.4-0.1-0.7-0.2-1.1-0.4c-0.4-0.3-0.8-0.7-1.1-1.2c-0.5-0.7-0.7-1.6-0.7-2.8l-0.7,0.1l-1,0.1l-2.1-0.2h-3.9c0,0.6,0,1.1,0.1,1.6
		c0.1,0.8,0.3,1.6,0.7,2.4c0.2,1.3,0.9,2.6,1.9,3.8c1.1,1.3,2.7,2.3,4.7,2.8h0.1v0c1.2,0.3,2.6,0.5,4.1,0.5c2.2,0,4-0.4,5.6-1.1
		c1.1-0.5,1.9-1,2.7-1.7c1.1-1,1.9-2,2.5-3.3c0.7-1.5,1-3.1,1-4.9v-0.2c0-0.5,0-1-0.1-1.4C49.4,121.4,49.2,121,49,120.6 M27.9,108.4
		L27.9,108.4l-0.1-0.3C28,108.2,28,108.2,27.9,108.4 M31.4,105.5L31.4,105.5c0-0.2,0.1-0.3,0.1-0.5c0.3,0.1,0.3,0.1,0.4,0.4
		c-0.1,0-0.1,0-0.2,0.1H31.4z M32.1,116.3c-0.2-0.1-0.1,0-0.2-0.2C32.1,116.1,32,116.1,32.1,116.3L32.1,116.3z M32.3,103.5
		L32.3,103.5c-0.1,0-0.1,0-0.2-0.1c0-0.1,0-0.2-0.1-0.3c0.1,0,0.1,0,0.2-0.1c0,0,0.1,0,0.1,0.1C32.3,103.3,32.3,103.4,32.3,103.5
		 M34.4,103c0-0.2,0.1-0.4,0.1-0.6h0.2c0,0.1,0,0.1,0.1,0.2c0,0.2-0.1,0.4-0.2,0.5C34.6,103,34.5,103,34.4,103L34.4,103z
		 M34.6,106.8C34.6,106.8,34.6,106.8,34.6,106.8C34.6,106.8,34.6,106.8,34.6,106.8C34.6,106.8,34.6,106.8,34.6,106.8 M34.8,106.1
		c0,0,0-0.1,0-0.1c0-0.1,0.1-0.2,0.1-0.3c0.1,0.1,0.1,0.2,0.1,0.3c-0.3,0.2-0.2,0.3-0.1,0.6c-0.1,0-0.2,0-0.3,0
		C34.7,106.4,34.7,106.2,34.8,106.1 M34.7,106.9c0.1,0.1,0,0.1,0,0.2C34.7,107,34.7,107,34.7,106.9 M29.7,127.4v-0.3
		c0.1,0.1,0.1,0,0.1,0.3H29.7z M31.8,133.2v-0.3c0.1,0.1,0,0,0.1,0.3H31.8z M33.2,130.8v0.1c-0.2-0.1-0.1,0-0.3-0.1H33.2z
		 M33.4,131.8c-0.2-0.1-0.1,0-0.3-0.1h0.3V131.8z M33.5,131.1c0.3,0.1,0.3,0,0.4,0.1C33.7,131.2,33.7,131.2,33.5,131.1 M35.9,133.8
		c0,0-0.1-0.1-0.1-0.1c-0.1-0.3-0.1-0.1,0-0.4c0.2,0.2,0.2,0.1,0.3,0.4L35.9,133.8z M37.4,134.4v-0.3c0.1,0.1,0.1,0,0.1,0.3H37.4z
		 M7.8,56.9C7.9,57,8,57.1,8.1,57.2c0.1,0,0.1-0.1,0.2-0.1v-0.2c-0.1-0.1-0.1-0.2-0.2-0.2H7.9L7.8,56.9z M146.8,91.9L146.8,91.9
		l-0.1,0.2L146.8,91.9z M37.4,96.3v0.2h0.3C37.7,96.3,37.6,96.2,37.4,96.3 M36.3,107.2c-0.1,0-0.1-0.1-0.2-0.1
		C35.8,107.3,36.3,107.5,36.3,107.2 M87.2,56.4c-0.3,0.1-0.5,0.2-0.6,0.1c0.1-0.1,0.1-0.3,0.2-0.4h-1.1l0.1,0.2h-0.1v0.5l0.1,1
		l-0.1,1.7v1.1h0.1c0,0-0.1,0.1-0.1,0.1v2.1h8.1l0.1,9.5v6.1l-0.1,6.5v6.7l4.6,0.2l1.6-0.2h1.6v-0.1l-0.2-0.4l0.1-1.4
		c0,0,0.1,0.1,0.1,0.1c0-0.1,0-0.3-0.1-0.3l0-0.9h0.1c0-0.1,0.1-0.1,0.1-0.3h-0.2l0-0.9l0-0.6h0v-0.4h0l0-0.3h0c0-0.1,0-0.2-0.1-0.3
		l0-3.1c0,0,0,0,0.1,0v-0.2c0,0-0.1,0-0.1,0l0-4.9c0,0,0-0.1,0-0.2h0l0-0.7c0-0.2,0-0.4,0-0.5l0-0.2c0,0,0.1,0,0.1-0.1
		c0,0-0.1,0-0.1-0.1l0-4.8l-0.1-5.1l0.2-3.3h8.2l-0.1-0.5l-0.1-0.8l0.2-2.1v-3.3H87.3C87.3,56.2,87.2,56.3,87.2,56.4 M86.2,59.1
		c-0.1,0.1,0,0-0.2,0.1v-0.3c0-0.1,0-0.2,0.1-0.3l0.2,0.1C86.3,58.8,86.3,58.9,86.2,59.1 M86,58.3c0.1,0,0.2,0.1,0.2,0.1
		C86,58.4,86.1,58.4,86,58.3 M86.5,57c-0.1,0-0.3,0-0.4,0.1c0.1-0.1,0.1-0.2,0.2-0.3h0.3C86.5,56.8,86.5,56.9,86.5,57 M86.9,61.2
		c0,0-0.1-0.1-0.1-0.1c0-0.1,0.1-0.1,0.1-0.2c0,0.1,0.1,0.2,0.1,0.2C87,61.2,87,61.2,86.9,61.2 M87.3,58.3c0,0-0.1,0.1-0.1,0.1
		c-0.1-0.1-0.2-0.1-0.3-0.2c-0.1-0.2,0-0.5,0.1-0.7c0.2,0.1,0.3,0.3,0.5,0.5C87.3,58.2,87.3,58.3,87.3,58.3 M88.5,58.2h0.2v0.1
		C88.6,58.3,88.6,58.3,88.5,58.2 M88.7,60.6c0,0,0-0.1,0.1-0.1c0,0,0.1,0.1,0.1,0.1H88.7z M90,62.2V62l0.2,0.1L90,62.2z M90.6,62.7
		L90.6,62.7c0-0.1,0-0.1,0.1-0.2c0.1,0,0.1,0,0.2,0.1C90.7,62.7,90.7,62.7,90.6,62.7 M92,56.5c0.2-0.1,0.1-0.1,0.2-0.3h0.1v0.5H92
		V56.5z M91.5,61L91.5,61L91.5,61c-0.1,0-0.1-0.1-0.2-0.1C91.3,60.9,91.4,61,91.5,61 M90.6,58.4c0.1,0,0.2-0.1,0.2-0.1
		c0.1,0.1,0.2,0.2,0.2,0.2c0,0.3-0.1,0.4-0.3,0.5c-0.1-0.1-0.2-0.2-0.2-0.2C90.5,58.6,90.5,58.6,90.6,58.4 M90.5,60.5
		c0,0,0,0.1-0.1,0.1c-0.1-0.1-0.2-0.1-0.2-0.2C90.3,60.5,90.4,60.5,90.5,60.5 M89.3,56.7c0.1,0.1,0.2,0.2,0.3,0.2V57h-0.4
		C89.3,56.8,89.3,56.8,89.3,56.7 M89.8,57.3c0,0.1-0.1,0.2-0.1,0.2c-0.2-0.1-0.1,0-0.2-0.3C89.6,57.3,89.7,57.3,89.8,57.3
		 M89.6,59.5c0.2,0.1,0.3,0.1,0.5,0.2c-0.1,0.3-0.2,0.4-0.3,0.6c-0.4-0.1-0.6-0.1-0.7-0.5C89.3,59.7,89.4,59.6,89.6,59.5 M89.2,60.8
		c0.1,0.2,0.1,0.2,0,0.5c-0.2,0-0.2,0-0.3-0.1C89,61.1,89.1,61,89.2,60.8 M88.5,56.5l0.1-0.1c0.2,0.1,0.1,0,0.2,0.2h-0.3
		C88.5,56.6,88.5,56.6,88.5,56.5 M87.5,62.5c0,0-0.1,0-0.1-0.1c0-0.3,0-0.3,0.2-0.5c0.1,0,0.2,0.1,0.2,0.1
		C87.7,62.2,87.6,62.4,87.5,62.5 M87.5,59.6C87.5,59.6,87.5,59.6,87.5,59.6l0.2,0.1c0,0,0,0-0.1,0.1C87.6,59.7,87.5,59.7,87.5,59.6
		L87.5,59.6z M87.3,57.5v-0.2l0.1-0.1C87.6,57.3,87.4,57.4,87.3,57.5 M87.3,57L87.3,57c-0.1,0-0.2-0.1-0.2-0.1h0.1
		c0,0,0-0.1,0.1-0.1h0.1C87.4,56.8,87.4,56.9,87.3,57 M36.3,95.7c0.1,0.3,0.2,0.5,0.6,0.6C37,95.8,36.6,95.8,36.3,95.7 M135.8,107.2
		c0.1-0.9,0-1.5-0.2-2.2c-0.3-1.2-0.8-2.2-1.5-3.1c0,0,0,0,0,0c0,0-0.1,0-0.1-0.1c-0.5-0.7-1.2-1.4-2-1.9c-0.9-0.9-1.9-1.4-3.1-1.8
		c-1.2-0.4-2.6-0.6-4.1-0.6l-0.1,0.2l-1.1-0.2h-9.6c0,0,0,0-0.1,0v0h-0.4l0.1,2.8c0,0,0.1-0.1,0.1-0.1c0.8,0.8,0.5,1-0.1,0.9l0,1.4
		c0.1,0.3,0.1,0.7,0,0.9l0,2.3l-0.2,9.6v17.8l0.1,0.1l0.7-0.1h7v-12.8h3.5c0.7,0,1.4-0.1,2-0.2c0.9-0.2,1.8-0.4,2.5-0.9
		c1.7-0.3,3-1.2,4.1-2.3c1.9-2.1,2.8-4.9,2.8-8c0-0.3,0-0.5-0.1-0.7C136.1,107.7,136,107.4,135.8,107.2 M127.3,99.2
		C127.7,99.8,127.3,100.1,127.3,99.2 M126.5,100.8c-0.7-0.6-0.1-0.4-0.5-1C126.7,99.6,126.8,99.9,126.5,100.8 M126.2,101.1
		C126.7,101.7,126.2,102.5,126.2,101.1 M124.7,101.6C127,103.5,124.7,103.1,124.7,101.6 M113.8,98.2C115,98.2,113.8,99.4,113.8,98.2
		 M114.3,101.3C114.8,101.9,114.3,102.2,114.3,101.3 M115.3,101.8c-0.5,0.2-0.2-0.5-0.3-0.8C115.7,101.6,115.1,101.3,115.3,101.8
		 M115.1,100.3C115.9,100.3,115.7,100.7,115.1,100.3 M128.3,109.6c-0.2,2.5-1.5,3.8-3.5,3.8h-3.5l0-1.3v-1.3l-0.1-2.1l-0.1-3.1v-0.9
		l0.2-0.7h3.5c1.4,0,2.4,0.6,3.1,1.8c0.2,0.3,0.3,0.7,0.5,1.1c-0.2,0.2-0.1,0.6-0.1,0.9c0.1,0.3,0.1,0.6,0.1,0.9c0,0,0,0.1,0.2,0.1
		C128.4,109.1,128.4,109.4,128.3,109.6 M128.8,99.2C129.7,99.2,129.4,99.7,128.8,99.2 M131.4,99.5C132.4,99.9,132,102.2,131.4,99.5
		 M36.8,108.1c0.2-0.3-0.4-0.3-0.3-0.1c0.1,0,0.1,0,0.1,0.1H36.8z M3,131.1h0.4v-0.3c-0.1,0-0.2-0.1-0.3-0.1
		C3.1,130.8,3,131,3,131.1 M101.7,77.1c0.1-0.2,0-0.7-0.2-0.8C101.3,76.6,101.5,77,101.7,77.1 M101.6,75.2c0-0.2,0.2-0.2,0.2-0.5
		C101.5,74.7,101.3,75.2,101.6,75.2 M101.8,75.4c-0.5,0-0.4,0.6,0,0.6C101.9,75.7,101.6,75.6,101.8,75.4 M101.7,76.3h0.2v-0.2h-0.2
		V76.3z M33.2,91.2l3.7-21.8l0.9-5.4l0.9-4.8l0.6-3.6l-0.2,0.1l-0.4,0l-1-0.1l-3.8,0.1l-1.8-0.1h-0.8v0.4c-0.3,0-0.5,0-0.6-0.2
		c0.2-0.1,0.2-0.1,0.2-0.2h-0.6v0.1l0.1,0.3l-0.2,1.1l-0.1,0.7c0-0.1,0.1-0.1,0.1-0.2h0.2c0,0.1,0,0.3-0.1,0.4h-0.1
		c-0.1,0-0.1-0.1-0.2-0.1l-0.4,4.9l-0.1,0.7l0.1-0.1l0.3,0.2v0.1c-0.1,0-0.2,0.1-0.3,0.1l-0.2-0.1l-0.3,3.9l-0.7,6.1l-0.7,7.7
		L27,74.4l-0.7-4.6l-1-6.4L25.3,63h-0.1v-0.5c0,0,0.1,0.1,0.1,0.1L24.8,60c-0.1,0,0,0-0.1-0.1c0.1,0,0.1,0,0.1,0l-0.7-4.2l-0.4,0.1
		l-0.9,0l-2.4-0.1h-3.3c0,0.1,0.1,0.3,0.1,0.4c0,0,0,0-0.1,0.1l-0.1-0.1h-0.3c0-0.1,0-0.3-0.1-0.4h-1.7l-0.3,2
		c0.1,0,0.1-0.1,0.2-0.1c0.1,0,0.3,0.1,0.4,0.1v0.2c-0.2,0.1-0.4,0.2-0.6,0.2l-0.6,3.7c0.1,0,0.1,0,0.2,0c-0.1,0.2-0.2,0.3-0.2,0.5
		h0l-2.9,19.1L9.5,64.7c0,0,0,0,0,0.1H9.4v-0.2h0.1l-0.3-3.2c-0.3,0.4-0.7,0.5-0.8,0.8C8.3,62.1,8.3,62,8.2,62
		c0-0.2-0.1-0.2-0.2-0.4c0.3-0.4,0.4-0.5,0.6-0.9l0.3-0.1c0,0.2,0,0.3,0.1,0.5l0.2,0L9,59.4c0,0.2,0,0.3-0.1,0.5
		C8.8,60,8.6,60,8.5,60c-0.1-0.1-0.2-0.2-0.2-0.3c0.1-0.2,0-0.2,0.2-0.3h0.4c-0.1-0.2-0.2-0.5-0.2-0.7c0.2-0.1,0.2-0.3,0.3-0.5
		l-0.2-1.8H8.6c0,0.9-0.1,1.8-0.9,1.4c0,0,0-0.1-0.1-0.1c0.1-0.2,0.1-0.3,0.2-0.5c-0.3-0.2-0.4-0.4-0.3-0.6c0.3-0.1,0.7-0.3,1-0.5
		c-0.1-0.2-0.1-0.4-0.1-0.6h-1c-0.1,0.1-0.2,0.2-0.3,0.3c-0.1,0-0.2-0.1-0.3-0.1c0-0.1,0-0.1,0-0.2H4.4c0,0,0,0,0,0
		C4.2,55.9,4,56,3.8,56.2l-0.3-0.2c-0.1,0.1-0.2,0.2-0.3,0.2C3,56.1,2.9,56,2.8,55.9v-0.2H1.6c-0.1,0.3-0.6,0.5-0.9,0.8
		c-0.2,0.3-0.2,0.8-0.5,1.3l0,0.2c0.1,0.1,0.2,0.1,0.3,0.2v0.1c-0.1,0.5-0.1,0.5,0,1c0.3,0,0.3-0.1,0.5,0.1c0,0.1,0,0.2,0.1,0.3
		c-0.1,0.1-0.3,0.2-0.4,0.3l0.3,1.5c0,0,0.1,0,0.1-0.1c0.2,0.1,0.2,0.1,0.3,0.3c-0.1,0-0.3-0.1-0.4-0.1L1,62.4
		c0.2,0.1,0.3,0.2,0.5,0.3c0,0-0.1,0.1-0.1,0.1c-0.1,0.1-0.2,0.1-0.3,0.2l0.1,0.6v0c0.2-0.1,0.4-0.2,0.6-0.3H2
		c-0.1,0.2-0.2,0.3-0.3,0.5c-0.1,0-0.3-0.1-0.4-0.1l1.1,6.6V70c0-0.1,0.1-0.1,0.1-0.2c0.2,0,0.3,0,0.5,0.1v0.2
		c-0.3,0.1-0.2,0-0.3,0.2H2.4l0.2,1.4c0,0,0.1-0.1,0.1-0.1c0.1,0.2,0.1,0.3,0,0.4l1,5.7c0,0,0,0,0,0.1L5.6,89c0.1,0.1,0.1,0.1,0,0.2
		l0.3,2l0.4,0.1l1,0.2l2.5-0.2h5.7v-1.6l0.7-2.8l1-6.6l0.7-4.8l0.9-5.2l0.8-5.3l0.2,0.7l0.4,1.7l0.5,4.1l1.5,9.8l0.6,4.1l0.4,3.4
		l0.4,2.6h0.2l0.6,0.1l2.2-0.1H33.2z M37.3,56.2l0.1-0.1c0.1,0.1,0.1,0.1,0.1,0.3h-0.2V56.2z M36.5,57.8l0.2-0.4
		c0.2,0.2,0.2,0.1,0.1,0.3c-0.1,0.3-0.1,0.3-0.3,0.4c0,0-0.1-0.1-0.1-0.1C36.4,57.9,36.5,57.8,36.5,57.8 M35.8,57.2h0.3v0.2
		l-0.2,0.3l-0.3,0.1c0-0.1-0.1-0.1-0.1-0.2C35.6,57.5,35.7,57.3,35.8,57.2 M34.8,66.3c0.1,0,0.1,0,0.2,0.1c-0.1,0.1-0.1,0.1-0.3,0.2
		C34.7,66.5,34.7,66.4,34.8,66.3 M34.2,57.4c0.1,0,0.2,0,0.3,0.1c0,0.1,0,0.3-0.1,0.4h-0.3C34.2,57.7,34.2,57.6,34.2,57.4
		 M31.7,60.8c0,0.1,0,0.1-0.1,0.2c-0.1,0-0.2,0-0.2-0.1v-0.3C31.6,60.6,31.6,60.6,31.7,60.8 M31.6,60v-0.2c0.1,0.1,0.2,0.1,0.3,0.2
		c0,0.1,0,0.1-0.1,0.2h-0.1C31.7,60.1,31.7,60,31.6,60 M31.9,78.9c-0.2-0.1-0.2-0.1-0.3-0.2c0,0,0-0.1,0.1-0.1
		c0.1,0,0.2,0.1,0.3,0.1C31.9,78.8,31.9,78.8,31.9,78.9 M33.8,58.7c-0.2-0.1-0.1,0-0.2-0.2h0.2V58.7z M34,58.9
		c0.1,0.1,0.1,0.1,0.1,0.3L34,59.1V58.9z M33.6,56.2c0.1,0,0.2,0.1,0.2,0.1c0,0.1,0,0.1-0.1,0.2c-0.1,0-0.2,0-0.2,0.1
		C33.6,56.4,33.6,56.3,33.6,56.2 M32.8,57.8c0.1-0.1,0.2-0.2,0.3-0.2c0.2,0.1,0.4,0.2,0.6,0.2c0,0.1,0,0.2-0.1,0.3h-0.1L32.8,57.8
		L32.8,57.8z M32.8,63.7c0.1,0,0.1,0,0.2,0.1c0,0.1,0,0.2-0.1,0.2c-0.1,0-0.1,0-0.2-0.1C32.7,63.9,32.7,63.8,32.8,63.7 M32.6,85.6
		h0.2c0,0-0.1,0.1-0.1,0.1c-0.1,0.1,0,0-0.2,0.1C32.6,85.7,32.6,85.6,32.6,85.6 M32.1,89c0.1,0,0.2,0.1,0.2,0.1c0,0.2,0,0.2-0.1,0.3
		C32.1,89.2,32.1,89.2,32.1,89 M32.1,63.4L32,63.7c-0.2,0-0.3,0-0.5,0.1v-0.3c0.1-0.1,0.2-0.3,0.2-0.4l0.2,0.1
		C32.1,63.3,32,63.2,32.1,63.4 M31.4,57.8c0.2,0.1,0.1,0.1,0.3-0.1c0.1,0,0.2,0.1,0.3,0.1c-0.1,0.1-0.1,0.1-0.3,0.1
		c0,0.2-0.1,0.3-0.1,0.5h-0.3C31.3,58.1,31.3,57.9,31.4,57.8 M31.2,74.7c0.1,0.1,0.1,0,0.1,0.2L31.2,75V74.7z M31.2,66.9
		c-0.1,0-0.2,0-0.3,0.1c0-0.1,0-0.3,0.1-0.4L31.2,66.9L31.2,66.9z M30.8,65.2c0,0,0-0.1,0.1-0.1C30.8,65.1,30.9,65.1,30.8,65.2
		 M30.9,65.8L30.9,65.8l0.1,0.1c0,0.1,0,0.2,0.1,0.2h-0.3v-0.3C30.8,65.8,30.8,65.8,30.9,65.8 M31,62.8c-0.2-0.1-0.1,0-0.2-0.1
		C30.9,62.7,31,62.8,31,62.8 M30.5,56.6c0-0.1,0-0.1,0.1-0.2c0.1,0,0.2,0,0.3,0.1v0.2L30.5,56.6z M30.8,88.9c0,0.1-0.1,0.2-0.1,0.2
		h-0.1v-0.4C30.6,88.8,30.7,88.9,30.8,88.9 M30.3,59c0.2,0.1,0.1,0,0.2,0.3C30.2,59.1,30.3,59.2,30.3,59 M30.2,61.6
		c0-0.1,0.1-0.3,0.1-0.4l0.3,0.5C30.5,61.7,30.3,61.7,30.2,61.6 M29.7,65.9h0.1c-0.1,0.2,0,0.1-0.2,0.2C29.7,66.1,29.7,66,29.7,65.9
		 M27.2,77.3h0.2c0,0.1-0.1,0.1-0.1,0.2h-0.1V77.3z M8.1,62.6c-0.1,0-0.1,0-0.2,0.1c0-0.1,0-0.2,0.1-0.3C8,62.5,8.1,62.5,8.1,62.6
		 M7.7,58.4c0.3,0,0.3,0,0.4,0.2v0.1c-0.2,0.1-0.3,0.2-0.5,0.2c0-0.1,0-0.2-0.1-0.3L7.7,58.4z M7.2,59.2l0.4-0.1h0.2
		c0,0,0.1,0.1,0.1,0.1c0.1,0.5,0,0.9-0.5,0.9l-0.1-0.2C7.3,59.5,7.2,59.4,7.2,59.2 M7.8,61.1c0,0.1-0.1,0.2-0.1,0.2
		c-0.4,0.1-0.5,0.1-0.8,0.3v-0.1c0.1-0.3,0.2-0.9,0.4-1.2C7.5,60.5,7.4,60.9,7.8,61.1 M6.9,56.6c0.1,0,0.2,0.1,0.3,0.1v0.1
		c0,0.1,0,0.2-0.1,0.3L6.8,57C6.9,56.9,6.9,56.7,6.9,56.6 M6.3,56.8c0.3,0.1,0.4,0.3,0.2,0.6c-0.1,0-0.2-0.1-0.3-0.1
		C6.2,57.1,6.3,56.9,6.3,56.8 M5.9,56.7c0,0.1,0,0.1,0.1,0.2H5.9c0,0,0,0-0.1-0.1C5.9,56.8,5.9,56.8,5.9,56.7 M5,57.1
		c0,0,0.1,0,0.1-0.1c0.1,0,0.2,0,0.2,0.1c0,0.1,0,0.1-0.1,0.2H4.9C4.9,57.2,4.9,57.1,5,57.1 M4.6,58.7C5,58.8,4.9,59,5,59.2v0.1
		c0,0,0,0.1-0.1,0.1c-0.1,0-0.2,0-0.3-0.1l-0.1-0.2C4.5,59,4.6,58.9,4.6,58.7 M5.1,61.3l-0.2,0.1c0-0.1,0-0.2,0.1-0.2
		C5,61.2,5.1,61.3,5.1,61.3 M3.5,57.1l0.3,0.1v0.4H3.8c-0.1,0-0.2,0-0.2-0.1c0-0.1,0-0.1-0.1-0.2V57.1z M3.8,57.8
		c0.1,0,0.2,0.1,0.2,0.1c0,0.1,0,0.1-0.1,0.2c-0.1,0-0.3-0.1-0.4-0.1C3.6,57.9,3.7,57.9,3.8,57.8 M3,57.6c0.1,0.1,0.2,0.2,0.3,0.2
		C3.1,57.9,3,58,2.8,58.1c0,0,0-0.1-0.1-0.1C2.8,57.9,2.9,57.8,3,57.6 M2.8,59.8c0.1,0,0.1,0,0.2,0.1C2.8,60,2.9,60,2.7,60L2.8,59.8
		z M2.7,60.4c0.1,0.1,0.1,0,0.1,0.2c-0.1,0-0.1,0.1-0.2,0.1C2.7,60.6,2.7,60.5,2.7,60.4 M2.3,56.8h0.1c-0.1,0.1,0,0-0.2,0.1
		C2.2,56.9,2.3,56.9,2.3,56.8 M2.4,60.8L2.4,60.8l-0.2,0.1c-0.1-0.2-0.1-0.4-0.2-0.6c0.1-0.1,0.1-0.2,0.2-0.2
		C2.4,60.2,2.4,60.5,2.4,60.8 M1.9,56.3C2,56.2,2,56.2,2,56.1C2.1,56.2,2.1,56.2,1.9,56.3L1.9,56.3L1.9,56.3z M1.4,56.4l0.5,0.2v0.2
		C1.6,56.9,1.6,57,1.2,57c-0.1-0.1-0.1-0.1-0.2-0.2C1.2,56.7,1.3,56.6,1.4,56.4 M1.8,61.9H1.5c0,0-0.1-0.1-0.1-0.1
		c0,0,0-0.1,0.1-0.1l0.1-0.1c0.1,0,0.2,0,0.2,0.1V61.9z M1.3,60.9c0-0.2,0-0.4,0.1-0.6l0.2,0.1v0.6H1.5C1.3,61,1.4,61.1,1.3,60.9
		 M1.6,60.2c-0.1,0-0.3,0-0.4-0.1c0.1-0.3,0.2-0.4,0.2-0.8c0.2,0.1,0.3,0.2,0.4,0.5C1.7,59.9,1.7,60,1.6,60.2 M1.5,58.6l-0.1-0.1
		c-0.1-0.1-0.2-0.2-0.3-0.3H0.6c0.1-0.1,0.2-0.3,0.2-0.4c0.4,0,0.6,0,0.9,0.2c0.2-0.2,0.4-0.5,0.6-0.7c0.2,0.2,0.1,0.7,0.1,1
		c-0.2,0-0.2,0-0.3-0.2C1.8,58.2,1.7,58.4,1.5,58.6 M2.3,68.1C2.2,68.1,2.1,68,2,67.9c0,0,0-0.1-0.1-0.1c0,0,0-0.1,0.1-0.1
		c0,0,0.1,0,0.1-0.1C2.4,67.8,2.3,67.8,2.3,68.1 M2.6,67.2c-0.1,0-0.1-0.1-0.2-0.1v-0.2c0.2,0.1,0.1,0,0.2,0.2
		C2.7,67.1,2.6,67.2,2.6,67.2 M2.5,64.2c-0.1,0-0.1-0.1-0.2-0.1c-0.1-0.2-0.1-0.3-0.2-0.5c0.1-0.1,0.2-0.2,0.2-0.2
		c0.1,0.1,0.2,0.3,0.3,0.4C2.6,63.9,2.6,64.1,2.5,64.2 M2.8,67.9l-0.1-0.1v-0.2c0.1,0.1,0.1,0.1,0.2,0.2C2.9,67.9,2.9,67.9,2.8,67.9
		 M2.9,64.5c0-0.6-0.1-1.2,0.2-1.8c0.2,0.1,0.1,0,0.2,0.2c0.4,0.5,0,1.2-0.1,1.7H2.9C2.9,64.5,2.9,64.5,2.9,64.5 M3.5,65.5
		c-0.2-0.1-0.3-0.2-0.3-0.4C3.4,65.2,3.4,65.3,3.5,65.5 M3.7,70.8L3,70.6c0-0.2,0-0.3,0.1-0.5c0.2,0,0.3,0,0.5,0.1
		c0.1,0.1,0.2,0.1,0.2,0.2V70.8z M3.6,64.9v-0.2c0.1,0.1,0,0,0.1,0.2H3.6z M3.7,62.4c-0.2,0-0.3,0.1-0.5,0.1
		c-0.1-0.2-0.1-0.2-0.5-0.2c-0.1,0.1-0.2,0.1-0.2,0.2c0,0.1-0.1,0.3-0.1,0.4H2.2v-0.2c0.2-0.2,0.1-0.3,0-0.6c0.1-0.1,0.1,0,0.2-0.2
		c0.3,0.1,0.4,0.2,0.6,0.4c0.1,0,0.1,0,0.2-0.1C3.1,62,3,61.8,3,61.6c0.1-0.1,0.1-0.1,0.2-0.2l0.3,0.1C3.6,61.8,3.7,62,3.7,62.4
		 M3.6,60.2c-0.1-0.4-0.2-0.3-0.5-0.6c0,0,0-0.1,0.1-0.1l0.1-0.1c0.3,0.1,0.6,0.3,0.7,0.5C4,60,4,60,3.9,60
		C3.8,60.1,3.7,60.2,3.6,60.2 M4.2,70.5L4,70.3c-0.1-0.1-0.1,0-0.1-0.2c0.1,0.1,0.2,0.1,0.3,0.2L4.2,70.5z M4.2,63.4
		c0.1,0.1,0.1,0.2,0.1,0.3C4.2,63.6,4.2,63.5,4.2,63.4 M4.2,62c-0.1-0.5-0.4-0.5-0.4-1.1c0.1-0.1,0.2-0.2,0.3-0.2
		c0.3,0.2,0.1,0.4-0.1,0.7c0.1,0.1,0.2,0.1,0.2,0.2c0.4-0.2,0.5,0,0.6,0.3c0,0.1,0,0.1-0.1,0.2c0,0-0.1,0-0.1,0.1
		C4.6,62,4.4,62,4.2,62 M5,66.7c-0.1,0-0.1,0-0.2-0.1c0-0.1,0.1-0.1,0.1-0.2h0.2L5,66.7z M5,63L5,63c0-0.2,0.1-0.3,0.1-0.5
		c0.1,0,0.2,0,0.2,0.1c0,0.1,0,0.3,0.1,0.4H5z M5.5,58.7v-0.2c0,0.1,0.1,0.2,0.1,0.2L5.5,58.7z M5.5,58.5c0,0,0-0.1,0.1-0.1
		c0,0,0,0.1,0.1,0.1H5.5z M5.3,58.3c-0.1-0.1-0.2-0.2-0.2-0.3c0-0.1,0.1-0.3,0.1-0.4c0.4,0.1,0.3,0.2,0.5,0.3c0,0,1.2-0.1,1.4-0.1
		v0.3c-0.1,0.1-0.2,0.3-0.2,0.4c-0.2,0-0.3,0.1-0.5,0.1c0-0.3,0.2-0.3-0.1-0.5C6,58,5.6,58.2,5.3,58.3 M6.6,62.5
		C6.6,62.5,6.6,62.5,6.6,62.5l-0.1,0.1c-0.1-0.1-0.2-0.2-0.2-0.2c-0.3-0.3,0-0.4,0.1-0.6C6.6,61.9,6.6,62.2,6.6,62.5 M5.9,65H5.8
		l0.1-0.1C5.8,64.9,5.9,65,5.9,65 M6,71.3c0,0-0.1,0-0.1,0.1c-0.1,0-0.1-0.1-0.2-0.1c0-0.1,0.1-0.2,0.1-0.3C5.9,70.9,6,71,6,71
		L6,71.3z M6,60.4c0.2,0.1,0.1,0,0.2,0.3H6V60.4z M6.2,64.2c0-0.1-0.1-0.3-0.1-0.4c0.2-0.1,0.1,0,0.1-0.2c0.2,0,0.3,0.1,0.5,0.1
		C6.5,63.9,6.5,64.1,6.2,64.2 M6.9,58.9C7.1,59,7,59,7.1,59.2l-0.4,0.1C6.7,59.1,6.8,59.1,6.9,58.9 M6.8,64.5c0.1-0.3,0.1-0.7,0.2-1
		c0.1,0.2,0.2,0.7,0.2,1C7,64.5,6.9,64.5,6.8,64.5C6.8,64.5,6.8,64.5,6.8,64.5 M7,66.7c0,0-0.1-0.1-0.1-0.1c0,0,0-0.1,0.1-0.1
		l0.1-0.2c0.1,0,0.1,0.1,0.2,0.1C7.2,66.5,7.1,66.6,7,66.7 M7.2,65.8c0-0.1,0-0.1-0.1-0.2c0-0.1,0.1-0.1,0.1-0.2
		c0.1,0.1,0.2,0.2,0.3,0.3H7.2z M7.6,73v-0.2C7.6,72.9,7.6,73,7.6,73L7.6,73z M7.6,68.6c0,0,0-0.1,0.1-0.1h0.2v0.2c0,0,0,0-0.1,0.1
		c0,0-0.1,0-0.1-0.1C7.7,68.6,7.7,68.6,7.6,68.6 M7.8,70.2c0-0.1,0-0.2,0.1-0.3H8C8,70,7.9,70.1,7.8,70.2L7.8,70.2z M8.4,77.5H8
		c0-0.1,0.1-0.1,0.1-0.2C8.2,77.4,8.3,77.4,8.4,77.5L8.4,77.5z M8.2,64.7L8,64.5c0-0.1,0.1-0.2,0.1-0.3c0.1,0.2,0.2,0.3,0.2,0.5H8.2
		z M9.5,70.6c-0.1,0-0.1-0.1-0.2-0.1c0-0.1,0-0.2,0.1-0.3c0.1,0,0.2,0.1,0.2,0.1C9.6,70.5,9.6,70.5,9.5,70.6 M12.1,78.2l0.1-0.1
		c0.1,0.1,0.1,0,0.1,0.2C12.2,78.3,12.2,78.3,12.1,78.2 M13.3,77.6c-0.3-0.1-0.2,0-0.2-0.3c0.1,0,0.1,0,0.2,0.1V77.6z M14.7,59.7
		c0.1,0,0.2,0.1,0.2,0.1c0,0.2,0,0.2-0.1,0.3C14.7,59.9,14.7,60,14.7,59.7 M14.3,62.7l0.1-0.2c0.1,0.1,0.2,0.1,0.2,0.2l-0.1,0.1
		L14.3,62.7L14.3,62.7z M14.2,65.9c0,0-0.1,0-0.1-0.1v-0.1c0-0.1,0-0.1,0.1-0.2h0.2C14.3,65.8,14.3,65.8,14.2,65.9 M14.7,67.7
		l-0.1-0.1c0-0.1,0.1-0.2,0.1-0.2h0.2C14.8,67.5,14.7,67.6,14.7,67.7 M15,63.7c-0.2,0.2-0.4,0.4-0.6,0.6c-0.1,0-0.2,0-0.3-0.1
		c0-0.2,0-0.3,0.1-0.5c0.4,0,0.4-0.1,0.5-0.4c0.1,0,0.2,0,0.3,0.1V63.7z M15.1,60.9C15.1,60.9,15.1,60.9,15.1,60.9
		c-0.1,0-0.2,0-0.2,0c-0.2-0.2-0.3-0.3-0.5-0.4v-0.4c0.3,0.2,0.5,0.5,0.7,0.6V60.9z M15.3,56.6c0,0,0-0.1,0.1-0.1
		c0.3,0,0.5,0,0.7,0.1c-0.1,0.1-0.1,0.2-0.2,0.3C15.6,56.8,15.4,56.7,15.3,56.6 M16.3,57.8L16.2,58c-0.1,0-0.2,0-0.2-0.1
		c0-0.1,0-0.2-0.1-0.2C16.1,57.8,16.2,57.8,16.3,57.8 M15.9,58.9c-0.3,0-0.2,0.1-0.3-0.1c0,0,0-0.1,0.1-0.1c0.3,0,0.5,0.1,0.7,0.2
		c0,0.1,0,0.2-0.1,0.2c-0.1,0.3,0,0.2-0.2,0.3C16,59.2,16,59.1,15.9,58.9 M16.3,67.3l-0.1-0.1h0.2L16.3,67.3z M17.1,59.5
		c-0.1,0-0.2,0-0.3,0.1v-0.1c0.1-0.1,0.1-0.2,0.2-0.3c0.1,0,0.1,0.1,0.2,0.1C17.1,59.4,17.1,59.5,17.1,59.5 M23.1,56.7
		c0,0,0.1,0.1,0.1,0.1l-0.1,0.1V56.7z M22.1,59c0.1,0,0.2,0.1,0.2,0.1l-0.1,0.1h-0.1V59z M22.4,65.2c0,0-0.1,0.1-0.1,0.1v-0.1H22.4z
		 M21.1,56.7c0.1,0,0.2,0.1,0.3,0.1c0,0.1-0.1,0.1-0.1,0.2h-0.2V56.7z M20.8,57.8c0.2-0.1,0.1,0,0.1-0.1c0.3,0,0.2,0,0.3,0.2h0.1
		c0,0,0,0.1-0.1,0.1c-0.2,0-0.3,0-0.5-0.1V57.8z M20.3,60.4l-0.2-0.1c-0.1-0.1-0.1-0.1-0.1-0.3c0-0.1,0.1-0.1,0.1-0.2
		c0.2-0.1,0.3,0,0.4-0.2c0-0.1,0-0.2,0.1-0.2c0.1,0,0.2,0.1,0.2,0.1C20.7,60,20.5,60.1,20.3,60.4 M20.6,61.4c-0.1,0-0.1-0.1-0.2-0.1
		l0.2-0.2C20.8,61.2,20.8,61.3,20.6,61.4 M18.9,56.3c0.2,0.1,0.2,0.1,0.2,0.4c0,0,0,0.1-0.1,0.1c-0.1,0-0.2,0-0.3-0.1L18.9,56.3z
		 M18.6,57.9v-0.2c0.2-0.2,0.3-0.3,0.5-0.5h0.1v0.5c0.4-0.1,0.5-0.2,0.9-0.1v-0.3c0.3,0,0.3,0.1,0.5,0.2v0.1L20.5,58
		c-1,0.1-1.1,0.6-1.5,1.3h-0.3c-0.1-0.1-0.3-0.1-0.3-0.2c0.3-0.1,0.6-0.4,0.7-0.6V58C18.9,58,18.8,58,18.6,57.9 M18.9,60.7v-0.2
		c0-0.1,0-0.2,0.1-0.2C19.1,60.4,19.1,60.5,18.9,60.7L18.9,60.7z M19,60.9c-0.1,0.1-0.1,0.2-0.2,0.3c0-0.1,0-0.3,0.1-0.4
		C18.9,60.8,18.9,60.9,19,60.9 M18.3,61.2c0.1,0,0.2,0,0.3,0.1c-0.1,0.1-0.2,0.2-0.2,0.2c-0.1-0.1-0.1-0.1-0.2-0.2L18.3,61.2z
		 M17.4,69.8h-0.1c0-0.1,0-0.2,0.1-0.3l0.1,0.1C17.4,69.6,17.4,69.7,17.4,69.8 M17.4,65.9h-0.2c0-0.1,0-0.1-0.1-0.2
		c0-0.1,0-0.1,0.1-0.2l0.2,0.1C17.5,65.8,17.4,65.9,17.4,65.9 M17.4,62.4v-0.1h0.1C17.5,62.4,17.5,62.4,17.4,62.4 M17.8,57
		C17.8,57,17.7,57,17.8,57c0-0.2,0-0.4,0-0.6H18c0,0.1,0,0.2-0.1,0.2V57H17.8z M18.2,57.9L17.9,58c0,0,0-0.1,0.1-0.1L18.2,57.9
		L18.2,57.9z M18.6,63.7h-0.3c0-0.1,0-0.2,0.1-0.3h0.4C18.7,63.7,18.7,63.6,18.6,63.7 M18.5,62.1c0-0.1,0.1-0.2,0.1-0.3h0.2L18.7,62
		L18.5,62.1z M19.1,63.1c-0.1,0-0.2,0.1-0.2,0.1h-0.1c0-0.3,0-0.4,0.1-0.7c0.1,0,0.2,0,0.3,0.1C19.1,62.7,19.1,62.9,19.1,63.1
		 M19.7,62.4l-0.1-0.1c0-0.1,0-0.1-0.1-0.2c0-0.1,0.1-0.2,0.1-0.3l0.2,0.1C19.9,62.3,19.9,62.3,19.7,62.4 M20.7,63.2h-0.2
		c-0.1-0.2,0-0.2-0.3-0.2c-0.1,0.2,0,0.2-0.2,0.3c0,0-0.1-0.1-0.1-0.1c0,0,0-0.1,0.1-0.1l0.4-0.5c0.1,0,0.3,0,0.4,0.1
		c0,0,0,0.1,0.1,0.1L20.7,63.2z M21.5,60.2c-0.1,0-0.1,0-0.2,0.1c0-0.1-0.1-0.2-0.1-0.2c0.1-0.1,0.2-0.2,0.2-0.3
		C21.5,59.8,21.5,59.9,21.5,60.2 M21.5,63.5h0.1C21.6,63.6,21.6,63.6,21.5,63.5 M21.8,63.8L21.8,63.8c-0.1-0.1-0.1-0.1-0.2-0.2
		C21.7,63.7,21.8,63.7,21.8,63.8L21.8,63.8z M22.1,64.2h0.2v0.2h-0.2c0,0-0.1-0.1-0.1-0.1C22,64.3,22,64.3,22.1,64.2 M22.7,67.8
		l-0.5,0.1l-0.1-0.2c0-0.1,0-0.1,0.1-0.2c0.3,0,0.4,0,0.6,0.2C22.7,67.7,22.7,67.7,22.7,67.8 M22.7,58l0.3-0.3
		c0.1,0.1,0.1,0.1,0.2,0.2c0,0.1-0.1,0.2-0.1,0.3h-0.2C22.9,58.1,22.8,58.1,22.7,58 M23.1,60.2v-0.7l0.2,0.8
		C23.2,60.3,23.2,60.2,23.1,60.2 M23.6,60L23.6,60c0-0.1,0-0.3,0-0.4c0.2,0.1,0.1,0.1,0.2,0.3C23.7,60,23.7,60,23.6,60 M24.2,59H24
		l-0.1-0.2c0-0.3,0-0.3,0.1-0.4c0.2,0.1,0.2,0.2,0.3,0.5L24.2,59z M101.8,82c0.2-0.1,0.1-0.5-0.2-0.5C101.4,81.7,101.6,82,101.8,82
		 M35.9,106.9h-0.2v0.2h0.2V106.9z M101.4,89.4c0.2,0,0.4,0,0.4-0.2C101.6,89,101.3,89.1,101.4,89.4 M101.8,78.4
		c-0.1-0.1-0.3,0.1-0.3,0.1C101.4,78.8,102,78.5,101.8,78.4 M35.3,107.4c-0.2,0.4,0.6,0.1,0.3-0.1C35.5,107.2,35.3,107.4,35.3,107.4
		 M101.8,79c-0.2,0-0.1-0.2-0.3-0.2C101.5,79,101.8,79.3,101.8,79 M101.6,81.2c0.5,0.1,0.3-0.7-0.1-0.6
		C101.5,80.9,101.7,80.9,101.6,81.2"/>
	<polygon fill="#FFFFFF" points="3.8,154.1 3.8,152.4 10.5,152.4 10.5,148.5 3.8,148.5 3.8,146.7 12.5,146.7 12.5,154.6 10.5,154.6 
		10.5,154.1 	"/>
	<path fill="#FFFFFF" d="M17.6,154.2v0.6h-1.9v-8.2h8.8v8.2h-1.9v-0.6H17.6z M22.5,148.3h-5v4.2h5V148.3z"/>
	<path fill="#FFFFFF" d="M31.4,145.4l1.9,0.1c0.1,0,0.2,0,0.2,0.1c0,0.1-0.2,0.2-0.2,0.2v2h3.6v1.7h-3.6c-0.1,1.9-0.8,4.4-4,6.1
		c-0.2-0.3-0.8-0.9-1.5-1.4c3.3-1.5,3.5-3.4,3.5-4.7H27v-1.7h4.4V145.4z"/>
	<path fill="#FFFFFF" d="M47.2,149.2c-0.8,0.1-1.8,0.1-3.8,1.1c-2,0.9-2.8,1.9-2.8,2.5c0,0.8,1.2,1,2.7,1c1.3,0,3-0.3,3.9-0.7
		c-0.1,0.5-0.2,1-0.1,2c-1.5,0.3-3.2,0.3-3.9,0.3c-2,0-2.8-0.3-3.3-0.6c-0.7-0.4-1.2-1.1-1.2-2c0-1.6,1.3-2.5,2.4-3.2
		c-0.6-0.6-0.7-1.2-0.8-2.7c-0.1-0.5-0.1-0.7-0.3-1.2l2.2-0.5c0,0.6-0.1,0.8-0.1,1.2c0,1.4,0.4,2.3,0.5,2.4c1.8-0.8,2.6-1.1,4-1.6
		L47.2,149.2z"/>
	<path fill="#FFFFFF" d="M52.2,155.6h-1.7v-5c-0.1,0.1-0.1,0.2-0.2,0.2c-0.3-0.4-0.7-0.8-1.3-1.1c0.5-0.6,1.1-1.2,1.7-2.7
		c0.5-1.1,0.6-1.7,0.7-2l1.6,0.5c0.1,0,0.2,0.1,0.2,0.2c0,0.1-0.2,0.2-0.3,0.2c-0.4,1.1-0.5,1.5-0.8,2.2c0.2,0,0.3,0.1,0.3,0.2
		c0,0.1-0.1,0.1-0.2,0.2V155.6z M57.1,147.3h2.6v5.7h-1.7v-0.4h-0.9v3.1h-1.7v-3.1h-0.9v0.4h-1.7v-5.7h2.6v-2.1l1.7,0.1
		c0.1,0,0.3,0,0.3,0.1c0,0.1-0.1,0.2-0.3,0.2V147.3z M55.4,148.8h-0.9v2.3h0.9V148.8z M57.1,151.1h0.9v-2.3h-0.9V151.1z"/>
	<path fill="#FFFFFF" d="M66.9,145.4v4h-3.1v6.3h-1.6v-10.3H66.9z M65.4,146.4h-1.5v0.5h1.5V146.4z M63.9,148.3h1.5v-0.5h-1.5V148.3
		z M66.3,154.4v0.4h-1.5v-4.8h4.9v4.1c0.3,0,0.5,0.1,0.6,0.1c0.3,0,0.3-0.1,0.3-0.4v-4.3h-3.2v-4h4.7v8.9c0,1.2-0.4,1.4-2.1,1.5
		c0-0.3-0.1-0.8-0.4-1.3H66.3z M68.3,151.1h-2v0.5h2V151.1z M66.3,153.2h2v-0.5h-2V153.2z M70.6,146.4h-1.5v0.5h1.5V146.4z
		 M69.1,148.3h1.5v-0.5h-1.5V148.3z"/>
	<path fill="#FFFFFF" d="M83.4,149.2c-0.8,0.1-1.8,0.1-3.8,1.1c-2,0.9-2.8,1.9-2.8,2.5c0,0.8,1.2,1,2.7,1c1.3,0,3-0.3,3.9-0.7
		c-0.1,0.5-0.2,1-0.1,2c-1.5,0.3-3.2,0.3-3.9,0.3c-2,0-2.8-0.3-3.3-0.6c-0.7-0.4-1.2-1.1-1.2-2c0-1.6,1.3-2.5,2.4-3.2
		c-0.6-0.6-0.7-1.2-0.8-2.7c-0.1-0.5-0.1-0.7-0.3-1.2l2.2-0.5c0,0.6-0.1,0.8-0.1,1.2c0,1.4,0.4,2.3,0.5,2.4c1.8-0.8,2.6-1.1,4-1.6
		L83.4,149.2z"/>
	<path fill="#FFFFFF" d="M88.3,155.5c-0.5-0.6-1.2-1.3-2.3-2l1.1-1.2c1.2,0.7,2.1,1.6,2.5,1.9L88.3,155.5z"/>
	<path fill="#FFFFFF" d="M100.7,145.2c0.1,0,0.2,0,0.2,0.1c0,0.1-0.1,0.1-0.2,0.2c-0.1,0.1-0.1,0.2-0.2,0.4h3.8l0.6,0.6
		c-0.8,1.4-2.1,2.6-2.4,2.8c0.7,0.5,2.4,1.4,4.3,1.8c-0.1,0.2-0.6,1.1-0.9,1.6c-1.3-0.4-3.2-1.4-4.6-2.4c-1.9,1.4-4.1,2.1-4.7,2.3
		c-0.1-0.3-0.5-0.9-1-1.4c1.2-0.1,3.3-0.9,4.5-1.8c-0.4-0.4-0.7-0.7-1.1-1.2c-0.7,0.9-1.2,1.3-1.6,1.7c-0.4-0.4-1-0.8-1.3-1
		c1.8-1.4,2.8-3.4,2.9-3.9L100.7,145.2z M98.5,152.6c3.8,0.8,5.4,1.8,5.9,2.1c-0.4,0.4-0.8,1-1,1.3c-1-0.7-4.2-1.8-5.7-2L98.5,152.6
		z M100.7,150.8c0.7,0.3,2,1,2.4,1.3c-0.3,0.3-0.6,0.5-1,1.1c-0.5-0.4-1.9-1.1-2.3-1.3L100.7,150.8z M100.4,147.4
		c0.2,0.2,0.4,0.5,0.9,1c0.7-0.6,0.8-0.8,0.9-1H100.4z"/>
	<path fill="#FFFFFF" d="M114.3,145.4c0.1,0,0.2,0,0.2,0.2c0,0.2-0.2,0.2-0.3,0.2l-0.3,0.6c0.3,0,1.4-0.2,2.4-0.5v1.7
		c-1.7,0.3-1.9,0.3-3.3,0.5c-0.1,0.2-0.2,0.3-0.4,0.8c0.4-0.2,0.9-0.2,1-0.2c0.6,0,1.3,0.3,1.7,1c1.7-0.8,1.9-0.9,2.3-1.1l0.7,1.8
		c-1.3,0.4-1.9,0.6-2.6,0.9c0,0.3,0,0.7,0,1c0,0.5,0,0.8,0,1.1c-0.4,0-0.8,0-1.1,0c-0.4,0-0.4,0-0.7,0c0-0.4,0.1-0.6,0.1-1.3
		c-0.7,0.4-1.4,0.9-1.4,1.4c0,0.5,1.2,0.5,1.8,0.5c1.3,0,2.4-0.2,3.7-0.6c-0.1,0.6-0.2,1.3-0.2,1.8c-1,0.2-2.1,0.3-3.2,0.3
		c-0.8,0-3.7,0-3.7-2c0-1.3,1.8-2.5,3.1-3.1c-0.2-0.5-0.6-0.6-0.9-0.6c-1.2,0-2,1.3-2.6,2.3l-1.6-0.9c0.8-0.8,1.9-2.4,2.3-3.1
		c-0.6,0-1.1,0-1.6,0l0-1.7c0.4,0,1,0.1,1.8,0.1c0.3,0,0.5,0,0.7,0c0.4-0.9,0.5-1.2,0.6-1.5L114.3,145.4z"/>
	<path fill="#FFFFFF" d="M129.7,150.4h1.2v1.3h-1.2v0.9c0,0.7-0.3,1.3-1.8,1.3c0-0.4-0.3-1.1-0.5-1.4c0.1,0,0.4,0,0.5,0
		c0.3,0,0.3-0.2,0.3-0.4v-0.3H127v-1.3h1.2V150h0.1c0.1-0.1,0.2-0.2,0.2-0.3h-1.3v-0.9c-0.1,0.1-0.2,0.2-0.2,0.3
		c-0.1-0.1-0.2-0.2-0.3-0.2c-0.1,2.8-0.1,3.9-0.4,4.4c-0.2,0.4-0.5,0.7-1.6,0.7c-0.1-0.6-0.2-0.9-0.3-1.2c-0.2,0.6-0.4,0.8-0.5,0.9
		c-0.2-0.3-0.5-0.5-0.9-0.6v0.2c0,1.1,1.2,1.1,3.7,1.1c1.5,0,2.7-0.1,4.4-0.3c-0.3,0.5-0.4,1.1-0.5,1.6h-5.4c-1.7,0-2.5-0.4-3-1.1
		c-0.3,0.2-1,0.8-1.2,1c0,0.2,0,0.3-0.1,0.3c-0.1,0-0.2-0.1-0.2-0.2l-0.7-1.4c0.5-0.2,1.1-0.7,1.4-0.8v-2.3h-1.1v-1.4h2.7v2.8
		c0.8-1.3,0.8-2.5,0.7-4.5H123v-1.1c-0.1,0.1-0.7,0.7-1.1,1.1c-0.9-1.1-1.2-1.3-1.6-1.6l1-1.1c0.7,0.4,1.6,1.2,1.7,1.4v0h1.2v-1.3
		l1.6,0c0.1,0,0.2,0,0.2,0.1c0,0.1,0,0.1-0.2,0.3v0.9h0.9v0.7c0.2-0.3,0.6-1.1,0.9-2.1l1.3,0.4c0.2,0.1,0.2,0.1,0.2,0.2
		c0,0.1-0.2,0.2-0.3,0.2c0,0.1-0.1,0.3-0.1,0.4h2.2v1.4H128c0,0.1-0.2,0.3-0.4,0.7h2.7l0.5,0.6C130.4,149.5,130,150,129.7,150.4
		L129.7,150.4z M125.1,150c-0.1,1-0.4,2-0.6,2.5c0.1,0,0.3,0.1,0.4,0.1c0.3,0,0.5-0.1,0.5-0.4c0.1-0.3,0.1-1.2,0.1-2.1H125.1z
		 M126.5,148.6c-0.3-0.2-0.4-0.2-0.6-0.3c0.1-0.2,0.2-0.2,0.4-0.4h-1.1c0,0.2,0,0.6,0,0.7H126.5z"/>
	<path fill="#FFFFFF" d="M135.8,145.9c0.2,0.1,0.3,0.1,0.3,0.2c0,0.1-0.2,0.2-0.3,0.2c-1,2.3-1,4.5-1,4.7c0,0.6,0.1,0.9,0.1,1.2
		c0.2-0.3,0.4-0.7,0.5-0.8c0.4,0.4,0.6,0.6,0.9,0.8c-0.6,1-0.9,1.7-1.1,2.9l-1.5,0.2c-0.5-1.3-0.6-2.8-0.6-4.2c0-2,0.4-4.2,0.9-5.8
		L135.8,145.9z M143,149.5c-1.1,0.3-1.5,0.4-2.2,0.5c0.1,1.1,0.1,1.2,0.1,1.6c0.9,0.3,2,0.8,2.5,1.3c-0.2,0.3-0.8,1.2-0.9,1.5
		c-0.3-0.3-1-0.8-1.5-1c0,1.5-1.2,1.7-2,1.7c-1.3,0-2.7-0.6-2.7-1.8c0-0.5,0.2-1.8,2.8-1.9c0-0.2,0-0.3-0.1-1.1
		c-0.7,0.1-1.3,0.1-1.4,0.1c-0.3,0-0.6,0-0.8,0v-1.8c0.4,0.1,0.8,0.1,1.6,0.1c0.3,0,0.4,0,0.6,0c0-0.4,0-0.5,0-0.9
		c-1.1,0.1-1.6,0.1-2,0v-1.6c0.5,0,0.7,0,0.9,0c0.9,0,2.5-0.1,3.3-0.4v1.6c-0.2,0-0.3,0.1-0.5,0.1c0,0.4,0,0.5-0.1,0.8
		c1-0.2,1.4-0.3,2.1-0.6L143,149.5z M138.9,152.9c-0.1,0-0.9,0-0.9,0.5c0,0.4,0.6,0.4,0.7,0.4c0.6,0,0.6-0.3,0.6-0.5
		c0-0.1,0-0.2,0-0.3C139.2,152.9,139,152.9,138.9,152.9 M142.2,145.8c0.3,0.2,0.8,0.7,0.9,1c-0.1,0.1-0.5,0.5-0.7,0.7
		c-0.5-0.6-0.6-0.7-0.9-1L142.2,145.8z M142.8,144.8c0.3,0.2,0.8,0.7,0.9,0.9c-0.1,0.1-0.6,0.6-0.7,0.7c-0.4-0.4-0.6-0.7-0.9-0.9
		L142.8,144.8z"/>
	<path fill="#FFFFFF" d="M145.4,149c0.5,0,0.7-0.1,2.5-0.8c0.7-0.3,1.9-0.7,3.2-0.7c1.7,0,3.1,1.1,3.1,3.2c0,3.5-3.9,4.9-5.5,5.2
		c-0.2-0.4-0.7-1.1-1.2-1.6c4.3-0.8,4.8-2.8,4.8-3.5c0-0.9-0.6-1.6-1.6-1.6c-1,0-2.9,0.7-4.5,2.1L145.4,149z M147.9,144.9
		c0.6,0.2,1.7,0.6,3.4,0.6c0.4,0,0.6,0,0.8,0c-0.1,0.6-0.2,1.3-0.2,1.9c-2.5,0-3.7-0.4-4.3-0.6L147.9,144.9z"/>
	<path fill="#FFFFFF" d="M160.3,153.8c0,0.9-0.7,1.6-1.6,1.6c-0.9,0-1.6-0.7-1.6-1.6c0-0.9,0.7-1.6,1.6-1.6
		C159.5,152.2,160.3,153,160.3,153.8 M157.7,153.8c0,0.5,0.4,0.9,0.9,0.9c0.5,0,0.9-0.4,0.9-0.9c0-0.5-0.4-0.9-0.9-0.9
		C158.1,152.9,157.7,153.3,157.7,153.8"/>
</g>
</svg>
